<svg width="109" height="185" viewBox="0 0 109 185" fill="none" xmlns="http://www.w3.org/2000/svg">
<ellipse cx="54" cy="52" rx="44" ry="45" fill="#D9D9D9"/>
<path d="M41.4226 93.3135L23.1426 180.173L40.4026 163.133L53.0026 183.983L55.4126 93.3135H41.4226Z" fill="url(#paint0_radial_25_26630)"/>
<path d="M23.1426 180.174L40.4026 163.174L53.0026 184.014L54.1726 139.914C47.5262 136.559 40.2932 134.521 32.8726 133.914L23.1426 180.174Z" fill="url(#paint1_radial_25_26630)"/>
<path d="M51.7634 96.9128L49.7634 171.793L43.4434 161.303L42.1034 159.093L41.1034 157.443L39.7334 158.793L37.8934 160.603L29.0434 169.333L44.3134 96.9128H51.7634ZM53.3234 95.3928H43.0734L26.5234 173.983L38.9734 161.693L40.8134 159.913L42.1434 162.123L51.1434 177.023L53.3134 95.3828L53.3234 95.3928Z" fill="url(#paint2_radial_25_26630)"/>
<g style="mix-blend-mode:multiply" opacity="0.28">
<path d="M53.9535 147.914V148.094L55.4435 93.3242H41.4435L38.5635 106.914C43.8835 104.404 52.9835 108.134 53.9535 147.914Z" fill="#002C5B"/>
</g>
<path d="M35.4427 124.014C35.4427 124.014 29.0727 155.074 27.3027 164.414C30.8225 151.122 33.5407 137.631 35.4427 124.014Z" fill="url(#paint3_radial_25_26630)"/>
<path d="M51.3535 95.5242C51.3535 95.5242 55.2435 170.264 55.4435 184.664C55.4435 184.664 64.4435 169.754 70.3635 160.264C70.3635 160.264 87.3635 176.704 90.5335 182.464L68.4435 93.3242L51.3535 95.5242Z" fill="url(#paint4_radial_25_26630)"/>
<path d="M53.3027 134.293C53.6727 141.913 54.1427 152.003 54.4627 159.123C56.7427 153.883 60.0627 150.583 66.3627 149.123C76.0827 146.873 83.7227 155.033 83.7227 155.033L77.4427 129.543C70.7127 128.533 60.0827 130.973 53.3027 134.293Z" fill="url(#paint5_radial_25_26630)"/>
<path d="M65.4435 97.8128L82.4435 166.633C78.1435 162.153 74.1535 158.263 73.2135 157.343L70.9535 155.153L69.6035 153.843L68.6035 155.433L66.9335 158.103C64.8735 161.393 62.2335 165.663 59.0735 170.853C58.1835 148.723 56.2135 110.083 55.6535 99.0728L65.4435 97.8128ZM66.6035 96.1328L54.0635 97.7428C54.6335 108.653 56.9735 154.583 57.7535 175.963C60.8635 170.853 65.0135 164.053 68.2335 158.913L69.9035 156.243L72.1535 158.433C73.2135 159.513 79.7535 165.913 85.2835 171.913L66.5535 96.1328H66.6035Z" fill="url(#paint6_radial_25_26630)"/>
<g style="mix-blend-mode:multiply">
<path opacity="0.28" d="M63.9132 107.914C66.9054 107.571 69.9283 108.203 72.5332 109.714L68.4432 93.3242L51.3232 95.5242C51.3232 95.5242 51.9032 106.524 52.6132 120.974C53.6932 111.704 57.5732 108.574 63.9132 107.914Z" fill="#002C5B"/>
</g>
<path d="M32.4437 4.9728C30.5337 9.4928 38.1037 21.7528 38.1037 21.7528C38.1037 21.7528 38.6237 21.8428 39.4237 21.9228C38.7837 18.2428 37.4237 11.2028 36.0937 7.7828C34.3037 3.2428 32.6237 4.8128 32.4437 4.9728Z" fill="#0E112D"/>
<path d="M48.2127 1.17373C44.3527 0.0437342 35.1027 1.60373 32.8627 4.29373C32.7 4.50006 32.5686 4.72918 32.4727 4.97373C32.6227 4.81373 34.3027 3.24373 36.1227 7.78373C37.4427 11.2037 38.8127 18.2437 39.4427 21.9137C41.9027 22.1837 47.0827 22.4637 48.1627 20.3237C49.6127 17.4937 52.0827 2.29373 48.2127 1.17373Z" fill="url(#paint7_radial_25_26630)"/>
<path d="M36.0439 3.9132C36.5764 3.54986 37.1463 3.24478 37.7439 3.0032C39.6847 2.35096 41.7012 1.95101 43.7439 1.8132C45.3539 1.6532 47.4039 1.3532 48.7439 2.6332C49.2647 3.30386 49.5369 4.13437 49.5139 4.9832C49.6339 7.4932 48.7839 12.0632 47.3139 9.2632C45.8439 6.4632 43.2339 4.5632 41.1039 6.4032C38.9739 8.2432 39.1039 12.2032 37.9539 8.9732C36.7539 5.5532 34.9639 4.6332 36.0439 3.9132Z" fill="url(#paint8_radial_25_26630)"/>
<g style="mix-blend-mode:multiply">
<path d="M45.6039 15.2338C45.9439 13.2338 45.8739 9.5438 43.8539 8.3538C42.9239 7.8038 41.8539 9.1738 41.6439 9.8538C40.9139 11.8538 41.6439 14.3838 42.0939 16.3338C42.4303 17.7117 42.8511 19.0676 43.3539 20.3938C43.3539 20.3938 43.6839 20.2138 43.6739 20.1838C43.0773 18.6032 42.5928 16.9825 42.2239 15.3338C41.7739 13.4138 40.9039 9.8238 42.8439 8.4138L42.5339 8.6238C45.2739 7.1838 45.5339 14.1938 45.2839 15.4438C45.2839 15.3638 45.5839 15.3238 45.6039 15.2338Z" fill="#0076BE"/>
</g>
<g style="mix-blend-mode:multiply" opacity="0.51">
<path d="M40.9338 13.9842C40.9338 14.3242 42.3038 17.1542 40.2738 17.5042C39.1838 17.7042 38.6238 16.8842 38.3438 16.0942C38.8038 18.2842 39.1837 20.3942 39.4537 21.9242C41.9137 22.1942 47.0937 22.4742 48.1737 20.3342C49.0437 18.6242 50.2737 12.4642 50.2837 7.57422C50.1554 9.55831 49.786 11.5194 49.1838 13.4142C48.1838 16.3342 46.1837 17.5342 46.2637 13.4142C46.2637 11.8242 45.2638 6.62422 41.9338 8.24422C41.6278 8.47511 41.3923 8.78679 41.2537 9.14422C40.5437 10.5142 40.7538 12.4942 40.9338 13.9842Z" fill="#0061A0"/>
</g>
<path d="M17.9131 14.3032C17.9831 19.2032 29.8331 27.4132 29.8331 27.4132C29.8331 27.4132 30.3331 27.2832 31.1031 27.0432C29.0431 23.9232 25.0031 18.0432 22.3831 15.4132C18.9031 11.9832 17.9931 14.1032 17.9131 14.3032Z" fill="#00053E"/>
<path d="M30.8128 4.51327C26.8128 5.02327 18.9728 10.1733 18.0028 13.5133C17.9372 13.7679 17.907 14.0304 17.9128 14.2933C17.9928 14.0933 18.9128 11.9733 22.3828 15.4033C25.0028 17.9933 29.0428 23.9133 31.1028 27.0333C33.4728 26.2833 38.3228 24.4633 38.4628 22.0333C38.6328 18.9133 34.8028 3.99327 30.8128 4.51327Z" fill="url(#paint9_radial_25_26630)"/>
<path d="M20.7734 11.9133C21.1164 11.3641 21.5188 10.8544 21.9734 10.3933C23.4868 9.01897 25.1666 7.83978 26.9734 6.88332C28.3834 6.09332 30.1434 5.00332 31.8534 5.64332C32.6198 6.0476 33.2185 6.71002 33.5434 7.51332C34.6634 9.76332 35.7134 14.3033 33.2434 12.3233C30.7734 10.3433 27.6234 9.65332 26.4034 12.1933C25.1834 14.7333 26.8734 18.3233 24.5534 15.8133C22.0734 13.1233 20.0634 12.9933 20.7734 11.9133Z" fill="url(#paint10_radial_25_26630)"/>
<g style="mix-blend-mode:multiply">
<path d="M34.0634 18.4433C33.5734 16.4433 32.0634 13.1233 29.7034 12.8333C28.6234 12.7033 28.2234 14.3733 28.2634 15.1033C28.3934 17.1933 30.0534 19.2633 31.2634 20.8533C32.1249 21.9781 33.0533 23.0501 34.0434 24.0633C34.0434 24.0633 34.2734 23.7633 34.2534 23.7433C33.0831 22.5432 31.9971 21.2634 31.0034 19.9133C29.8234 18.3333 27.5834 15.3933 28.7934 13.3233L28.5934 13.6333C30.5334 11.2233 33.5934 17.5533 33.8534 18.7833C33.8534 18.7033 34.0834 18.5533 34.0634 18.4633V18.4433Z" fill="#0076BE"/>
</g>
<g style="mix-blend-mode:multiply" opacity="0.51">
<path d="M29.2733 19.1737C29.4433 19.4637 31.8033 21.5237 30.0933 22.6637C29.7082 22.8931 29.2498 22.966 28.8126 22.8674C28.3753 22.7688 27.9926 22.5062 27.7433 22.1337C29.0433 23.9637 30.2433 25.7437 31.1033 27.0437C33.4733 26.2937 38.3233 24.4737 38.4633 22.0437C38.5633 20.1337 37.2233 14.0437 35.2733 9.51367C35.9504 11.3824 36.397 13.3268 36.6033 15.3037C36.8933 18.3737 35.5433 20.3037 33.9133 16.4437C33.2933 14.9737 30.2533 10.6337 27.9133 13.4437C27.721 13.7738 27.6273 14.152 27.6433 14.5337C27.5333 16.1437 28.5133 17.9137 29.2733 19.1737Z" fill="#0061A0"/>
</g>
<path d="M7.44336 29.544C9.28336 34.084 23.3034 37.434 23.3034 37.434C23.3034 37.434 23.7234 37.124 24.3534 36.624C21.3334 34.464 15.4434 30.414 12.0334 28.914C7.54336 27.024 7.44336 29.324 7.44336 29.544Z" fill="#00053E"/>
<path d="M15.9329 15.7337C12.4029 17.6737 6.93294 25.3037 7.27294 28.7337C7.30056 28.9957 7.368 29.252 7.47293 29.4937C7.47293 29.2737 7.54294 26.9737 12.0329 28.9037C15.4229 30.3637 21.3329 34.4137 24.3829 36.5737C26.3129 35.0237 30.1829 31.5737 29.4329 29.2837C28.4429 26.3037 19.4429 13.8037 15.9329 15.7337Z" fill="url(#paint11_radial_25_26630)"/>
<path d="M9.28367 26.3038C9.40144 25.6684 9.58925 25.0479 9.84366 24.4538C10.7637 22.6139 11.9165 20.8998 13.2737 19.3538C14.2737 18.1138 15.5437 16.4538 17.3637 16.4238C18.2092 16.5324 18.9906 16.9319 19.5737 17.5538C21.4337 19.2338 24.0637 23.0738 21.0337 22.1338C18.0037 21.1938 14.8337 21.6838 14.6137 24.4938C14.3937 27.3038 17.2737 30.0338 14.2037 28.4938C10.9137 26.9138 8.99367 27.5438 9.28367 26.3038Z" fill="url(#paint12_radial_25_26630)"/>
<g style="mix-blend-mode:multiply">
<path d="M24.0127 27.5439C22.8527 25.9139 20.1927 23.3239 17.9227 23.9139C16.8727 24.1739 17.1027 25.9139 17.4027 26.5339C18.2827 28.4439 20.5827 29.7739 22.3027 30.8139C23.5148 31.5553 24.7704 32.2232 26.0627 32.8139C26.0627 32.8139 26.1627 32.4539 26.1327 32.4439C24.6019 31.7378 23.1188 30.9328 21.6927 30.0339C20.0227 28.9839 16.8627 27.0339 17.2427 24.6939C17.2427 24.8139 17.1927 24.9339 17.1727 25.0539C18.1027 22.1039 23.1727 26.9039 23.9327 27.9439C23.9327 27.8739 24.0627 27.6439 24.0127 27.5739V27.5439Z" fill="#0076BE"/>
</g>
<g style="mix-blend-mode:multiply" opacity="0.51">
<path d="M19.8234 29.9135C20.0834 30.1235 23.0334 31.1835 21.8234 32.9135C21.5499 33.2659 21.1514 33.4997 20.7103 33.5667C20.2693 33.6337 19.8193 33.5287 19.4534 33.2735C21.3234 34.5035 23.0934 35.7235 24.3634 36.6235C26.2934 35.0735 30.1634 31.6235 29.4134 29.3335C28.8234 27.5135 25.3534 22.3335 21.9034 18.8135C23.2069 20.3088 24.328 21.9537 25.2434 23.7135C26.6234 26.4735 26.0534 28.7135 23.1534 25.7135C22.0334 24.5735 17.6234 21.6335 16.4334 25.1135C16.3767 25.4902 16.4287 25.8753 16.5834 26.2235C17.1034 27.7635 18.6434 29.0135 19.8234 29.9135Z" fill="#0061A0"/>
</g>
<path d="M2.8235 47.7236C6.2535 51.2236 20.4935 48.9936 20.4935 48.9936C20.4935 48.9936 20.7735 48.5536 21.1635 47.8436C17.5135 47.0136 10.5135 45.5136 6.8235 45.4436C1.9335 45.3636 2.7435 47.5236 2.8235 47.7236Z" fill="#00053E"/>
<path d="M5.44348 31.7332C2.87348 34.9132 0.743475 44.0032 2.35348 47.0932C2.47718 47.3259 2.63567 47.5384 2.82348 47.7232C2.74348 47.5232 1.93348 45.3632 6.82348 45.4432C10.5135 45.5132 17.5135 47.0132 21.1635 47.8432C22.3635 45.6732 24.6235 41.0132 23.0635 39.1832C21.0035 36.7532 7.94348 28.6032 5.44348 31.7332Z" fill="url(#paint13_radial_25_26630)"/>
<path d="M3.26367 44.0334C3.14178 43.4009 3.08481 42.7575 3.09367 42.1134C3.24431 40.0689 3.65771 38.0523 4.32367 36.1134C4.79367 34.5734 5.32367 32.5634 6.99367 31.8434C7.81673 31.6281 8.68876 31.7023 9.46367 32.0534C11.8237 32.9034 15.7137 35.4534 12.5537 35.7334C9.39367 36.0134 6.65367 37.7334 7.55367 40.3534C8.45367 42.9734 12.1237 44.4734 8.71367 44.2534C5.02367 44.0034 3.44367 45.2934 3.26367 44.0334Z" fill="url(#paint14_radial_25_26630)"/>
<g style="mix-blend-mode:multiply">
<path d="M17.3734 39.5833C15.6734 38.5033 12.2234 37.1333 10.3734 38.5333C9.50338 39.1733 10.3734 40.6633 10.9034 41.1533C12.4434 42.5833 15.0334 42.9133 17.0234 43.2433C18.4238 43.4655 19.8364 43.6024 21.2534 43.6533C21.2534 43.6533 21.2534 43.2833 21.1834 43.2833C19.5067 43.2125 17.8365 43.0321 16.1834 42.7433C14.2434 42.4133 10.5834 41.8233 10.0434 39.4933C10.0434 39.6133 10.0934 39.7333 10.1134 39.8633C9.85338 36.7733 16.3934 39.2733 17.4734 39.9533C17.3934 39.9533 17.4734 39.6333 17.4034 39.5833H17.3734Z" fill="#0076BE"/>
</g>
<g style="mix-blend-mode:multiply" opacity="0.51">
<path d="M14.4429 43.404C14.7729 43.504 17.8929 43.404 17.4429 45.404C17.2029 46.484 16.2329 46.684 15.3829 46.644C17.5829 47.064 19.6829 47.524 21.2029 47.874C22.4029 45.704 24.6629 41.044 23.1029 39.214C21.8629 37.754 16.6629 34.214 12.1529 32.334C13.9434 33.2218 15.6219 34.3195 17.1529 35.604C19.4729 37.604 19.8029 39.944 15.9829 38.284C14.5229 37.654 9.32291 36.614 9.54291 40.284C9.63849 40.6629 9.83555 41.0087 10.1129 41.284C11.0629 42.424 12.9629 42.994 14.4429 43.404Z" fill="#0061A0"/>
</g>
<path d="M3.29327 64.4129C7.66327 66.6429 20.4433 60.0129 20.4433 60.0129C20.4433 60.0129 20.5733 59.5029 20.7133 58.7129C16.9933 59.0729 9.87327 59.8729 6.35327 60.9829C1.70327 62.4529 3.15327 64.2429 3.29327 64.4129Z" fill="#00053E"/>
<path d="M0.673236 48.4339C-0.736764 52.2039 0.133235 61.5439 2.67324 63.9639C2.86557 64.1417 3.08081 64.293 3.31324 64.4139C3.17324 64.2439 1.72324 62.4139 6.38324 60.9839C9.88324 59.9139 17.0032 59.0739 20.7232 58.7139C21.1732 56.2739 21.8432 51.1339 19.7832 49.8839C17.0532 48.2439 2.08324 44.6539 0.673236 48.4339Z" fill="url(#paint15_radial_25_26630)"/>
<path d="M2.54342 60.773C2.22198 60.2168 1.96371 59.6265 1.77342 59.013C1.26551 57.0197 1.01348 54.9699 1.02342 52.913C1.02342 51.303 0.84342 49.233 2.21342 48.023C2.92148 47.5555 3.76933 47.3471 4.61342 47.433C7.12342 47.493 11.6134 48.683 8.71342 49.943C5.81342 51.203 3.71342 53.663 5.40342 55.943C7.09342 58.223 11.0434 58.403 7.73342 59.273C4.20342 60.183 3.14342 61.913 2.54342 60.773Z" fill="url(#paint16_radial_25_26630)"/>
<g style="mix-blend-mode:multiply">
<path d="M14.5137 52.0735C12.5137 51.5935 8.85368 51.3935 7.51368 53.3035C6.89368 54.1935 8.18368 55.3035 8.84368 55.6335C10.7537 56.5035 13.3637 56.0035 15.3437 55.6335C16.7427 55.3846 18.1253 55.0506 19.4837 54.6335C19.4837 54.6335 19.3237 54.2935 19.2937 54.3035C17.6734 54.7777 16.023 55.1418 14.3537 55.3935C12.4137 55.6935 8.76368 56.2935 7.50368 54.2535L7.68368 54.5835C6.45368 51.7335 13.4637 52.0335 14.6837 52.3435C14.6037 52.3435 14.5837 52.0335 14.5037 52.0035L14.5137 52.0735Z" fill="#0076BE"/>
</g>
<g style="mix-blend-mode:multiply" opacity="0.51">
<path d="M12.9134 56.6428C13.2534 56.6428 16.1734 55.5128 16.3734 57.5528C16.4934 58.6628 15.6334 59.1628 14.8234 59.3828C17.0434 59.0928 19.1734 58.8628 20.7234 58.7128C21.1734 56.2728 21.8434 51.1328 19.7834 49.8828C18.1434 48.8828 12.0934 47.2128 7.21337 46.8828C9.18197 47.1566 11.1096 47.6705 12.9534 48.4128C15.8034 49.5928 16.8434 51.6828 12.7034 51.3228C11.1134 51.1828 5.85336 51.8428 7.22336 55.2528C7.42721 55.5744 7.71863 55.8311 8.06336 55.9928C9.44336 56.7728 11.4434 56.7028 12.9134 56.6428Z" fill="#0061A0"/>
</g>
<path d="M10.7633 81.413C15.6433 81.913 25.2333 71.183 25.2333 71.183C25.2333 71.183 25.1633 70.663 25.0133 69.873C21.6733 71.533 15.3033 74.873 12.4133 77.113C8.58325 80.153 10.5733 81.313 10.7633 81.413Z" fill="#00053E"/>
<path d="M2.62309 67.4134C2.62309 71.4134 6.79309 79.8534 10.0131 81.2234C10.2525 81.3228 10.5052 81.3868 10.7631 81.4134C10.5731 81.3134 8.58309 80.1534 12.4131 77.1134C15.3031 74.8234 21.6731 71.5334 25.0131 69.8734C24.5631 67.4334 23.3531 62.3934 21.0131 61.9634C17.8531 61.4034 2.59309 63.3834 2.62309 67.4134Z" fill="url(#paint17_radial_25_26630)"/>
<path d="M8.773 78.2836C8.28369 77.8739 7.83799 77.4148 7.443 76.9136C6.25697 75.2308 5.29238 73.4025 4.573 71.4736C3.963 69.9736 3.083 68.1036 3.933 66.4736C4.4193 65.7892 5.12501 65.2917 5.933 65.0636C8.303 64.2236 12.933 63.7236 10.663 65.9436C8.393 68.1636 7.333 71.1936 9.663 72.7136C11.993 74.2336 15.803 72.9936 13.033 74.9936C10.103 77.1436 9.723 79.1236 8.773 78.2836Z" fill="url(#paint18_radial_25_26630)"/>
<g style="mix-blend-mode:multiply">
<path d="M16.843 65.9129C14.843 66.1529 11.313 67.2829 10.743 69.5529C10.483 70.5529 12.093 71.2029 12.823 71.2529C14.913 71.3829 17.173 69.9829 18.903 68.9629C20.1291 68.2368 21.3112 67.4387 22.443 66.5729C22.443 66.5729 22.173 66.3129 22.153 66.3229C20.8102 67.348 19.3967 68.277 17.923 69.1029C16.213 70.1029 13.023 71.9429 11.123 70.4929L11.403 70.7329C9.24296 68.5129 15.893 66.2929 17.153 66.1329C17.073 66.1329 16.953 65.8829 16.863 65.8929L16.843 65.9129Z" fill="#0076BE"/>
</g>
<g style="mix-blend-mode:multiply" opacity="0.51">
<path d="M16.9834 70.724C17.2934 70.594 19.6234 68.504 20.5434 70.344C20.7227 70.7518 20.7398 71.2126 20.5911 71.6325C20.4425 72.0525 20.1393 72.3999 19.7434 72.604C21.7434 71.534 23.6234 70.604 25.0134 69.874C24.5634 67.434 23.3534 62.394 21.0134 61.964C19.1334 61.624 12.8834 62.204 8.19336 63.604C10.1279 63.1608 12.1089 62.9526 14.0934 62.984C17.1834 63.074 18.9034 64.644 14.9034 65.794C13.3634 66.234 8.69336 68.724 11.1934 71.424C11.5014 71.6471 11.8644 71.782 12.2434 71.814C13.7634 72.084 15.5934 71.324 16.9834 70.724Z" fill="#0061A0"/>
</g>
<path d="M23.8731 94.7439C28.5531 93.3039 33.1031 79.6239 33.1031 79.6239C33.1031 79.6239 32.8331 79.1739 32.3831 78.5039C29.9731 81.3639 25.3831 86.9039 23.6831 90.1539C21.3631 94.4539 23.6531 94.7339 23.8731 94.7439Z" fill="#00053E"/>
<path d="M10.8431 85.1237C12.4431 88.8137 19.6031 94.9137 23.1031 94.9137C23.3647 94.9086 23.6242 94.8648 23.8731 94.7837C23.6531 94.7837 21.3631 94.4937 23.6831 90.1937C25.4431 86.9137 29.9731 81.3637 32.3831 78.5037C31.0031 76.4437 27.9031 72.2937 25.5531 72.8437C22.4431 73.5637 9.22305 81.4337 10.8431 85.1237Z" fill="url(#paint19_radial_25_26630)"/>
<path d="M20.8032 92.6635C20.181 92.4792 19.5808 92.2277 19.0132 91.9135C17.258 90.837 15.6481 89.5398 14.2232 88.0535C13.0732 86.9235 11.5231 85.5435 11.6631 83.7235C11.8409 82.8943 12.3002 82.1523 12.9632 81.6235C14.8132 79.9135 18.8631 77.6235 17.6631 80.5635C16.4631 83.5035 16.6632 86.7035 19.4532 87.1635C22.2432 87.6235 25.2132 84.9835 23.4532 87.9235C21.5732 91.0835 22.0032 93.0535 20.8032 92.6635Z" fill="url(#paint20_radial_25_26630)"/>
<g style="mix-blend-mode:multiply">
<path d="M23.3032 78.0837C21.5732 79.0837 18.7732 81.5337 19.1532 83.8437C19.3232 84.9137 21.0432 84.8437 21.7232 84.5837C23.7232 83.8737 25.2232 81.7037 26.4032 80.0837C27.2392 78.9364 28.0072 77.741 28.7032 76.5037C28.7032 76.5037 28.3532 76.3737 28.3332 76.3937C27.505 77.866 26.5761 79.2794 25.5532 80.6237C24.3732 82.1937 22.1732 85.1737 19.8532 84.6237L20.2132 84.7337C17.3432 83.5537 22.5732 78.8837 23.6732 78.2337C23.5932 78.2337 23.3832 78.0837 23.3032 78.1237V78.0837Z" fill="#0076BE"/>
</g>
<g style="mix-blend-mode:multiply" opacity="0.51">
<path d="M25.3438 82.4737C25.5738 82.2337 26.8938 79.3937 28.4638 80.7137C28.7915 81.0158 28.9908 81.4321 29.0205 81.8768C29.0503 82.3214 28.9083 82.7606 28.6238 83.1037C30.0138 81.3537 31.3838 79.6937 32.3838 78.5037C31.0038 76.4437 27.9038 72.2937 25.5538 72.8437C23.6938 73.2837 18.1838 76.2937 14.4238 79.4237C16.0319 78.2563 17.7703 77.2797 19.6038 76.5137C22.4738 75.3837 24.6738 76.1437 21.4538 78.7837C20.2238 79.7837 16.9138 83.9337 20.2738 85.4137C20.6395 85.5203 21.0281 85.5203 21.3938 85.4137C22.9338 84.9937 24.3138 83.5737 25.3438 82.4737Z" fill="#0061A0"/>
</g>
<path d="M39.6234 102.704C43.6234 99.8338 43.5134 85.4238 43.5134 85.4238C43.5134 85.4238 43.1134 85.0838 42.5134 84.5938C41.1434 88.0738 38.6234 94.7837 38.0134 98.4137C37.1634 103.234 39.4434 102.764 39.6234 102.704Z" fill="#00053E"/>
<path d="M24.2035 97.7735C26.9235 100.773 35.6335 104.213 38.9435 103.073C39.1889 102.988 39.4186 102.863 39.6235 102.703C39.4135 102.763 37.1635 103.233 37.9735 98.4135C38.5835 94.7835 41.1035 88.0735 42.4735 84.5935C40.4735 83.0835 36.2335 80.1535 34.1835 81.4235C31.4435 83.1035 21.4435 94.8035 24.2035 97.7735Z" fill="url(#paint21_radial_25_26630)"/>
<path d="M36.0529 101.724C35.4075 101.757 34.7603 101.72 34.1229 101.614C32.1171 101.16 30.1779 100.451 28.3529 99.5037C26.8929 98.8037 24.9829 97.9937 24.5329 96.2237C24.4383 95.3799 24.6359 94.5293 25.0929 93.8137C26.2929 91.6037 29.3929 88.1337 29.1929 91.3037C28.9929 94.4737 30.1929 97.4237 33.0229 96.9737C35.8529 96.5237 37.7729 93.0637 37.0229 96.4037C36.2729 99.9737 37.3229 101.704 36.0529 101.724Z" fill="url(#paint22_radial_25_26630)"/>
<g style="mix-blend-mode:multiply">
<path d="M33.7428 87.1135C32.4428 88.6335 30.5528 91.8336 31.6528 93.9136C32.1628 94.9136 33.7628 94.2336 34.3328 93.7836C35.9728 92.4736 36.7128 89.9235 37.3328 88.0135C37.7458 86.6608 38.0797 85.2851 38.3328 83.8936H37.9528C37.637 85.5506 37.2093 87.1843 36.6728 88.7836C36.0528 90.6536 34.9328 94.1836 32.5428 94.3736H32.9228C29.8328 94.1736 33.2828 88.0735 34.1128 87.1135C34.0528 87.1735 33.7828 87.0535 33.7328 87.1135H33.7428Z" fill="#0076BE"/>
</g>
<g style="mix-blend-mode:multiply" opacity="0.51">
<path d="M37.0835 90.6135C37.2235 90.3035 37.5535 87.1935 39.4735 87.9435C39.8896 88.1149 40.2231 88.4409 40.4039 88.853C40.5848 89.265 40.599 89.7312 40.4435 90.1535C41.1835 88.0435 41.9535 86.0435 42.5235 84.5935C40.5235 83.0835 36.2835 80.1535 34.2335 81.4235C32.6135 82.4235 28.3635 87.0535 25.8135 91.2335C26.9613 89.6023 28.3046 88.1179 29.8135 86.8135C32.1535 84.8135 34.4935 84.8135 32.2835 88.3635C31.4435 89.7135 29.6435 94.7035 33.2835 95.0235C33.6491 94.9848 33.996 94.8426 34.2835 94.6135C35.6035 93.7735 36.4435 91.9835 37.0835 90.6135Z" fill="#0061A0"/>
</g>
<path d="M56.2029 104.354C59.3329 100.574 55.6029 86.6435 55.6029 86.6435C55.6029 86.6435 55.1329 86.4135 54.3929 86.1035C53.9429 89.8135 53.1929 96.9435 53.5229 100.614C53.9529 105.484 56.0229 104.454 56.2029 104.354Z" fill="#00053E"/>
<path d="M40.0429 103.473C43.4229 105.663 52.7329 106.823 55.6329 104.883C55.8505 104.738 56.043 104.559 56.2029 104.353C56.0229 104.453 53.9529 105.483 53.5229 100.613C53.1929 96.9429 53.9429 89.8129 54.3929 86.1029C52.1029 85.1029 47.2329 83.3829 45.5729 85.1029C43.3829 87.4429 36.6529 101.283 40.0429 103.473Z" fill="url(#paint23_radial_25_26630)"/>
<path d="M52.5032 104.303C51.8878 104.494 51.2545 104.621 50.6132 104.683C48.5531 104.747 46.4933 104.549 44.4832 104.093C42.9032 103.783 40.8532 103.483 39.9632 101.883C39.6632 101.091 39.642 100.22 39.9032 99.4133C40.5032 96.9733 42.6332 92.8333 43.2332 95.9433C43.8332 99.0533 45.8032 101.613 48.3632 100.463C50.9232 99.3133 51.9732 95.4633 52.1232 98.9033C52.2732 102.563 53.7232 103.963 52.5032 104.303Z" fill="url(#paint24_radial_25_26630)"/>
<g style="mix-blend-mode:multiply">
<path d="M46.5739 90.7529C45.6839 92.5529 44.6939 96.1229 46.2739 97.8429C47.0039 98.6429 48.3939 97.6229 48.8339 97.0429C50.0939 95.3629 50.1639 92.7129 50.2539 90.7029C50.3389 89.2908 50.3389 87.8749 50.2539 86.4629C50.2539 86.4629 49.8839 86.5329 49.8839 86.5729C50.0015 88.2375 50.0015 89.9083 49.8839 91.5729C49.7639 93.5729 49.5739 97.2329 47.3039 98.0229L47.6639 97.9129C44.6639 98.5029 46.4239 91.7329 46.9839 90.5929C46.9839 90.6629 46.6539 90.5929 46.6139 90.7029L46.5739 90.7529Z" fill="#0076BE"/>
</g>
<g style="mix-blend-mode:multiply" opacity="0.51">
<path d="M50.6926 93.2929C50.7526 92.9629 50.2826 89.8629 52.3326 90.1029C53.4326 90.2329 53.7326 91.1729 53.7726 92.0129C53.9726 89.7829 54.2026 87.6429 54.3926 86.1029C52.1026 85.1029 47.2326 83.3829 45.5726 85.1029C44.2526 86.4829 41.3126 92.0329 39.8926 96.7129C40.5843 94.8515 41.5011 93.0817 42.6226 91.4429C44.3926 88.9129 46.6226 88.3429 45.4126 92.3129C44.9326 93.8329 44.4126 99.1129 48.0726 98.5029C48.4328 98.3745 48.7486 98.1454 48.9826 97.8429C50.0626 96.7229 50.4426 94.7729 50.6926 93.2929Z" fill="#0061A0"/>
</g>
<path d="M74.0533 100.294C75.7633 95.6935 67.6933 83.7635 67.6933 83.7635C67.6933 83.7635 67.1733 83.6936 66.3633 83.6436C67.1633 87.2936 68.7833 94.2736 70.2933 97.6436C72.2933 102.104 73.9133 100.454 74.0533 100.294Z" fill="#00053E"/>
<path d="M58.4936 104.754C62.4036 105.754 71.5736 103.754 73.6936 100.984C73.8448 100.772 73.9659 100.54 74.0536 100.294C73.9136 100.454 72.2936 102.104 70.2936 97.6442C68.7836 94.2742 67.1636 87.2942 66.3636 83.6442C63.8936 83.4842 58.7036 83.4242 57.7136 85.6442C56.4436 88.5142 54.5736 103.794 58.4936 104.754Z" fill="url(#paint25_radial_25_26630)"/>
<path d="M70.534 101.454C70.0224 101.852 69.4651 102.188 68.874 102.454C66.9459 103.197 64.9287 103.685 62.874 103.904C61.274 104.134 59.244 104.524 57.874 103.304C57.3208 102.656 57.0129 101.835 57.004 100.984C56.774 98.4837 57.424 93.8737 59.004 96.6137C60.584 99.3537 63.274 101.134 65.324 99.2137C67.374 97.2937 67.104 93.3237 68.324 96.5037C69.754 99.9137 71.584 100.744 70.534 101.454Z" fill="url(#paint26_radial_25_26630)"/>
<g style="mix-blend-mode:multiply">
<path d="M60.5038 90.5935C60.2538 92.5935 60.5038 96.2835 62.5038 97.3935C63.5038 97.9035 64.4338 96.4935 64.6538 95.8035C65.2938 93.8035 64.4938 91.2735 63.9238 89.3535C63.5341 87.9907 63.0565 86.6545 62.4938 85.3535C62.4938 85.3535 62.1738 85.5435 62.1838 85.5735C62.847 87.1231 63.4017 88.717 63.8438 90.3435C64.3638 92.2535 65.3938 95.8035 63.5138 97.2835L63.8138 97.0735C61.1338 98.6235 60.6138 91.6335 60.8138 90.3735C60.8138 90.4535 60.5138 90.5035 60.5038 90.5935Z" fill="#0076BE"/>
</g>
<g style="mix-blend-mode:multiply" opacity="0.51">
<path d="M65.2235 91.6442C65.2235 91.3142 63.7235 88.5442 65.7235 88.0942C66.8135 87.8542 67.4035 88.6542 67.7235 89.4342C67.1735 87.2642 66.7235 85.1642 66.3635 83.6442C63.8935 83.4842 58.7035 83.4242 57.7135 85.6442C56.9235 87.3842 55.9535 93.5842 56.1535 98.4742C56.1983 96.4903 56.4837 94.5192 57.0035 92.6042C57.8435 89.6042 59.7935 88.3542 59.9235 92.5142C59.9235 94.1042 61.2435 99.2542 64.4735 97.5142C64.7644 97.2675 64.9823 96.9459 65.1035 96.5842C65.7535 95.0942 65.4435 93.1342 65.2235 91.6442Z" fill="#0061A0"/>
</g>
<path d="M89.773 90.2531C89.773 85.3531 78.083 76.9531 78.083 76.9531C78.083 76.9531 77.573 77.0731 76.793 77.3031C78.793 80.4531 82.793 86.4431 85.333 89.0731C88.753 92.5531 89.703 90.4531 89.773 90.2531Z" fill="#00053E"/>
<path d="M76.7238 99.8337C80.7238 99.3837 88.6538 94.3737 89.7238 91.0237C89.8029 90.7751 89.8368 90.5143 89.8238 90.2537C89.7538 90.4537 88.8238 92.5537 85.3838 89.0737C82.8038 86.4437 78.8638 80.4537 76.8438 77.3037C74.4638 78.0137 69.5838 79.7437 69.4138 82.1437C69.1338 85.3237 72.7238 100.294 76.7238 99.8337Z" fill="url(#paint27_radial_25_26630)"/>
<path d="M86.8833 92.564C86.5356 93.1092 86.1262 93.6125 85.6633 94.064C84.1113 95.4181 82.3943 96.5706 80.5533 97.494C79.1333 98.254 77.3633 99.324 75.6633 98.654C74.9215 98.2389 74.3484 97.5774 74.0433 96.784C72.9533 94.514 71.9733 89.974 74.4233 91.984C76.8733 93.994 79.9933 94.744 81.2533 92.224C82.5133 89.704 80.8833 86.084 83.1633 88.634C85.6033 91.364 87.6133 91.534 86.8833 92.564Z" fill="url(#paint28_radial_25_26630)"/>
<g style="mix-blend-mode:multiply">
<path d="M73.7033 85.8534C74.1633 87.8534 75.6533 91.2034 77.9733 91.5234C79.0433 91.6734 79.4733 90.0134 79.4433 89.2934C79.3433 87.1934 77.7233 85.0934 76.5233 83.4834C75.6793 82.3463 74.7676 81.261 73.7933 80.2334C73.7933 80.2334 73.5633 80.5234 73.5833 80.5434C74.7393 81.771 75.8085 83.0774 76.7833 84.4534C77.9333 86.0534 80.1333 89.0334 78.8833 91.0734L79.0933 90.7634C77.0933 93.1534 74.2033 86.7634 73.9133 85.5334C73.9133 85.6134 73.6833 85.7634 73.7033 85.8534Z" fill="#0076BE"/>
</g>
<g style="mix-blend-mode:multiply" opacity="0.51">
<path d="M78.5033 85.2037C78.3333 84.9137 76.0133 82.8137 77.7433 81.7037C78.1294 81.4807 78.5865 81.4144 79.0201 81.5187C79.4536 81.6229 79.8306 81.8895 80.0733 82.2637C78.8033 80.4137 77.6333 78.6137 76.7933 77.2637C74.4133 77.9737 69.5333 79.7037 69.3633 82.1037C69.2233 84.0137 70.4633 90.1737 72.3633 94.6837C71.7156 92.8172 71.2926 90.8802 71.1033 88.9137C70.8733 85.8337 72.2533 83.9137 73.8133 87.8137C74.4133 89.2937 77.3833 93.6837 79.8133 90.9137C80.009 90.5846 80.1062 90.2063 80.0933 89.8237C80.1933 88.2537 79.2333 86.5137 78.5033 85.2037Z" fill="#0061A0"/>
</g>
<path d="M101.343 75.3438C99.4434 70.8137 85.4434 67.5938 85.4434 67.5938C85.4434 67.5938 85.0234 67.8937 84.4434 68.4037C87.5134 70.5337 93.4434 74.5337 96.8534 75.9737C101.283 77.9137 101.343 75.5637 101.343 75.3438Z" fill="#00053E"/>
<path d="M92.9938 89.2233C96.5138 87.2233 101.894 79.5733 101.544 76.1033C101.516 75.8413 101.449 75.585 101.344 75.3433C101.344 75.5633 101.284 77.8633 96.7838 75.9733C93.3838 74.5333 87.4438 70.5333 84.3738 68.4033C82.4438 69.9733 78.6138 73.4633 79.3738 75.7433C80.4438 78.7533 89.4438 91.1833 92.9938 89.2233Z" fill="url(#paint29_radial_25_26630)"/>
<path d="M99.5637 78.5936C99.4472 79.2282 99.2628 79.8485 99.0137 80.4436C98.1083 82.295 96.969 84.0224 95.6237 85.5836C94.6237 86.8336 93.3837 88.5036 91.5537 88.5836C90.7123 88.4824 89.9317 88.0938 89.3437 87.4836C87.4437 85.7636 84.8037 81.9136 87.8437 82.9136C90.8837 83.9136 94.0437 83.3037 94.2337 80.4937C94.4237 77.6837 91.5337 74.9736 94.6137 76.4436C97.9137 77.9836 99.8337 77.3636 99.5637 78.5936Z" fill="url(#paint30_radial_25_26630)"/>
<g style="mix-blend-mode:multiply">
<path d="M84.8131 77.4829C85.9831 79.1129 88.6731 81.6729 90.9431 81.0729C91.9431 80.8029 91.7431 79.0729 91.4331 78.4429C90.5331 76.5429 88.2231 75.2329 86.5031 74.2129C85.2844 73.4709 84.0221 72.803 82.7231 72.2129C82.7231 72.2129 82.6231 72.5729 82.6531 72.5829C84.1916 73.2712 85.6817 74.063 87.1131 74.9529C88.7931 75.9529 91.9731 77.8829 91.6031 80.2529C91.6031 80.1329 91.6031 80.0129 91.6831 79.8929C90.7731 82.8929 85.6831 78.0929 84.8831 77.0629C84.8831 77.1329 84.7631 77.3629 84.8131 77.4329V77.4829Z" fill="#0076BE"/>
</g>
<g style="mix-blend-mode:multiply" opacity="0.51">
<path d="M88.9838 75.0333C88.7238 74.8333 85.7638 73.7933 86.9338 72.0933C87.2074 71.7418 87.6042 71.5072 88.044 71.4366C88.4838 71.3661 88.934 71.465 89.3038 71.7133C87.4238 70.5033 85.6438 69.2933 84.3738 68.4033C82.4438 69.9733 78.6138 73.4633 79.3738 75.7433C79.9838 77.5533 83.5038 82.7433 86.9838 86.2033C85.6668 84.7149 84.529 83.077 83.5938 81.3233C82.1938 78.5733 82.7538 76.3233 85.6738 79.2633C86.7938 80.3933 91.2338 83.2633 92.3938 79.8033C92.4474 79.4256 92.3919 79.0405 92.2338 78.6933C91.7238 77.2033 90.1738 75.9633 88.9838 75.0333Z" fill="#0061A0"/>
</g>
<path d="M105.734 57.1635C102.134 53.8335 88.0238 56.7735 88.0238 56.7735C88.0238 56.7735 87.7738 57.2235 87.4238 57.9535C91.0938 58.6035 98.1738 59.7535 101.854 59.6435C106.734 59.4835 105.834 57.3635 105.734 57.1635Z" fill="#00053E"/>
<path d="M103.943 73.2641C106.323 70.0141 108.003 60.7841 106.233 57.7641C106.095 57.5417 105.927 57.3397 105.733 57.1641C105.833 57.3641 106.733 59.4841 101.853 59.6441C98.1727 59.7541 91.0927 58.6441 87.4227 57.9541C86.3227 60.1741 84.2927 64.9541 85.9427 66.7041C88.1227 69.0141 101.563 76.5141 103.943 73.2641Z" fill="url(#paint31_radial_25_26630)"/>
<path d="M105.443 60.9134C105.6 61.539 105.694 62.1789 105.723 62.8234C105.672 64.882 105.356 66.9254 104.783 68.9034C104.383 70.4734 103.973 72.5034 102.323 73.2934C101.516 73.5564 100.642 73.5281 99.8529 73.2134C97.4529 72.4834 93.4429 70.1234 96.5829 69.6934C99.7229 69.2634 102.383 67.4534 101.383 64.8234C100.383 62.1934 96.6529 60.9134 100.063 60.9134C103.723 60.9934 105.203 59.6234 105.443 60.9134Z" fill="url(#paint32_radial_25_26630)"/>
<g style="mix-blend-mode:multiply">
<path d="M91.6132 66.0132C93.3632 67.0132 96.8632 68.2032 98.6732 66.7132C99.5132 66.0332 98.5732 64.5832 98.0232 64.1232C96.4132 62.7732 93.7732 62.5432 91.7832 62.3332C90.3712 62.1901 88.9523 62.1266 87.5332 62.1432C87.5332 62.1432 87.5932 62.5132 87.6232 62.5132C89.2946 62.4922 90.9654 62.5891 92.6232 62.8032C94.6232 63.0332 98.2532 63.4332 98.9132 65.7432L98.8232 65.3732C99.2432 68.4432 92.5732 66.2732 91.4732 65.6432C91.5432 65.6432 91.4732 65.9732 91.5632 66.0132H91.6132Z" fill="#0076BE"/>
</g>
<g style="mix-blend-mode:multiply" opacity="0.51">
<path d="M94.3827 62.0436C94.0527 61.9736 90.9327 62.2636 91.2927 60.2336C91.4427 59.1336 92.4427 58.9136 93.2827 58.9136C91.0627 58.5936 88.9427 58.2436 87.4227 57.9736C86.3227 60.1936 84.2927 64.9736 85.9427 66.7236C87.2527 68.1136 92.6227 71.3636 97.2227 73.0436C95.4038 72.2489 93.6852 71.2419 92.1027 70.0436C89.6827 68.1336 89.2427 65.8436 93.1027 67.3136C94.6027 67.8736 99.8427 68.6536 99.4427 64.9936C99.3269 64.6315 99.1163 64.3069 98.8327 64.0536C97.7727 62.9136 95.8427 62.3936 94.3827 62.0436Z" fill="#0061A0"/>
</g>
<path d="M103.664 39.0339C99.1035 37.2239 86.9935 45.0339 86.9935 45.0339C86.9935 45.0339 86.9235 45.5539 86.8535 46.3539C90.5135 45.6439 97.5335 44.1739 100.924 42.7339C105.444 40.8339 103.824 39.1839 103.664 39.0339Z" fill="#00053E"/>
<path d="M107.783 54.6932C108.783 50.8032 107.073 41.5932 104.343 39.4132C104.137 39.2537 103.908 39.1257 103.663 39.0332C103.823 39.1832 105.433 40.8332 100.923 42.7332C97.5335 44.1732 90.5135 45.6432 86.8535 46.3532C86.6335 48.8232 86.4535 54.0032 88.6235 55.0432C91.4935 56.4232 106.733 58.5832 107.783 54.6932Z" fill="url(#paint33_radial_25_26630)"/>
<g style="mix-blend-mode:multiply">
<path d="M93.6632 52.3729C95.6632 52.6629 99.3532 52.5229 100.513 50.4829C101.043 49.5429 99.6532 48.4829 98.9632 48.2929C96.9632 47.6129 94.4332 48.3529 92.4932 48.8729C91.1346 49.2443 89.7989 49.695 88.4932 50.2229C88.4932 50.2229 88.6832 50.5429 88.7132 50.5329C90.2778 49.9057 91.8852 49.3911 93.5232 48.9929C95.4332 48.5029 99.0132 47.5529 100.453 49.4729L100.243 49.1629C101.733 51.8729 94.7332 52.2429 93.4732 52.0529C93.5632 52.0529 93.6032 52.3529 93.6932 52.3729H93.6632Z" fill="#0076BE"/>
</g>
<g style="mix-blend-mode:multiply" opacity="0.51">
<path d="M94.8235 47.6737C94.4935 47.6737 91.6835 49.1037 91.2835 47.0938C91.0735 46.0037 91.8735 45.4238 92.6635 45.0938C90.4835 45.5938 88.3735 46.0237 86.8535 46.3237C86.6335 48.7937 86.4535 53.9737 88.6235 55.0137C90.3435 55.9137 96.5335 56.9837 101.443 56.9137C99.4568 56.8196 97.489 56.4838 95.5835 55.9137C92.5835 55.0037 91.4035 53.0238 95.5835 52.9938C97.1735 52.9938 102.343 51.8237 100.653 48.5537C100.422 48.2528 100.11 48.0239 99.7535 47.8937C98.2835 47.2137 96.3135 47.4637 94.8235 47.6737Z" fill="#0061A0"/>
</g>
<path d="M96.0428 23.9133C91.1428 23.6333 82.1328 34.9133 82.1328 34.9133C82.1328 34.9133 82.2228 35.4233 82.4128 36.2033C85.6628 34.3733 91.8528 30.7533 94.6228 28.3233C98.2928 25.0133 96.2328 23.9133 96.0428 23.9133Z" fill="#00053E"/>
<path d="M104.903 37.4133C104.663 33.4133 100.093 25.2033 96.8031 24.0033C96.5578 23.9203 96.3018 23.8731 96.0431 23.8633C96.2331 23.9533 98.2931 25.0133 94.6231 28.2433C91.8531 30.6733 85.6231 34.2933 82.4131 36.1233C82.9831 38.5433 84.4131 43.5133 86.8431 43.8133C90.0031 44.2133 105.143 41.4333 104.903 37.4133Z" fill="url(#paint34_radial_25_26630)"/>
<path d="M98.1926 26.9137C98.7155 27.2933 99.1951 27.7292 99.6226 28.2137C100.894 29.8321 101.952 31.6065 102.773 33.4937C103.453 34.9537 104.433 36.7837 103.673 38.4937C103.201 39.2138 102.494 39.7476 101.673 40.0037C99.3526 41.0037 94.7526 41.7037 96.9026 39.3737C99.0526 37.0437 99.9026 33.9537 97.5126 32.5637C95.1226 31.1737 91.3626 32.5637 94.0326 30.4637C96.9226 28.0937 97.1926 26.0937 98.1926 26.9137Z" fill="url(#paint35_radial_25_26630)"/>
<g style="mix-blend-mode:multiply">
<path d="M90.783 39.6728C92.783 39.3228 96.223 38.0228 96.673 35.7228C96.883 34.6628 95.243 34.1428 94.523 34.1328C92.423 34.1328 90.243 35.6228 88.523 36.7328C87.3432 37.519 86.2081 38.3703 85.123 39.2828C85.123 39.2828 85.413 39.5328 85.433 39.5128C86.7222 38.4243 88.0818 37.4221 89.503 36.5128C91.163 35.4528 94.263 33.4128 96.233 34.7728L95.933 34.5528C98.213 36.6528 91.683 39.2128 90.433 39.4328C90.513 39.4328 90.653 39.6828 90.743 39.6628L90.783 39.6728Z" fill="#0076BE"/>
</g>
<g style="mix-blend-mode:multiply" opacity="0.51">
<path d="M90.3831 34.853C90.0831 35.003 87.8731 37.213 86.8531 35.423C86.6498 35.0256 86.6069 34.5653 86.7335 34.1372C86.8601 33.7091 87.1463 33.346 87.5331 33.123C85.6231 34.283 83.7631 35.363 82.4131 36.123C82.9831 38.543 84.4131 43.513 86.8431 43.813C88.7431 44.053 94.9531 43.143 99.5631 41.513C97.6529 42.0512 95.6861 42.3633 93.7031 42.443C90.6131 42.503 88.8131 41.023 92.7031 39.673C94.2131 39.153 98.7031 36.423 96.1131 33.863C95.7962 33.6499 95.4249 33.5319 95.0431 33.523C93.5331 33.333 91.7431 34.193 90.3831 34.853Z" fill="#0061A0"/>
</g>
<path d="M83.1735 11.0332C78.4435 12.3532 73.5635 25.9132 73.5635 25.9132C73.5635 25.9132 73.8135 26.3732 74.2435 27.0532C76.7335 24.2632 81.4235 18.8332 83.2435 15.6332C85.6735 11.3932 83.4435 11.0632 83.1735 11.0332Z" fill="#00053E"/>
<path d="M95.9432 20.9938C94.4232 17.2638 87.4432 10.9938 83.9432 10.9238C83.6795 10.9261 83.4172 10.963 83.1632 11.0338C83.3832 11.0338 85.6632 11.3938 83.2432 15.6338C81.4132 18.8338 76.7232 24.2638 74.2432 27.0538C75.5732 29.1438 78.5732 33.3738 80.9332 32.8838C84.0432 32.2438 97.4432 24.7238 95.9432 20.9938Z" fill="url(#paint36_radial_25_26630)"/>
<path d="M86.1937 13.1937C86.8096 13.3862 87.403 13.6443 87.9637 13.9637C89.6917 15.091 91.2679 16.4353 92.6537 17.9637C93.7737 19.1237 95.2837 20.5437 95.1037 22.3537C94.9016 23.1794 94.4214 23.9104 93.7437 24.4237C91.8537 26.0837 87.7437 28.2637 89.0237 25.3637C90.3037 22.4637 90.1637 19.2537 87.3937 18.7237C84.6237 18.1937 81.5937 20.7237 83.3937 17.8637C85.3837 14.7537 84.9937 12.7737 86.1937 13.1937Z" fill="url(#paint37_radial_25_26630)"/>
<g style="mix-blend-mode:multiply">
<path d="M83.313 27.7031C85.073 26.7031 87.933 24.3731 87.613 22.0531C87.463 20.9831 85.743 21.0531 85.063 21.2431C83.063 21.9131 81.493 24.0431 80.273 25.6331C79.4051 26.7551 78.6037 27.9272 77.873 29.1431C77.873 29.1431 78.223 29.2931 78.243 29.2631C79.1085 27.8173 80.0742 26.4339 81.133 25.1231C82.353 23.5731 84.623 20.6531 86.933 21.2931L86.573 21.1831C89.413 22.4331 84.063 26.9731 82.953 27.5831C83.023 27.5831 83.233 27.7431 83.313 27.7031Z" fill="#0076BE"/>
</g>
<g style="mix-blend-mode:multiply" opacity="0.51">
<path d="M81.443 23.5036C81.223 23.7536 80.023 26.6436 78.443 25.3836C78.1027 25.0956 77.8867 24.6873 77.8401 24.2438C77.7936 23.8004 77.92 23.3561 78.193 23.0036C76.873 24.8136 75.573 26.5236 74.623 27.7536C76.083 29.7536 79.353 33.7536 81.623 33.1336C83.463 32.6236 88.853 29.3836 92.473 26.1336C90.9362 27.3658 89.2577 28.4099 87.473 29.2436C84.653 30.5036 82.423 29.8236 85.533 27.0636C86.723 26.0036 89.853 21.7336 86.433 20.3836C86.061 20.3111 85.6761 20.3458 85.323 20.4836C83.773 20.9136 82.443 22.3636 81.443 23.5036Z" fill="#0061A0"/>
</g>
<path d="M66.6035 3.5435C62.6035 6.3835 62.6035 20.7935 62.6035 20.7935C62.6035 20.7935 62.9935 21.1435 63.6035 21.6335C64.9835 18.1635 67.6035 11.4735 68.1935 7.8435C69.0735 3.0235 66.8135 3.4835 66.6035 3.5435Z" fill="#00053E"/>
<path d="M81.9926 8.56331C79.2926 5.56331 70.6026 2.05331 67.2926 3.17331C67.0441 3.25854 66.8111 3.3835 66.6026 3.54331C66.8126 3.48331 69.0726 3.02331 68.2326 7.84331C67.5926 11.4733 65.0226 18.1633 63.6426 21.6333C65.6426 23.1533 69.8526 26.1133 71.9126 24.8533C74.6226 23.1933 84.6926 11.5533 81.9926 8.56331Z" fill="url(#paint38_radial_25_26630)"/>
<path d="M70.1733 4.54288C70.8158 4.51276 71.4596 4.553 72.0933 4.66288C74.096 5.13494 76.0312 5.85729 77.8533 6.81288C79.3133 7.52288 81.2133 8.34288 81.6533 10.1229C81.7455 10.966 81.5404 11.8149 81.0733 12.5229C79.8733 14.7329 76.7433 18.1729 76.9633 15.0129C77.1833 11.8529 75.9633 8.87288 73.1733 9.31288C70.3833 9.75288 68.4033 13.1929 69.1733 9.85288C69.9333 6.28288 68.9033 4.55288 70.1733 4.54288Z" fill="url(#paint39_radial_25_26630)"/>
<g style="mix-blend-mode:multiply">
<path d="M72.443 19.1637C73.763 17.6537 75.653 14.4637 74.563 12.3937C74.063 11.3937 72.463 12.0537 71.893 12.5037C70.243 13.8037 69.483 16.3437 68.893 18.2537C68.4601 19.6053 68.1062 20.981 67.833 22.3737C67.833 22.3737 68.213 22.3737 68.223 22.3737C68.5145 20.7138 68.9222 19.0764 69.443 17.4737C70.073 15.6137 71.223 12.0937 73.603 11.9137H73.243C76.333 12.1337 72.843 18.2137 72.003 19.1737C72.063 19.1037 72.333 19.2237 72.393 19.1737L72.443 19.1637Z" fill="#0076BE"/>
</g>
<g style="mix-blend-mode:multiply" opacity="0.51">
<path d="M69.0432 15.5339C68.9132 15.8639 68.7732 19.1839 66.6932 18.5339C66.2484 18.3686 65.8842 18.0388 65.6758 17.6126C65.4673 17.1864 65.4306 16.6964 65.5732 16.2439C64.9232 18.5339 64.2432 20.7139 63.7432 22.2439C65.9332 23.7039 70.6532 26.5139 72.7432 25.0339C74.3932 23.8539 78.5832 18.6639 80.9932 14.0339C79.9021 15.8353 78.5922 17.4946 77.0932 18.9739C74.7432 21.2539 72.2732 21.3939 74.3632 17.5039C75.1632 16.0239 76.7332 10.6239 72.8332 10.5039C72.4341 10.5648 72.0618 10.7423 71.7632 11.0139C70.3832 12.0839 69.6132 14.0339 69.0432 15.5339Z" fill="#0061A0"/>
</g>
<mask id="mask0_25_26630" style="mask-type:luminance" maskUnits="userSpaceOnUse" x="45" y="0" width="31" height="30">
<path d="M47.2535 29.6935C48.1835 30.6235 65.0135 26.9235 65.8835 27.8435C85.1135 34.0335 68.5835 1.84351 68.7235 1.70351C70.9535 -0.986486 44.3535 0.0435144 48.2135 1.17351C50.6935 1.89351 50.5735 8.41351 49.7835 13.7335C48.5835 22.1035 43.6835 24.9135 47.2535 29.6935Z" fill="white"/>
</mask>
<g mask="url(#mask0_25_26630)">
<path d="M49.5435 1.62328C46.4135 5.39328 50.0835 19.3233 50.0835 19.3233C50.0835 19.3233 50.5535 19.5533 51.2935 19.8733C51.7535 16.1633 52.5335 9.04328 52.2135 5.36328C51.8035 0.493276 49.7335 1.51328 49.5435 1.62328Z" fill="#00053E"/>
<path d="M65.7135 2.55342C62.3335 0.35342 53.0335 -0.836581 50.1135 1.09342C49.8978 1.24037 49.7057 1.41905 49.5435 1.62342C49.7335 1.51342 51.8035 0.493419 52.2135 5.36342C52.5335 9.04342 51.7535 16.1634 51.2935 19.8734C53.5835 20.8734 58.4535 22.6234 60.1135 20.8734C62.3135 18.5734 69.0835 4.76342 65.7135 2.55342Z" fill="url(#paint40_radial_25_26630)"/>
<path d="M53.2535 1.68384C53.8693 1.49633 54.5026 1.37235 55.1435 1.31384C57.2009 1.24824 59.2581 1.44992 61.2635 1.91384C62.8435 2.22384 64.8935 2.53384 65.7835 4.13384C66.0689 4.93245 66.0689 5.80524 65.7835 6.60384C65.1735 9.04384 63.0335 13.1738 62.4335 10.0638C61.8335 6.95384 59.8935 4.38384 57.3235 5.52384C54.7535 6.66384 53.6935 10.5238 53.5635 7.07384C53.4435 3.42384 52.0235 2.01384 53.2535 1.68384Z" fill="url(#paint41_radial_25_26630)"/>
<g style="mix-blend-mode:multiply">
<path d="M59.1236 15.2536C60.0236 13.4536 61.0336 9.89355 59.4536 8.16355C58.7236 7.36355 57.3336 8.37355 56.8936 8.95355C55.6336 10.6336 55.5536 13.2836 55.4436 15.2836C55.3586 16.6989 55.3586 18.1182 55.4436 19.5336C55.4436 19.5336 55.8136 19.4536 55.8136 19.4236C55.6936 17.7424 55.6936 16.0547 55.8136 14.3736C55.9436 12.3736 56.1436 8.71355 58.4136 7.93355L58.0536 8.03355C61.0536 7.45355 59.2836 14.2236 58.7136 15.3636C58.7136 15.2936 59.0336 15.3636 59.0736 15.2536H59.1236Z" fill="#0076BE"/>
</g>
<g style="mix-blend-mode:multiply" opacity="0.51">
<path d="M55.0235 12.7038C54.9635 13.0338 55.4135 16.1337 53.3735 15.8837C52.2635 15.7537 51.9735 14.8038 51.9335 13.9638C51.7335 16.1938 51.4835 18.3337 51.2935 19.8737C53.5835 20.8737 58.4535 22.6237 60.1135 20.8737C61.4435 19.4937 64.4435 13.9638 65.8335 9.28375C65.1303 11.1438 64.2071 12.9131 63.0835 14.5538C61.3035 17.0738 59.0835 17.6338 60.3035 13.6638C60.7835 12.1538 61.3035 6.87375 57.6535 7.46375C57.2969 7.59389 56.9848 7.82281 56.7535 8.12375C55.6635 9.27375 55.2935 11.2238 55.0235 12.7038Z" fill="#0061A0"/>
</g>
</g>
<path d="M91.1128 53.1136C91.1128 72.8436 74.6028 88.8336 54.2428 88.8336C33.8828 88.8336 17.3828 72.8336 17.3828 53.1136C17.3828 33.3936 33.8828 17.3936 54.2428 17.3936C74.6028 17.3936 91.1128 33.3836 91.1128 53.1136Z" fill="url(#paint42_radial_25_26630)"/>
<g style="mix-blend-mode:multiply" opacity="0.3">
<path d="M54.2428 17.3936C33.8828 17.3936 17.3828 33.3936 17.3828 53.1136C17.3828 72.8336 33.8828 88.8336 54.2428 88.8336C74.6028 88.8336 91.1128 72.8336 91.1128 53.1136C91.1128 33.3936 74.6028 17.3936 54.2428 17.3936ZM52.4428 85.7736C32.7328 85.7736 18.8328 71.8436 18.8328 52.7736C18.8328 33.7036 34.8328 18.2036 54.5228 18.2036C74.2128 18.2036 88.1228 32.1236 88.1228 51.2036C88.1228 70.2836 72.1428 85.7736 52.4428 85.7736Z" fill="#FBAD1D"/>
</g>
<path d="M64.553 37.0639C72.0855 37.0366 79.4019 39.58 85.293 44.2739C81.613 30.7339 68.883 20.7539 53.753 20.7539C35.753 20.7539 21.123 34.9039 21.123 52.3639C21.1357 57.0635 22.2109 61.6993 24.2682 65.9247C26.3254 70.15 29.3115 73.8555 33.003 76.7639C32.2881 74.1266 31.9249 71.4064 31.923 68.6739C31.923 51.2139 46.533 37.0639 64.553 37.0639Z" fill="url(#paint43_linear_25_26630)"/>
<path d="M31.2634 5.4834C31.2634 5.4834 24.3634 5.9134 20.7734 11.9134C23.822 9.1127 27.3843 6.92914 31.2634 5.4834Z" fill="#C0D3ED"/>
<path d="M16.0233 17.2236C16.0233 17.2236 11.2133 19.0336 9.36328 26.6336C11.1217 23.1945 13.3645 20.0255 16.0233 17.2236Z" fill="#C0D3ED"/>
<path d="M6.08329 33.1133C6.08329 33.1133 2.44329 36.7133 3.80329 44.4133C4.01758 40.5568 4.78544 36.7512 6.08329 33.1133Z" fill="#C0D3ED"/>
<path d="M7.44305 64.6436C7.44305 64.6436 1.66305 65.0736 4.00305 70.1936C6.34305 75.3135 2.58305 68.7636 7.44305 64.6436Z" fill="#C0D3ED"/>
<path d="M12.2536 82.5635C12.2536 82.5635 8.80362 86.6235 19.4436 92.7135C19.4436 92.7135 12.2136 85.9935 12.2536 82.5635Z" fill="#C0D3ED"/>
<path d="M27.6125 89.9141C27.6125 89.9141 21.5225 95.3341 26.7725 98.5341C27.4325 98.9341 27.8425 99.2141 28.0825 99.3841C27.1025 98.5441 23.8225 94.9141 27.6125 89.9141Z" fill="#C0D3ED"/>
<path d="M41.2838 95.2832C41.2838 95.2832 36.5738 101.913 42.4438 103.913C43.1738 104.153 43.6438 104.333 43.9138 104.443C42.7238 103.783 38.7138 101.003 41.2838 95.2832Z" fill="#C0D3ED"/>
<path opacity="0.73" d="M56.9834 95.9141C56.9834 95.9141 55.5134 105.284 61.3734 104.164C61.3734 104.124 57.4434 102.994 56.9834 95.9141Z" fill="#C0D3ED"/>
<path opacity="0.73" d="M71.9131 91.9736C71.9131 91.9736 73.3631 101.354 78.6031 98.5036C78.6031 98.5036 74.4931 98.6336 71.9131 91.9736Z" fill="#C0D3ED"/>
<path opacity="0.73" d="M86.0732 83.5039C86.0732 83.5039 91.0132 91.6039 94.7632 86.9539C94.7632 86.9139 91.0132 88.6539 86.0732 83.5039Z" fill="#C0D3ED"/>
<path opacity="0.56" d="M100.713 67.5938C100.713 67.5938 97.8031 71.0737 94.7131 70.2937C91.6231 69.5137 99.4431 74.3337 100.713 67.5938Z" fill="#C0D3ED"/>
<path opacity="0.56" d="M98.9127 33.6836C99.0096 34.8674 98.7463 36.0529 98.1574 37.0844C97.5684 38.1159 96.6814 38.9452 95.6127 39.4636C92.8427 40.9136 102.443 39.5536 98.9127 33.6836Z" fill="#C0D3ED"/>
<path opacity="0.73" d="M84.9531 12.9141C84.9531 12.9141 90.4331 14.2141 93.1731 18.4441C95.9131 22.6741 91.2131 16.6241 84.9531 12.9141Z" fill="#C0D3ED"/>
<path opacity="0.73" d="M68.9727 4.71294C68.9727 4.71294 74.6027 4.33294 78.4627 7.57294C82.3227 10.8129 76.0427 6.38294 68.9727 4.71294Z" fill="#C0D3ED"/>
<path d="M52.9932 1.9133C52.9932 1.9133 58.2832 -0.086697 62.9032 1.9133C67.5232 3.9133 60.2432 1.4733 52.9932 1.9133Z" fill="#C0D3ED"/>
<path d="M44.1034 1.74414C44.1034 1.74414 33.8734 2.91414 35.5734 5.35414C37.2734 7.79414 34.0334 3.79414 44.1034 1.74414Z" fill="#C0D3ED"/>
<path d="M52.9834 122.113C52.9834 122.113 54.7234 165.113 55.4534 177.953C55.7419 159.307 54.9171 140.661 52.9834 122.113Z" fill="url(#paint44_radial_25_26630)"/>
<path d="M53.4434 66.054V66.744L53.3134 67.274L53.0334 67.514L52.7534 67.714L52.4634 67.844H51.2534L49.5134 67.754H48.8634L43.4434 67.674H42.7434L38.6534 67.844L37.3134 67.754L36.8634 67.634L36.7034 67.514L36.6234 67.274V66.864V65.914L36.7034 64.694V64.054L36.4434 62.854V62.244V61.964L36.6034 61.514L37.0434 61.434L38.6734 61.554H39.3134H40.2534L40.7334 61.474L40.9834 61.354L41.1034 61.074V58.154V57.504L41.2634 55.074V54.464V53.574L41.1834 52.964V51.964V51.314L41.2634 50.314L41.3234 48.914V48.464L41.2034 48.224L40.9534 48.064H40.5934L39.1334 48.544L38.5234 48.714L37.9234 48.794H37.4434L37.0734 48.634L36.9134 48.344L36.7434 47.914V47.584V46.914L36.8234 45.914V45.224L36.7034 43.914V43.224L36.7834 42.694L36.9434 42.454L37.1534 42.284L37.5534 42.084L37.9234 41.964L38.5234 41.724L39.7034 41.354L40.2734 41.154L42.4434 40.364L43.0534 40.164L45.2034 39.474L45.8134 39.224L46.7434 38.784L47.4334 38.504L48.0434 38.334H48.5234L48.9334 38.454L49.1334 38.744L49.2534 39.224L49.3334 39.714V40.204L49.2534 41.784V42.434V48.714L49.1334 51.184V51.834L49.2934 54.344V54.994L49.1334 57.464V58.114L49.2934 60.624V61.034L49.4134 61.274L49.6634 61.434H50.1434H53.0634L53.3034 61.514L53.4634 61.884L53.5134 62.164V62.774L53.4234 63.994V64.634L53.4434 66.054Z" fill="black"/>
<path d="M62.5631 47.1035V47.3835V47.6735L62.4431 47.9135L62.3631 48.2735L62.2731 48.5135L62.1431 48.9135L62.0331 49.1335L61.8331 49.4335L61.6631 49.6335L61.4631 49.8335L61.2631 50.0235L60.9231 50.2435L60.7031 50.3935L60.4531 50.5235L60.2231 50.6435L59.8331 50.7735L59.3331 50.9435H59.0631L58.6531 51.0135H58.4031H58.0331H57.7931H57.4131H56.6031H56.2431H56.0031H55.6231H55.3731L55.0831 50.9635L54.8331 50.9135L54.4431 50.8335L54.2131 50.7135L53.9631 50.6035L53.7231 50.4835L53.5131 50.3535L52.9731 49.9835L52.7731 49.8135L52.4731 49.5835L52.2731 49.4135L52.0831 49.2235L51.9531 49.0735V48.9635L52.0431 48.8135L52.1031 48.7235L52.2731 48.5435L52.7431 48.1035L52.8931 47.9235L53.1731 47.4835L53.3331 47.3035L53.4931 47.1235L53.6831 47.0235H53.8631L54.0431 47.1535L54.5831 47.5235L54.8331 47.6635L55.0731 47.7735L55.4531 47.9635L55.7031 48.0435L55.9731 48.1235H56.2431H56.6231H56.8931L57.8931 48.0535H58.1631H58.3031L58.5531 47.9535L58.7631 47.8235L58.9331 47.6535L59.0131 47.5335L59.1231 47.2835V47.0035V46.8735L58.9831 46.6335L58.9031 46.5335L58.6831 46.3635H58.5531L58.3031 46.2635L58.0131 46.2035H57.7331L56.1431 46.0535L55.6331 45.9135L55.3731 45.8535L55.0031 45.7135L54.7531 45.6335L54.5031 45.5135L53.9331 45.2335L53.7131 45.0835L53.4431 44.9135L53.2231 44.7635L52.9431 44.5235L52.7931 44.3135L52.6431 44.0535L52.5431 43.8035L52.4431 43.4535V43.2035L52.3931 42.8335V42.3035V42.0335V41.6335L52.4531 41.3835L52.5131 41.1635L52.6031 40.9135L52.7631 40.5435L52.8831 40.3135L53.0131 40.1135L53.1431 39.9135L53.4131 39.6635L53.6331 39.4935L53.8431 39.3435L54.0831 39.2335L54.4031 39.0435L54.9031 38.8435L55.1531 38.7635L55.5331 38.6935H55.8031L56.3031 38.6235L56.6731 38.5635H56.9431H57.4431H57.9431H58.1931H58.3131H58.5831L59.1531 38.6635L59.4331 38.7235L59.7031 38.8135L59.9831 38.8935L60.2531 38.9935L60.5031 39.1135L60.7531 39.2135L61.0731 39.3935L61.3031 39.5135L61.5231 39.6635L61.6731 39.8135V39.9835L61.5731 40.1635L61.3931 40.5035L61.2531 40.7035L60.6231 41.5335L60.4331 41.7735L60.2331 41.9435H60.1031H59.9831L59.8331 41.9135L59.5831 41.7635L59.3331 41.6635L59.2231 41.6035L58.9631 41.5235H58.8331L58.5531 41.4535L58.1631 41.3735H57.8931H57.4631H56.7431H56.4531L56.1931 41.4635H56.0931L55.8931 41.6135L55.8031 41.7135L55.6931 41.9435V42.2135V42.4335L55.8331 42.6535L56.0131 42.8135L56.2131 42.9135H56.3331L56.5831 42.9635H57.0031H57.5731L57.8531 43.0135L58.4231 43.1435L58.9531 43.3135L59.3431 43.3935L59.5931 43.4635L60.0631 43.6335L60.3931 43.7835L60.6331 43.8935L60.8631 44.0335L61.0831 44.1635L61.5631 44.5635L61.7531 44.7635L61.9231 44.9735L62.1231 45.2735L62.2531 45.4835L62.3731 45.7435L62.4331 45.9935L62.5031 46.3535V46.6135L62.5631 47.1035Z" fill="black"/>
<path d="M73.1934 40.0935V40.3435V40.8435V41.1135V41.2435V41.4435L73.1434 41.5635L73.0434 41.6435H72.8434H72.5734L72.0734 41.5935H71.8034H71.0334H70.7634H70.3534H69.9834L69.8134 41.6535L69.7434 41.7535V41.9635L69.6734 42.9635V43.2335L69.7434 44.2335V44.5035L69.6734 45.5035V45.7735V46.7735V48.3135V49.3135V49.5735L69.7634 50.3235V50.5935V50.7935L69.5434 50.9135H69.3234H69.0034L68.5934 50.8635H68.3034H67.5534H67.2834H66.5334H66.3334H66.2334V50.6835V50.4035V49.6935V49.4235V48.0735V47.0735V45.5435L66.1734 44.5435V44.2735V43.0035V42.0035V41.7735V41.6335H66.0034H65.7534H65.2134H64.9134H64.4634H64.1834H63.8934H63.5134H63.2534H63.1234H62.9434L62.8434 41.5635L62.7734 41.4635V41.2935V41.1835V40.9135V40.4135V40.1135V39.4735V39.2035L62.8234 38.9835L62.8934 38.8735L62.9934 38.8235H63.1534H63.4434L64.0634 38.8735H64.3334L65.3334 38.8135H65.5934L66.5934 38.8935H66.8634L68.1034 38.8135H71.8334H72.3834H72.6734H72.8034H73.0034L73.1234 38.8835L73.2034 38.9935V39.2035V39.3135V39.5635L73.1934 40.0935Z" fill="black"/>
<defs>
<radialGradient id="paint0_radial_25_26630" cx="0" cy="0" r="1" gradientUnits="userSpaceOnUse" gradientTransform="translate(13.0126 148.473) scale(54.61 54.61)">
<stop offset="0.36" stop-color="#0057A4"/>
<stop offset="0.96" stop-color="#0E2D6D"/>
</radialGradient>
<radialGradient id="paint1_radial_25_26630" cx="0" cy="0" r="1" gradientUnits="userSpaceOnUse" gradientTransform="translate(50.6526 166.094) scale(50.7 50.7)">
<stop offset="0.37" stop-color="#0057A4"/>
<stop offset="0.95" stop-color="#52B9E9"/>
</radialGradient>
<radialGradient id="paint2_radial_25_26630" cx="0" cy="0" r="1" gradientUnits="userSpaceOnUse" gradientTransform="translate(39.9234 136.173) scale(37.38 37.38)">
<stop offset="0.16" stop-color="#F4EC94"/>
<stop offset="0.7" stop-color="#A87C15"/>
</radialGradient>
<radialGradient id="paint3_radial_25_26630" cx="0" cy="0" r="1" gradientUnits="userSpaceOnUse" gradientTransform="translate(33.7936 163.835) rotate(13.91) scale(26.06 26.06)">
<stop stop-color="#0057A4"/>
<stop offset="0.95" stop-color="#52B9E9"/>
</radialGradient>
<radialGradient id="paint4_radial_25_26630" cx="0" cy="0" r="1" gradientUnits="userSpaceOnUse" gradientTransform="translate(63.5635 136.454) scale(35.14)">
<stop offset="0.36" stop-color="#0057A4"/>
<stop offset="0.96" stop-color="#0E2D6D"/>
</radialGradient>
<radialGradient id="paint5_radial_25_26630" cx="0" cy="0" r="1" gradientUnits="userSpaceOnUse" gradientTransform="translate(67.4327 144.213) scale(33.33 33.33)">
<stop offset="0.37" stop-color="#0057A4"/>
<stop offset="0.95" stop-color="#52B9E9"/>
</radialGradient>
<radialGradient id="paint6_radial_25_26630" cx="0" cy="0" r="1" gradientUnits="userSpaceOnUse" gradientTransform="translate(69.6535 136.053) scale(45.8 45.8)">
<stop offset="0.16" stop-color="#F4EC94"/>
<stop offset="0.7" stop-color="#A87C15"/>
</radialGradient>
<radialGradient id="paint7_radial_25_26630" cx="0" cy="0" r="1" gradientUnits="userSpaceOnUse" gradientTransform="translate(42.8919 10.0997) rotate(-3.31) scale(14.03 14.03)">
<stop offset="0.7" stop-color="#0057A4"/>
<stop offset="0.77" stop-color="#01539F"/>
<stop offset="0.84" stop-color="#054890"/>
<stop offset="0.93" stop-color="#0B3578"/>
<stop offset="0.96" stop-color="#0E2D6D"/>
</radialGradient>
<radialGradient id="paint8_radial_25_26630" cx="0" cy="0" r="1" gradientUnits="userSpaceOnUse" gradientTransform="translate(43.0726 13.4261) rotate(-4.21418) scale(13.5361 14.2551)">
<stop offset="0.37" stop-color="#0057A4"/>
<stop offset="0.95" stop-color="#8CC6EC"/>
</radialGradient>
<radialGradient id="paint9_radial_25_26630" cx="0" cy="0" r="1" gradientUnits="userSpaceOnUse" gradientTransform="translate(29.2599 15.0825) rotate(-26.95) scale(14.03 14.03)">
<stop offset="0.7" stop-color="#0057A4"/>
<stop offset="0.77" stop-color="#01539F"/>
<stop offset="0.84" stop-color="#054890"/>
<stop offset="0.93" stop-color="#0B3578"/>
<stop offset="0.96" stop-color="#0E2D6D"/>
</radialGradient>
<radialGradient id="paint10_radial_25_26630" cx="0" cy="0" r="1" gradientUnits="userSpaceOnUse" gradientTransform="translate(30.8507 18.4131) rotate(-28.1786) scale(13.5413 14.1766)">
<stop offset="0.37" stop-color="#0057A4"/>
<stop offset="0.95" stop-color="#8CC6EC"/>
</radialGradient>
<radialGradient id="paint11_radial_25_26630" cx="0" cy="0" r="1" gradientUnits="userSpaceOnUse" gradientTransform="translate(18.4728 25.7983) rotate(-48.22) scale(14.03)">
<stop offset="0.7" stop-color="#0057A4"/>
<stop offset="0.77" stop-color="#01539F"/>
<stop offset="0.84" stop-color="#054890"/>
<stop offset="0.93" stop-color="#0B3578"/>
<stop offset="0.96" stop-color="#0E2D6D"/>
</radialGradient>
<radialGradient id="paint12_radial_25_26630" cx="0" cy="0" r="1" gradientUnits="userSpaceOnUse" gradientTransform="translate(20.3787 28.6541) rotate(-49.2679) scale(13.5017 14.2106)">
<stop offset="0.37" stop-color="#0057A4"/>
<stop offset="0.95" stop-color="#8CC6EC"/>
</radialGradient>
<radialGradient id="paint13_radial_25_26630" cx="0" cy="0" r="1" gradientUnits="userSpaceOnUse" gradientTransform="translate(11.5929 40.0786) rotate(-70.56) scale(14.03)">
<stop offset="0.7" stop-color="#0057A4"/>
<stop offset="0.77" stop-color="#01539F"/>
<stop offset="0.84" stop-color="#054890"/>
<stop offset="0.93" stop-color="#0B3578"/>
<stop offset="0.96" stop-color="#0E2D6D"/>
</radialGradient>
<radialGradient id="paint14_radial_25_26630" cx="0" cy="0" r="1" gradientUnits="userSpaceOnUse" gradientTransform="translate(14.2782 39.5622) rotate(-71.565) scale(13.4808 14.2447)">
<stop offset="0.37" stop-color="#0057A4"/>
<stop offset="0.95" stop-color="#8CC6EC"/>
</radialGradient>
<radialGradient id="paint15_radial_25_26630" cx="0" cy="0" r="1" gradientUnits="userSpaceOnUse" gradientTransform="translate(9.38744 53.1467) rotate(-88.8542) scale(14.0328)">
<stop offset="0.7" stop-color="#0057A4"/>
<stop offset="0.77" stop-color="#01539F"/>
<stop offset="0.84" stop-color="#054890"/>
<stop offset="0.93" stop-color="#0B3578"/>
<stop offset="0.96" stop-color="#0E2D6D"/>
</radialGradient>
<radialGradient id="paint16_radial_25_26630" cx="0" cy="0" r="1" gradientUnits="userSpaceOnUse" gradientTransform="translate(12.5534 54.1115) rotate(-90) scale(13.4995 14.21)">
<stop offset="0.37" stop-color="#0057A4"/>
<stop offset="0.95" stop-color="#8CC6EC"/>
</radialGradient>
<radialGradient id="paint17_radial_25_26630" cx="0" cy="0" r="1" gradientUnits="userSpaceOnUse" gradientTransform="translate(12.8267 69.4418) rotate(-109.885) scale(14.0244)">
<stop offset="0.7" stop-color="#0057A4"/>
<stop offset="0.77" stop-color="#01539F"/>
<stop offset="0.84" stop-color="#054890"/>
<stop offset="0.93" stop-color="#0B3578"/>
<stop offset="0.96" stop-color="#0E2D6D"/>
</radialGradient>
<radialGradient id="paint18_radial_25_26630" cx="0" cy="0" r="1" gradientUnits="userSpaceOnUse" gradientTransform="translate(14.051 70.0645) rotate(-110.908) scale(13.5383 14.1707)">
<stop offset="0.37" stop-color="#0057A4"/>
<stop offset="0.95" stop-color="#8CC6EC"/>
</radialGradient>
<radialGradient id="paint19_radial_25_26630" cx="0" cy="0" r="1" gradientUnits="userSpaceOnUse" gradientTransform="translate(19.4022 85.2284) rotate(-133.386) scale(14.093)">
<stop offset="0.7" stop-color="#0057A4"/>
<stop offset="0.77" stop-color="#01539F"/>
<stop offset="0.84" stop-color="#054890"/>
<stop offset="0.93" stop-color="#0B3578"/>
<stop offset="0.96" stop-color="#0E2D6D"/>
</radialGradient>
<radialGradient id="paint20_radial_25_26630" cx="0" cy="0" r="1" gradientUnits="userSpaceOnUse" gradientTransform="translate(18.7861 84.3767) rotate(-134.145) scale(13.4658 14.2696)">
<stop offset="0.37" stop-color="#0057A4"/>
<stop offset="0.95" stop-color="#8CC6EC"/>
</radialGradient>
<radialGradient id="paint21_radial_25_26630" cx="0" cy="0" r="1" gradientUnits="userSpaceOnUse" gradientTransform="translate(33.3956 92.9164) rotate(-152.02) scale(14.03 14.03)">
<stop offset="0.7" stop-color="#0057A4"/>
<stop offset="0.77" stop-color="#01539F"/>
<stop offset="0.84" stop-color="#054890"/>
<stop offset="0.93" stop-color="#0B3578"/>
<stop offset="0.96" stop-color="#0E2D6D"/>
</radialGradient>
<radialGradient id="paint22_radial_25_26630" cx="0" cy="0" r="1" gradientUnits="userSpaceOnUse" gradientTransform="translate(33.6549 91.4353) rotate(-153.166) scale(13.5361 14.1716)">
<stop offset="0.37" stop-color="#0057A4"/>
<stop offset="0.95" stop-color="#8CC6EC"/>
</radialGradient>
<radialGradient id="paint23_radial_25_26630" cx="0" cy="0" r="1" gradientUnits="userSpaceOnUse" gradientTransform="translate(47.6746 96.4259) rotate(-166.63) scale(14.03)">
<stop offset="0.7" stop-color="#0057A4"/>
<stop offset="0.77" stop-color="#01539F"/>
<stop offset="0.84" stop-color="#054890"/>
<stop offset="0.93" stop-color="#0B3578"/>
<stop offset="0.96" stop-color="#0E2D6D"/>
</radialGradient>
<radialGradient id="paint24_radial_25_26630" cx="0" cy="0" r="1" gradientUnits="userSpaceOnUse" gradientTransform="translate(47.9889 97.9377) rotate(-167.863) scale(13.5174 14.2419)">
<stop offset="0.37" stop-color="#0057A4"/>
<stop offset="0.95" stop-color="#8CC6EC"/>
</radialGradient>
<radialGradient id="paint25_radial_25_26630" cx="0" cy="0" r="1" gradientUnits="userSpaceOnUse" gradientTransform="translate(63.3994 95.5718) rotate(174.26) scale(14.03 14.03)">
<stop offset="0.7" stop-color="#0057A4"/>
<stop offset="0.77" stop-color="#01539F"/>
<stop offset="0.84" stop-color="#054890"/>
<stop offset="0.93" stop-color="#0B3578"/>
<stop offset="0.96" stop-color="#0E2D6D"/>
</radialGradient>
<radialGradient id="paint26_radial_25_26630" cx="0" cy="0" r="1" gradientUnits="userSpaceOnUse" gradientTransform="translate(64.52 93.2976) rotate(173.326) scale(13.4485 14.1708)">
<stop offset="0.37" stop-color="#0057A4"/>
<stop offset="0.95" stop-color="#8CC6EC"/>
</radialGradient>
<radialGradient id="paint27_radial_25_26630" cx="0" cy="0" r="1" gradientUnits="userSpaceOnUse" gradientTransform="translate(78.1687 89.5521) rotate(153.98) scale(14.03 14.03)">
<stop offset="0.7" stop-color="#0057A4"/>
<stop offset="0.77" stop-color="#01539F"/>
<stop offset="0.84" stop-color="#054890"/>
<stop offset="0.93" stop-color="#0B3578"/>
<stop offset="0.96" stop-color="#0E2D6D"/>
</radialGradient>
<radialGradient id="paint28_radial_25_26630" cx="0" cy="0" r="1" gradientUnits="userSpaceOnUse" gradientTransform="translate(74.6033 88.42) rotate(153.166) scale(13.5361 14.1716)">
<stop offset="0.37" stop-color="#0057A4"/>
<stop offset="0.95" stop-color="#8CC6EC"/>
</radialGradient>
<radialGradient id="paint29_radial_25_26630" cx="0" cy="0" r="1" gradientUnits="userSpaceOnUse" gradientTransform="translate(90.3728 79.1554) rotate(131.29) scale(14.03)">
<stop offset="0.7" stop-color="#0057A4"/>
<stop offset="0.77" stop-color="#01539F"/>
<stop offset="0.84" stop-color="#054890"/>
<stop offset="0.93" stop-color="#0B3578"/>
<stop offset="0.96" stop-color="#0E2D6D"/>
</radialGradient>
<radialGradient id="paint30_radial_25_26630" cx="0" cy="0" r="1" gradientUnits="userSpaceOnUse" gradientTransform="translate(90.5377 81.5217) rotate(129.883) scale(13.5182 14.2098)">
<stop offset="0.37" stop-color="#0057A4"/>
<stop offset="0.95" stop-color="#8CC6EC"/>
</radialGradient>
<radialGradient id="paint31_radial_25_26630" cx="0" cy="0" r="1" gradientUnits="userSpaceOnUse" gradientTransform="translate(97.3368 65.2159) rotate(106.61) scale(14.03)">
<stop offset="0.7" stop-color="#0057A4"/>
<stop offset="0.77" stop-color="#01539F"/>
<stop offset="0.84" stop-color="#054890"/>
<stop offset="0.93" stop-color="#0B3578"/>
<stop offset="0.96" stop-color="#0E2D6D"/>
</radialGradient>
<radialGradient id="paint32_radial_25_26630" cx="0" cy="0" r="1" gradientUnits="userSpaceOnUse" gradientTransform="translate(98.1121 69.8986) rotate(105.781) scale(13.5852 14.1709)">
<stop offset="0.37" stop-color="#0057A4"/>
<stop offset="0.95" stop-color="#8CC6EC"/>
</radialGradient>
<radialGradient id="paint33_radial_25_26630" cx="0" cy="0" r="1" gradientUnits="userSpaceOnUse" gradientTransform="translate(98.7303 49.5425) rotate(85.53) scale(14.03 14.03)">
<stop offset="0.7" stop-color="#0057A4"/>
<stop offset="0.77" stop-color="#01539F"/>
<stop offset="0.84" stop-color="#054890"/>
<stop offset="0.93" stop-color="#0B3578"/>
<stop offset="0.96" stop-color="#0E2D6D"/>
</radialGradient>
<radialGradient id="paint34_radial_25_26630" cx="0" cy="0" r="1" gradientUnits="userSpaceOnUse" gradientTransform="translate(94.6969 35.4023) rotate(67.08) scale(14.03 14.03)">
<stop offset="0.7" stop-color="#0057A4"/>
<stop offset="0.77" stop-color="#01539F"/>
<stop offset="0.84" stop-color="#054890"/>
<stop offset="0.93" stop-color="#0B3578"/>
<stop offset="0.96" stop-color="#0E2D6D"/>
</radialGradient>
<radialGradient id="paint35_radial_25_26630" cx="0" cy="0" r="1" gradientUnits="userSpaceOnUse" gradientTransform="translate(96.8061 37.6992) rotate(65.8544) scale(13.548 14.183)">
<stop offset="0.37" stop-color="#0057A4"/>
<stop offset="0.95" stop-color="#8CC6EC"/>
</radialGradient>
<radialGradient id="paint36_radial_25_26630" cx="0" cy="0" r="1" gradientUnits="userSpaceOnUse" gradientTransform="translate(85.6476 22.4003) rotate(48.2) scale(14.03)">
<stop offset="0.7" stop-color="#0057A4"/>
<stop offset="0.77" stop-color="#01539F"/>
<stop offset="0.84" stop-color="#054890"/>
<stop offset="0.93" stop-color="#0B3578"/>
<stop offset="0.96" stop-color="#0E2D6D"/>
</radialGradient>
<radialGradient id="paint37_radial_25_26630" cx="0" cy="0" r="1" gradientUnits="userSpaceOnUse" gradientTransform="translate(86.3925 22.4279) rotate(47.1211) scale(13.5741 14.1766)">
<stop offset="0.37" stop-color="#0057A4"/>
<stop offset="0.95" stop-color="#8CC6EC"/>
</radialGradient>
<radialGradient id="paint38_radial_25_26630" cx="0" cy="0" r="1" gradientUnits="userSpaceOnUse" gradientTransform="translate(73.9148 14.8505) rotate(28.1063) scale(13.997 13.997)">
<stop offset="0.7" stop-color="#0057A4"/>
<stop offset="0.77" stop-color="#01539F"/>
<stop offset="0.84" stop-color="#054890"/>
<stop offset="0.93" stop-color="#0B3578"/>
<stop offset="0.96" stop-color="#0E2D6D"/>
</radialGradient>
<radialGradient id="paint39_radial_25_26630" cx="0" cy="0" r="1" gradientUnits="userSpaceOnUse" gradientTransform="translate(68.7362 13.5619) rotate(27.3682) scale(13.6008 14.2363)">
<stop offset="0.37" stop-color="#0057A4"/>
<stop offset="0.95" stop-color="#8CC6EC"/>
</radialGradient>
<radialGradient id="paint40_radial_25_26630" cx="0" cy="0" r="1" gradientUnits="userSpaceOnUse" gradientTransform="translate(56.2666 9.07998) rotate(13.57) scale(11.97)">
<stop offset="0.7" stop-color="#0057A4"/>
<stop offset="0.77" stop-color="#01539F"/>
<stop offset="0.84" stop-color="#054890"/>
<stop offset="0.93" stop-color="#0B3578"/>
<stop offset="0.96" stop-color="#0E2D6D"/>
</radialGradient>
<radialGradient id="paint41_radial_25_26630" cx="0" cy="0" r="1" gradientUnits="userSpaceOnUse" gradientTransform="translate(55.1419 10.2946) rotate(12.7244) scale(13.548 14.2724)">
<stop offset="0.37" stop-color="#0057A4"/>
<stop offset="0.95" stop-color="#8CC6EC"/>
</radialGradient>
<radialGradient id="paint42_radial_25_26630" cx="0" cy="0" r="1" gradientUnits="userSpaceOnUse" gradientTransform="translate(52.2128 50.5736) scale(37.79 37.79)">
<stop stop-color="#FEF9C2"/>
<stop offset="0.07" stop-color="#FEF8BC"/>
<stop offset="0.17" stop-color="#FEF5AC"/>
<stop offset="0.28" stop-color="#FEF091"/>
<stop offset="0.39" stop-color="#FEE96B"/>
<stop offset="0.52" stop-color="#FFE13B"/>
<stop offset="0.65" stop-color="#FFD600"/>
<stop offset="0.71" stop-color="#FECE05"/>
<stop offset="0.81" stop-color="#FCB914"/>
<stop offset="0.86" stop-color="#FBAD1D"/>
<stop offset="0.9" stop-color="#F7A71D"/>
<stop offset="0.94" stop-color="#EC961E"/>
<stop offset="1" stop-color="#DA7A20"/>
</radialGradient>
<linearGradient id="paint43_linear_25_26630" x1="70.233" y1="66.5139" x2="23.733" y2="26.5939" gradientUnits="userSpaceOnUse">
<stop offset="0.5" stop-color="white"/>
<stop offset="1" stop-color="white"/>
</linearGradient>
<radialGradient id="paint44_radial_25_26630" cx="0" cy="0" r="1" gradientUnits="userSpaceOnUse" gradientTransform="translate(63.8734 175.073) scale(35.37 35.37)">
<stop stop-color="#0057A4"/>
<stop offset="0.18" stop-color="#045CA8"/>
<stop offset="0.39" stop-color="#116BB2"/>
<stop offset="0.63" stop-color="#2685C4"/>
<stop offset="0.89" stop-color="#43A7DD"/>
<stop offset="1" stop-color="#52B9E9"/>
</radialGradient>
</defs>
</svg>
