<svg width="492" height="649" viewBox="0 0 492 649" fill="none" xmlns="http://www.w3.org/2000/svg">
<path d="M274.893 464.424C274.893 464.424 182.639 469.374 155.929 458.789C141.17 452.931 124.493 442.928 108.159 438.046C94.9405 434.09 76.8768 437.087 88.9821 448.94C88.9821 448.94 131.993 484.516 186.766 483.197C241.539 481.878 286.895 489.552 274.893 464.424Z" fill="#FFB87F"/>
<path d="M93.4167 441.712C101.347 441.771 109.224 443.012 116.788 445.394C130.486 449.403 144.492 454.25 156.323 462.523C157.953 463.826 160.007 464.48 162.089 464.36C164.172 464.239 166.137 463.353 167.606 461.872C202.758 468.295 274.893 464.441 274.893 464.441C286.878 489.569 241.539 481.81 186.766 483.163C131.993 484.516 88.9822 448.906 88.9822 448.906C86.3625 446.337 85.1639 444.196 85.0098 442.431C87.7961 442.031 90.603 441.791 93.4167 441.712Z" fill="#F39F6D"/>
<path d="M274.893 464.424C274.893 464.424 182.639 469.375 155.929 458.789C151.409 457.076 146.683 454.781 141.855 452.469C140.205 456.54 137.626 460.168 134.322 463.062C131.019 465.956 127.084 468.036 122.832 469.135C139.954 476.877 162.11 483.762 186.766 483.146C241.539 481.827 286.895 489.552 274.893 464.424Z" fill="#F39F6D"/>
<path d="M270.852 474.41C270.852 474.41 182.64 484.156 162.264 476.123C141.889 468.09 92.749 445.703 63.8813 439.845C51.7246 437.378 37.0339 445.617 45.2354 451.578C65.4736 466.326 139.406 487.188 163.377 492.686C197.091 500.274 279.858 486.965 270.852 474.41Z" fill="#FFB87F"/>
<path d="M60.2685 447.57C69.4973 449.557 77.1337 453.41 86.1741 455.808C95.2902 458.489 104.661 460.212 114.134 460.947C118.415 461.17 122.695 461.615 126.89 461.495C141.221 467.37 154.08 472.92 162.264 476.14C182.64 484.156 270.852 474.427 270.852 474.427C279.858 486.965 197.091 500.291 163.429 492.669C139.458 487.222 65.4736 466.36 45.2867 451.561C42.804 449.762 42.4274 447.758 43.4376 445.891C49.102 445.521 54.7886 446.088 60.2685 447.57Z" fill="#F39F6D"/>
<path d="M270.852 474.41C270.852 474.41 182.64 484.156 162.264 476.123C154.217 472.954 141.632 467.559 127.609 461.77C126.249 468.879 122.482 475.303 116.942 479.96C136.016 485.732 153.789 490.443 163.429 492.618C197.091 500.274 279.858 486.965 270.852 474.41Z" fill="#F39F6D"/>
<path d="M169.849 479.189C169.849 479.189 62.734 450.396 46.5708 448.94C26.5723 447.227 16.3162 464.99 24.3122 469.083C30.4762 472.252 44.4135 472.886 60.7822 474.89C107.799 480.662 192.125 500.24 169.849 479.189Z" fill="#FFB87F"/>
<path d="M27.3255 464.921C32.2738 462.779 38.9 463.619 44.088 464.201C49.7554 464.835 54.618 467.37 60.1313 468.329C66.316 469.361 72.5517 470.058 78.8114 470.419C91.6701 471.292 104.494 469.579 117.267 470.419C122.425 470.932 127.631 470.591 132.677 469.408C153.515 474.838 169.815 479.223 169.815 479.223C192.074 500.274 107.765 480.696 60.7134 474.923C44.3448 472.919 30.4075 472.286 24.2436 469.117C23.4618 468.729 22.7993 468.137 22.3259 467.404C24.0209 466.496 25.6133 465.657 27.3255 464.921Z" fill="#F39F6D"/>
<path d="M169.867 479.189C169.867 479.189 147.026 473.057 120.863 466.309C120.654 467.818 120.345 469.311 119.939 470.779C118.456 475.302 115.995 479.443 112.73 482.906C150.895 489.038 184.985 493.491 169.867 479.189Z" fill="#F39F6D"/>
<mask id="mask0_25_24464" style="mask-type:luminance" maskUnits="userSpaceOnUse" x="0" y="0" width="352" height="475">
<path d="M20.1001 5.33051C23.6789 3.20645 27.6211 1.76604 31.7259 1.08264C34.4555 0.662431 37.2188 0.50185 39.9787 0.603045C41.3143 0.603045 42.6327 0.774334 43.9339 0.92849C54.6504 2.51223 64.7766 6.83685 73.3324 13.4837C76.4349 16.3204 79.2983 19.4083 81.8934 22.7159C81.8934 22.1678 81.8934 21.5854 81.8934 21.0031C82.0646 18.0399 82.2701 15.6932 82.4413 13.8947C82.4413 13.792 82.4413 13.6721 82.4413 13.5693H82.2529C81.574 13.5915 80.9038 13.4112 80.3276 13.0513C79.7513 12.6914 79.2951 12.1681 79.0169 11.5481C79.0169 11.5481 79.0169 11.4625 79.0169 11.4111C78.561 10.1776 78.4121 8.85155 78.5831 7.54757C78.7541 6.24359 79.2398 5.0009 79.9983 3.92675C80.7569 2.8526 81.7654 1.97929 82.9368 1.38231C84.1082 0.78534 85.4073 0.482603 86.7218 0.500279H267.034C268.348 0.481339 269.647 0.783474 270.819 1.38048C271.99 1.9775 272.998 2.85136 273.756 3.92628C274.513 5.0012 274.997 6.24474 275.165 7.54903C275.334 8.85333 275.181 10.179 274.722 11.4111V11.5481C274.443 12.1681 273.987 12.6914 273.411 13.0513C272.835 13.4112 272.164 13.5915 271.485 13.5693H269.568C269.576 13.6833 269.576 13.7978 269.568 13.9119C269.773 16.0187 270.013 19.0503 270.201 22.6302C272.796 19.3226 275.66 16.2348 278.762 13.398C284.35 9.05985 290.615 5.67427 297.305 3.3779C302.076 1.70699 307.066 0.743284 312.116 0.517424C314.882 0.416683 317.651 0.577259 320.386 0.997018C321.676 1.19794 322.952 1.48404 324.204 1.85344C324.855 2.04185 325.505 2.26451 326.156 2.48718C328.179 3.23316 330.133 4.15598 331.995 5.24489C332.628 5.60459 333.279 6.01567 333.895 6.42676C335.842 7.72387 337.67 9.19125 339.357 10.8116C339.939 11.3712 340.51 11.9421 341.069 12.5245C347.678 19.7184 352.284 30.1839 351.634 43.7839C351.188 52.8962 348.398 63.413 342.268 75.3173C341.497 76.7903 340.693 78.2976 339.819 79.8221C338.107 82.9566 336.104 85.9883 334.066 88.9344C330.998 93.3543 327.646 97.571 324.033 101.558C320.424 105.562 316.576 109.343 312.51 112.88C291.188 131.285 267.319 146.51 241.642 158.082C230.648 178.625 216.05 197.023 198.546 212.396H198.785L200.275 215.274L203.819 222.125L203.237 222.451L202.45 222.896H202.33C202.004 223.067 201.662 223.273 201.268 223.513L200.138 224.198L199.864 224.369L198.614 225.157L198.306 225.362L196.936 226.27L195.618 227.229L195.344 227.418L194.077 228.428L193.837 228.617C193.426 228.976 193.015 229.319 192.656 229.679C192.274 230.074 191.946 230.517 191.68 230.998C191.623 231.104 191.56 231.207 191.491 231.306C191.235 231.82 190.978 232.368 190.721 233.019C190.635 233.241 190.55 233.481 190.447 233.721C190.344 233.961 190.173 234.423 190.053 234.8C189.933 235.177 189.659 235.828 189.454 236.376H189.831C192.558 238.544 194.348 241.678 194.83 245.129C194.856 245.614 194.856 246.1 194.83 246.585C194.832 247.158 194.792 247.73 194.71 248.297C193.991 253.933 189.796 257.769 184.797 259.739C185.054 261.726 185.345 263.867 185.687 266.145C189.026 288.84 196.508 325.444 211.952 348.019H217.089C217.089 348.019 235.221 349.492 235.221 369.344H235.392C247.48 369.344 257.274 380.7 257.274 394.711V444.812H260.014C261.326 444.811 262.608 445.201 263.697 445.934C264.786 446.666 265.632 447.707 266.126 448.923L270.167 458.857H274.191C275.401 458.917 276.558 459.371 277.485 460.151C278.413 460.93 279.06 461.992 279.327 463.174L281.639 474.376H72.0482L74.3597 463.174C74.6274 461.992 75.2744 460.93 76.2019 460.151C77.1294 459.371 78.2865 458.917 79.4963 458.857H82.1845L86.2253 448.923C86.7195 447.707 87.5652 446.666 88.6541 445.934C89.7431 445.201 91.0257 444.811 92.3378 444.812H95.0774V394.865C95.0774 380.854 104.871 369.498 116.959 369.498H117.131C117.131 349.646 135.263 348.173 135.263 348.173H140.399C155.689 325.906 163.172 289.748 166.562 267.019C166.921 264.655 167.229 262.445 167.486 260.424C167.182 260.363 166.888 260.259 166.613 260.116C166.05 259.739 165.591 259.227 165.278 258.626L164.319 258.026C163.891 257.735 163.463 257.444 163.069 257.119L162.949 257.016C162.58 256.732 162.225 256.429 161.887 256.108L161.682 255.902C161.391 255.611 161.1 255.32 160.826 254.995L160.569 254.686C160.329 254.401 160.107 254.11 159.901 253.813L159.61 253.367L159.097 252.528L158.823 251.98C158.703 251.706 158.566 251.449 158.463 251.175C158.36 250.901 158.309 250.73 158.223 250.507C158.138 250.284 158.052 250.027 157.984 249.77C157.915 249.514 157.864 249.239 157.812 248.983C157.761 248.726 157.71 248.537 157.675 248.297C157.641 248.058 157.675 247.664 157.675 247.338C157.666 247.156 157.666 246.973 157.675 246.79C157.67 246.275 157.698 245.76 157.761 245.249C158.259 241.808 160.047 238.685 162.761 236.513H163.035C161.99 233.721 161.168 231.169 159.833 229.867C159.456 229.508 159.062 229.165 158.634 228.805C158.568 228.734 158.493 228.67 158.412 228.617L157.145 227.606L156.871 227.401L155.535 226.459L154.165 225.534L153.857 225.328L152.607 224.54L152.333 224.369L151.203 223.684L150.142 223.067H150.022L149.234 222.622L148.635 222.296L148.806 221.971L153.669 212.585H154.011C136.451 197.263 121.789 178.906 110.727 158.39C85.0501 146.818 61.1806 131.593 39.8589 113.188C37.1536 110.825 34.5396 108.358 32.017 105.789C28.2519 101.946 24.7293 97.8734 21.4698 93.5934C20.3911 92.1717 19.3296 90.7158 18.3023 89.2427C16.2647 86.2966 14.3299 83.2649 12.5492 80.1304C11.6931 78.6059 10.8371 77.0986 10.1008 75.6256C5.96159 67.8477 3.07253 59.4663 1.5398 50.7893C-2.56948 27.5974 7.97767 12.3703 20.1001 5.33051ZM253.901 136.449C255.767 135.507 257.822 134.427 260.014 133.211L260.202 133.126C262.394 131.893 264.739 130.539 267.154 129.049L267.359 128.929C269.773 127.439 272.29 125.812 274.841 124.048L275.115 123.842C277.649 122.129 280.252 120.194 282.786 118.173L283.146 117.882C284.43 116.871 285.697 115.843 286.947 114.764C294.578 108.396 301.373 101.087 307.168 93.011C318.759 76.482 325.437 60.0388 326.824 47.004C327.653 41.4103 326.991 35.6968 324.906 30.4408C324.434 29.3721 323.861 28.3513 323.194 27.3919C321.15 24.5437 318.207 22.4679 314.838 21.4998C298.487 16.601 282.084 42.4136 270.527 45.8906C269.756 70.076 265.596 103.733 251.59 137.699L253.781 136.62L253.901 136.449ZM271.348 40.4095C271.103 40.4271 270.857 40.4271 270.612 40.4095V40.7693L271.348 40.4095ZM81.6194 40.4095C81.3686 40.4264 81.1169 40.4264 80.8661 40.4095L81.6194 40.7178V40.4095ZM91.379 110.636C89.8723 105.189 88.5881 99.8281 87.4923 94.5696C86.3965 89.3112 85.489 84.1727 84.7357 79.154C83.9823 74.1354 83.4001 69.3223 83.0235 64.6976C82.3728 57.949 81.9962 51.6458 81.8078 45.8563C70.4388 42.4307 54.4126 17.4061 38.2494 21.2942L37.496 21.4655C18.4392 27.1864 21.9321 59.9188 45.1324 92.9767C61.5696 116.46 87.2526 131.122 100.676 137.545C97.0398 128.741 93.9351 119.727 91.379 110.55V110.636Z" fill="white"/>
</mask>
<g mask="url(#mask0_25_24464)">
<path d="M31.726 1.08215C54.2756 -2.34353 73.3324 13.4832 73.3324 13.4832C73.3324 13.4832 95.591 33.1809 84.1364 39.5356C72.6818 45.8902 56.433 15.6928 37.4276 21.4137C18.4221 27.1345 21.8636 59.867 45.064 92.9249C68.2643 125.983 109.511 141.535 109.511 141.535L118.072 161.524C89.4998 149.587 62.9977 133.197 39.5507 112.965C28.6683 103.547 19.4377 92.373 12.2411 79.9072C-15.5651 31.0569 11.6932 4.1824 31.726 1.08215Z" fill="url(#paint0_radial_25_24464)"/>
<path d="M45.0296 93.0109C21.8293 59.953 18.3364 27.2205 37.3932 21.4996C56.45 15.7788 75.6095 51.8855 87.047 45.4795C90.1461 43.7666 87.8004 35.2024 87.047 32.1364C86.6019 32.5304 90.8139 39.6216 90.2831 40.0669C78.2977 49.8473 55.4741 11.1198 34.5681 19.2044C18.7645 25.3192 16.744 55.1742 42.8722 92.4114C65.576 124.784 102.337 141.039 111.891 145.047L109.477 141.621C109.477 141.621 68.2128 125.966 45.0296 93.0109Z" fill="url(#paint1_radial_25_24464)"/>
<path d="M35.0306 8.37878C45.6976 6.66594 56.2277 9.62913 65.4222 15.0417C70.0794 17.7651 88.1945 32.6327 88.126 33.2835L87.1842 43.081C87.1842 43.081 58.4364 15.6755 40.424 16.3435C23.5931 16.943 7.89222 38.2507 29.757 80.1126C35.3365 90.668 42.6134 100.234 51.2965 108.426C62.4943 119.063 79.8732 135.163 107.32 148.318C107.679 149.294 108.039 150.288 108.364 151.264C108.45 151.555 108.57 151.812 108.655 152.086C85.1778 141.574 63.5081 127.417 44.4477 110.139C34.5622 101.577 26.1768 91.4229 19.6379 80.0956C-5.68554 35.6302 16.8299 11.1878 35.0306 8.37878Z" fill="url(#paint2_linear_25_24464)"/>
<g style="mix-blend-mode:overlay">
<path d="M35.0306 8.37878C45.6976 6.66594 56.2277 9.62913 65.4222 15.0417C70.0794 17.7651 88.1945 32.6327 88.126 33.2835L87.1842 43.081C87.1842 43.081 58.4364 15.6755 40.424 16.3435C23.5931 16.943 7.89222 38.2507 29.757 80.1126C35.3365 90.668 42.6134 100.234 51.2965 108.426C62.4943 119.063 79.8732 135.163 107.32 148.318C107.679 149.294 108.039 150.288 108.364 151.264C108.45 151.555 108.57 151.812 108.655 152.086C85.1778 141.574 63.5081 127.417 44.4477 110.139C34.5622 101.577 26.1768 91.4229 19.6379 80.0956C-5.68554 35.6302 16.8299 11.1878 35.0306 8.37878Z" fill="url(#paint3_linear_25_24464)"/>
</g>
<path d="M307.168 93.0113C330.385 59.8678 333.81 27.1354 314.804 21.4145C295.799 15.6936 279.533 45.891 268.095 39.5364C256.658 33.1817 278.899 13.484 278.899 13.484C278.899 13.484 297.956 -2.41124 320.523 1.08296C340.539 4.18321 367.797 31.0578 339.939 79.8738C332.743 92.3396 323.512 103.513 312.63 112.932C289.185 133.176 262.683 149.577 234.108 161.525L242.669 141.502C242.669 141.502 283.985 125.966 307.168 93.0113Z" fill="url(#paint4_radial_25_24464)"/>
<path style="mix-blend-mode:multiply" d="M307.168 93.0113C330.385 59.8678 333.81 27.1354 314.804 21.4145C295.799 15.6936 279.533 45.891 268.095 39.5364C256.658 33.1817 278.899 13.484 278.899 13.484C278.899 13.484 297.956 -2.41124 320.523 1.08296C340.539 4.18321 367.797 31.0578 339.939 79.8738C332.743 92.3396 323.512 103.513 312.63 112.932C289.185 133.176 262.683 149.577 234.108 161.525L242.669 141.502C242.669 141.502 283.985 125.966 307.168 93.0113Z" fill="url(#paint5_radial_25_24464)"/>
<g style="mix-blend-mode:screen">
<path style="mix-blend-mode:multiply" d="M241.847 143.489L242.686 141.536C258.729 134.944 273.658 125.913 286.947 114.765C273.532 126.673 258.309 136.369 241.847 143.489Z" fill="url(#paint6_radial_25_24464)"/>
<path style="mix-blend-mode:overlay" opacity="0.75" d="M336.498 82.9568C364.373 34.0893 337.097 7.19768 317.082 4.16594C297.888 1.1856 281.279 12.2163 276.742 15.5906C278.026 14.3231 278.899 13.5523 278.899 13.5523C278.899 13.5523 297.956 -2.34288 320.523 1.15132C340.539 4.25157 367.797 31.1261 339.939 79.9421C332.743 92.4079 323.512 103.581 312.63 113C311.979 113.582 311.277 114.182 310.575 114.713C320.862 105.587 329.615 94.8642 336.498 82.9568Z" fill="url(#paint7_radial_25_24464)"/>
<path style="mix-blend-mode:overlay" opacity="0.75" d="M15.7339 82.9568C-12.1407 34.0893 15.1346 7.19768 35.1503 4.16594C54.3441 1.1856 70.9524 12.2163 75.4897 15.5906C74.2056 14.3231 73.3324 13.5523 73.3324 13.5523C73.3324 13.5523 54.2756 -2.34288 31.7259 1.15132C11.6931 4.25157 -15.5651 31.1261 12.2924 79.9421C19.489 92.4079 28.7196 103.581 39.602 113C40.2527 113.582 40.9718 114.182 41.6738 114.713C31.3766 105.592 22.6175 94.8685 15.7339 82.9568Z" fill="url(#paint8_radial_25_24464)"/>
</g>
<path d="M307.168 93.0106C330.385 59.867 333.81 27.1346 314.804 21.4137C295.799 15.6928 276.588 51.7996 265.15 45.3935C262.051 43.6807 264.397 35.1164 265.15 32.0504C265.596 32.4444 261.384 39.5355 261.914 39.9809C273.9 49.7612 296.723 11.0338 317.629 19.1185C333.433 25.2333 335.453 55.0882 309.342 92.3254C286.621 124.698 249.861 140.953 240.306 144.961L242.721 141.535C242.721 141.535 283.985 125.966 307.168 93.0106Z" fill="url(#paint9_radial_25_24464)"/>
<path d="M317.201 8.37878C306.534 6.66594 296.004 9.62913 286.81 15.0417C282.153 17.7651 264.038 32.6327 264.106 33.2835L265.048 43.081C265.048 43.081 293.796 15.6755 311.808 16.3435C328.639 16.943 344.442 38.2507 322.475 80.1126C316.906 90.6655 309.641 100.231 300.97 108.426C289.772 119.063 272.393 135.163 244.946 148.318C244.587 149.294 244.227 150.288 243.902 151.264C243.816 151.555 243.697 151.812 243.611 152.086C267.076 141.571 288.734 127.414 307.784 110.139C317.674 101.582 326.061 91.4266 332.594 80.0956C357.918 35.6302 335.402 11.1878 317.201 8.37878Z" fill="url(#paint10_linear_25_24464)"/>
<path style="mix-blend-mode:overlay" d="M317.201 8.37878C306.534 6.66594 296.004 9.62913 286.81 15.0417C282.153 17.7651 264.038 32.6327 264.106 33.2835L265.048 43.081C265.048 43.081 293.796 15.6755 311.808 16.3435C328.639 16.943 344.442 38.2507 322.475 80.1126C316.906 90.6655 309.641 100.231 300.97 108.426C289.772 119.063 272.393 135.163 244.946 148.318C244.587 149.294 244.227 150.288 243.902 151.264C243.816 151.555 243.697 151.812 243.611 152.086C267.076 141.571 288.734 127.414 307.784 110.139C317.674 101.582 326.061 91.4266 332.594 80.0956C357.918 35.6302 335.402 11.1878 317.201 8.37878Z" fill="url(#paint11_linear_25_24464)"/>
<path d="M269.345 11.2744C270.869 24.1721 283.043 150.015 186.937 221.8H165.295C69.2231 150.083 81.3969 24.1721 82.8865 11.2744H269.345Z" fill="url(#paint12_radial_25_24464)"/>
<path style="mix-blend-mode:multiply" d="M269.345 11.2744C270.869 24.1721 283.043 150.015 186.937 221.8H165.295C69.2231 150.083 81.3969 24.1721 82.8865 11.2744H269.345Z" fill="url(#paint13_radial_25_24464)"/>
<g style="mix-blend-mode:screen">
<path style="mix-blend-mode:multiply" d="M264.654 11.2744H269.345C270.869 24.1721 283.043 150.015 186.937 221.8H186.389C277.615 150.083 266.092 24.1721 264.654 11.2744Z" fill="url(#paint14_radial_25_24464)"/>
<path style="mix-blend-mode:multiply" d="M82.8866 11.2744H87.5781C86.1398 24.1721 74.6167 150.015 165.843 221.8H165.295C69.2232 150.083 81.3628 24.1721 82.8866 11.2744Z" fill="url(#paint15_radial_25_24464)"/>
</g>
<path d="M242.327 11.2744C243.406 24.1721 252.018 150.015 183.804 221.8H168.394C100.18 150.083 108.792 24.1721 109.888 11.2744H242.327Z" fill="url(#paint16_radial_25_24464)"/>
<path d="M249.364 11.2744C250.562 24.1721 260.099 150.015 184.626 221.8H167.606C92.1324 150.083 101.669 24.1721 102.868 11.2744H249.364Z" fill="url(#paint17_linear_25_24464)"/>
<path style="mix-blend-mode:screen" d="M116.103 11.2744H229.862C230.838 24.1721 238.594 150.015 177.126 221.8H168.839C107.371 150.083 115.127 24.1721 116.103 11.2744Z" fill="url(#paint18_radial_25_24464)"/>
<path d="M128.345 11.2744H217.671C218.424 24.1721 224.52 150.015 176.236 221.8H169.729C121.496 150.083 127.54 24.1721 128.345 11.2744Z" fill="url(#paint19_radial_25_24464)"/>
<path style="mix-blend-mode:screen" d="M145.039 148.028C125.195 93.9532 123.123 33.5754 123.705 25.6621L185.173 35.1855C181.133 70.059 167.195 96.4368 145.039 148.028Z" fill="url(#paint20_radial_25_24464)"/>
<path style="mix-blend-mode:multiply" opacity="0.75" d="M259.038 35.1855H259.911C260.51 43.0989 258.319 101.079 231.951 153.372C214.709 113.257 210.925 85.0636 208.185 58.0863C211.079 57.2298 241.847 44.7432 259.038 35.1855Z" fill="url(#paint21_radial_25_24464)"/>
<path style="mix-blend-mode:screen" d="M149.474 11.2744H193.529C193.923 24.1721 196.953 150.015 173.102 221.8H169.901C146.084 150.083 149.097 24.1721 149.474 11.2744Z" fill="url(#paint22_radial_25_24464)"/>
<path style="mix-blend-mode:multiply" opacity="0.75" d="M207.244 97.3271C207.843 105.24 205.018 158.835 178.65 211.214C179.9 158.219 175.756 134.77 173.017 107.793C175.911 106.868 207.244 97.3271 207.244 97.3271Z" fill="url(#paint23_radial_25_24464)"/>
<g style="mix-blend-mode:multiply" opacity="0.75">
<path d="M269.345 11.2744C269.619 13.5868 270.236 19.616 270.51 28.2487C253.49 26.022 201.457 19.4618 176.116 19.4618C150.775 19.4618 98.7417 26.022 81.7224 28.2487C81.9964 19.6845 82.6128 13.5868 82.8867 11.2744H269.345Z" fill="#C89472"/>
</g>
<path d="M86.8418 0.51744H267.034C268.348 0.4985 269.648 0.800635 270.819 1.39765C271.99 1.99466 272.998 2.86852 273.756 3.94344C274.513 5.01836 274.997 6.2619 275.165 7.56619C275.334 8.87049 275.181 10.1962 274.722 11.4282V11.5653C274.444 12.1853 273.987 12.7085 273.411 13.0684C272.835 13.4283 272.165 13.6087 271.486 13.5864H82.4415C81.7625 13.6087 81.0923 13.4283 80.516 13.0684C79.9398 12.7085 79.4835 12.1853 79.2054 11.5653C79.2054 11.5653 79.2054 11.4796 79.2054 11.4282C78.7516 10.2002 78.6021 8.88043 78.7696 7.58193C78.9372 6.28342 79.4168 5.04487 80.1675 3.97235C80.9181 2.89982 81.9174 2.02527 83.0798 1.42357C84.2422 0.821874 85.5331 0.510953 86.8418 0.51744Z" fill="url(#paint24_linear_25_24464)"/>
<path d="M104.221 0.585938H143.019V13.6721H104.221V0.585938Z" fill="url(#paint25_linear_25_24464)"/>
<path style="mix-blend-mode:screen" d="M104.22 0.585938H116.377V13.6721H104.22V0.585938Z" fill="url(#paint26_radial_25_24464)"/>
<path d="M155.655 0.517578H233.902C234.467 4.88533 235.101 9.27022 235.923 13.5866H155.552C155.467 9.30448 155.432 4.93672 155.655 0.517578Z" fill="url(#paint27_radial_25_24464)"/>
<path style="mix-blend-mode:screen" d="M172.538 3.08691H196.423C196.543 6.61537 196.834 10.1267 196.971 13.6551H172.11C172.178 10.1438 172.384 6.61537 172.538 3.08691Z" fill="url(#paint28_radial_25_24464)"/>
<path d="M209.127 3.08691H246.196V13.6552H209.127V3.08691Z" fill="url(#paint29_linear_25_24464)"/>
<path style="mix-blend-mode:multiply" d="M159.371 113.771C234.091 110.927 258.233 69.7163 258.935 68.8428C257.445 108.975 245.357 177.283 185.721 221.8H166.733C116.343 184.117 99.9572 129.58 95.1116 89.3455C106.429 105.515 148.686 114.182 159.371 113.771Z" fill="url(#paint30_radial_25_24464)"/>
<g style="mix-blend-mode:screen">
<path d="M132.215 39.5187L113.826 24.4114L128.243 43.3555L97.5944 45.2567L128.14 48.888L97.5944 82.7509L131.975 52.8618L134.304 76.5675L137.506 52.9645L153.943 66.8728L141.478 49.1278L169.473 46.7983L141.581 43.5953L162.264 19.6326L137.746 39.6215L135.417 -3.02832L132.215 39.5187Z" fill="white"/>
</g>
<path d="M148.361 222.143H203.751L198.717 212.396H153.412L148.361 222.143Z" fill="url(#paint31_linear_25_24464)"/>
<path style="mix-blend-mode:overlay" opacity="0.75" d="M150.21 222.143H148.361L153.412 212.396H154.902C154.32 213.63 150.604 221.012 150.21 222.143Z" fill="url(#paint32_linear_25_24464)"/>
<path style="mix-blend-mode:overlay" d="M197.261 212.396H198.717L203.682 222.143H201.97C201.525 221.218 198.289 214.846 197.261 212.396Z" fill="url(#paint33_linear_25_24464)"/>
<path d="M161.374 222.143H155.912C157.806 219.056 159.394 215.792 160.655 212.396H163.651C163.092 215.689 162.332 218.944 161.374 222.143Z" fill="url(#paint34_linear_25_24464)"/>
<path d="M178.633 213.647C178.57 213.226 178.484 212.808 178.376 212.396H184.523C185.342 215.732 186.442 218.992 187.81 222.143H179.42C179.328 219.297 179.065 216.46 178.633 213.647Z" fill="url(#paint35_linear_25_24464)"/>
<path style="mix-blend-mode:screen" d="M173.53 212.396H168.976C168.205 214.435 167.538 216.524 166.716 218.528C166.236 219.762 165.705 220.961 165.158 222.143H173.393C173.428 218.905 173.479 215.651 173.53 212.396Z" fill="url(#paint36_radial_25_24464)"/>
<path d="M187.005 212.396H193.203C194.367 215.738 195.786 218.985 197.45 222.108H190.087C190.139 221.286 187.879 212.396 187.005 212.396Z" fill="url(#paint37_linear_25_24464)"/>
<path d="M176.064 222.143H203.682C199.652 224.287 195.868 226.866 192.399 229.833C188.512 233.584 188.974 247.835 175.996 247.835C163.017 247.835 163.463 233.584 159.593 229.833C156.118 226.864 152.329 224.285 148.292 222.143H176.064Z" fill="url(#paint38_linear_25_24464)"/>
<path d="M176.064 222.143H196.611C193.528 224.362 190.723 226.944 188.255 229.833C185.379 233.584 182.947 254.652 176.116 247.835C173.547 245.266 166.853 233.584 163.976 229.833C161.504 226.949 158.7 224.367 155.621 222.143H176.064Z" fill="url(#paint39_linear_25_24464)"/>
<path d="M162.007 222.142C164.403 224.55 166.29 227.416 167.555 230.569C169.267 236.118 170.979 242.747 176.287 247.8C176.287 247.8 176.15 247.8 176.065 247.8C169.13 245.899 166.802 233.549 163.925 229.798C161.453 226.914 158.648 224.332 155.569 222.107L162.007 222.142Z" fill="url(#paint40_linear_25_24464)"/>
<path style="mix-blend-mode:screen" d="M167.229 222.143H185.721C185.601 222.622 185.481 223.085 185.379 223.598C184.694 227.195 181.834 230.57 180.413 234.013C179.268 236.857 178.279 239.761 177.451 242.714C175.831 241.119 174.337 239.401 172.982 237.575C171.904 229.679 169.592 225.14 167.229 222.143Z" fill="url(#paint41_radial_25_24464)"/>
<path d="M173.53 222.143H189.659C187.126 226.174 184.839 230.355 182.81 234.663C180.904 237.715 178.462 240.396 175.602 242.577C176.133 235.696 175.432 228.776 173.53 222.143Z" fill="url(#paint42_linear_25_24464)"/>
<path style="mix-blend-mode:multiply" d="M203.169 222.468C199.34 224.519 195.751 226.989 192.468 229.833C189.283 232.916 189.043 243.039 181.852 246.585C180.328 249.137 178.428 250.233 176.065 247.835C163.018 247.835 163.531 233.584 159.662 229.833C156.378 226.989 152.789 224.519 148.961 222.468H203.169Z" fill="url(#paint43_linear_25_24464)"/>
<path d="M203.682 222.142C203.682 222.142 181.766 219.008 148.292 221.799C148.361 221.799 170.5 224.9 203.682 222.142Z" fill="#FDF5DB"/>
<path style="mix-blend-mode:multiply" d="M203.682 222.142C203.682 222.142 181.766 219.008 148.292 221.799C148.361 221.799 170.5 224.9 203.682 222.142Z" fill="url(#paint44_radial_25_24464)"/>
<path style="mix-blend-mode:multiply" d="M151.631 215.822L153.344 212.396H198.717L200.207 215.274C182.211 218.443 171.15 218.803 151.631 215.822Z" fill="url(#paint45_radial_25_24464)"/>
<path d="M95.1116 466.154V394.865C95.1116 380.854 104.905 369.498 116.994 369.498H235.238C247.326 369.498 257.12 380.854 257.12 394.865V466.154H95.1116Z" fill="url(#paint46_linear_25_24464)"/>
<path d="M265.972 449.077L270.013 459.011H82.2189L86.2598 449.077C86.7539 447.861 87.5996 446.82 88.6885 446.088C89.7775 445.355 91.0601 444.965 92.3723 444.966H259.86C261.172 444.965 262.455 445.355 263.544 446.088C264.633 446.82 265.478 447.861 265.972 449.077Z" fill="url(#paint47_radial_25_24464)"/>
<path style="mix-blend-mode:screen" d="M86.2598 449.077C86.7539 447.861 87.5996 446.82 88.6885 446.088C89.7775 445.355 91.0601 444.965 92.3723 444.966H259.86C261.172 444.965 262.455 445.355 263.544 446.088C264.633 446.82 265.478 447.861 265.972 449.077L270.013 459.011H267.804L263.866 450.652C263.289 449.581 262.423 448.692 261.367 448.086C260.311 447.481 259.107 447.183 257.891 447.227H94.3414C93.125 447.183 91.9208 447.481 90.8648 448.086C89.8088 448.692 88.9432 449.581 88.3657 450.652L84.4277 459.011H82.2189L86.2598 449.077Z" fill="url(#paint48_radial_25_24464)"/>
<path d="M169.027 246.139H183.136C183.136 246.139 188.991 325.717 218.236 356.275H133.859C163.171 325.717 169.027 246.139 169.027 246.139Z" fill="#F4BE52"/>
<path style="mix-blend-mode:screen" d="M169.027 246.139H183.136C183.136 246.139 188.991 325.717 218.236 356.275H133.859C163.171 325.717 169.027 246.139 169.027 246.139Z" fill="url(#paint49_radial_25_24464)"/>
<path d="M169.849 246.139H182.383C182.383 246.139 187.519 325.717 213.459 356.275H138.773C164.661 325.717 169.849 246.139 169.849 246.139Z" fill="#F4BE52"/>
<path d="M170.637 246.139H181.595C181.595 246.139 186.132 325.717 208.768 356.275H143.464C166.014 325.717 170.637 246.139 170.637 246.139Z" fill="url(#paint50_linear_25_24464)"/>
<path d="M173.222 246.139H176.886C176.886 246.139 179.934 325.717 195.104 356.275H151.34C166.51 325.717 173.222 246.139 173.222 246.139Z" fill="url(#paint51_linear_25_24464)"/>
<path style="mix-blend-mode:screen" d="M173.222 246.139H174.934C174.934 246.139 176.338 325.717 183.375 356.275H163.103C170.106 325.717 173.222 246.139 173.222 246.139Z" fill="url(#paint52_radial_25_24464)"/>
<g style="mix-blend-mode:multiply">
<path d="M185.584 266.299C178.736 269.879 169.952 268.012 166.545 267.018C168.394 254.583 169.028 246.139 169.028 246.139H183.136C183.136 246.139 183.855 254.429 185.584 266.299Z" fill="#D39F10"/>
</g>
<path d="M135.297 348.225H216.935C216.935 348.225 235.067 349.698 235.067 369.55H117.165C117.165 349.646 135.297 348.225 135.297 348.225Z" fill="#F4C229"/>
<path style="mix-blend-mode:screen" d="M135.297 348.225H216.935C216.935 348.225 235.067 349.698 235.067 369.55H117.165C117.165 349.646 135.297 348.225 135.297 348.225Z" fill="url(#paint53_radial_25_24464)"/>
<path d="M137.54 351.65H214.692C214.692 351.65 231.814 352.884 231.814 369.584H120.384C120.401 352.798 137.54 351.65 137.54 351.65Z" fill="#F4C229"/>
<path d="M176.116 351.65H214.692C216.705 351.872 218.681 352.361 220.565 353.106C221.797 357.217 225.427 369.584 224.931 369.584H139.663C140.913 366.672 144.355 353.654 145.279 351.65H176.116Z" fill="url(#paint54_radial_25_24464)"/>
<path style="mix-blend-mode:screen" d="M166.356 369.498H153.566L158.275 351.564H165.86L166.356 369.498Z" fill="url(#paint55_radial_25_24464)"/>
<path d="M208.408 351.564L211.421 369.498H171.51V351.564H208.408Z" fill="url(#paint56_linear_25_24464)"/>
<path d="M162.59 236.479H189.642C192.369 238.646 194.159 241.78 194.642 245.231C195.652 253.795 187.399 261.366 176.116 261.366C164.832 261.366 156.58 253.744 157.59 245.231C158.072 241.78 159.862 238.646 162.59 236.479Z" fill="url(#paint57_radial_25_24464)"/>
<path style="mix-blend-mode:screen" d="M162.59 236.479H189.642C192.37 238.646 194.16 241.78 194.642 245.231C195.687 254.018 187.4 261.435 176.116 261.366C164.833 261.298 156.597 253.624 157.59 245.231C158.073 241.78 159.863 238.646 162.59 236.479Z" fill="url(#paint58_radial_25_24464)"/>
<path d="M163.857 236.479H188.375C190.899 238.749 192.512 241.86 192.913 245.231C193.82 253.795 186.355 261.366 176.116 261.366C165.877 261.366 158.412 253.744 159.319 245.231C159.72 241.86 161.333 238.749 163.857 236.479Z" fill="url(#paint59_radial_25_24464)"/>
<path d="M167.315 236.479H184.848C186.768 239.014 187.905 242.057 188.119 245.231C188.769 253.795 183.393 261.366 176.047 261.366C168.702 261.366 163.326 253.744 164.062 245.231C164.27 242.059 165.401 239.016 167.315 236.479Z" fill="url(#paint60_linear_25_24464)"/>
<path d="M170.243 236.479H179.866C180.942 239.274 181.522 242.236 181.578 245.231C181.869 253.795 178.89 261.366 174.883 261.366C170.877 261.366 168.035 253.744 168.411 245.231C168.512 242.23 169.132 239.268 170.243 236.479Z" fill="url(#paint61_radial_25_24464)"/>
<g style="mix-blend-mode:multiply" opacity="0.75">
<path d="M157.59 245.231C157.59 245.06 157.676 244.923 157.693 244.752C167.641 254.926 183.376 253.676 194.728 246.687C194.728 256.964 183.701 262.103 175.123 261.315C174.913 261.35 174.699 261.35 174.489 261.315C164.028 260.596 156.631 253.35 157.59 245.266V245.231Z" fill="#D39F10"/>
</g>
<path d="M72.0483 474.53L74.3598 463.328C74.6275 462.146 75.2745 461.085 76.202 460.305C77.1295 459.526 78.2866 459.072 79.4964 459.012H274.037C275.247 459.072 276.404 459.526 277.331 460.305C278.259 461.085 278.906 462.146 279.173 463.328L281.485 474.53H72.0483Z" fill="#6A2E25"/>
<path d="M74.3598 463.328C74.6275 462.146 75.2745 461.085 76.202 460.305C77.1295 459.526 78.2866 459.072 79.4964 459.012H274.037C275.247 459.072 276.404 459.526 277.331 460.305C278.259 461.085 278.906 462.146 279.173 463.328L281.485 474.53H278.334L276.109 465.418C275.745 464.387 275.063 463.5 274.161 462.884C273.258 462.268 272.183 461.955 271.092 461.992H82.4072C81.3155 461.955 80.2406 462.268 79.3384 462.884C78.4363 463.5 77.7539 464.387 77.3904 465.418L75.1646 474.53H72.0141L74.3598 463.328Z" fill="url(#paint62_linear_25_24464)"/>
<path style="mix-blend-mode:screen" d="M114.477 422.39V393.752C117.429 393.752 120.259 392.579 122.346 390.491C124.434 388.403 125.606 385.571 125.606 382.618H228.441C228.441 385.571 229.614 388.403 231.701 390.491C233.788 392.579 236.619 393.752 239.57 393.752V422.39C236.619 422.39 233.788 423.563 231.701 425.651C229.614 427.739 228.441 430.571 228.441 433.524H125.606C125.606 430.571 124.434 427.739 122.346 425.651C120.259 423.563 117.429 422.39 114.477 422.39Z" fill="url(#paint63_radial_25_24464)"/>
<path d="M116.36 421.072V395.071C119.131 395.158 121.824 394.144 123.849 392.25C125.873 390.356 127.066 387.736 127.164 384.965H226.883C226.976 387.735 228.165 390.355 230.187 392.249C232.209 394.144 234.9 395.158 237.669 395.071V421.072C234.9 420.984 232.209 421.998 230.187 423.893C228.165 425.788 226.976 428.407 226.883 431.177H127.181C127.083 428.403 125.888 425.78 123.86 423.886C121.831 421.991 119.134 420.979 116.36 421.072Z" fill="url(#paint64_linear_25_24464)"/>
<path style="mix-blend-mode:screen" opacity="0.55" d="M123.551 389.024C124.886 387.155 125.605 384.915 125.606 382.618H132.831C139.355 400.089 155.741 433.524 155.741 433.524H148.019C148.019 433.524 124.168 390.651 123.551 389.024Z" fill="url(#paint65_linear_25_24464)"/>
<path style="mix-blend-mode:screen" opacity="0.55" d="M206.747 382.619L230.564 427.016C229.19 428.901 228.446 431.174 228.441 433.507H222.157L191.457 382.602L206.747 382.619Z" fill="url(#paint66_linear_25_24464)"/>
<path d="M218.818 388.853C218.815 389.403 218.975 389.941 219.277 390.4C219.58 390.858 220.012 391.217 220.519 391.429C221.025 391.642 221.583 391.699 222.123 391.594C222.662 391.489 223.158 391.226 223.547 390.839C223.937 390.451 224.203 389.957 224.311 389.418C224.42 388.88 224.366 388.321 224.156 387.813C223.947 387.305 223.591 386.87 223.135 386.565C222.678 386.259 222.141 386.096 221.592 386.096C221.229 386.093 220.868 386.163 220.532 386.301C220.195 386.438 219.89 386.641 219.632 386.897C219.374 387.154 219.169 387.458 219.03 387.794C218.89 388.13 218.818 388.49 218.818 388.853Z" fill="#7E5436"/>
<path d="M219.537 388.853C219.534 389.26 219.651 389.659 219.875 389.999C220.099 390.34 220.419 390.606 220.794 390.764C221.169 390.922 221.582 390.965 221.982 390.888C222.382 390.81 222.75 390.616 223.039 390.329C223.328 390.043 223.525 389.676 223.606 389.277C223.686 388.878 223.647 388.464 223.492 388.087C223.337 387.711 223.073 387.389 222.735 387.162C222.397 386.936 221.999 386.815 221.592 386.815C221.323 386.812 221.056 386.863 220.807 386.965C220.558 387.066 220.331 387.216 220.14 387.405C219.949 387.595 219.797 387.82 219.694 388.069C219.591 388.317 219.537 388.584 219.537 388.853Z" fill="url(#paint67_linear_25_24464)"/>
<path d="M129.715 388.853C129.715 389.399 129.877 389.932 130.18 390.385C130.483 390.839 130.913 391.192 131.417 391.401C131.921 391.61 132.475 391.665 133.01 391.558C133.544 391.452 134.036 391.189 134.421 390.803C134.807 390.418 135.069 389.926 135.176 389.391C135.282 388.857 135.227 388.302 135.019 387.798C134.81 387.294 134.457 386.864 134.003 386.561C133.55 386.257 133.017 386.096 132.472 386.096C131.741 386.096 131.04 386.386 130.523 386.903C130.006 387.421 129.715 388.122 129.715 388.853Z" fill="#7E5436"/>
<path d="M130.434 388.854C130.434 389.257 130.554 389.651 130.778 389.986C131.002 390.321 131.32 390.582 131.692 390.737C132.064 390.891 132.474 390.931 132.869 390.853C133.264 390.774 133.628 390.58 133.912 390.295C134.197 390.01 134.392 389.647 134.47 389.251C134.549 388.856 134.508 388.446 134.354 388.074C134.2 387.701 133.939 387.383 133.604 387.159C133.269 386.935 132.875 386.815 132.472 386.815C131.931 386.815 131.413 387.03 131.031 387.412C130.649 387.795 130.434 388.313 130.434 388.854Z" fill="url(#paint68_linear_25_24464)"/>
<path d="M218.818 427.186C218.815 427.736 218.975 428.274 219.277 428.733C219.58 429.191 220.012 429.55 220.519 429.762C221.025 429.975 221.583 430.032 222.123 429.927C222.662 429.822 223.158 429.559 223.547 429.172C223.937 428.784 224.203 428.29 224.311 427.751C224.42 427.213 224.366 426.654 224.156 426.146C223.947 425.638 223.591 425.203 223.135 424.898C222.678 424.592 222.141 424.429 221.592 424.429C221.229 424.427 220.868 424.496 220.532 424.634C220.195 424.771 219.89 424.974 219.632 425.23C219.374 425.487 219.169 425.791 219.03 426.127C218.89 426.463 218.818 426.823 218.818 427.186Z" fill="#7E5436"/>
<path d="M219.537 427.187C219.534 427.594 219.651 427.993 219.875 428.333C220.099 428.674 220.419 428.94 220.794 429.098C221.169 429.256 221.582 429.299 221.982 429.222C222.382 429.145 222.75 428.95 223.039 428.663C223.328 428.377 223.525 428.011 223.606 427.611C223.686 427.212 223.647 426.798 223.492 426.421C223.337 426.045 223.073 425.723 222.735 425.496C222.397 425.27 221.999 425.149 221.592 425.149C221.323 425.146 221.056 425.197 220.807 425.299C220.558 425.4 220.331 425.55 220.14 425.739C219.949 425.929 219.797 426.154 219.694 426.403C219.591 426.651 219.537 426.918 219.537 427.187Z" fill="url(#paint69_linear_25_24464)"/>
<path d="M129.715 427.186C129.715 427.732 129.877 428.265 130.18 428.718C130.483 429.172 130.913 429.525 131.417 429.734C131.921 429.943 132.475 429.998 133.01 429.891C133.544 429.785 134.036 429.522 134.421 429.136C134.807 428.751 135.069 428.259 135.176 427.724C135.282 427.19 135.227 426.635 135.019 426.131C134.81 425.627 134.457 425.197 134.003 424.894C133.55 424.59 133.017 424.429 132.472 424.429C131.741 424.429 131.04 424.719 130.523 425.236C130.006 425.754 129.715 426.455 129.715 427.186Z" fill="#7E5436"/>
<path d="M130.434 427.187C130.434 427.59 130.554 427.984 130.778 428.319C131.002 428.654 131.32 428.916 131.692 429.07C132.064 429.224 132.474 429.265 132.869 429.186C133.264 429.107 133.628 428.913 133.912 428.628C134.197 428.343 134.392 427.98 134.47 427.584C134.549 427.189 134.508 426.779 134.354 426.407C134.2 426.034 133.939 425.716 133.604 425.492C133.269 425.268 132.875 425.148 132.472 425.148C131.931 425.148 131.413 425.363 131.031 425.745C130.649 426.128 130.434 426.646 130.434 427.187Z" fill="url(#paint70_linear_25_24464)"/>
<path style="mix-blend-mode:overlay" opacity="0.75" d="M79.2054 11.6336C79.2054 11.6336 79.2054 11.548 79.2054 11.4966C78.7494 10.2631 78.6005 8.93707 78.7715 7.63309C78.9425 6.32911 79.4283 5.08637 80.1868 4.01222C80.9453 2.93807 81.9539 2.06476 83.1253 1.46778C84.2967 0.870808 85.5958 0.568124 86.9103 0.5858H267.034C268.348 0.566859 269.648 0.868995 270.819 1.46601C271.99 2.06302 272.998 2.93688 273.756 4.0118C274.513 5.08672 274.997 6.33026 275.165 7.63455C275.334 8.93885 275.181 10.2645 274.722 11.4966V11.6336C274.444 12.2536 273.987 12.7768 273.411 13.1367C272.835 13.4966 272.165 13.677 271.486 13.6548H270.253C270.889 13.6833 271.521 13.5392 272.081 13.2376C272.642 12.9361 273.111 12.4884 273.438 11.942V11.8391C275.561 7.62555 271.417 3.01801 265.835 3.01801H88.0233C82.4415 3.01801 78.298 7.62555 80.4211 11.8391V11.942C80.7535 12.4872 81.2257 12.9336 81.7887 13.2348C82.3517 13.536 82.985 13.6809 83.6229 13.6548H82.3901C81.7198 13.6667 81.0607 13.4816 80.4946 13.1223C79.9284 12.763 79.4802 12.2454 79.2054 11.6336Z" fill="url(#paint71_radial_25_24464)"/>
<path style="mix-blend-mode:screen" d="M168.531 242.268C163.891 249.993 163.035 257.992 166.596 260.116C170.157 262.24 176.869 257.735 181.441 250.01C186.012 242.285 186.937 234.286 183.359 232.145C179.78 230.004 173.154 234.543 168.531 242.268Z" fill="url(#paint72_radial_25_24464)"/>
<path style="mix-blend-mode:screen" d="M-5.20618 16.3955C-16.267 34.8771 -18.3216 54.0781 -9.79487 59.0967C-1.2681 64.1153 14.604 53.3929 25.6819 34.9114C36.7599 16.4298 38.7974 -2.66846 30.2706 -7.77273C21.7439 -12.877 5.94025 -2.06894 -5.20618 16.3955Z" fill="url(#paint73_radial_25_24464)"/>
<path style="mix-blend-mode:screen" d="M324.153 30.5777C313.075 49.0935 311.003 68.2603 319.547 73.3988C328.091 78.5373 344.014 67.6608 355.109 49.1621C366.205 30.6634 368.259 11.4795 359.715 6.34097C351.171 1.20244 335.248 12.079 324.153 30.5777Z" fill="url(#paint74_radial_25_24464)"/>
<path style="mix-blend-mode:screen" d="M111.771 -23.0001C74.2741 -22.8116 43.9339 -8.61214 44.0367 8.72184C44.1394 26.0558 74.5823 39.9128 112.097 39.7415C149.611 39.5702 179.917 25.3536 179.831 8.03671C179.746 -9.28014 149.269 -23.1885 111.771 -23.0001Z" fill="url(#paint75_radial_25_24464)"/>
<path style="mix-blend-mode:screen" d="M88.417 8.37952C88.4475 13.0241 89.852 17.5557 92.4536 21.4028C95.0552 25.2499 98.7373 28.2401 103.035 29.9965C107.334 31.7528 112.056 32.1967 116.606 31.2719C121.156 30.3472 125.33 28.0953 128.602 24.8003C131.875 21.5052 134.098 17.3147 134.993 12.757C135.888 8.19937 135.413 3.4787 133.629 -0.809555C131.846 -5.09781 128.833 -8.76167 124.97 -11.339C121.107 -13.9164 116.569 -15.2919 111.926 -15.292C105.671 -15.2693 99.6813 -12.7631 95.2731 -8.32436C90.8649 -3.88558 88.3988 2.12257 88.417 8.37952Z" fill="url(#paint76_radial_25_24464)"/>
<g style="mix-blend-mode:screen" opacity="0.75">
<path style="mix-blend-mode:color-dodge" d="M108.398 8.37908C108.425 9.00604 108.635 9.61133 109.003 10.1197C109.371 10.6281 109.88 11.0173 110.467 11.2388C111.054 11.4604 111.693 11.5046 112.304 11.3659C112.916 11.2273 113.474 10.912 113.908 10.459C114.342 10.0061 114.634 9.43556 114.747 8.81826C114.859 8.20097 114.789 7.5641 114.543 6.98676C114.297 6.40943 113.887 5.91704 113.364 5.57077C112.841 5.22451 112.227 5.03964 111.6 5.03906C111.17 5.04797 110.747 5.14143 110.354 5.31412C109.96 5.48681 109.605 5.73533 109.307 6.0455C109.01 6.35568 108.777 6.72138 108.621 7.12178C108.465 7.52219 108.389 7.94943 108.398 8.37908Z" fill="url(#paint77_radial_25_24464)"/>
</g>
<path style="mix-blend-mode:screen" d="M136.461 362.098C136.492 366.743 137.896 371.274 140.498 375.121C143.1 378.969 146.782 381.959 151.08 383.715C155.378 385.472 160.1 385.915 164.65 384.991C169.2 384.066 173.374 381.814 176.647 378.519C179.919 375.224 182.143 371.033 183.037 366.476C183.932 361.918 183.458 357.197 181.674 352.909C179.89 348.621 176.877 344.957 173.014 342.38C169.152 339.802 164.613 338.427 159.97 338.427C153.715 338.449 147.726 340.955 143.318 345.394C138.909 349.833 136.443 355.841 136.461 362.098Z" fill="url(#paint78_radial_25_24464)"/>
<g style="mix-blend-mode:screen" opacity="0.75">
<path style="mix-blend-mode:color-dodge" d="M156.426 362.099C156.466 362.725 156.688 363.326 157.065 363.828C157.442 364.33 157.958 364.711 158.548 364.923C159.139 365.136 159.779 365.171 160.389 365.024C160.999 364.878 161.554 364.556 161.983 364.099C162.413 363.641 162.7 363.068 162.809 362.449C162.917 361.831 162.842 361.194 162.594 360.618C162.345 360.041 161.934 359.55 161.41 359.205C160.886 358.859 160.272 358.674 159.645 358.673C159.206 358.679 158.773 358.774 158.372 358.951C157.971 359.128 157.61 359.384 157.309 359.703C157.009 360.023 156.776 360.4 156.624 360.811C156.472 361.223 156.405 361.66 156.426 362.099Z" fill="url(#paint79_radial_25_24464)"/>
</g>
<path style="mix-blend-mode:screen" d="M130.605 19.3584C95.9163 34.3286 74.3083 61.5971 82.3556 80.2671C90.403 98.9371 125.058 101.917 159.747 86.9472C194.436 71.977 216.044 44.7084 207.997 26.0556C199.95 7.40269 165.295 4.42239 130.605 19.3584Z" fill="url(#paint80_radial_25_24464)"/>
<path style="mix-blend-mode:screen" d="M211.935 436.864C195.549 443.938 185.345 456.819 189.146 465.64C192.947 474.461 209.315 475.917 225.701 468.792C242.087 461.666 252.292 448.854 248.491 440.033C244.69 431.212 228.321 429.807 211.935 436.864Z" fill="url(#paint81_radial_25_24464)"/>
<path style="mix-blend-mode:screen" d="M148.892 351.736C142.574 362.287 142.745 374.003 149.286 377.959C155.826 381.916 166.254 376.503 172.589 365.969C178.924 355.435 178.753 343.702 172.195 339.746C165.637 335.789 155.313 341.167 148.892 351.736Z" fill="url(#paint82_radial_25_24464)"/>
<path style="mix-blend-mode:overlay" opacity="0.55" d="M20.1001 5.33051C23.6789 3.20645 27.6211 1.76604 31.7259 1.08264C34.4555 0.662431 37.2188 0.50185 39.9787 0.603045C41.3143 0.603045 42.6327 0.774334 43.9339 0.92849C54.6504 2.51223 64.7766 6.83685 73.3324 13.4837C76.4349 16.3204 79.2983 19.4083 81.8934 22.7159C81.8934 22.1678 81.8934 21.5854 81.8934 21.0031C82.0646 18.0399 82.2701 15.6932 82.4413 13.8947C82.4413 13.792 82.4413 13.6721 82.4413 13.5693H82.2529C81.574 13.5915 80.9038 13.4112 80.3276 13.0513C79.7513 12.6914 79.2951 12.1681 79.0169 11.5481C79.0169 11.5481 79.0169 11.4625 79.0169 11.4111C78.561 10.1776 78.4121 8.85155 78.5831 7.54757C78.7541 6.24359 79.2398 5.0009 79.9983 3.92675C80.7569 2.8526 81.7654 1.97929 82.9368 1.38231C84.1082 0.78534 85.4073 0.482603 86.7218 0.500279H267.034C268.348 0.481339 269.647 0.783474 270.819 1.38048C271.99 1.9775 272.998 2.85136 273.756 3.92628C274.513 5.0012 274.997 6.24474 275.165 7.54903C275.334 8.85333 275.181 10.179 274.722 11.4111V11.5481C274.443 12.1681 273.987 12.6914 273.411 13.0513C272.835 13.4112 272.164 13.5915 271.485 13.5693H269.568C269.576 13.6833 269.576 13.7978 269.568 13.9119C269.773 16.0187 270.013 19.0503 270.201 22.6302C272.796 19.3226 275.66 16.2348 278.762 13.398C284.35 9.05985 290.615 5.67427 297.305 3.3779C302.076 1.70699 307.066 0.743284 312.116 0.517424C314.882 0.416683 317.651 0.577259 320.386 0.997018C321.676 1.19794 322.952 1.48404 324.204 1.85344C324.855 2.04185 325.505 2.26451 326.156 2.48718C328.179 3.23316 330.133 4.15598 331.995 5.24489C332.628 5.60459 333.279 6.01567 333.895 6.42676C335.842 7.72387 337.67 9.19125 339.357 10.8116C339.939 11.3712 340.51 11.9421 341.069 12.5245C347.678 19.7184 352.284 30.1839 351.634 43.7839C351.188 52.8962 348.398 63.413 342.268 75.3173C341.497 76.7903 340.693 78.2976 339.819 79.8221C338.107 82.9566 336.104 85.9883 334.066 88.9344C330.998 93.3543 327.646 97.571 324.033 101.558C320.424 105.562 316.576 109.343 312.51 112.88C291.188 131.285 267.319 146.51 241.642 158.082C230.648 178.625 216.05 197.023 198.546 212.396H198.785L200.275 215.274L203.819 222.125L203.237 222.451L202.45 222.896H202.33C202.004 223.067 201.662 223.273 201.268 223.513L200.138 224.198L199.864 224.369L198.614 225.157L198.306 225.362L196.936 226.27L195.618 227.229L195.344 227.418L194.077 228.428L193.837 228.617C193.426 228.976 193.015 229.319 192.656 229.679C192.274 230.074 191.946 230.517 191.68 230.998C191.623 231.104 191.56 231.207 191.491 231.306C191.235 231.82 190.978 232.368 190.721 233.019C190.635 233.241 190.55 233.481 190.447 233.721C190.344 233.961 190.173 234.423 190.053 234.8C189.933 235.177 189.659 235.828 189.454 236.376H189.831C192.558 238.544 194.348 241.678 194.83 245.129C194.856 245.614 194.856 246.1 194.83 246.585C194.832 247.158 194.792 247.73 194.71 248.297C193.991 253.933 189.796 257.769 184.797 259.739C185.054 261.726 185.345 263.867 185.687 266.145C189.026 288.84 196.508 325.444 211.952 348.019H217.089C217.089 348.019 235.221 349.492 235.221 369.344H235.392C247.48 369.344 257.274 380.7 257.274 394.711V444.812H260.014C261.326 444.811 262.608 445.201 263.697 445.934C264.786 446.666 265.632 447.707 266.126 448.923L270.167 458.857H274.191C275.401 458.917 276.558 459.371 277.485 460.151C278.413 460.93 279.06 461.992 279.327 463.174L281.639 474.376H72.0482L74.3597 463.174C74.6274 461.992 75.2744 460.93 76.2019 460.151C77.1294 459.371 78.2865 458.917 79.4963 458.857H82.1845L86.2253 448.923C86.7195 447.707 87.5652 446.666 88.6541 445.934C89.7431 445.201 91.0257 444.811 92.3378 444.812H95.0774V394.865C95.0774 380.854 104.871 369.498 116.959 369.498H117.131C117.131 349.646 135.263 348.173 135.263 348.173H140.399C155.689 325.906 163.172 289.748 166.562 267.019C166.921 264.655 167.229 262.445 167.486 260.424C167.182 260.363 166.888 260.259 166.613 260.116C166.05 259.739 165.591 259.227 165.278 258.626L164.319 258.026C163.891 257.735 163.463 257.444 163.069 257.119L162.949 257.016C162.58 256.732 162.225 256.429 161.887 256.108L161.682 255.902C161.391 255.611 161.1 255.32 160.826 254.995L160.569 254.686C160.329 254.401 160.107 254.11 159.901 253.813L159.61 253.367L159.097 252.528L158.823 251.98C158.703 251.706 158.566 251.449 158.463 251.175C158.36 250.901 158.309 250.73 158.223 250.507C158.138 250.284 158.052 250.027 157.984 249.77C157.915 249.514 157.864 249.239 157.812 248.983C157.761 248.726 157.71 248.537 157.675 248.297C157.641 248.058 157.675 247.664 157.675 247.338C157.666 247.156 157.666 246.973 157.675 246.79C157.67 246.275 157.698 245.76 157.761 245.249C158.259 241.808 160.047 238.685 162.761 236.513H163.035C161.99 233.721 161.168 231.169 159.833 229.867C159.456 229.508 159.062 229.165 158.634 228.805C158.568 228.734 158.493 228.67 158.412 228.617L157.145 227.606L156.871 227.401L155.535 226.459L154.165 225.534L153.857 225.328L152.607 224.54L152.333 224.369L151.203 223.684L150.142 223.067H150.022L149.234 222.622L148.635 222.296L148.806 221.971L153.669 212.585H154.011C136.451 197.263 121.789 178.906 110.727 158.39C85.0501 146.818 61.1806 131.593 39.8589 113.188C37.1536 110.825 34.5396 108.358 32.017 105.789C28.2519 101.946 24.7293 97.8734 21.4698 93.5934C20.3911 92.1717 19.3296 90.7158 18.3023 89.2427C16.2647 86.2966 14.3299 83.2649 12.5492 80.1304C11.6931 78.6059 10.8371 77.0986 10.1008 75.6256C5.96159 67.8477 3.07253 59.4663 1.5398 50.7893C-2.56948 27.5974 7.97767 12.3703 20.1001 5.33051ZM253.901 136.449C255.767 135.507 257.822 134.427 260.014 133.211L260.202 133.126C262.394 131.893 264.739 130.539 267.154 129.049L267.359 128.929C269.773 127.439 272.29 125.812 274.841 124.048L275.115 123.842C277.649 122.129 280.252 120.194 282.786 118.173L283.146 117.882C284.43 116.871 285.697 115.843 286.947 114.764C294.578 108.396 301.373 101.087 307.168 93.011C318.759 76.482 325.437 60.0388 326.824 47.004C327.653 41.4103 326.991 35.6968 324.906 30.4408C324.434 29.3721 323.861 28.3513 323.194 27.3919C321.15 24.5437 318.207 22.4679 314.838 21.4998C298.487 16.601 282.084 42.4136 270.527 45.8906C269.756 70.076 265.596 103.733 251.59 137.699L253.781 136.62L253.901 136.449ZM271.348 40.4095C271.103 40.4271 270.857 40.4271 270.612 40.4095V40.7693L271.348 40.4095ZM81.6194 40.4095C81.3686 40.4264 81.1169 40.4264 80.8661 40.4095L81.6194 40.7178V40.4095ZM91.379 110.636C89.8723 105.189 88.5881 99.8281 87.4923 94.5696C86.3965 89.3112 85.489 84.1727 84.7357 79.154C83.9823 74.1354 83.4001 69.3223 83.0235 64.6976C82.3728 57.949 81.9962 51.6458 81.8078 45.8563C70.4388 42.4307 54.4126 17.4061 38.2494 21.2942L37.496 21.4655C18.4392 27.1864 21.9321 59.9188 45.1324 92.9767C61.5696 116.46 87.2526 131.122 100.676 137.545C97.0398 128.741 93.9351 119.727 91.379 110.55V110.636Z" fill="url(#paint83_radial_25_24464)"/>
</g>
<path d="M310.9 494.656C310.9 494.656 216.37 557.038 194.18 542.496C174.866 529.855 146.238 513.823 126.719 496.249C107.2 478.675 202.518 513.258 267.547 487.411C302.99 473.263 331.207 487.342 310.9 494.656Z" fill="#F39F6D"/>
<path d="M232.67 472.92C240.289 468.569 239.947 457.504 232.67 453.034C223.561 447.501 211.832 446.628 201.217 447.296C240.015 431.281 301.672 425.029 312.167 436.847L394.353 509.181C389.559 522.883 382.196 536.894 373.961 545.39C369.338 550.152 357.369 562.638 351.343 565.944C335.779 539.601 316.944 497.431 288.145 502.038C249.467 508.187 193.734 508.478 175.448 490.768C193.957 494.93 216.079 482.392 232.67 472.92Z" fill="#FFB87F"/>
<path d="M258.61 470.094C249.895 476.397 240.529 484.79 229.742 487.222C220.547 489.261 211.079 488.935 201.559 488.147C212.603 484.379 223.475 478.196 232.67 472.954C240.289 468.604 239.947 457.539 232.67 453.068C230.183 451.582 227.527 450.397 224.759 449.54C237.413 447.947 250.049 446.114 262.89 446.337C269.108 446.236 275.321 446.764 281.433 447.913C283.815 450.882 285.637 454.26 286.81 457.881C282.923 460.057 277.529 460.519 273.54 462.095C268.238 464.103 263.219 466.792 258.61 470.094Z" fill="#F39F6D"/>
<path d="M178.667 488.678C178.667 488.678 85.8659 465.812 56.6386 473.794C40.6809 478.161 30.6132 490.819 46.3654 494.348C62.1177 497.876 68.1275 495.941 97.5089 503.203C112.474 506.92 161.511 507.639 214.058 532.047C236.557 542.496 326.379 494.159 326.379 494.159C324.804 484.602 215.856 492.104 178.667 488.678Z" fill="#FFB87F"/>
<path d="M42.5473 488.865C59.6693 484.806 76.0893 490.681 92.8517 493.696C112.198 497.184 131.261 502.096 149.885 508.392C153.31 509.54 179.78 517.813 182.417 519.799C175.226 518.087 144.749 510.379 138.311 509.3C119.254 506.08 104.58 504.983 97.5089 503.219C68.1275 495.957 62.1348 497.858 46.3655 494.364C42.513 493.507 40.2015 492.103 39.14 490.407C39.8933 489.962 40.6639 489.516 41.4172 489.105L42.5473 488.865Z" fill="#F39F6D"/>
<path d="M207.706 522.456C219.845 522.25 232.053 521.394 243.662 517.797C245.117 517.352 246.47 516.855 247.788 516.324C252.764 514.983 257.602 513.176 262.239 510.929C274.516 504.916 287.101 494.451 301.175 493.303C309.008 492.642 316.896 493.261 324.529 495.136C311.756 501.868 234.622 541.64 214.007 532.065C205.758 528.244 197.317 524.853 188.717 521.908C195.033 522.426 201.371 522.609 207.706 522.456Z" fill="#F39F6D"/>
<path d="M393.018 504.984C393.018 504.984 338.33 463.191 318.828 440.033C290.936 406.941 261.709 433.987 226.797 433.302C185.841 432.514 168.582 426.947 161.648 440.924C150.947 462.386 195.121 479.959 243.166 462.985C286.399 447.69 290.097 474.547 290.097 474.547C290.097 474.547 394.37 529.615 393.018 504.984Z" fill="#FFB87F"/>
<path opacity="0.5" d="M376.735 510.465C372.214 505.978 366.787 502.021 362.455 498.082C353.5 489.946 344.032 482.974 336.327 473.554C328.284 463.669 321.209 453.035 315.198 441.798C312.642 436.708 309.056 432.205 304.668 428.574C303.949 427.992 303.178 427.461 302.408 426.947C308.792 430.023 314.404 434.495 318.828 440.033C338.33 463.191 393.018 504.984 393.018 504.984C393.36 511.305 386.751 512.367 376.735 510.465Z" fill="#F39F6D"/>
<path opacity="0.5" d="M171.151 456.734C186.303 462.729 198.443 464.476 213.75 458.361C228.57 452.598 244.956 452.295 259.98 457.505C260.784 457.779 261.538 458.104 262.291 458.447C255.751 459.155 249.326 460.68 243.166 462.986C202.518 477.374 164.644 467.011 160.432 450.465C163.626 453.145 167.25 455.264 171.151 456.734Z" fill="#F39F6D"/>
<path d="M192.536 438.372C192.049 437.73 191.44 437.191 190.743 436.785C190.047 436.379 189.277 436.115 188.478 436.008C181.869 435.118 163.925 434.073 163.326 448.821C163.069 455.535 175.739 463.465 188.786 461.89C190.362 461.712 191.806 460.925 192.81 459.697C195.584 456.254 200.087 448.255 192.536 438.372Z" fill="#FFD8BB"/>
<path d="M192.451 438.269L192.536 438.371C200.087 448.254 195.584 456.253 192.81 459.696C192.359 460.251 191.807 460.716 191.184 461.067C189.985 457.076 188.05 445.719 192.451 438.269Z" fill="#FFDFC8"/>
<path d="M338.09 494.878C343.415 490.801 353.791 482.7 360.469 478.332L391.699 504.778L389.679 508.016C384.885 521.17 377.693 534.565 369.817 542.752C365.194 547.514 353.226 560 347.199 563.306C341.206 553.149 334.717 540.662 327.372 529.409C322.321 521.102 313.28 509.626 304.308 504.059C310.541 504.264 300.884 495.358 308.041 493.062C312.39 491.692 333.365 498.509 338.09 494.878Z" fill="#F39F6D"/>
<path d="M422.707 518.91L377.454 474.53L310.815 530.677L355.589 583.09L422.707 518.91Z" fill="white"/>
<g style="mix-blend-mode:multiply">
<path d="M362.352 519.834C371.457 513.434 380.075 506.369 388.138 498.697C390.535 496.522 392.932 494.278 395.192 491.846L422.707 518.823L355.589 583.003L310.815 530.59L313.999 528.072C330.693 529.905 346.959 530.111 362.352 519.834Z" fill="#DBDBDB"/>
</g>
<path d="M408.41 491.641L492 585.95V649H399.524L326.105 565.995L408.41 491.641Z" fill="#33527B"/>
<path d="M335.573 557.432L417.862 649H399.524L326.105 565.996L335.573 557.432Z" fill="#092F4C"/>
<g style="mix-blend-mode:multiply" opacity="0.55">
<path d="M329.991 562.484C329.991 562.484 341.326 574.731 348.295 579.202C382.881 601.469 456.472 615.411 492 598.043V648.914H399.541L326.122 565.91L329.991 562.484Z" fill="#33527B"/>
</g>
<path d="M379.286 599.088C379.229 600.666 379.642 602.225 380.471 603.568C381.3 604.912 382.509 605.979 383.945 606.635C385.381 607.291 386.979 607.506 388.537 607.253C390.095 607 391.543 606.291 392.698 605.214C393.853 604.138 394.663 602.743 395.025 601.207C395.388 599.67 395.286 598.06 394.734 596.581C394.182 595.102 393.203 593.82 391.922 592.897C390.642 591.974 389.116 591.452 387.539 591.397C385.426 591.327 383.372 592.098 381.826 593.539C380.279 594.98 379.366 596.975 379.286 599.088Z" fill="#526C8F"/>
<path d="M381.528 599.173C381.485 600.307 381.779 601.429 382.374 602.396C382.968 603.364 383.835 604.133 384.867 604.606C385.898 605.08 387.047 605.237 388.167 605.058C389.288 604.878 390.33 604.37 391.162 603.598C391.994 602.826 392.578 601.824 392.84 600.719C393.103 599.615 393.032 598.457 392.637 597.393C392.242 596.329 391.54 595.406 390.62 594.741C389.7 594.076 388.604 593.699 387.47 593.658C385.952 593.607 384.476 594.158 383.363 595.191C382.25 596.224 381.591 597.655 381.528 599.173Z" fill="#294972"/>
<path d="M393.292 614.487C393.235 616.064 393.647 617.623 394.476 618.966C395.305 620.309 396.513 621.376 397.948 622.032C399.382 622.688 400.979 622.904 402.537 622.653C404.094 622.401 405.542 621.693 406.698 620.619C407.853 619.544 408.664 618.151 409.029 616.616C409.393 615.08 409.294 613.471 408.744 611.992C408.194 610.512 407.219 609.229 405.94 608.305C404.662 607.38 403.138 606.855 401.561 606.797C400.513 606.758 399.468 606.926 398.485 607.291C397.502 607.657 396.601 608.213 395.833 608.927C395.065 609.641 394.445 610.5 394.009 611.454C393.573 612.408 393.329 613.439 393.292 614.487Z" fill="#526C8F"/>
<path d="M395.552 614.571C395.512 615.706 395.809 616.827 396.406 617.793C397.003 618.758 397.873 619.525 398.906 619.995C399.939 620.466 401.088 620.62 402.208 620.437C403.328 620.254 404.369 619.743 405.198 618.968C406.028 618.193 406.609 617.19 406.868 616.085C407.128 614.979 407.053 613.822 406.655 612.759C406.256 611.696 405.552 610.775 404.63 610.113C403.708 609.451 402.61 609.077 401.476 609.039C400.724 609.012 399.973 609.133 399.268 609.396C398.562 609.66 397.916 610.06 397.365 610.574C396.815 611.088 396.371 611.706 396.06 612.392C395.749 613.078 395.576 613.819 395.552 614.571Z" fill="#294972"/>
<path d="M407.314 629.886C407.258 631.464 407.67 633.023 408.5 634.366C409.329 635.71 410.538 636.777 411.974 637.433C413.41 638.088 415.008 638.304 416.566 638.051C418.124 637.798 419.572 637.089 420.727 636.012C421.882 634.936 422.692 633.541 423.054 632.005C423.416 630.468 423.315 628.858 422.763 627.379C422.21 625.9 421.232 624.618 419.951 623.695C418.67 622.772 417.145 622.25 415.567 622.195C414.52 622.156 413.476 622.324 412.494 622.69C411.512 623.056 410.612 623.612 409.845 624.326C409.078 625.041 408.46 625.9 408.026 626.854C407.592 627.808 407.35 628.838 407.314 629.886Z" fill="#526C8F"/>
<path d="M409.557 629.954C409.514 631.089 409.808 632.212 410.403 633.179C410.998 634.147 411.867 634.916 412.899 635.39C413.931 635.863 415.081 636.019 416.202 635.838C417.323 635.658 418.365 635.148 419.197 634.374C420.028 633.6 420.611 632.597 420.872 631.491C421.132 630.385 421.059 629.227 420.661 628.163C420.263 627.099 419.559 626.177 418.637 625.514C417.715 624.851 416.617 624.477 415.482 624.439C413.966 624.388 412.492 624.939 411.381 625.973C410.271 627.007 409.615 628.438 409.557 629.954Z" fill="#294972"/>
<defs>
<radialGradient id="paint0_radial_25_24464" cx="0" cy="0" r="1" gradientUnits="userSpaceOnUse" gradientTransform="translate(172.435 82.2453) rotate(180) scale(146.659 146.714)">
<stop offset="0.01" stop-color="#FFD44A"/>
<stop offset="0.54" stop-color="#FFEA72"/>
<stop offset="0.57" stop-color="#FEE471"/>
<stop offset="0.61" stop-color="#FBD46E"/>
<stop offset="0.65" stop-color="#F6BA68"/>
<stop offset="0.7" stop-color="#EF9561"/>
<stop offset="0.71" stop-color="#EE9060"/>
<stop offset="0.96" stop-color="#FFD44A"/>
</radialGradient>
<radialGradient id="paint1_radial_25_24464" cx="0" cy="0" r="1" gradientUnits="userSpaceOnUse" gradientTransform="translate(158.566 82.4597) scale(113.887 113.93)">
<stop offset="0.02" stop-color="#BD4A00"/>
<stop offset="1" stop-color="#864A00"/>
</radialGradient>
<linearGradient id="paint2_linear_25_24464" x1="1.45433" y1="62.5732" x2="100.012" y2="85.2179" gradientUnits="userSpaceOnUse">
<stop stop-color="#EFC16B"/>
<stop offset="0.08" stop-color="#C38F4B"/>
<stop offset="0.12" stop-color="#AA7238"/>
<stop offset="0.25" stop-color="#C08443"/>
<stop offset="0.35" stop-color="#C28543"/>
<stop offset="0.39" stop-color="#C98943"/>
<stop offset="0.41" stop-color="#D48F42"/>
<stop offset="0.42" stop-color="#DB9342"/>
<stop offset="0.66" stop-color="#AC6838"/>
<stop offset="0.89" stop-color="#F0C46C"/>
<stop offset="0.93" stop-color="#EFC26B"/>
<stop offset="0.96" stop-color="#ECB967"/>
<stop offset="0.98" stop-color="#E7AB60"/>
<stop offset="0.99" stop-color="#DF9856"/>
<stop offset="1" stop-color="#DC8F52"/>
</linearGradient>
<linearGradient id="paint3_linear_25_24464" x1="1.45433" y1="62.5732" x2="100.012" y2="85.2179" gradientUnits="userSpaceOnUse">
<stop stop-color="#EFC16B"/>
<stop offset="0.08" stop-color="#C38F4B"/>
<stop offset="0.12" stop-color="#AA7238"/>
<stop offset="0.25" stop-color="#C08443"/>
<stop offset="0.35" stop-color="#C28543"/>
<stop offset="0.39" stop-color="#C98943"/>
<stop offset="0.41" stop-color="#D48F42"/>
<stop offset="0.42" stop-color="#DB9342"/>
<stop offset="0.66" stop-color="#AC6838"/>
<stop offset="0.89" stop-color="#F0C46C"/>
<stop offset="0.93" stop-color="#EFC26B"/>
<stop offset="0.96" stop-color="#ECB967"/>
<stop offset="0.98" stop-color="#E7AB60"/>
<stop offset="0.99" stop-color="#DF9856"/>
<stop offset="1" stop-color="#DC8F52"/>
</linearGradient>
<radialGradient id="paint4_radial_25_24464" cx="0" cy="0" r="1" gradientUnits="userSpaceOnUse" gradientTransform="translate(172.426 82.2461) rotate(180) scale(146.659 146.714)">
<stop offset="0.01" stop-color="#FFD44A"/>
<stop offset="0.54" stop-color="#FFEA72"/>
<stop offset="0.57" stop-color="#FEE471"/>
<stop offset="0.61" stop-color="#FBD46E"/>
<stop offset="0.65" stop-color="#F6BA68"/>
<stop offset="0.7" stop-color="#EF9561"/>
<stop offset="0.71" stop-color="#EE9060"/>
<stop offset="0.96" stop-color="#FFD44A"/>
</radialGradient>
<radialGradient id="paint5_radial_25_24464" cx="0" cy="0" r="1" gradientUnits="userSpaceOnUse" gradientTransform="translate(172.426 82.2461) rotate(180) scale(146.659 146.714)">
<stop stop-color="#BD4A00"/>
<stop offset="0.62" stop-color="#FFEA72"/>
</radialGradient>
<radialGradient id="paint6_radial_25_24464" cx="0" cy="0" r="1" gradientUnits="userSpaceOnUse" gradientTransform="translate(218.219 129.341) rotate(180) scale(40.2196 40.2346)">
<stop stop-color="#FFFFC3"/>
<stop offset="0.95" stop-color="#FFEA72"/>
</radialGradient>
<radialGradient id="paint7_radial_25_24464" cx="0" cy="0" r="1" gradientUnits="userSpaceOnUse" gradientTransform="translate(340.581 64.5608) rotate(180) scale(89.9162 89.95)">
<stop stop-color="#FFFFC3"/>
<stop offset="0.95" stop-color="#FFEA72"/>
</radialGradient>
<radialGradient id="paint8_radial_25_24464" cx="0" cy="0" r="1" gradientUnits="userSpaceOnUse" gradientTransform="translate(11.6503 64.5608) scale(89.9163 89.95)">
<stop stop-color="#FFFFC3"/>
<stop offset="0.95" stop-color="#FFEA72"/>
</radialGradient>
<radialGradient id="paint9_radial_25_24464" cx="0" cy="0" r="1" gradientUnits="userSpaceOnUse" gradientTransform="translate(193.632 82.4594) rotate(180) scale(113.887 113.93)">
<stop offset="0.02" stop-color="#BD4A00"/>
<stop offset="1" stop-color="#864A00"/>
</radialGradient>
<linearGradient id="paint10_linear_25_24464" x1="350.778" y1="62.5732" x2="252.22" y2="85.2179" gradientUnits="userSpaceOnUse">
<stop stop-color="#EFC16B"/>
<stop offset="0.08" stop-color="#C38F4B"/>
<stop offset="0.12" stop-color="#AA7238"/>
<stop offset="0.25" stop-color="#C08443"/>
<stop offset="0.35" stop-color="#C28543"/>
<stop offset="0.39" stop-color="#C98943"/>
<stop offset="0.41" stop-color="#D48F42"/>
<stop offset="0.42" stop-color="#DB9342"/>
<stop offset="0.66" stop-color="#AC6838"/>
<stop offset="0.89" stop-color="#F0C46C"/>
<stop offset="0.93" stop-color="#EFC26B"/>
<stop offset="0.96" stop-color="#ECB967"/>
<stop offset="0.98" stop-color="#E7AB60"/>
<stop offset="0.99" stop-color="#DF9856"/>
<stop offset="1" stop-color="#DC8F52"/>
</linearGradient>
<linearGradient id="paint11_linear_25_24464" x1="350.778" y1="62.5732" x2="252.22" y2="85.2179" gradientUnits="userSpaceOnUse">
<stop stop-color="#EFC16B"/>
<stop offset="0.08" stop-color="#C38F4B"/>
<stop offset="0.12" stop-color="#AA7238"/>
<stop offset="0.25" stop-color="#C08443"/>
<stop offset="0.35" stop-color="#C28543"/>
<stop offset="0.39" stop-color="#C98943"/>
<stop offset="0.41" stop-color="#D48F42"/>
<stop offset="0.42" stop-color="#DB9342"/>
<stop offset="0.66" stop-color="#AC6838"/>
<stop offset="0.89" stop-color="#F0C46C"/>
<stop offset="0.93" stop-color="#EFC26B"/>
<stop offset="0.96" stop-color="#ECB967"/>
<stop offset="0.98" stop-color="#E7AB60"/>
<stop offset="0.99" stop-color="#DF9856"/>
<stop offset="1" stop-color="#DC8F52"/>
</linearGradient>
<radialGradient id="paint12_radial_25_24464" cx="0" cy="0" r="1" gradientUnits="userSpaceOnUse" gradientTransform="translate(174.815 1.13438) rotate(180) scale(205.139 205.216)">
<stop stop-color="#F4BE52"/>
<stop offset="0.62" stop-color="#FFEA72"/>
</radialGradient>
<radialGradient id="paint13_radial_25_24464" cx="0" cy="0" r="1" gradientUnits="userSpaceOnUse" gradientTransform="translate(174.815 1.13438) rotate(180) scale(205.139 205.216)">
<stop stop-color="#BD4A00"/>
<stop offset="0.62" stop-color="#FFEA72"/>
</radialGradient>
<radialGradient id="paint14_radial_25_24464" cx="0" cy="0" r="1" gradientUnits="userSpaceOnUse" gradientTransform="translate(172.032 4.51725) rotate(180) scale(218.58 218.662)">
<stop stop-color="#BD4A00"/>
<stop offset="0.62" stop-color="#FFEA72"/>
</radialGradient>
<radialGradient id="paint15_radial_25_24464" cx="0" cy="0" r="1" gradientUnits="userSpaceOnUse" gradientTransform="translate(172.032 4.51725) rotate(180) scale(218.58 218.662)">
<stop stop-color="#FFFFC3"/>
<stop offset="0.95" stop-color="#FFEA72"/>
</radialGradient>
<radialGradient id="paint16_radial_25_24464" cx="0" cy="0" r="1" gradientUnits="userSpaceOnUse" gradientTransform="translate(169.397 1.13437) rotate(180) scale(147.694 205.207)">
<stop stop-color="#F4BE52"/>
<stop offset="0.62" stop-color="#FFEA72"/>
</radialGradient>
<linearGradient id="paint17_linear_25_24464" x1="176.116" y1="211.061" x2="176.116" y2="10.6749" gradientUnits="userSpaceOnUse">
<stop stop-color="#AA7238"/>
<stop offset="0.25" stop-color="#C08443"/>
<stop offset="0.35" stop-color="#BE8242"/>
<stop offset="0.39" stop-color="#B87B3D"/>
<stop offset="0.42" stop-color="#AD7036"/>
<stop offset="0.44" stop-color="#9D5F2B"/>
<stop offset="0.46" stop-color="#88491D"/>
<stop offset="0.47" stop-color="#7A3A14"/>
<stop offset="0.64" stop-color="#7C3C15"/>
<stop offset="0.72" stop-color="#83441A"/>
<stop offset="0.79" stop-color="#8E5123"/>
<stop offset="0.85" stop-color="#9E642F"/>
<stop offset="0.9" stop-color="#B37C3E"/>
<stop offset="0.95" stop-color="#CD9B52"/>
<stop offset="0.99" stop-color="#EBBE68"/>
<stop offset="1" stop-color="#F0C46C"/>
</linearGradient>
<radialGradient id="paint18_radial_25_24464" cx="0" cy="0" r="1" gradientUnits="userSpaceOnUse" gradientTransform="translate(171.236 11.2744) rotate(180) scale(176.614 176.68)">
<stop offset="0.01" stop-color="#F6C054"/>
<stop offset="0.54" stop-color="#FFEA72"/>
<stop offset="0.58" stop-color="#FFF071"/>
<stop offset="0.59" stop-color="#FFF171"/>
<stop offset="0.82" stop-color="#FFE05A"/>
<stop offset="0.96" stop-color="#FFD44A"/>
</radialGradient>
<radialGradient id="paint19_radial_25_24464" cx="0" cy="0" r="1" gradientUnits="userSpaceOnUse" gradientTransform="translate(174.606 11.2744) rotate(180) scale(137.759 176.68)">
<stop offset="0.01" stop-color="#F6C054"/>
<stop offset="0.54" stop-color="#FFEA72"/>
<stop offset="0.58" stop-color="#FFF071"/>
<stop offset="0.59" stop-color="#FFF171"/>
<stop offset="0.82" stop-color="#FFE05A"/>
<stop offset="0.96" stop-color="#FFD44A"/>
</radialGradient>
<radialGradient id="paint20_radial_25_24464" cx="0" cy="0" r="1" gradientUnits="userSpaceOnUse" gradientTransform="translate(171.947 25.6621) rotate(180) scale(144.167 144.221)">
<stop offset="0.01" stop-color="#F6C054"/>
<stop offset="0.54" stop-color="#FFEA72"/>
<stop offset="0.58" stop-color="#FFF071"/>
<stop offset="0.59" stop-color="#FFF171"/>
<stop offset="0.82" stop-color="#FFE05A"/>
<stop offset="0.96" stop-color="#FFD44A"/>
</radialGradient>
<radialGradient id="paint21_radial_25_24464" cx="0" cy="0" r="1" gradientUnits="userSpaceOnUse" gradientTransform="translate(234.964 31.3745) rotate(180) scale(96.5253 96.5616)">
<stop offset="0.01" stop-color="#F6C054"/>
<stop offset="0.54" stop-color="#FFEA72"/>
<stop offset="0.58" stop-color="#FFF071"/>
<stop offset="0.59" stop-color="#FFF171"/>
<stop offset="0.82" stop-color="#FFE05A"/>
<stop offset="0.96" stop-color="#FFD44A"/>
</radialGradient>
<radialGradient id="paint22_radial_25_24464" cx="0" cy="0" r="1" gradientUnits="userSpaceOnUse" gradientTransform="translate(177.895 11.2744) rotate(180) scale(67.1132 176.68)">
<stop offset="0.01" stop-color="#F6C054"/>
<stop offset="0.54" stop-color="#FFEA72"/>
<stop offset="0.58" stop-color="#FFF071"/>
<stop offset="0.59" stop-color="#FFF171"/>
<stop offset="0.82" stop-color="#FFE05A"/>
<stop offset="0.96" stop-color="#FFD44A"/>
</radialGradient>
<radialGradient id="paint23_radial_25_24464" cx="0" cy="0" r="1" gradientUnits="userSpaceOnUse" gradientTransform="translate(190.747 93.6702) rotate(180) scale(91.8082 91.8427)">
<stop offset="0.01" stop-color="#F6C054"/>
<stop offset="0.54" stop-color="#FFEA72"/>
<stop offset="0.58" stop-color="#FFF071"/>
<stop offset="0.59" stop-color="#FFF171"/>
<stop offset="0.82" stop-color="#FFE05A"/>
<stop offset="0.96" stop-color="#FFD44A"/>
</radialGradient>
<linearGradient id="paint24_linear_25_24464" x1="274.893" y1="7.1119" x2="78.0753" y2="7.1119" gradientUnits="userSpaceOnUse">
<stop offset="0.01" stop-color="#FFD44A"/>
<stop offset="0.11" stop-color="#F5F09F"/>
<stop offset="0.19" stop-color="#F5EE9D"/>
<stop offset="0.21" stop-color="#F4E996"/>
<stop offset="0.24" stop-color="#F3DE8B"/>
<stop offset="0.25" stop-color="#F1D07A"/>
<stop offset="0.26" stop-color="#F0C46C"/>
<stop offset="0.31" stop-color="#EFC26A"/>
<stop offset="0.34" stop-color="#EDBB61"/>
<stop offset="0.36" stop-color="#EAAF53"/>
<stop offset="0.37" stop-color="#E8AA4D"/>
<stop offset="0.51" stop-color="#FCE16D"/>
<stop offset="0.54" stop-color="#FFEA72"/>
<stop offset="0.58" stop-color="#FDE473"/>
<stop offset="0.64" stop-color="#F9D476"/>
<stop offset="0.7" stop-color="#F2BA7C"/>
<stop offset="0.71" stop-color="#F1B87C"/>
<stop offset="0.96" stop-color="#FFD44A"/>
</linearGradient>
<linearGradient id="paint25_linear_25_24464" x1="140.999" y1="7.11187" x2="101.892" y2="7.11187" gradientUnits="userSpaceOnUse">
<stop offset="0.54" stop-color="#FFEA72"/>
<stop offset="0.66" stop-color="#FFE76C"/>
<stop offset="0.83" stop-color="#FFDE5C"/>
<stop offset="0.96" stop-color="#FFD44A"/>
</linearGradient>
<radialGradient id="paint26_radial_25_24464" cx="0" cy="0" r="1" gradientUnits="userSpaceOnUse" gradientTransform="translate(123.628 7.12044) rotate(180) scale(14.4766 14.4821)">
<stop offset="0.01" stop-color="#F6C054"/>
<stop offset="0.54" stop-color="#FFEA72"/>
<stop offset="0.58" stop-color="#FFF071"/>
<stop offset="0.59" stop-color="#FFF171"/>
<stop offset="0.82" stop-color="#FFE05A"/>
<stop offset="0.96" stop-color="#FFD44A"/>
</radialGradient>
<radialGradient id="paint27_radial_25_24464" cx="0" cy="0" r="1" gradientUnits="userSpaceOnUse" gradientTransform="translate(176.98 7.1206) rotate(180) scale(69.7379 69.7642)">
<stop offset="0.01" stop-color="#F6C054"/>
<stop offset="0.54" stop-color="#FFEA72"/>
<stop offset="0.66" stop-color="#FFE76C"/>
<stop offset="0.83" stop-color="#FFDE5C"/>
<stop offset="0.96" stop-color="#FFD44A"/>
</radialGradient>
<radialGradient id="paint28_radial_25_24464" cx="0" cy="0" r="1" gradientUnits="userSpaceOnUse" gradientTransform="translate(176.981 1.56934) rotate(180) scale(69.7294 55.8043)">
<stop offset="0.01" stop-color="#F6C054"/>
<stop offset="0.54" stop-color="#FFEA72"/>
<stop offset="0.58" stop-color="#FFF071"/>
<stop offset="0.59" stop-color="#FFF171"/>
<stop offset="0.82" stop-color="#FFE05A"/>
<stop offset="0.96" stop-color="#FFD44A"/>
</radialGradient>
<linearGradient id="paint29_linear_25_24464" x1="247.908" y1="8.3796" x2="196.542" y2="8.3796" gradientUnits="userSpaceOnUse">
<stop stop-color="#AA7238"/>
<stop offset="0.25" stop-color="#C08443"/>
<stop offset="0.35" stop-color="#BE8242"/>
<stop offset="0.39" stop-color="#B87B3D"/>
<stop offset="0.42" stop-color="#AD7036"/>
<stop offset="0.44" stop-color="#9D5F2B"/>
<stop offset="0.46" stop-color="#88491D"/>
<stop offset="0.47" stop-color="#7A3A14"/>
<stop offset="0.5" stop-color="#7F4018"/>
<stop offset="0.56" stop-color="#8E5223"/>
<stop offset="0.62" stop-color="#A76F36"/>
<stop offset="0.69" stop-color="#CA974F"/>
<stop offset="0.76" stop-color="#F0C46C"/>
</linearGradient>
<radialGradient id="paint30_radial_25_24464" cx="0" cy="0" r="1" gradientUnits="userSpaceOnUse" gradientTransform="translate(174.104 38.1486) rotate(180) scale(179.884 179.951)">
<stop offset="0.38" stop-color="#FFEA72"/>
<stop offset="0.45" stop-color="#FADE69"/>
<stop offset="0.59" stop-color="#ECBD52"/>
<stop offset="0.74" stop-color="#DA9032"/>
</radialGradient>
<linearGradient id="paint31_linear_25_24464" x1="160.227" y1="217.278" x2="190.276" y2="217.278" gradientUnits="userSpaceOnUse">
<stop stop-color="#FFEA72"/>
<stop offset="0.75" stop-color="#F1AA00"/>
<stop offset="0.89" stop-color="#F4BE52"/>
</linearGradient>
<linearGradient id="paint32_linear_25_24464" x1="151.614" y1="208.097" x2="151.717" y2="250.336" gradientUnits="userSpaceOnUse">
<stop stop-color="#FFFFC3"/>
<stop offset="0.95" stop-color="#FFEA72"/>
</linearGradient>
<linearGradient id="paint33_linear_25_24464" x1="200.48" y1="207.994" x2="200.583" y2="250.233" gradientUnits="userSpaceOnUse">
<stop stop-color="#FFFFC3"/>
<stop offset="0.95" stop-color="#FFEA72"/>
</linearGradient>
<linearGradient id="paint34_linear_25_24464" x1="161.031" y1="217.278" x2="202.021" y2="217.278" gradientUnits="userSpaceOnUse">
<stop stop-color="#AA7238"/>
<stop offset="0.25" stop-color="#C08443"/>
<stop offset="0.35" stop-color="#BE8242"/>
<stop offset="0.39" stop-color="#B87B3D"/>
<stop offset="0.42" stop-color="#AD7036"/>
<stop offset="0.44" stop-color="#9D5F2B"/>
<stop offset="0.46" stop-color="#88491D"/>
<stop offset="0.47" stop-color="#7A3A14"/>
<stop offset="0.64" stop-color="#7C3C15"/>
<stop offset="0.72" stop-color="#83441A"/>
<stop offset="0.79" stop-color="#8E5123"/>
<stop offset="0.85" stop-color="#9E642F"/>
<stop offset="0.9" stop-color="#B37C3E"/>
<stop offset="0.95" stop-color="#CD9B52"/>
<stop offset="0.99" stop-color="#EBBE68"/>
<stop offset="1" stop-color="#F0C46C"/>
</linearGradient>
<linearGradient id="paint35_linear_25_24464" x1="186.081" y1="217.073" x2="173.41" y2="217.928" gradientUnits="userSpaceOnUse">
<stop stop-color="#AA7238"/>
<stop offset="0.25" stop-color="#C08443"/>
<stop offset="0.35" stop-color="#BE8242"/>
<stop offset="0.39" stop-color="#B87B3D"/>
<stop offset="0.42" stop-color="#AD7036"/>
<stop offset="0.44" stop-color="#9D5F2B"/>
<stop offset="0.46" stop-color="#88491D"/>
<stop offset="0.47" stop-color="#7A3A14"/>
<stop offset="0.57" stop-color="#7D3D16"/>
<stop offset="0.66" stop-color="#86481D"/>
<stop offset="0.74" stop-color="#955A28"/>
<stop offset="0.83" stop-color="#AB7338"/>
<stop offset="0.91" stop-color="#C6934D"/>
<stop offset="0.98" stop-color="#E8BA66"/>
<stop offset="1" stop-color="#F0C46C"/>
</linearGradient>
<radialGradient id="paint36_radial_25_24464" cx="0" cy="0" r="1" gradientUnits="userSpaceOnUse" gradientTransform="translate(176.98 217.27) scale(9.03189 9.03526)">
<stop offset="0.01" stop-color="#F6C054"/>
<stop offset="0.54" stop-color="#FFEA72"/>
<stop offset="0.58" stop-color="#FFF071"/>
<stop offset="0.59" stop-color="#FFF171"/>
<stop offset="0.82" stop-color="#FFE05A"/>
<stop offset="0.96" stop-color="#FFD44A"/>
</radialGradient>
<linearGradient id="paint37_linear_25_24464" x1="160.227" y1="217.278" x2="190.276" y2="217.278" gradientUnits="userSpaceOnUse">
<stop stop-color="#FFE791"/>
<stop offset="0.11" stop-color="#FFD951"/>
<stop offset="0.22" stop-color="#FFCC17"/>
<stop offset="0.27" stop-color="#FFC700"/>
<stop offset="0.48" stop-color="#FFD233"/>
<stop offset="0.72" stop-color="#FFDD66"/>
<stop offset="0.9" stop-color="#FFE485"/>
<stop offset="1" stop-color="#FFE791"/>
</linearGradient>
<linearGradient id="paint38_linear_25_24464" x1="160.226" y1="234.989" x2="190.276" y2="234.989" gradientUnits="userSpaceOnUse">
<stop stop-color="#FFEA72"/>
<stop offset="0.75" stop-color="#F1AA00"/>
<stop offset="0.89" stop-color="#F4BE52"/>
</linearGradient>
<linearGradient id="paint39_linear_25_24464" x1="166.938" y1="235.657" x2="189.163" y2="235.657" gradientUnits="userSpaceOnUse">
<stop stop-color="#FFE791"/>
<stop offset="0.11" stop-color="#FFD951"/>
<stop offset="0.22" stop-color="#FFCC17"/>
<stop offset="0.27" stop-color="#FFC700"/>
<stop offset="0.48" stop-color="#FFD233"/>
<stop offset="0.72" stop-color="#FFDD66"/>
<stop offset="0.9" stop-color="#FFE485"/>
<stop offset="1" stop-color="#FFE791"/>
</linearGradient>
<linearGradient id="paint40_linear_25_24464" x1="170.962" y1="234.44" x2="161.716" y2="235.433" gradientUnits="userSpaceOnUse">
<stop stop-color="#AA7238"/>
<stop offset="0.25" stop-color="#C08443"/>
<stop offset="0.35" stop-color="#BE8242"/>
<stop offset="0.39" stop-color="#B87B3D"/>
<stop offset="0.42" stop-color="#AD7036"/>
<stop offset="0.44" stop-color="#9D5F2B"/>
<stop offset="0.46" stop-color="#88491D"/>
<stop offset="0.47" stop-color="#7A3A14"/>
<stop offset="0.64" stop-color="#7C3C15"/>
<stop offset="0.72" stop-color="#83441A"/>
<stop offset="0.79" stop-color="#8E5123"/>
<stop offset="0.85" stop-color="#9E642F"/>
<stop offset="0.9" stop-color="#B37C3E"/>
<stop offset="0.95" stop-color="#CD9B52"/>
<stop offset="0.99" stop-color="#EBBE68"/>
<stop offset="1" stop-color="#F0C46C"/>
</linearGradient>
<radialGradient id="paint41_radial_25_24464" cx="0" cy="0" r="1" gradientUnits="userSpaceOnUse" gradientTransform="translate(176.064 234.989) rotate(180) scale(17.0964 17.1028)">
<stop offset="0.01" stop-color="#F6C054"/>
<stop offset="0.54" stop-color="#FFEA72"/>
<stop offset="0.58" stop-color="#FFF071"/>
<stop offset="0.59" stop-color="#FFF171"/>
<stop offset="0.82" stop-color="#FFE05A"/>
<stop offset="0.96" stop-color="#FFD44A"/>
</radialGradient>
<linearGradient id="paint42_linear_25_24464" x1="184.077" y1="232.557" x2="176.201" y2="231.461" gradientUnits="userSpaceOnUse">
<stop stop-color="#AA7238"/>
<stop offset="0.25" stop-color="#C08443"/>
<stop offset="0.35" stop-color="#BE8242"/>
<stop offset="0.39" stop-color="#B87B3D"/>
<stop offset="0.42" stop-color="#AD7036"/>
<stop offset="0.44" stop-color="#9D5F2B"/>
<stop offset="0.46" stop-color="#88491D"/>
<stop offset="0.47" stop-color="#7A3A14"/>
<stop offset="0.57" stop-color="#7D3D16"/>
<stop offset="0.66" stop-color="#86481D"/>
<stop offset="0.74" stop-color="#955A28"/>
<stop offset="0.83" stop-color="#AB7338"/>
<stop offset="0.91" stop-color="#C6934D"/>
<stop offset="0.98" stop-color="#E8BA66"/>
<stop offset="1" stop-color="#F0C46C"/>
</linearGradient>
<linearGradient id="paint43_linear_25_24464" x1="176.698" y1="241.309" x2="176.081" y2="222.827" gradientUnits="userSpaceOnUse">
<stop stop-color="#FFFFC3"/>
<stop offset="0.42" stop-color="#ECC972"/>
</linearGradient>
<radialGradient id="paint44_radial_25_24464" cx="0" cy="0" r="1" gradientUnits="userSpaceOnUse" gradientTransform="translate(170.705 221.954) rotate(180) scale(26.3765 26.3865)">
<stop stop-color="#FFFFC3"/>
<stop offset="0.95" stop-color="#FFEA72"/>
</radialGradient>
<radialGradient id="paint45_radial_25_24464" cx="0" cy="0" r="1" gradientUnits="userSpaceOnUse" gradientTransform="translate(170.954 225.919) rotate(180) scale(31.9326 31.9445)">
<stop stop-color="#FFFFC3"/>
<stop offset="0.42" stop-color="#ECC972"/>
</radialGradient>
<linearGradient id="paint46_linear_25_24464" x1="103.399" y1="378.199" x2="247.784" y2="466.859" gradientUnits="userSpaceOnUse">
<stop offset="0.04" stop-color="#A5422D"/>
<stop offset="0.99" stop-color="#6A2E25"/>
</linearGradient>
<radialGradient id="paint47_radial_25_24464" cx="0" cy="0" r="1" gradientUnits="userSpaceOnUse" gradientTransform="translate(176.116 450.854) rotate(180) scale(66.6988 52.0447)">
<stop offset="0.01" stop-color="#F6C054"/>
<stop offset="0.54" stop-color="#FFEA72"/>
<stop offset="0.58" stop-color="#FFF071"/>
<stop offset="0.59" stop-color="#FFF171"/>
<stop offset="0.82" stop-color="#FFE05A"/>
<stop offset="0.96" stop-color="#FFD44A"/>
</radialGradient>
<radialGradient id="paint48_radial_25_24464" cx="0" cy="0" r="1" gradientUnits="userSpaceOnUse" gradientTransform="translate(176.116 451.988) rotate(180) scale(66.579 66.604)">
<stop stop-color="#FFFFC3"/>
<stop offset="0.95" stop-color="#FFEA72"/>
</radialGradient>
<radialGradient id="paint49_radial_25_24464" cx="0" cy="0" r="1" gradientUnits="userSpaceOnUse" gradientTransform="translate(175.302 299.682) rotate(180) scale(33.5506 33.5632)">
<stop stop-color="#FFFFC3"/>
<stop offset="0.95" stop-color="#FFEA72"/>
</radialGradient>
<linearGradient id="paint50_linear_25_24464" x1="176.116" y1="345.038" x2="176.116" y2="247.766" gradientUnits="userSpaceOnUse">
<stop stop-color="#AA7238"/>
<stop offset="0.25" stop-color="#C08443"/>
<stop offset="0.35" stop-color="#BE8242"/>
<stop offset="0.39" stop-color="#B87B3D"/>
<stop offset="0.42" stop-color="#AD7036"/>
<stop offset="0.44" stop-color="#9D5F2B"/>
<stop offset="0.46" stop-color="#88491D"/>
<stop offset="0.47" stop-color="#7A3A14"/>
<stop offset="0.64" stop-color="#7C3C15"/>
<stop offset="0.72" stop-color="#83441A"/>
<stop offset="0.79" stop-color="#8E5123"/>
<stop offset="0.85" stop-color="#9E642F"/>
<stop offset="0.9" stop-color="#B37C3E"/>
<stop offset="0.95" stop-color="#CD9B52"/>
<stop offset="0.99" stop-color="#EBBE68"/>
<stop offset="1" stop-color="#F0C46C"/>
</linearGradient>
<linearGradient id="paint51_linear_25_24464" x1="188.786" y1="301.207" x2="149.251" y2="301.207" gradientUnits="userSpaceOnUse">
<stop stop-color="#FFE791"/>
<stop offset="0.11" stop-color="#FFD951"/>
<stop offset="0.22" stop-color="#FFCC17"/>
<stop offset="0.27" stop-color="#FFC700"/>
<stop offset="0.48" stop-color="#FFD233"/>
<stop offset="0.72" stop-color="#FFDD66"/>
<stop offset="0.9" stop-color="#FFE485"/>
<stop offset="1" stop-color="#FFE791"/>
</linearGradient>
<radialGradient id="paint52_radial_25_24464" cx="0" cy="0" r="1" gradientUnits="userSpaceOnUse" gradientTransform="translate(174.373 301.207) rotate(180) scale(31.9498 39.9521)">
<stop offset="0.01" stop-color="#F6C054"/>
<stop offset="0.54" stop-color="#FFEA72"/>
<stop offset="0.58" stop-color="#FFF071"/>
<stop offset="0.59" stop-color="#FFF171"/>
<stop offset="0.82" stop-color="#FFE05A"/>
<stop offset="0.96" stop-color="#FFD44A"/>
</radialGradient>
<radialGradient id="paint53_radial_25_24464" cx="0" cy="0" r="1" gradientUnits="userSpaceOnUse" gradientTransform="translate(176.116 358.836) rotate(180) scale(42.3599 42.3758)">
<stop stop-color="#FFFFC3"/>
<stop offset="0.95" stop-color="#FFEA72"/>
</radialGradient>
<radialGradient id="paint54_radial_25_24464" cx="0" cy="0" r="1" gradientUnits="userSpaceOnUse" gradientTransform="translate(176.133 359.81) rotate(180) scale(42.6424 35.8329)">
<stop offset="0.01" stop-color="#F6C054"/>
<stop offset="0.54" stop-color="#FFEA72"/>
<stop offset="0.66" stop-color="#FFE76C"/>
<stop offset="0.83" stop-color="#FFDE5C"/>
<stop offset="0.96" stop-color="#FFD44A"/>
</radialGradient>
<radialGradient id="paint55_radial_25_24464" cx="0" cy="0" r="1" gradientUnits="userSpaceOnUse" gradientTransform="translate(176.133 359.81) rotate(180) scale(43.2331 36.3294)">
<stop offset="0.01" stop-color="#F6C054"/>
<stop offset="0.54" stop-color="#FFEA72"/>
<stop offset="0.58" stop-color="#FFF071"/>
<stop offset="0.59" stop-color="#FFF171"/>
<stop offset="0.82" stop-color="#FFE05A"/>
<stop offset="0.96" stop-color="#FFD44A"/>
</radialGradient>
<linearGradient id="paint56_linear_25_24464" x1="211.421" y1="360.54" x2="171.51" y2="360.54" gradientUnits="userSpaceOnUse">
<stop stop-color="#AA7238"/>
<stop offset="0.25" stop-color="#C08443"/>
<stop offset="0.35" stop-color="#BE8242"/>
<stop offset="0.39" stop-color="#B87B3D"/>
<stop offset="0.42" stop-color="#AD7036"/>
<stop offset="0.44" stop-color="#9D5F2B"/>
<stop offset="0.46" stop-color="#88491D"/>
<stop offset="0.47" stop-color="#7A3A14"/>
<stop offset="0.64" stop-color="#7C3C15"/>
<stop offset="0.72" stop-color="#83441A"/>
<stop offset="0.79" stop-color="#8E5123"/>
<stop offset="0.85" stop-color="#9E642F"/>
<stop offset="0.9" stop-color="#B37C3E"/>
<stop offset="0.95" stop-color="#CD9B52"/>
<stop offset="0.99" stop-color="#EBBE68"/>
<stop offset="1" stop-color="#F0C46C"/>
</linearGradient>
<radialGradient id="paint57_radial_25_24464" cx="0" cy="0" r="1" gradientUnits="userSpaceOnUse" gradientTransform="translate(175.525 229.499) rotate(180) scale(31.496 31.5077)">
<stop stop-color="#FFEA72"/>
<stop offset="0.75" stop-color="#F4BE52"/>
<stop offset="0.89" stop-color="#F4BE52"/>
</radialGradient>
<radialGradient id="paint58_radial_25_24464" cx="0" cy="0" r="1" gradientUnits="userSpaceOnUse" gradientTransform="translate(174.686 245.899) rotate(180) scale(16.6512 16.6574)">
<stop stop-color="#FFFFC3"/>
<stop offset="0.95" stop-color="#FFEA72"/>
</radialGradient>
<radialGradient id="paint59_radial_25_24464" cx="0" cy="0" r="1" gradientUnits="userSpaceOnUse" gradientTransform="translate(178.909 229.499) rotate(180) scale(28.3463 31.5077)">
<stop stop-color="#FFEA72"/>
<stop offset="0.75" stop-color="#F1AA00"/>
<stop offset="0.89" stop-color="#F4BE52"/>
</radialGradient>
<linearGradient id="paint60_linear_25_24464" x1="189.415" y1="248.914" x2="165.22" y2="248.914" gradientUnits="userSpaceOnUse">
<stop stop-color="#AA7238"/>
<stop offset="0.25" stop-color="#C08443"/>
<stop offset="0.35" stop-color="#BE8242"/>
<stop offset="0.39" stop-color="#B87B3D"/>
<stop offset="0.42" stop-color="#AD7036"/>
<stop offset="0.44" stop-color="#9D5F2B"/>
<stop offset="0.46" stop-color="#88491D"/>
<stop offset="0.47" stop-color="#7A3A14"/>
<stop offset="0.64" stop-color="#7C3C15"/>
<stop offset="0.72" stop-color="#83441A"/>
<stop offset="0.79" stop-color="#8E5123"/>
<stop offset="0.85" stop-color="#9E642F"/>
<stop offset="0.9" stop-color="#B37C3E"/>
<stop offset="0.95" stop-color="#CD9B52"/>
<stop offset="0.99" stop-color="#EBBE68"/>
<stop offset="1" stop-color="#F0C46C"/>
</linearGradient>
<radialGradient id="paint61_radial_25_24464" cx="0" cy="0" r="1" gradientUnits="userSpaceOnUse" gradientTransform="translate(175.286 236.924) rotate(180) scale(18.8085 18.8155)">
<stop offset="0.01" stop-color="#F6C054"/>
<stop offset="0.54" stop-color="#FFEA72"/>
<stop offset="0.66" stop-color="#FFE76C"/>
<stop offset="0.83" stop-color="#FFDE5C"/>
<stop offset="0.96" stop-color="#FFD44A"/>
</radialGradient>
<linearGradient id="paint62_linear_25_24464" x1="176.784" y1="456.048" x2="176.784" y2="475.284" gradientUnits="userSpaceOnUse">
<stop offset="0.04" stop-color="#A5422D"/>
<stop offset="0.48" stop-color="#8A3929"/>
<stop offset="0.99" stop-color="#6A2E25"/>
</linearGradient>
<radialGradient id="paint63_radial_25_24464" cx="0" cy="0" r="1" gradientUnits="userSpaceOnUse" gradientTransform="translate(177.032 408.071) rotate(180) scale(47.7447 47.7626)">
<stop stop-color="#FFFFC3"/>
<stop offset="1" stop-color="#FFF18D"/>
</radialGradient>
<linearGradient id="paint64_linear_25_24464" x1="228.954" y1="429.824" x2="114.943" y2="382.101" gradientUnits="userSpaceOnUse">
<stop offset="0.01" stop-color="#F6C054"/>
<stop offset="0.28" stop-color="#CDA85A"/>
<stop offset="0.54" stop-color="#FFEA72"/>
<stop offset="0.58" stop-color="#FFF071"/>
<stop offset="0.59" stop-color="#FFF171"/>
<stop offset="0.82" stop-color="#FFE05A"/>
<stop offset="0.96" stop-color="#FFD44A"/>
</linearGradient>
<linearGradient id="paint65_linear_25_24464" x1="225.427" y1="443.681" x2="107.17" y2="394.194" gradientUnits="userSpaceOnUse">
<stop offset="0.01" stop-color="#F6C054"/>
<stop offset="0.28" stop-color="#CDA85A"/>
<stop offset="0.54" stop-color="#FFEA72"/>
<stop offset="0.58" stop-color="#FFF071"/>
<stop offset="0.59" stop-color="#FFF171"/>
<stop offset="0.82" stop-color="#FFE05A"/>
<stop offset="0.96" stop-color="#FFD44A"/>
</linearGradient>
<linearGradient id="paint66_linear_25_24464" x1="236.608" y1="417.355" x2="102.921" y2="361.398" gradientUnits="userSpaceOnUse">
<stop offset="0.01" stop-color="#F6C054"/>
<stop offset="0.28" stop-color="#CDA85A"/>
<stop offset="0.54" stop-color="#FFEA72"/>
<stop offset="0.58" stop-color="#FFF071"/>
<stop offset="0.59" stop-color="#FFF171"/>
<stop offset="0.82" stop-color="#FFE05A"/>
<stop offset="0.96" stop-color="#FFD44A"/>
</linearGradient>
<linearGradient id="paint67_linear_25_24464" x1="222.431" y1="387.62" x2="220.615" y2="390.257" gradientUnits="userSpaceOnUse">
<stop stop-color="#B8B3A6"/>
<stop offset="1" stop-color="#61563A"/>
</linearGradient>
<linearGradient id="paint68_linear_25_24464" x1="133.328" y1="387.62" x2="131.495" y2="390.258" gradientUnits="userSpaceOnUse">
<stop stop-color="#B8B3A6"/>
<stop offset="1" stop-color="#61563A"/>
</linearGradient>
<linearGradient id="paint69_linear_25_24464" x1="222.431" y1="425.954" x2="220.615" y2="428.591" gradientUnits="userSpaceOnUse">
<stop stop-color="#B8B3A6"/>
<stop offset="1" stop-color="#61563A"/>
</linearGradient>
<linearGradient id="paint70_linear_25_24464" x1="133.328" y1="425.953" x2="131.495" y2="428.591" gradientUnits="userSpaceOnUse">
<stop stop-color="#B8B3A6"/>
<stop offset="1" stop-color="#61563A"/>
</linearGradient>
<radialGradient id="paint71_radial_25_24464" cx="0" cy="0" r="1" gradientUnits="userSpaceOnUse" gradientTransform="translate(176.981 7.12028) rotate(180) scale(69.738 69.7639)">
<stop stop-color="#FFFFC3"/>
<stop offset="0.95" stop-color="#FFEA72"/>
</radialGradient>
<radialGradient id="paint72_radial_25_24464" cx="0" cy="0" r="1" gradientUnits="userSpaceOnUse" gradientTransform="translate(179.799 247.327) rotate(-149.34) scale(7.4433 16.2724)">
<stop stop-color="#ECECD1"/>
<stop offset="1"/>
</radialGradient>
<radialGradient id="paint73_radial_25_24464" cx="0" cy="0" r="1" gradientUnits="userSpaceOnUse" gradientTransform="translate(16.5015 29.4813) rotate(-149.34) scale(17.7887 38.8892)">
<stop stop-color="#ECECD1"/>
<stop offset="1"/>
</radialGradient>
<radialGradient id="paint74_radial_25_24464" cx="0" cy="0" r="1" gradientUnits="userSpaceOnUse" gradientTransform="translate(342.812 40.6525) rotate(-149.34) scale(17.8263 38.9715)">
<stop stop-color="#ECECD1"/>
<stop offset="1"/>
</radialGradient>
<radialGradient id="paint75_radial_25_24464" cx="0" cy="0" r="1" gradientUnits="userSpaceOnUse" gradientTransform="translate(110.791 6.97748) rotate(-90) scale(31.6095 68.1324)">
<stop stop-color="#ECECD1"/>
<stop offset="1"/>
</radialGradient>
<radialGradient id="paint76_radial_25_24464" cx="0" cy="0" r="1" gradientUnits="userSpaceOnUse" gradientTransform="translate(111.934 12.18) rotate(180) scale(22.4042 25.1021)">
<stop stop-color="#FFEFA1"/>
<stop offset="0.13" stop-color="#E5D791"/>
<stop offset="0.4" stop-color="#A39967"/>
<stop offset="0.79" stop-color="#3B3725"/>
<stop offset="1"/>
</radialGradient>
<radialGradient id="paint77_radial_25_24464" cx="0" cy="0" r="1" gradientUnits="userSpaceOnUse" gradientTransform="translate(111.6 12.1795) rotate(180) scale(3.10763 3.48186)">
<stop offset="0.51" stop-color="#FFFCCC"/>
<stop offset="0.56" stop-color="#FAF7C8"/>
<stop offset="0.62" stop-color="#EAE8BB"/>
<stop offset="0.69" stop-color="#D1CFA7"/>
<stop offset="0.76" stop-color="#AEAC8B"/>
<stop offset="0.83" stop-color="#807F67"/>
<stop offset="0.91" stop-color="#49483A"/>
<stop offset="0.99" stop-color="#080807"/>
<stop offset="1"/>
</radialGradient>
<radialGradient id="paint78_radial_25_24464" cx="0" cy="0" r="1" gradientUnits="userSpaceOnUse" gradientTransform="translate(159.97 367.819) rotate(180) scale(22.4042 25.102)">
<stop stop-color="#FFEFA1"/>
<stop offset="0.13" stop-color="#E5D791"/>
<stop offset="0.4" stop-color="#A39967"/>
<stop offset="0.79" stop-color="#3B3725"/>
<stop offset="1"/>
</radialGradient>
<radialGradient id="paint79_radial_25_24464" cx="0" cy="0" r="1" gradientUnits="userSpaceOnUse" gradientTransform="translate(159.636 367.82) rotate(180) scale(3.10766 3.48189)">
<stop offset="0.51" stop-color="#FFFCCC"/>
<stop offset="0.56" stop-color="#FAF7C8"/>
<stop offset="0.62" stop-color="#EAE8BB"/>
<stop offset="0.69" stop-color="#D1CFA7"/>
<stop offset="0.76" stop-color="#AEAC8B"/>
<stop offset="0.83" stop-color="#807F67"/>
<stop offset="0.91" stop-color="#49483A"/>
<stop offset="0.99" stop-color="#080807"/>
<stop offset="1"/>
</radialGradient>
<radialGradient id="paint80_radial_25_24464" cx="0" cy="0" r="1" gradientUnits="userSpaceOnUse" gradientTransform="translate(146.007 50.7483) rotate(-114.138) scale(36.823 67.9779)">
<stop stop-color="#ECECD1"/>
<stop offset="1"/>
</radialGradient>
<radialGradient id="paint81_radial_25_24464" cx="0" cy="0" r="1" gradientUnits="userSpaceOnUse" gradientTransform="translate(225.256 447.795) rotate(-114.138) scale(17.3909 32.1049)">
<stop stop-color="#ECECD1"/>
<stop offset="1"/>
</radialGradient>
<radialGradient id="paint82_radial_25_24464" cx="0" cy="0" r="1" gradientUnits="userSpaceOnUse" gradientTransform="translate(163.655 358.616) rotate(-149.255) scale(13.9536 22.2409)">
<stop stop-color="#ECECD1"/>
<stop offset="1"/>
</radialGradient>
<radialGradient id="paint83_radial_25_24464" cx="0" cy="0" r="1" gradientUnits="userSpaceOnUse" gradientTransform="translate(158.386 91.7949) rotate(180) scale(280.878 280.984)">
<stop stop-color="#ECECBB"/>
<stop offset="1" stop-color="#784F58"/>
</radialGradient>
</defs>
</svg>
