<svg width="108" height="183" viewBox="0 0 108 183" fill="none" xmlns="http://www.w3.org/2000/svg">
<ellipse cx="48" cy="53" rx="44" ry="45" fill="#D9D9D9"/>
<path d="M40.987 92.458L22.877 178.518L39.987 161.638L52.467 182.298L54.857 92.458H40.987Z" fill="url(#paint0_radial_25_26631)"/>
<path d="M35.017 122.879C35.017 122.879 28.697 153.659 26.957 162.879C30.44 149.718 33.1315 136.361 35.017 122.879Z" fill="url(#paint1_radial_25_26631)"/>
<path opacity="0.46" d="M22.877 178.529L39.987 161.649L52.4669 182.309L53.6669 138.579C47.0735 135.285 39.9051 133.299 32.5569 132.729L22.877 178.529Z" fill="url(#paint2_radial_25_26631)"/>
<path d="M51.2376 95.9885L49.2376 170.179L42.9776 159.829L41.6676 157.639L40.6676 155.999L39.3076 157.349L37.4876 159.139L28.7176 167.789L43.8276 95.9885H51.2376ZM52.7876 94.4785H42.6676L26.2676 172.389L38.5676 160.199L40.3876 158.399L41.7076 160.589L50.6676 175.379L52.8276 94.4785H52.7876Z" fill="url(#paint3_radial_25_26631)"/>
<g style="mix-blend-mode:multiply" opacity="0.28">
<path d="M53.4062 146.579V146.749L54.8562 92.4688H40.9863L38.1562 105.939C43.4262 103.449 52.4463 107.139 53.4062 146.579Z" fill="url(#paint4_radial_25_26631)"/>
</g>
<path d="M52.4473 120.998C52.4473 120.998 54.1673 163.568 54.8873 176.328C55.1779 157.853 54.3631 139.376 52.4473 120.998Z" fill="url(#paint5_radial_25_26631)"/>
<path d="M50.8369 94.6488C50.8369 94.6488 54.6769 168.699 54.8369 182.979C54.8369 182.979 63.7269 168.199 69.6169 158.799C69.6169 158.799 86.4169 175.079 89.6169 180.799L67.7969 92.4688L50.8369 94.6488Z" fill="url(#paint6_radial_25_26631)"/>
<path opacity="0.82" d="M52.7568 133.058C53.1268 140.618 53.5968 150.608 53.9168 157.658C56.1768 152.478 59.4568 149.198 65.7068 147.758C75.3268 145.528 82.9068 153.608 82.9068 153.608L76.6668 128.358C70.0168 127.358 59.4768 129.768 52.7568 133.058Z" fill="url(#paint7_radial_25_26631)"/>
<path d="M72.3262 114.668C72.3262 114.668 82.2162 156.118 85.3762 168.488C82.1062 150.303 77.7483 132.331 72.3262 114.668Z" fill="url(#paint8_radial_25_26631)"/>
<path d="M64.7468 96.918L81.5968 165.108C77.3368 160.668 73.3868 156.808 72.4468 155.898L70.2068 153.728L68.8668 152.428L67.8668 154.018L66.2168 156.658C64.2168 159.918 61.5668 164.148 58.4368 169.288C57.5468 147.358 55.5968 109.078 55.0368 98.168L64.7368 96.918H64.7468ZM65.8868 95.248L53.4668 96.848C54.0268 107.658 56.3468 153.168 57.1268 174.358C60.2068 169.288 64.3168 162.558 67.5068 157.458L69.1568 154.818L71.3968 156.988C72.4868 158.048 78.9668 164.368 84.4568 170.368L65.8868 95.248Z" fill="url(#paint9_radial_25_26631)"/>
<g style="mix-blend-mode:multiply">
<path opacity="0.28" d="M63.2764 106.949C66.2414 106.614 69.2354 107.242 71.8164 108.739L67.8164 92.4688L50.8164 94.6488C50.8164 94.6488 51.3864 105.589 52.0864 119.869C53.1464 110.679 56.9964 107.579 63.2764 106.949Z" fill="url(#paint10_radial_25_26631)"/>
</g>
<path d="M32.127 4.92864C30.237 9.39864 37.727 21.5586 37.727 21.5586C37.727 21.5586 38.247 21.6386 39.037 21.7286C38.407 18.0786 37.037 11.0986 35.737 7.72865C33.937 3.19864 32.277 4.76864 32.127 4.92864Z" fill="#8D191C"/>
<path d="M47.7169 1.19823C43.8869 0.0782303 34.717 1.62823 32.517 4.29823C32.3488 4.49708 32.2168 4.72384 32.127 4.96823C32.277 4.80823 33.937 3.24823 35.737 7.74823C37.087 11.1382 38.4069 18.1182 39.0369 21.7482C41.4769 22.0082 46.607 22.2882 47.687 20.1682C49.107 17.3282 51.5569 2.27823 47.7169 1.19823Z" fill="url(#paint11_radial_25_26631)"/>
<path d="M35.6669 3.91824C36.196 3.55787 36.7626 3.2561 37.3569 3.01824C39.2967 2.36426 41.3139 1.96755 43.3569 1.83824C44.9569 1.67824 46.9869 1.37824 48.2869 2.64824C48.8005 3.31449 49.0689 4.13731 49.0469 4.97824C49.1669 7.45824 48.3269 11.9782 46.8669 9.20824C45.4069 6.43824 42.8669 4.56824 40.7069 6.37824C38.5469 8.18824 38.7069 12.1282 37.5869 8.92824C36.3669 5.50824 34.5969 4.58824 35.6669 3.91824Z" fill="url(#paint12_radial_25_26631)"/>
<g style="mix-blend-mode:multiply">
<path d="M45.1371 15.0984C45.4671 13.0984 45.3971 9.45837 43.4071 8.27837C42.4771 7.72837 41.4071 9.08837 41.2071 9.75837C40.4871 11.7584 41.2071 14.2484 41.6471 16.1784C41.9887 17.534 42.406 18.8694 42.8971 20.1784C42.8971 20.1784 43.2271 19.9984 43.2171 19.9784C42.633 18.4115 42.152 16.808 41.7771 15.1784C41.3371 13.2684 40.4771 9.70837 42.3971 8.31837L42.0871 8.51837C44.8071 7.09837 45.0271 14.0384 44.8171 15.2884C44.8171 15.1984 45.1171 15.1584 45.1371 15.0784V15.0984Z" fill="#B82234"/>
</g>
<path style="mix-blend-mode:multiply" opacity="0.54" d="M40.5075 13.858C40.5075 14.188 41.8675 16.988 39.8575 17.348C38.7675 17.538 38.2175 16.728 37.9375 15.938C38.3875 18.108 38.7775 20.208 39.0375 21.728C41.4775 21.988 46.6075 22.268 47.6875 20.148C48.5375 18.448 49.7575 12.348 49.7775 7.49805C49.6349 9.46478 49.2624 11.408 48.6675 13.288C47.6675 16.188 45.6675 17.368 45.7675 13.288C45.7675 11.708 44.7675 6.55805 41.4775 8.16805C41.1744 8.39527 40.942 8.70391 40.8075 9.05805C40.1275 10.418 40.3275 12.368 40.5075 13.858Z" fill="url(#paint13_radial_25_26631)"/>
<path d="M17.667 14.1979C17.737 19.0579 29.477 27.1979 29.477 27.1979C29.477 27.1979 29.977 27.0679 30.737 26.8279C28.737 23.7379 24.737 17.8279 22.087 15.3079C18.667 11.8679 17.777 13.9679 17.667 14.1979Z" fill="#8D191C"/>
<path d="M30.477 4.46847C26.477 4.97847 18.747 10.0785 17.787 13.3985C17.7092 13.6581 17.6688 13.9275 17.667 14.1985C17.747 13.9985 18.667 11.8985 22.087 15.2985C24.687 17.8685 28.697 23.7285 30.737 26.8185C33.077 26.0785 37.897 24.2785 38.027 21.8985C38.227 18.7285 34.437 3.94847 30.477 4.46847Z" fill="url(#paint14_radial_25_26631)"/>
<path d="M20.5267 11.828C20.8689 11.2871 21.2678 10.7843 21.7167 10.328C23.231 8.96313 24.9108 7.79397 26.7167 6.84802C28.1167 6.06802 29.8567 4.97802 31.5467 5.61802C32.2847 6.02194 32.8605 6.6684 33.1767 7.44802C34.2967 9.67802 35.3367 14.168 32.8867 12.208C30.4367 10.248 27.3167 9.56802 26.1067 12.078C24.8967 14.588 26.5767 18.158 24.2767 15.668C21.8167 12.998 19.8267 12.868 20.5267 11.828Z" fill="url(#paint15_radial_25_26631)"/>
<g style="mix-blend-mode:multiply">
<path d="M33.667 18.2682C33.177 16.3382 31.667 12.9982 29.347 12.7182C28.277 12.5882 27.877 14.2482 27.927 14.9582C28.047 17.0382 29.697 19.0882 30.927 20.6582C31.7782 21.7733 32.6931 22.8384 33.667 23.8482C33.667 23.8482 33.897 23.5482 33.877 23.5282C32.7193 22.3312 31.6467 21.0547 30.667 19.7082C29.497 18.1382 27.277 15.2282 28.477 13.1782L28.277 13.4882C30.197 11.0982 33.187 17.3682 33.487 18.5882C33.487 18.5082 33.717 18.3582 33.697 18.2682H33.667Z" fill="#B82234"/>
</g>
<path style="mix-blend-mode:multiply" opacity="0.54" d="M28.9565 18.988C29.1265 19.278 31.4565 21.318 29.7565 22.448C29.3766 22.6742 28.9245 22.7464 28.493 22.6497C28.0616 22.553 27.6835 22.2947 27.4365 21.928C28.7265 23.738 29.9165 25.508 30.7665 26.788C33.1065 26.048 37.9265 24.248 38.0565 21.868C38.1565 19.978 36.8365 13.868 34.8965 9.45801C35.5669 11.311 36.0101 13.2384 36.2165 15.198C36.5065 18.198 35.1565 20.128 33.5565 16.328C32.9365 14.878 29.9165 10.578 27.5565 13.328C27.3749 13.6583 27.2852 14.0312 27.2965 14.408C27.2265 15.998 28.2065 17.698 28.9565 18.988Z" fill="url(#paint16_radial_25_26631)"/>
<path d="M7.34668 29.2684C9.17668 33.7784 23.0667 37.0884 23.0667 37.0884C23.0667 37.0884 23.4867 36.7884 24.0667 36.2884C21.0667 34.1484 15.1867 30.1384 11.8267 28.6884C7.42668 26.7684 7.34668 29.0584 7.34668 29.2684Z" fill="#8D191C"/>
<path d="M15.7362 15.5879C12.2362 17.5079 6.83618 25.0779 7.15618 28.5179C7.17922 28.7764 7.24336 29.0296 7.34618 29.2679C7.34618 29.0579 7.42618 26.7679 11.8662 28.6879C15.2262 30.1379 21.0762 34.1479 24.1062 36.2879C26.0262 34.7479 29.8562 31.2879 29.1062 29.0579C28.1362 26.0579 19.2362 13.6779 15.7362 15.5879Z" fill="url(#paint17_radial_25_26631)"/>
<path d="M9.13646 26.0583C9.24361 25.4205 9.42137 24.7967 9.66646 24.1983C10.5775 22.3724 11.7203 20.6718 13.0665 19.1383C14.0665 17.8983 15.3165 16.2583 17.1265 16.2383C17.9592 16.3465 18.7291 16.7385 19.3065 17.3483C21.1565 19.0183 23.7565 22.8283 20.7565 21.8883C17.7565 20.9483 14.6165 21.4483 14.3965 24.2283C14.1765 27.0083 17.0365 29.7183 13.9865 28.2283C10.7665 26.6883 8.85646 27.2883 9.13646 26.0583Z" fill="url(#paint18_radial_25_26631)"/>
<g style="mix-blend-mode:multiply">
<path d="M23.7462 27.2882C22.5962 25.6582 19.9462 23.1082 17.7462 23.6782C16.7462 23.9482 16.9363 25.6782 17.2363 26.2882C18.1063 28.1682 20.3762 29.4882 22.0862 30.5182C23.2845 31.2598 24.5268 31.9277 25.8062 32.5182C25.8062 32.5182 25.9062 32.1582 25.8862 32.1482C24.3638 31.4562 22.8903 30.661 21.4762 29.7682C19.8262 28.7682 16.6963 26.7682 17.0763 24.4782C17.0763 24.5982 17.0262 24.7182 16.9962 24.8382C17.9162 21.9082 22.9962 26.6682 23.7062 27.6982C23.6562 27.6282 23.8362 27.3982 23.7862 27.3282L23.7462 27.2882Z" fill="#B82234"/>
</g>
<path style="mix-blend-mode:multiply" opacity="0.54" d="M19.587 29.6787C19.847 29.8887 22.767 30.9387 21.587 32.6087C21.3155 32.9576 20.9206 33.1893 20.4836 33.2563C20.0466 33.3232 19.6005 33.2203 19.237 32.9687C21.087 34.1887 22.837 35.3987 24.097 36.2887C26.017 34.7487 29.847 31.2887 29.097 29.0587C28.507 27.2587 25.097 22.0587 21.647 18.6387C22.943 20.1187 24.0544 21.7507 24.957 23.4987C26.327 26.2287 25.757 28.4987 22.887 25.4987C21.787 24.3687 17.407 21.4987 16.227 24.9087C16.1779 25.2822 16.2297 25.662 16.377 26.0087C16.897 27.5087 18.417 28.7487 19.587 29.6787Z" fill="url(#paint19_radial_25_26631)"/>
<path d="M2.74749 47.2881C6.14749 50.7581 20.2475 48.5381 20.2475 48.5381C20.2475 48.5381 20.5275 48.0981 20.9175 47.4081C17.3075 46.5781 10.3575 45.0881 6.70749 45.0281C1.86749 44.9381 2.66749 47.0881 2.74749 47.2881Z" fill="#8D191C"/>
<path d="M5.30657 31.4487C2.79657 34.5487 0.676565 43.5987 2.30656 46.6687C2.43566 46.8949 2.59365 47.1033 2.77657 47.2887C2.69657 47.0887 1.89657 44.9387 6.77657 45.0287C10.4266 45.0887 17.3766 46.5787 20.9866 47.4087C22.1766 45.2587 24.4166 40.6287 22.8666 38.8187C20.7566 36.4187 7.81657 28.3387 5.30657 31.4487Z" fill="url(#paint20_radial_25_26631)"/>
<path d="M3.18693 43.6374C3.05727 43.0093 2.9969 42.3688 3.00693 41.7274C3.15478 39.6834 3.56481 37.6669 4.22693 35.7274C4.69693 34.1974 5.22693 32.2174 6.87693 31.5074C7.68881 31.2887 8.5515 31.3594 9.31693 31.7074C11.6669 32.5474 15.5169 35.0774 12.3869 35.3574C9.25694 35.6374 6.53694 37.2774 7.38694 39.9274C8.23694 42.5774 11.9069 44.0074 8.52694 43.7974C4.92694 43.5974 3.38693 44.8774 3.18693 43.6374Z" fill="url(#paint21_radial_25_26631)"/>
<g style="mix-blend-mode:multiply">
<path d="M17.1564 39.1988C15.4764 38.1288 12.0564 36.7788 10.1564 38.1988C9.29636 38.8388 10.1563 40.3088 10.6763 40.7988C12.1963 42.2188 14.8064 42.5688 16.7664 42.8688C18.1564 43.0916 19.5593 43.2252 20.9664 43.2688C20.9664 43.2688 20.9664 42.8988 20.8964 42.8988C19.2194 42.8386 17.5487 42.6615 15.8964 42.3688C13.9664 42.0388 10.3464 41.4588 9.80635 39.1488C9.80635 39.2688 9.85636 39.3888 9.87636 39.5088C9.61636 36.5088 16.1064 38.9388 17.1664 39.6088C17.0964 39.6088 17.1663 39.2888 17.0963 39.2388L17.1564 39.1988Z" fill="#B82234"/>
</g>
<path style="mix-blend-mode:multiply" opacity="0.54" d="M14.2275 43.0078C14.5375 43.0978 17.6375 43.0078 17.2275 44.9578C16.9875 46.0278 16.0275 46.2278 15.2275 46.1778C17.3975 46.6078 19.4775 47.0578 20.9875 47.4078C22.1775 45.2578 24.4175 40.6278 22.8675 38.8178C21.6375 37.3778 16.4875 33.8878 12.0175 32.0078C13.7797 32.8843 15.4285 33.9723 16.9275 35.2478C19.2375 37.2478 19.5575 39.5378 15.7775 37.9078C14.3275 37.2778 9.17746 36.2378 9.39746 39.9078C9.48526 40.2876 9.67952 40.6345 9.95746 40.9078C10.9075 42.0278 12.7875 42.5978 14.2275 43.0078Z" fill="url(#paint22_radial_25_26631)"/>
<path d="M3.21707 63.818C7.53707 66.038 20.2171 59.458 20.2171 59.458C20.2171 59.458 20.3371 58.958 20.4771 58.168C16.7971 58.528 9.73706 59.328 6.25706 60.428C1.66706 61.878 3.06707 63.658 3.21707 63.818Z" fill="#8D191C"/>
<path d="M0.666678 47.9887C-0.733322 51.7287 0.136678 60.9887 2.66668 63.3787C2.85493 63.5589 3.07105 63.7074 3.30668 63.8187C3.15668 63.6587 1.72668 61.8787 6.30668 60.4287C9.78668 59.3287 16.8467 58.5287 20.5267 58.1687C20.9767 55.7587 21.6367 50.6587 19.5967 49.4287C16.8467 47.7987 2.01668 44.2487 0.666678 47.9887Z" fill="url(#paint23_radial_25_26631)"/>
<path d="M2.46711 60.1984C2.14983 59.6436 1.89175 59.0571 1.6971 58.4484C1.20071 56.4872 0.952112 54.4714 0.957104 52.4484C0.957104 50.8484 0.777104 48.8084 2.1371 47.6084C2.83833 47.1424 3.67941 46.9339 4.5171 47.0184C7.0071 47.0784 11.5171 48.2584 8.57711 49.5084C5.63711 50.7584 3.6671 53.1984 5.2971 55.3984C6.9271 57.5984 10.8871 57.8384 7.60711 58.6984C4.10711 59.6284 3.05711 61.3284 2.46711 60.1984Z" fill="url(#paint24_radial_25_26631)"/>
<g style="mix-blend-mode:multiply">
<path d="M14.3175 51.5975C12.3875 51.1175 8.71747 50.9175 7.39747 52.8175C6.77747 53.6975 8.05746 54.8175 8.70746 55.1175C10.6075 55.9775 13.1875 55.4875 15.1475 55.1175C16.5323 54.8896 17.9016 54.5757 19.2475 54.1775C19.2475 54.1775 19.0975 53.8375 19.0675 53.8475C17.46 54.314 15.823 54.6715 14.1675 54.9175C12.2375 55.2175 8.62746 55.8175 7.37746 53.7975L7.55746 54.1175C6.34746 51.2975 13.2875 51.5975 14.5575 51.8975C14.4775 51.8975 14.4575 51.5875 14.3675 51.5675L14.3175 51.5975Z" fill="#B82234"/>
</g>
<path style="mix-blend-mode:multiply" opacity="0.54" d="M12.7369 56.1277C13.0769 56.1277 15.9669 54.9977 16.1769 57.0277C16.2869 58.1277 15.4369 58.6177 14.6269 58.8377C16.8269 58.5477 18.9469 58.3177 20.4769 58.1677C20.9269 55.7577 21.5869 50.6577 19.5469 49.4277C17.9269 48.4277 11.9269 46.7777 7.09691 46.4277C9.04457 46.7037 10.9517 47.2141 12.7769 47.9477C15.5969 49.1177 16.6369 51.1877 12.5269 50.8277C10.9569 50.6977 5.74691 51.3477 7.10691 54.7277C7.22691 55.0377 7.65691 55.2977 7.93691 55.4677C9.28691 56.2477 11.2469 56.1977 12.7369 56.1277Z" fill="url(#paint25_radial_25_26631)"/>
<path d="M10.6668 80.6685C15.4968 81.1885 24.9968 70.5285 24.9968 70.5285C24.9968 70.5285 24.9268 70.0085 24.7868 69.2285C21.4668 70.8785 15.1568 74.1385 12.2968 76.4085C8.4468 79.4185 10.4268 80.5685 10.6668 80.6685Z" fill="#8D191C"/>
<path d="M2.53713 66.7984C2.53713 70.7984 6.67712 79.1284 9.86712 80.4784C10.1062 80.579 10.359 80.6431 10.6171 80.6684C10.4271 80.5684 8.44713 79.4184 12.2471 76.4084C15.1071 74.1384 21.4171 70.8784 24.7371 69.2284C24.2871 66.8084 23.0871 61.8184 20.7371 61.3984C17.6671 60.8384 2.51713 62.8084 2.53713 66.7984Z" fill="url(#paint26_radial_25_26631)"/>
<path d="M8.66655 77.568C8.15985 77.1642 7.70028 76.7047 7.29655 76.198C6.11729 74.5322 5.15928 72.7204 4.44655 70.808C3.84655 69.328 2.97655 67.468 3.81655 65.808C4.30266 65.1275 5.00935 64.6364 5.81655 64.418C8.16655 63.578 12.7465 63.0979 10.5065 65.2879C8.26655 67.4779 7.20655 70.498 9.55655 71.998C11.9065 73.498 15.6366 72.2779 12.8866 74.2579C9.95655 76.4279 9.58655 78.398 8.66655 77.568Z" fill="url(#paint27_radial_25_26631)"/>
<g style="mix-blend-mode:multiply">
<path d="M16.667 65.2884C14.667 65.5284 11.187 66.6484 10.667 68.8984C10.407 69.8984 12.007 70.5384 12.667 70.5784C14.747 70.7084 16.977 69.3284 18.667 68.3084C19.8827 67.6007 21.0517 66.8157 22.167 65.9584C22.167 65.9584 21.897 65.6984 21.877 65.7184C20.5411 66.7344 19.1342 67.6534 17.667 68.4684C15.977 69.4684 12.807 71.2884 10.927 69.8384L11.207 70.0784C9.06696 67.8784 15.657 65.6884 16.907 65.5284C16.817 65.5284 16.707 65.2784 16.617 65.2884H16.667Z" fill="#B82234"/>
</g>
<path style="mix-blend-mode:multiply" opacity="0.54" d="M16.7773 70.0777C17.0773 69.9477 19.3873 67.8777 20.3073 69.6977C20.4832 70.1029 20.4984 70.5598 20.3499 70.9758C20.2013 71.3918 19.9001 71.7356 19.5073 71.9377C21.4573 70.8777 23.3574 69.9377 24.7374 69.2277C24.2874 66.8077 23.0874 61.8177 20.7374 61.3977C18.8774 61.0577 12.6773 61.6377 8.02734 63.0177C9.94928 62.58 11.9164 62.3719 13.8873 62.3977C16.9373 62.4877 18.6473 64.0577 14.6773 65.1877C13.1673 65.6177 8.52734 68.0977 11.0073 70.7677C11.3004 70.9838 11.6454 71.1184 12.0073 71.1577C13.5873 71.4277 15.3973 70.6677 16.7773 70.0777Z" fill="url(#paint28_radial_25_26631)"/>
<path d="M23.5968 93.8776C28.2468 92.4476 32.7469 78.8776 32.7469 78.8776C32.7469 78.8776 32.4768 78.4276 32.0368 77.7676C29.6468 80.5976 25.1469 86.0876 23.4069 89.2976C21.1169 93.5876 23.3868 93.8576 23.5968 93.8776Z" fill="#8D191C"/>
<path d="M10.6667 84.3389C12.2667 87.9989 19.3467 94.0289 22.8067 94.0089C23.0652 94.0046 23.3215 93.9608 23.5667 93.8789C23.3567 93.8789 21.0868 93.5889 23.3768 89.3189C25.1168 86.1089 29.6167 80.6189 32.0067 77.7889C30.6367 75.7889 27.5568 71.6389 25.2368 72.1789C22.1968 72.8989 9.08675 80.6889 10.6667 84.3389Z" fill="url(#paint29_radial_25_26631)"/>
<path d="M20.557 91.8179C19.9426 91.6431 19.349 91.4017 18.787 91.0979C17.0454 90.035 15.4488 88.751 14.037 87.2779C12.897 86.1579 11.367 84.7979 11.497 82.9879C11.6767 82.1651 12.1361 81.43 12.797 80.9079C14.617 79.2179 18.637 76.9079 17.447 79.9079C16.257 82.9079 16.447 85.9879 19.227 86.4379C22.007 86.8879 24.927 84.2879 23.227 87.1979C21.317 90.2479 21.757 92.1979 20.557 91.8179Z" fill="url(#paint30_radial_25_26631)"/>
<g style="mix-blend-mode:multiply">
<path d="M23.037 77.3676C21.317 78.3676 18.547 80.7876 18.927 83.0776C19.097 84.1376 20.797 84.0776 21.477 83.8076C23.427 83.1076 24.937 80.9476 26.107 79.3476C26.9306 78.2098 27.6917 77.028 28.387 75.8076C28.387 75.8076 28.037 75.6676 28.027 75.6976C27.2017 77.1512 26.2797 78.5477 25.267 79.8776C24.097 81.4376 21.917 84.3876 19.617 83.8076L19.977 83.9176C17.137 82.7476 22.317 78.1176 23.397 77.4776C23.327 77.4776 23.117 77.3276 23.037 77.3676Z" fill="#B82234"/>
</g>
<path style="mix-blend-mode:multiply" opacity="0.54" d="M25.0576 81.7189C25.2876 81.4789 26.5976 78.6589 28.1576 79.9789C28.4803 80.2802 28.6755 80.6935 28.7034 81.1341C28.7313 81.5747 28.5897 82.0093 28.3076 82.3489C29.6776 80.6089 31.0476 78.9689 32.0376 77.7889C30.6676 75.7889 27.5876 71.6389 25.2676 72.1789C23.4276 72.6089 17.9676 75.5889 14.2676 78.6989C15.8575 77.5391 17.5796 76.5724 19.3976 75.8189C22.2376 74.6889 24.3976 75.4489 21.2376 78.0589C20.0076 79.0589 16.7376 83.1589 20.0676 84.6389C20.4358 84.7242 20.8207 84.7034 21.1776 84.5789C22.6676 84.1989 24.0376 82.8089 25.0576 81.7189Z" fill="url(#paint31_radial_25_26631)"/>
<path d="M39.207 101.768C43.147 98.9184 43.057 84.6384 43.057 84.6384C43.057 84.6384 42.667 84.2984 42.057 83.8184C40.697 87.2684 38.197 93.9084 37.587 97.5084C36.767 102.288 39.007 101.818 39.207 101.768Z" fill="#8D191C"/>
<path d="M23.9265 96.8784C26.6165 99.8284 35.2565 103.258 38.5265 102.138C38.7682 102.045 38.9968 101.921 39.2065 101.768C39.0065 101.818 36.7665 102.288 37.5665 97.5084C38.1765 93.9084 40.6765 87.2684 42.0365 83.8184C40.0365 82.3184 35.8465 79.4184 33.8165 80.6784C31.1365 82.3384 21.2265 93.9384 23.9265 96.8784Z" fill="url(#paint32_radial_25_26631)"/>
<path d="M35.6674 100.788C35.029 100.819 34.3891 100.786 33.7574 100.688C31.7687 100.235 29.8463 99.5297 28.0374 98.5876C26.5974 97.8976 24.7074 97.0976 24.2574 95.3376C24.1581 94.5031 24.3564 93.6603 24.8174 92.9576C25.9974 90.7576 29.0774 87.3276 28.8774 90.4676C28.6774 93.6076 29.8774 96.5376 32.6674 96.0776C35.4574 95.6176 37.3674 92.2076 36.6674 95.5176C35.8874 99.0676 36.9274 100.768 35.6674 100.788Z" fill="url(#paint33_radial_25_26631)"/>
<g style="mix-blend-mode:multiply">
<path d="M33.3764 86.3184C32.0764 87.8184 30.2264 90.9984 31.3164 93.0384C31.8164 94.0384 33.4064 93.3584 33.9664 92.9184C35.5864 91.6184 36.3264 89.0984 36.9164 87.1984C37.3339 85.857 37.6679 84.4911 37.9164 83.1084C37.9164 83.1084 37.5464 83.1084 37.5364 83.1084C37.2272 84.7486 36.8063 86.3657 36.2764 87.9484C35.6564 89.8084 34.5564 93.2984 32.1864 93.4884H32.5564C29.4964 93.2884 32.9064 87.2484 33.7364 86.2884C33.6764 86.3584 33.4164 86.2884 33.3564 86.2884L33.3764 86.3184Z" fill="#B82234"/>
</g>
<path style="mix-blend-mode:multiply" opacity="0.54" d="M36.6673 89.7784C36.8073 89.4784 37.1373 86.3984 39.0373 87.1384C39.441 87.3169 39.7606 87.6438 39.93 88.0515C40.0994 88.4591 40.1056 88.9163 39.9473 89.3284C40.6873 87.2384 41.4473 85.2484 42.0173 83.8184C40.0173 82.3184 35.8273 79.4184 33.7973 80.6784C32.1873 81.6784 27.9773 86.2584 25.4473 90.3984C26.5809 88.7862 27.9036 87.3157 29.3873 86.0184C31.7073 84.0184 34.0273 84.0184 31.8373 87.5584C31.0073 88.8884 29.2173 93.8284 32.8373 94.1584C33.2019 94.1161 33.5479 93.9742 33.8373 93.7484C35.2273 92.9184 36.0673 91.1384 36.6673 89.7784Z" fill="url(#paint34_radial_25_26631)"/>
<path d="M55.6667 103.398C58.7667 99.6484 55.0667 85.8584 55.0667 85.8584C55.0667 85.8584 54.6067 85.6284 53.8667 85.3184C53.4267 88.9884 52.6867 96.0584 53.0067 99.6984C53.4067 104.518 55.4567 103.498 55.6667 103.398Z" fill="#8D191C"/>
<path d="M39.6667 102.529C43.0167 104.699 52.2467 105.839 55.1267 103.919C55.3388 103.775 55.5277 103.6 55.6867 103.399C55.5067 103.499 53.4567 104.519 53.0267 99.6987C52.7067 96.0587 53.4467 88.9887 53.8867 85.3187C51.6267 84.3187 46.7967 82.6187 45.1567 84.3187C42.9267 86.6387 36.2667 100.359 39.6667 102.529Z" fill="url(#paint35_radial_25_26631)"/>
<path d="M51.9663 103.348C51.3565 103.534 50.7303 103.661 50.0963 103.728C48.0566 103.791 46.0172 103.596 44.0263 103.148C42.4563 102.828 40.4263 102.538 39.5463 100.948C39.2462 100.162 39.225 99.2974 39.4863 98.498C40.0763 96.078 42.1863 91.988 42.7863 95.068C43.3863 98.148 45.3263 100.678 47.8663 99.548C50.4063 98.418 51.4463 94.618 51.5863 97.998C51.7463 101.618 53.1763 103.008 51.9663 103.348Z" fill="url(#paint36_radial_25_26631)"/>
<g style="mix-blend-mode:multiply">
<path d="M46.0971 89.9187C45.2171 91.7087 44.2271 95.2387 45.7971 96.9187C46.5271 97.7087 47.9071 96.6987 48.3271 96.1287C49.5771 94.4587 49.6471 91.8287 49.7471 89.8487C49.8154 88.4456 49.7987 87.0397 49.6971 85.6387C49.6971 85.6387 49.3371 85.7187 49.3371 85.7487C49.4516 87.4134 49.4516 89.084 49.3371 90.7487C49.2171 92.7487 49.0271 96.3587 46.7771 97.1387L47.1371 97.0287C44.1371 97.6087 45.9071 90.8987 46.4571 89.7687C46.4571 89.8487 46.1371 89.7687 46.0971 89.8787V89.9187Z" fill="#B82234"/>
</g>
<path style="mix-blend-mode:multiply" opacity="0.54" d="M50.1766 92.4387C50.2366 92.1087 49.7766 89.0387 51.7966 89.2787C52.8966 89.4087 53.1866 90.3387 53.2366 91.1787C53.4266 88.9587 53.6566 86.8487 53.8366 85.3187C51.5766 84.3187 46.7466 82.6187 45.1066 84.3187C43.7966 85.6987 40.8766 91.1887 39.4766 95.8287C40.1607 93.9853 41.0674 92.2323 42.1766 90.6087C43.9266 88.0987 46.1766 87.5287 44.9466 91.4687C44.4666 92.9787 43.9466 98.2087 47.5866 97.6087C47.9395 97.4769 48.248 97.2481 48.4766 96.9487C49.5566 95.8387 49.9166 93.9087 50.1766 92.4387Z" fill="url(#paint37_radial_25_26631)"/>
<path d="M73.327 99.3689C75.027 94.8189 67.017 82.9989 67.017 82.9989C67.017 82.9989 66.497 82.9289 65.707 82.8789C66.497 86.4989 68.107 93.4189 69.597 96.7489C71.587 101.199 73.187 99.5289 73.327 99.3689Z" fill="#8D191C"/>
<path d="M57.9064 103.798C61.7764 104.798 70.9064 102.798 72.9664 100.058C73.1195 99.8471 73.2408 99.6146 73.3264 99.3682C73.1864 99.5282 71.5863 101.168 69.5963 96.7482C68.1063 93.4182 66.4964 86.4982 65.7064 82.8782C63.2564 82.7182 58.1164 82.6582 57.1364 84.8282C55.8264 87.6982 54.0264 102.848 57.9064 103.798Z" fill="url(#paint38_radial_25_26631)"/>
<path d="M69.8371 100.528C69.3253 100.921 68.772 101.256 68.1871 101.528C66.2839 102.261 64.2941 102.745 62.2671 102.968C60.6871 103.188 58.6671 103.568 57.3171 102.368C56.7734 101.724 56.4695 100.911 56.4571 100.068C56.2271 97.5884 56.8771 93.0684 58.4571 95.7384C60.0371 98.4084 62.6871 100.218 64.7271 98.3084C66.7671 96.3984 66.4871 92.4784 67.7271 95.6284C69.0671 98.9684 70.8771 99.8184 69.8371 100.528Z" fill="url(#paint39_radial_25_26631)"/>
<g style="mix-blend-mode:multiply">
<path d="M59.8964 89.7583C59.6464 91.7583 59.8964 95.4083 61.8964 96.4983C62.8364 97.0083 63.8064 95.6083 64.0264 94.9283C64.6564 92.9283 63.8664 90.4383 63.3064 88.5283C62.9184 87.1662 62.4441 85.8302 61.8864 84.5283C61.8864 84.5283 61.5664 84.7183 61.5864 84.7483C62.2353 86.2866 62.7799 87.8669 63.2164 89.4783C63.7364 91.3683 64.7564 94.8883 62.8964 96.3583L63.1964 96.1383C60.5364 97.6783 60.0264 90.7483 60.1964 89.4983C60.1964 89.5883 59.8964 89.6383 59.8864 89.7183L59.8964 89.7583Z" fill="#B82234"/>
</g>
<path style="mix-blend-mode:multiply" opacity="0.54" d="M64.5766 90.8082C64.5766 90.4782 63.0866 87.7282 65.0766 87.2882C66.1466 87.0482 66.7366 87.8382 67.0766 88.6082C66.5366 86.4582 66.0766 84.3882 65.7366 82.8782C63.2866 82.7182 58.1466 82.6582 57.1666 84.8282C56.3766 86.5582 55.4166 92.6982 55.6166 97.5482C55.6601 95.5781 55.9421 93.6204 56.4566 91.7182C57.2966 88.7882 59.2266 87.5082 59.3466 91.6382C59.3466 93.2082 60.6566 98.3082 63.8566 96.5682C64.1481 96.3302 64.3664 96.0147 64.4866 95.6582C65.0966 94.1982 64.8066 92.2782 64.5766 90.8082Z" fill="url(#paint40_radial_25_26631)"/>
<path d="M88.9069 89.428C88.9069 84.568 77.3069 76.248 77.3069 76.248C77.3069 76.248 76.8069 76.368 76.0469 76.598C78.0469 79.718 81.9369 85.598 84.4969 88.258C87.8869 91.708 88.8269 89.628 88.9069 89.428Z" fill="#8D191C"/>
<path d="M75.9666 98.9177C79.9666 98.4677 87.7866 93.5077 88.8066 90.1977C88.8748 89.9467 88.9084 89.6877 88.9066 89.4277C88.8266 89.6277 87.9066 91.7077 84.4966 88.2577C81.9366 85.6477 78.0366 79.7177 76.0466 76.5977C73.6866 77.2977 68.8466 79.0177 68.6766 81.3977C68.4466 84.5377 72.0066 99.3677 75.9666 98.9177Z" fill="url(#paint41_radial_25_26631)"/>
<path d="M86.0366 91.7182C85.6864 92.2527 85.2808 92.7488 84.8266 93.1982C83.2913 94.5421 81.5909 95.6846 79.7666 96.5982C78.3566 97.3582 76.5966 98.4183 74.9166 97.7483C74.1831 97.3379 73.6169 96.6832 73.3166 95.8982C72.2366 93.6482 71.2666 89.1482 73.6866 91.1482C76.1066 93.1482 79.2066 93.8783 80.4566 91.3883C81.7066 88.8983 80.0966 85.2982 82.3466 87.8282C84.7666 90.5282 86.7566 90.6882 86.0366 91.7182Z" fill="url(#paint42_radial_25_26631)"/>
<g style="mix-blend-mode:multiply">
<path d="M72.9767 85.0683C73.4267 87.0083 74.9067 90.3683 77.2067 90.6883C78.2667 90.8383 78.6967 89.1883 78.6567 88.4683C78.5667 86.3883 76.9567 84.3183 75.7667 82.7183C74.9303 81.59 74.0288 80.5115 73.0667 79.4883C73.0667 79.4883 72.8367 79.7883 72.8567 79.8083C74.0003 81.0246 75.0594 82.3176 76.0267 83.6783C77.1667 85.2683 79.3467 88.2183 78.1067 90.2383L78.3167 89.9383C76.3167 92.2983 73.4767 85.9383 73.1867 84.7483C73.1867 84.8283 72.9567 84.9783 72.9767 85.0683Z" fill="#B82234"/>
</g>
<path style="mix-blend-mode:multiply" opacity="0.54" d="M77.7268 84.4177C77.5668 84.1277 75.2668 82.0577 76.9768 80.9477C77.3605 80.7282 77.8137 80.664 78.2432 80.7681C78.6728 80.8723 79.0462 81.1369 79.2868 81.5077C78.0368 79.6777 76.8668 77.8977 76.0468 76.5977C73.6868 77.2977 68.8468 79.0177 68.6768 81.3977C68.5368 83.2877 69.7668 89.3977 71.6768 93.8577C71.0421 91.996 70.6292 90.066 70.4468 88.1077C70.2168 85.1077 71.5868 83.1977 73.1368 87.0177C73.7268 88.4877 76.6768 92.8277 79.0668 90.0877C79.2607 89.7615 79.3578 89.3869 79.3468 89.0077C79.4068 87.4477 78.4568 85.7277 77.7268 84.4177Z" fill="url(#paint43_radial_25_26631)"/>
<path d="M100.356 74.6588C98.4962 70.1688 84.5762 66.9688 84.5762 66.9688C84.5762 66.9688 84.1662 67.2788 83.5762 67.7788C86.5762 69.8888 92.5062 73.8588 95.8762 75.2788C100.306 77.1988 100.366 74.8688 100.356 74.6588Z" fill="#8D191C"/>
<path d="M92.0872 88.4081C95.5772 86.4581 100.907 78.8481 100.567 75.4081C100.536 75.152 100.465 74.9024 100.357 74.6681C100.357 74.8781 100.307 77.1681 95.8472 75.2881C92.4772 73.8681 86.5872 69.8981 83.5472 67.7881C81.6372 69.3381 77.8372 72.7881 78.5972 75.0581C79.6072 78.0381 88.6072 90.3481 92.0872 88.4081Z" fill="url(#paint44_radial_25_26631)"/>
<path d="M98.5965 77.8783C98.4818 78.5057 98.3008 79.1192 98.0565 79.7083C97.1482 81.5426 96.0089 83.2531 94.6665 84.7983C93.6665 86.0383 92.4465 87.6983 90.6665 87.7283C89.8314 87.6326 89.0564 87.2468 88.4765 86.6383C86.6065 84.9783 83.9765 81.1983 86.9865 82.1083C89.9965 83.0183 93.1365 82.4983 93.3165 79.7183C93.4965 76.9383 90.6365 74.2483 93.6965 75.7183C96.9665 77.2683 98.8665 76.6483 98.5965 77.8783Z" fill="url(#paint45_radial_25_26631)"/>
<g style="mix-blend-mode:multiply">
<path d="M83.9866 76.7777C85.1466 78.3877 87.8066 80.9177 90.0566 80.3277C91.0566 80.0577 90.8466 78.3277 90.5466 77.7277C89.6566 75.8377 87.3666 74.5477 85.6566 73.5377C84.4491 72.8181 83.2003 72.1704 81.9166 71.5977C81.9166 71.5977 81.8166 71.9577 81.8366 71.9677C83.3631 72.6532 84.843 73.4383 86.2666 74.3177C87.9266 75.3177 91.0766 77.2277 90.7166 79.5677C90.7166 79.4477 90.7166 79.3277 90.7866 79.2077C89.8966 82.1477 84.7866 77.4277 84.0566 76.4077C84.1066 76.4677 83.9266 76.6977 83.9866 76.7777Z" fill="#B82234"/>
</g>
<path style="mix-blend-mode:multiply" opacity="0.54" d="M88.1164 74.3483C87.8564 74.1483 84.9264 73.1183 86.1164 71.4383C86.3851 71.0862 86.7785 70.8506 87.2157 70.7799C87.6529 70.7092 88.1005 70.8088 88.4664 71.0583C86.5964 69.8583 84.8364 68.6583 83.5764 67.7783C81.6664 69.3283 77.8665 72.7783 78.6265 75.0483C79.2365 76.8483 82.7164 82.0483 86.1664 85.4083C84.8576 83.9383 83.7295 82.3167 82.8064 80.5783C81.4164 77.8483 81.9664 75.5783 84.8664 78.5783C85.9764 79.6983 90.3764 82.5783 91.5264 79.1183C91.5781 78.7439 91.5226 78.3625 91.3664 78.0183C90.8264 76.4883 89.2964 75.2683 88.1164 74.3483Z" fill="url(#paint46_radial_25_26631)"/>
<path d="M104.716 56.6489C101.146 53.3389 87.1664 56.2489 87.1664 56.2489C87.1664 56.2489 86.9164 56.6989 86.5664 57.4189C90.2064 58.0689 97.2164 59.2089 100.866 59.0889C105.666 58.9389 104.806 56.8389 104.716 56.6489Z" fill="#8D191C"/>
<path d="M102.937 72.5884C105.297 69.3684 106.937 60.2284 105.207 57.2384C105.074 57.018 104.909 56.8191 104.717 56.6484C104.807 56.8384 105.717 58.9384 100.867 59.0884C97.2168 59.2084 90.2068 58.0884 86.5668 57.4184C85.4868 59.6284 83.4668 64.3484 85.1068 66.0884C87.2668 68.3884 100.587 75.8084 102.937 72.5884Z" fill="url(#paint47_radial_25_26631)"/>
<path d="M104.458 60.3087C104.617 60.9267 104.708 61.5606 104.728 62.1987C104.68 64.2299 104.37 66.2464 103.808 68.1987C103.408 69.7487 102.998 71.7587 101.368 72.5487C100.566 72.802 99.7012 72.7737 98.9176 72.4687C96.5376 71.7387 92.5675 69.3987 95.6775 68.9787C98.7875 68.5587 101.428 66.7587 100.438 64.1587C99.4476 61.5587 95.7075 60.2987 99.0975 60.3487C102.728 60.4387 104.198 59.0787 104.458 60.3087Z" fill="url(#paint48_radial_25_26631)"/>
<g style="mix-blend-mode:multiply">
<path d="M90.717 65.4084C92.457 66.4084 95.927 67.5784 97.717 66.1084C98.537 65.4284 97.617 63.9884 97.067 63.5384C95.477 62.1984 92.857 61.9684 90.877 61.7684C89.479 61.6168 88.0731 61.55 86.667 61.5684C86.667 61.5684 86.727 61.9384 86.757 61.9384C88.4285 61.9148 90.0995 62.0117 91.757 62.2284C93.697 62.4584 97.337 62.8584 97.997 65.1384L97.907 64.7784C98.317 67.7784 91.717 65.6584 90.627 65.0384C90.697 65.0384 90.627 65.3684 90.707 65.4084H90.717Z" fill="#B82234"/>
</g>
<path style="mix-blend-mode:multiply" opacity="0.54" d="M93.4671 61.478C93.1371 61.398 90.0571 61.688 90.4071 59.678C90.5971 58.598 91.5471 58.348 92.4071 58.358C90.2071 58.038 88.107 57.688 86.597 57.418C85.517 59.628 83.4971 64.348 85.1371 66.088C86.4371 67.468 91.7571 70.698 96.3071 72.358C94.5082 71.5606 92.8098 70.5536 91.2471 69.358C88.8471 67.458 88.4071 65.188 92.2471 66.638C93.7171 67.198 98.9171 67.968 98.5171 64.348C98.4047 63.9895 98.1974 63.6681 97.9171 63.418C96.8271 62.288 94.9171 61.818 93.4671 61.478Z" fill="url(#paint49_radial_25_26631)"/>
<path d="M102.668 38.6777C98.1576 36.8777 86.1576 44.6177 86.1576 44.6177C86.1576 44.6177 86.0876 45.1277 86.0176 45.9277C89.6476 45.2177 96.5976 43.7677 99.9576 42.3477C104.418 40.4577 102.818 38.8177 102.668 38.6777Z" fill="#8D191C"/>
<path d="M106.736 54.1975C107.736 50.3475 106.046 41.1975 103.336 39.0575C103.127 38.9053 102.898 38.7809 102.656 38.6875C102.816 38.8275 104.416 40.4675 99.9463 42.3575C96.5863 43.7675 89.6663 45.1975 86.0063 45.9275C85.7863 48.3775 85.6063 53.5075 87.7563 54.5375C90.6063 55.9075 105.666 58.0475 106.736 54.1975Z" fill="url(#paint50_radial_25_26631)"/>
<path d="M103.737 42.1985C104.11 42.7194 104.425 43.2794 104.677 43.8685C105.368 45.804 105.804 47.8207 105.977 49.8685C106.167 51.4585 106.507 53.4785 105.267 54.8085C104.611 55.332 103.796 55.6176 102.957 55.6185C100.467 55.7885 95.957 55.0385 98.667 53.5185C101.377 51.9985 103.237 49.3885 101.377 47.3085C99.517 45.2285 95.587 45.4185 98.767 44.2485C102.167 42.9285 103.047 41.1385 103.737 42.1985Z" fill="url(#paint51_radial_25_26631)"/>
<g style="mix-blend-mode:multiply">
<path d="M92.7567 51.8881C94.7567 52.1781 98.3967 52.0381 99.5367 50.0181C100.067 49.0881 98.6867 48.0881 98.0067 47.8481C96.0067 47.1781 93.5167 47.9081 91.5967 48.4281C90.2394 48.7957 88.9039 49.2397 87.5967 49.7581C87.5967 49.7581 87.7767 50.0781 87.8067 50.0681C89.3611 49.4533 90.9546 48.9421 92.5767 48.5381C94.4667 48.0581 98.0167 47.1181 99.4467 49.0181L99.2367 48.7081C100.717 51.3981 93.7767 51.7581 92.5267 51.5781C92.6167 51.5781 92.6567 51.8781 92.7467 51.8881H92.7567Z" fill="#B82234"/>
</g>
<path style="mix-blend-mode:multiply" opacity="0.54" d="M93.8963 47.1982C93.5663 47.1982 90.7963 48.6182 90.3963 46.6182C90.1863 45.5382 90.9863 44.9682 91.7663 44.6182C89.5963 45.1182 87.5163 45.5382 86.0063 45.8382C85.7863 48.2882 85.6063 53.4182 87.7563 54.4482C89.4663 55.2682 95.5963 56.3682 100.436 56.2782C98.4695 56.1823 96.5217 55.8465 94.6363 55.2782C91.7163 54.3782 90.4863 52.4182 94.6363 52.3882C96.2063 52.3882 101.336 51.2282 99.6363 47.9882C99.3997 47.695 99.089 47.4706 98.7363 47.3382C97.3263 46.7882 95.3763 47.0282 93.8963 47.1982Z" fill="url(#paint52_radial_25_26631)"/>
<path d="M95.1062 23.6478C90.2562 23.3678 81.3262 34.5078 81.3262 34.5078C81.3262 34.5078 81.4162 35.0178 81.6062 35.7978C84.8262 33.9778 90.9562 30.3978 93.6962 27.9778C97.3362 24.7778 95.3062 23.7378 95.1062 23.6478Z" fill="#8D191C"/>
<path d="M103.897 37.0684C103.657 33.0684 99.1167 24.9784 95.8967 23.7884C95.6527 23.7007 95.396 23.6534 95.1367 23.6484C95.3367 23.7384 97.3667 24.7784 93.7267 27.9784C90.9867 30.3984 84.8567 33.9784 81.6367 35.7984C82.2067 38.1884 83.6367 43.1084 86.0267 43.4084C89.1267 43.8084 104.127 41.0584 103.897 37.0684Z" fill="url(#paint53_radial_25_26631)"/>
<path d="M97.2467 26.6378C97.7665 27.01 98.2428 27.4393 98.6667 27.9178C99.9273 29.5359 100.973 31.3107 101.777 33.1978C102.457 34.6378 103.427 36.4578 102.667 38.0978C102.215 38.8088 101.529 39.3395 100.727 39.5978C98.4267 40.5978 93.8767 41.2778 96.0067 38.9678C98.1367 36.6578 99.0067 33.5978 96.6067 32.2278C94.2067 30.8578 90.5167 32.2278 93.1567 30.1378C95.9867 27.8378 96.2567 25.8578 97.2467 26.6378Z" fill="url(#paint54_radial_25_26631)"/>
<g style="mix-blend-mode:multiply">
<path d="M89.8969 39.3184C91.8969 38.9684 95.2969 37.6684 95.7369 35.3884C95.9469 34.3884 94.3169 33.8284 93.6069 33.8184C91.5169 33.8184 89.3569 35.2984 87.7069 36.3984C86.5313 37.1697 85.4057 38.0147 84.3369 38.9284C84.3369 38.9284 84.6169 39.1684 84.6369 39.1484C85.9005 38.0586 87.237 37.0563 88.6369 36.1484C90.2769 35.0984 93.3469 33.0784 95.2969 34.4284C95.2046 34.3495 95.1077 34.276 95.0069 34.2084C97.2569 36.2884 90.7969 38.8284 89.5569 39.0484C89.6369 39.0484 89.7669 39.2884 89.8569 39.2784L89.8969 39.3184Z" fill="#B82234"/>
</g>
<path style="mix-blend-mode:multiply" opacity="0.54" d="M89.5074 34.5384C89.2074 34.6784 87.0174 36.8684 86.0074 35.0984C85.8051 34.7039 85.7629 34.2466 85.8896 33.8218C86.0163 33.397 86.3021 33.0375 86.6874 32.8184C84.7874 33.9684 82.9474 35.0384 81.6074 35.8184C82.1774 38.2084 83.6074 43.1284 85.9974 43.4284C87.8774 43.6684 93.9974 42.7684 98.6074 41.1484C96.715 41.6885 94.7641 41.9974 92.7974 42.0684C89.7374 42.1384 87.9574 40.6684 91.8574 39.3284C93.3474 38.8184 97.8574 36.1084 95.2374 33.5684C94.9223 33.3605 94.5548 33.2461 94.1774 33.2384C92.6674 33.0284 90.8474 33.8784 89.5074 34.5384Z" fill="url(#paint55_radial_25_26631)"/>
<path d="M82.3669 10.9375C77.6869 12.2375 72.8369 25.6775 72.8369 25.6775C72.8369 25.6775 73.0869 26.1275 73.5169 26.7975C75.9769 24.0375 80.6169 18.6675 82.4369 15.4875C84.8369 11.2875 82.5769 10.9575 82.3669 10.9375Z" fill="#8D191C"/>
<path d="M95.0176 20.7988C93.5076 17.1088 86.5876 10.8988 83.1276 10.7988C82.8696 10.7995 82.6132 10.84 82.3676 10.9188C82.5776 10.9188 84.8376 11.2688 82.4376 15.4688C80.6176 18.6488 75.9776 24.0188 73.5176 26.7788C74.8276 28.8588 77.7976 33.0488 80.1376 32.5688C83.2276 31.9488 96.5276 24.4988 95.0176 20.7988Z" fill="url(#paint56_radial_25_26631)"/>
<path d="M85.3473 13.078C85.9614 13.2624 86.552 13.5174 87.1073 13.838C88.8174 14.9458 90.377 16.2701 91.7473 17.778C92.8673 18.928 94.3573 20.328 94.1773 22.128C93.9841 22.955 93.5062 23.6877 92.8273 24.198C90.9573 25.848 86.8873 28.008 88.1573 25.128C89.4273 22.248 89.2773 19.078 86.5473 18.548C83.8173 18.018 80.7873 20.548 82.6073 17.698C84.5473 14.618 84.1673 12.658 85.3473 13.078Z" fill="url(#paint57_radial_25_26631)"/>
<g style="mix-blend-mode:multiply">
<path d="M82.4972 27.4487C84.2472 26.4487 87.0772 24.1487 86.7572 21.8487C86.6172 20.7887 84.9072 20.8487 84.2272 21.0487C82.2272 21.7087 80.6972 23.8187 79.4872 25.3987C78.6258 26.5084 77.8343 27.6707 77.1172 28.8787C77.1172 28.8787 77.4572 29.0187 77.4772 28.9987C78.3325 27.563 79.2882 26.1896 80.3372 24.8887C81.5472 23.3587 83.7972 20.4587 86.0872 21.0987L85.7372 20.9887C88.5372 22.2287 83.2472 26.7187 82.1372 27.3287C82.2072 27.3287 82.4172 27.4887 82.4972 27.4487Z" fill="#B82234"/>
</g>
<path style="mix-blend-mode:multiply" opacity="0.54" d="M80.6669 23.2783C80.4569 23.5383 79.2669 26.3983 77.6669 25.1483C77.3301 24.8623 77.1163 24.4577 77.0697 24.0183C77.0232 23.5789 77.1475 23.1385 77.4169 22.7883C76.1069 24.5883 74.817 26.2783 73.877 27.4983C75.327 29.4983 78.567 33.4983 80.877 32.8283C82.697 32.3183 88.037 29.1183 91.627 25.8283C90.0899 27.0546 88.4112 28.092 86.627 28.9183C83.837 30.1583 81.6269 29.4883 84.7069 26.7583C85.8869 25.7083 88.9969 21.4683 85.6069 20.1383C85.2352 20.0617 84.8491 20.0965 84.4969 20.2383C82.9569 20.6883 81.6669 22.1983 80.6669 23.2783Z" fill="url(#paint58_radial_25_26631)"/>
<path d="M65.9375 3.5087C61.9375 6.3287 61.9375 20.6087 61.9375 20.6087C61.9375 20.6087 62.3275 20.9487 62.9375 21.4387C64.3075 17.9987 66.8575 11.3687 67.4875 7.7687C68.3875 2.9987 66.1475 3.4487 65.9375 3.5087Z" fill="#8D191C"/>
<path d="M81.1868 8.48801C78.5168 5.48801 69.9068 2.03801 66.6268 3.13801C66.3784 3.22324 66.1453 3.34819 65.9368 3.50801C66.1468 3.44801 68.3868 2.99801 67.5568 7.76801C66.9268 11.368 64.3768 17.998 63.0068 21.438C64.9468 22.938 69.1668 25.868 71.1968 24.628C73.8868 22.978 83.8668 11.448 81.1868 8.48801Z" fill="url(#paint59_radial_25_26631)"/>
<path d="M69.4771 4.49835C70.1162 4.47347 70.7561 4.51368 71.3871 4.61835C73.3719 5.08703 75.2902 5.8026 77.0971 6.74835C78.5271 7.45835 80.4171 8.26835 80.8571 10.0283C80.9445 10.8649 80.7396 11.7058 80.2771 12.4083C79.0871 14.5883 75.9871 18.0083 76.2071 14.8683C76.4271 11.7283 75.2071 8.78835 72.4471 9.22835C69.6871 9.66835 67.7171 13.0683 68.4471 9.76835C69.2471 6.19835 68.2171 4.50835 69.4771 4.49835Z" fill="url(#paint60_radial_25_26631)"/>
<g style="mix-blend-mode:multiply">
<path d="M71.6672 18.9883C72.9772 17.4883 74.8472 14.3283 73.7672 12.2783C73.2772 11.3283 71.6872 11.9483 71.1172 12.3883C69.4872 13.6783 68.7372 16.1883 68.1172 18.0883C67.7032 19.4272 67.3693 20.7896 67.1172 22.1683C67.1172 22.1683 67.4872 22.1683 67.4972 22.1683C67.8165 20.5275 68.2475 18.9104 68.7872 17.3283C69.4172 15.4783 70.5472 11.9883 72.9072 11.8183H72.5372C75.6072 12.0283 72.1472 18.0583 71.3172 18.9983C71.3672 18.9383 71.6372 19.0583 71.6972 18.9983L71.6672 18.9883Z" fill="#B82234"/>
</g>
<path style="mix-blend-mode:multiply" opacity="0.54" d="M67.9869 15.7487C67.8669 16.0587 67.7369 19.1587 65.7969 18.5387C65.3908 18.3771 65.0614 18.0671 64.8757 17.6714C64.6899 17.2758 64.6618 16.8243 64.7969 16.4087C64.1869 18.5387 63.5569 20.5687 63.0869 22.0387C65.0869 23.4087 69.5469 26.0387 71.4869 24.6487C73.0269 23.5387 76.9369 18.6987 79.1969 14.4087C78.1701 16.0896 76.9446 17.6407 75.5469 19.0287C73.3569 21.1587 71.0469 21.2887 72.9969 17.6587C73.7469 16.2687 75.2069 11.2287 71.5669 11.1387C71.1961 11.1983 70.8495 11.3612 70.5669 11.6087C69.2469 12.5287 68.5269 14.3487 67.9869 15.7487Z" fill="url(#paint61_radial_25_26631)"/>
<mask id="mask0_25_26631" style="mask-type:luminance" maskUnits="userSpaceOnUse" x="45" y="0" width="30" height="30">
<path d="M46.7671 29.4281C47.6871 30.3481 64.3671 26.6781 65.2271 27.5881C84.2771 33.7181 67.8971 1.85811 68.0471 1.68811C70.2571 -0.971895 43.8871 0.0381054 47.7171 1.15811C50.1771 1.87811 50.0571 8.32811 49.2671 13.6081C48.0871 21.8981 43.2271 24.7081 46.7671 29.4281Z" fill="white"/>
</mask>
<g mask="url(#mask0_25_26631)">
<path d="M49.0371 1.6085C45.9271 5.3385 49.5771 19.1485 49.5771 19.1485C49.5771 19.1485 50.0371 19.3785 50.7771 19.6885C51.2271 16.0185 51.9971 8.9585 51.6871 5.3185C51.2771 0.4885 49.2271 1.4985 49.0371 1.6085Z" fill="#8D191C"/>
<path d="M65.0571 2.52807C61.7171 0.348066 52.4971 -0.801934 49.6071 1.07807C49.3915 1.22501 49.1993 1.4037 49.0371 1.60807C49.2271 1.49807 51.2771 0.488066 51.6871 5.31807C51.9971 8.95807 51.2271 16.0181 50.7771 19.6881C53.0371 20.6881 57.8571 22.4081 59.5071 20.6881C61.6671 18.4081 68.3971 4.71807 65.0571 2.52807Z" fill="url(#paint62_radial_25_26631)"/>
<path d="M52.7173 1.66767C53.326 1.47928 53.9528 1.35527 54.5873 1.29767C56.6247 1.23691 58.6614 1.43856 60.6473 1.89767C62.2173 2.21767 64.2473 2.51767 65.1273 4.10767C65.408 4.90022 65.408 5.76511 65.1273 6.55767C64.5273 8.97767 62.3973 13.0677 61.8073 9.97767C61.2173 6.88767 59.2973 4.35767 56.7473 5.47767C54.1973 6.59767 53.1473 10.3977 53.0173 7.01767C52.9273 3.39767 51.4973 1.99767 52.7173 1.66767Z" fill="url(#paint63_radial_25_26631)"/>
<g style="mix-blend-mode:multiply">
<path d="M58.537 15.1184C59.427 13.3284 60.427 9.79843 58.857 8.11843C58.137 7.32843 56.757 8.32843 56.327 8.89843C55.067 10.5584 54.987 13.1884 54.887 15.1784C54.802 16.5805 54.802 17.9864 54.887 19.3884C54.887 19.3884 55.247 19.3084 55.247 19.2784C55.1324 17.6137 55.1324 15.9431 55.247 14.2784C55.377 12.3284 55.577 8.66843 57.827 7.89843L57.467 7.99843C60.467 7.42843 58.687 14.1384 58.117 15.2684C58.117 15.1884 58.447 15.2684 58.487 15.1584L58.537 15.1184Z" fill="#B82234"/>
</g>
<path style="mix-blend-mode:multiply" opacity="0.54" d="M54.4673 12.5877C54.4073 12.9077 54.8573 15.9778 52.8273 15.7378C51.7373 15.6078 51.4473 14.6677 51.4073 13.8377C51.2073 16.0477 50.9573 18.1577 50.7773 19.6877C53.0373 20.6877 57.8573 22.4077 59.5073 20.6877C60.8173 19.3177 63.7573 13.8377 65.1773 9.19775C64.4818 11.0399 63.5687 12.7923 62.4573 14.4177C60.6973 16.9077 58.4573 17.4677 59.6973 13.5377C60.1673 12.0377 60.6973 6.80775 57.0773 7.39775C56.7199 7.52106 56.4068 7.74719 56.1773 8.04775C55.0973 9.19775 54.7273 11.1177 54.4673 12.5877Z" fill="url(#paint64_radial_25_26631)"/>
</g>
<path d="M90.227 52.6282C90.227 72.1682 73.877 88.0182 53.697 88.0182C33.517 88.0182 17.167 72.1982 17.167 52.6282C17.167 33.0582 33.517 17.1982 53.667 17.1982C73.817 17.1982 90.227 33.0782 90.227 52.6282Z" fill="url(#paint65_radial_25_26631)"/>
<g style="mix-blend-mode:multiply" opacity="0.3">
<path d="M53.6667 17.1982C33.4867 17.1982 17.1367 33.0382 17.1367 52.5882C17.1367 72.1382 33.5167 88.0182 53.6667 88.0182C73.8167 88.0182 90.2267 72.1982 90.2267 52.6282C90.2267 33.0582 73.8767 17.1982 53.6667 17.1982ZM52.8867 85.9482C33.3567 85.9482 18.5767 71.1482 18.5767 52.2282C18.5767 33.3082 34.4167 17.9682 53.9367 17.9682C73.4567 17.9682 88.2367 32.7782 88.2367 51.6982C88.2367 70.6182 72.4367 85.9882 52.9167 85.9882L52.8867 85.9482Z" fill="#FBAD1D"/>
</g>
<path d="M63.907 36.7182C71.3734 36.6972 78.6246 39.2189 84.4669 43.8682C82.5243 37.0979 78.4146 31.1517 72.7682 26.9412C67.1217 22.7308 60.2501 20.4885 53.2069 20.5582C35.3469 20.5582 20.877 34.5582 20.877 51.8782C20.8916 56.5368 21.9598 61.1317 24.0015 65.3191C26.0432 69.5064 29.0056 73.1777 32.6669 76.0582C31.9554 73.4512 31.5955 70.7607 31.5969 68.0582C31.5769 50.7482 46.047 36.7182 63.907 36.7182Z" fill="url(#paint66_linear_25_26631)"/>
<path d="M30.9273 5.42773C30.9273 5.42773 24.0873 5.87773 20.5273 11.8277C23.5472 9.04155 27.0792 6.86803 30.9273 5.42773Z" fill="#FCE1E2"/>
<path d="M15.8166 17.0586C15.8166 17.0586 11.0566 18.8586 9.22656 26.3886C10.9656 22.9793 13.1849 19.8373 15.8166 17.0586Z" fill="#FCE1E2"/>
<path d="M5.97716 32.8086C5.97716 32.8086 2.34717 36.3786 3.71717 44.0086C3.93067 40.1863 4.69176 36.4145 5.97716 32.8086Z" fill="#FCE1E2"/>
<path d="M7.34624 64.0586C7.34624 64.0586 1.62624 64.4786 3.93624 69.5486C6.24624 74.6186 2.50624 68.1386 7.34624 64.0586Z" fill="#FCE1E2"/>
<path d="M3.93615 46.9981C3.93615 46.9981 -1.06384 46.1181 1.69616 58.4681C1.66616 58.4681 1.17615 48.9681 3.93615 46.9981Z" fill="#FCE1E2"/>
<path d="M12.0971 81.8086C12.0971 81.8086 8.66711 85.8086 19.2471 91.8686C19.2471 91.8686 12.0471 85.1986 12.0971 81.8086Z" fill="#FCE1E2"/>
<path d="M27.3067 89.1182C27.3067 89.1182 21.3067 94.4882 26.4767 97.6582C27.1267 98.0582 27.5367 98.3282 27.7767 98.4982C26.7967 97.6382 23.5467 94.0682 27.3067 89.1182Z" fill="#FCE1E2"/>
<path d="M40.8562 94.4082C40.8562 94.4082 36.1862 100.998 41.9662 102.918C42.6862 103.158 43.1562 103.338 43.4262 103.448C42.2762 102.828 38.3062 100.078 40.8562 94.4082Z" fill="#FCE1E2"/>
<path d="M56.4166 94.998C56.4166 94.998 54.9566 104.278 60.7566 103.178C60.7566 103.198 56.8366 102.058 56.4166 94.998Z" fill="#FCE1E2"/>
<path d="M71.207 91.1387C71.207 91.1387 72.637 100.419 77.837 97.5987C77.837 97.5987 73.757 97.7287 71.207 91.1387Z" fill="#FCE1E2"/>
<path d="M85.2363 82.7383C85.2363 82.7383 90.1263 90.7383 93.8363 86.1583C93.8363 86.1983 90.1263 87.8483 85.2363 82.7383Z" fill="#F28B8C"/>
<path d="M99.7375 66.9688C99.7375 66.9688 96.8575 70.4188 93.8375 69.6488C90.8175 68.8788 98.5175 73.6588 99.7375 66.9688Z" fill="#F28B8C"/>
<path d="M101.997 49.3184C101.656 50.4455 100.981 51.4427 100.062 52.1782C99.1421 52.9138 98.0211 53.3532 96.8467 53.4384C93.7567 53.8084 103.117 56.0284 101.997 49.3184Z" fill="#F28B8C"/>
<path d="M97.9567 33.3682C98.0497 34.5436 97.7853 35.7196 97.1982 36.7421C96.6111 37.7646 95.7287 38.5859 94.6668 39.0982C91.9468 40.5782 101.467 39.1982 97.9567 33.3682Z" fill="#F28B8C"/>
<path d="M84.1172 12.8281C84.1172 12.8281 89.5572 14.1081 92.2672 18.2981C94.9772 22.4881 90.3172 16.4681 84.1172 12.8281Z" fill="#F8BEBE"/>
<path d="M68.2871 4.66833C68.2871 4.66833 73.8671 4.29833 77.6871 7.49833C81.5071 10.6983 75.2871 6.31833 68.2871 4.66833Z" fill="#F8BEBE"/>
<path d="M52.457 1.86808C52.457 1.86808 57.697 -0.0719184 62.277 1.86808C66.857 3.80808 59.667 1.45808 52.457 1.86808Z" fill="#FAD3D3"/>
<path d="M43.6673 1.72852C43.6673 1.72852 33.5373 2.91852 35.2173 5.29852C36.8973 7.67852 33.6673 3.75852 43.6673 1.72852Z" fill="#FAD3D3"/>
<path d="M38.477 59.8281V60.0281L38.877 60.1081H39.447H40.987H44.267H46.337H46.987L51.727 60.0181H52.377L53.707 59.8981H54.397L54.927 60.0181L55.167 60.3881L55.247 60.9581V61.5581L55.297 62.2081V63.8681L55.377 64.8681V65.5081V66.0781L55.287 66.4881L55.127 66.7281L54.887 66.8481L53.587 67.0481L53.027 67.0981L52.127 67.0481H51.527L48.527 66.8881H46.257L42.687 67.0881H36.817H33.817L31.667 66.9581H31.177L30.897 66.7981L30.817 66.5581V66.1081L30.897 63.6781V63.0281L30.667 60.5181V59.8681L30.787 58.6581L31.027 57.4381L31.147 56.7881L31.347 56.0981L31.557 55.4481L31.677 55.1281L31.957 54.4781L32.287 53.9481L32.977 53.2181L33.417 52.8181L34.147 52.2481L34.637 51.9281L35.447 51.3981L35.967 51.1181L36.827 50.7081L37.427 50.5081L38.427 50.1881L39.117 50.0181L39.807 49.8981L40.447 49.8181L42.517 49.6981H42.887H43.607H44.607L45.337 49.5381L45.657 49.3681L46.267 49.0081L46.547 48.7281L46.917 48.1981L47.157 47.3481V46.4581L47.077 46.1281L46.877 45.4781L46.707 45.1981L46.307 44.7081L45.777 44.4681L44.887 44.2281L44.317 44.1481H43.717H43.107H42.537L41.967 44.2681L41.117 44.5481L40.597 44.8281L40.347 44.9981L39.947 45.4381L39.737 45.6881L39.457 46.2881L39.257 46.8581L38.887 47.0981L38.287 47.2681H37.917H37.227L35.527 47.1881H33.827H33.137L32.087 47.0681L31.557 46.9881L31.267 46.8281L31.147 46.6281V45.9381L31.227 45.3281L31.307 44.9681L31.437 44.3181L31.517 44.0281L31.717 43.4281L32.127 42.6581L32.447 42.0881L32.807 41.5581L33.257 41.0381L33.747 40.5881L34.227 40.1781L34.997 39.6581L35.667 39.1981L36.887 38.5481L37.567 38.2681L38.217 38.0681L39.117 37.8681L39.757 37.7381L40.367 37.6181L40.937 37.5381H41.827H42.477H43.817H44.747H45.397H45.997L46.607 37.6581L47.457 37.8681L48.067 38.0681L49.367 38.4681L49.977 38.6781L50.577 38.9181L51.427 39.3181L51.997 39.6481L52.527 40.0881L53.057 40.6181L53.497 41.1481L53.907 41.6681L54.427 42.3981L54.717 42.9681L54.997 43.5781L55.197 44.1881L55.407 44.7481L55.527 45.3581L55.647 46.3581V46.9681V47.8581L55.567 48.4281L55.357 49.3581L55.197 49.9681L54.957 50.6581L54.667 51.1981L54.217 51.9681L53.857 52.4881L53.327 53.1781L52.877 53.6281L52.227 54.2381L51.707 54.5581L50.857 55.0081L50.247 55.2481L49.557 55.4481L48.907 55.6581L48.217 55.7781L47.567 55.8981L46.637 55.9781L45.987 56.0581L45.297 56.1781L44.657 56.2981L43.657 56.3881H42.977H42.667H41.937H41.617L40.927 56.5081L40.597 56.6281L39.997 56.9081L39.747 57.1181L39.307 57.5581L38.977 58.0481L38.737 58.6181L38.657 58.9381L38.537 59.4681L38.477 59.8281Z" fill="black"/>
<path d="M68.6668 40.9577V43.6977L68.7168 44.6977V44.9677V47.1777V47.4577V47.5977V47.8777L68.6668 48.6777V49.8877L68.5968 50.0877L68.4668 50.2677L68.2968 50.3877L68.1468 50.4377H67.9068H67.0568H66.7868H66.1068H65.8868L65.6868 50.3477L65.4868 50.1977L65.3368 49.9777L65.0868 49.4977L64.9368 49.2777L64.2768 48.4577L64.1168 48.2577L63.4568 47.4577L63.3068 47.2377L62.7268 46.3677L62.5768 46.1677L61.9168 45.3577L61.7568 45.1577L61.1368 44.3377L60.9868 44.2077H60.8668L60.8168 44.4077V45.2477V46.6177V47.5577V47.8177V48.7577V49.0277L60.9168 49.6977V49.9677L60.8668 50.1777L60.7568 50.2977H60.6368H60.4368H60.2968H58.9668H58.2868H58.0168H57.7668H57.5768L57.4468 50.2077L57.3768 50.0977V49.9277V49.8077V49.5577V49.0077V48.7377L57.3268 47.8577V47.5877V45.5877V45.3177V44.4277V44.1577V43.0977L57.2568 42.2077V41.9477L57.3268 41.0577V40.7877L57.2668 39.8877V39.6177V39.1977V38.9477V38.6977V38.5177L57.3168 38.3977H57.4168H57.6068H58.1068H58.6068H60.0668L60.1468 38.4677L60.2468 38.6177L60.9468 39.3677L61.1168 39.5777L61.7368 40.3777L61.9068 40.5777L62.5268 41.3977L62.6868 41.5977L63.2968 42.4377L63.4468 42.6377L64.0768 43.4377L64.2468 43.6377L64.8468 44.4777L64.9868 44.5977H65.1168L65.2368 44.5177V44.2977L65.1168 43.5977V43.3277V42.6077V42.3477L65.0568 41.3477V41.0777L65.1168 40.0777V39.8077V39.1877V38.7677V38.5477L65.1768 38.4177L65.2968 38.3477H65.4968H65.6468H65.9368H66.6868H66.9568H67.5268H67.7768H68.1568H68.3468L68.4568 38.3977L68.5568 38.5077V38.7477V38.8977V39.1777V39.6977V39.9677L68.6668 40.9577Z" fill="black"/>
<path d="M82.6668 44.6879V44.9679V45.3679V45.6379L82.5568 46.0279L82.4668 46.2979L82.3668 46.5479L82.2668 46.8079L82.1668 47.0979L82.0668 47.3479L81.8868 47.7179L81.7468 47.9279L81.5168 48.1979L81.3468 48.3879L81.0668 48.6479L80.6968 49.0179L80.4768 49.2079L80.1568 49.4579L79.9368 49.5879L79.6068 49.7779L79.3868 49.8779L79.0168 50.0079L78.7668 50.0879L78.5068 50.1579H78.2368L77.2368 50.3079H76.9868H76.6168H76.3468H75.8168H75.3768H75.1068H74.5768H74.1568H73.8668H73.6168H72.4468H72.1968L71.4768 50.2479L71.3468 50.1779L71.2568 50.0979V49.9079V49.6479V49.5079V49.0079V48.7779V48.3879V48.1979V47.9279V47.6579V46.7779V46.5079V45.6179V45.3679V44.9979V44.7479V44.4679V44.1979V43.7679V43.4779V43.3279V43.0479L71.3268 42.1579V41.8879V40.9979V40.7379V39.8479V39.1979V38.9279L71.3768 38.6779V38.4879L71.4468 38.3879L71.6368 38.3379H71.9168H72.1668H72.4368H73.9068H74.1768H74.9768H75.4168H76.1168H76.3668H76.6368H77.0568H77.5868H77.8568L78.2968 38.4079H78.5568L78.8068 38.4779L79.4168 38.6979L79.6668 38.8079L79.9168 38.9479L80.1468 39.0779L80.6968 39.4679L80.9168 39.6479L81.1168 39.8179L81.4868 40.1679L81.6568 40.3379L81.8068 40.5179L81.9268 40.7379L82.1068 41.1079L82.2068 41.3579L82.2868 41.6179L82.3868 41.8879L82.4768 42.1579L82.5468 42.4279L82.6068 42.7879L82.6568 43.0579L82.7068 43.3479V43.6179V44.0179V44.2779L82.6668 44.6879ZM78.8468 46.1279L78.9668 45.8779L79.0668 45.5879L79.1268 45.3379L79.1968 44.9679V44.7379V44.3479V43.8179V43.5479L79.1468 43.1679L79.0768 42.9079V42.8079L78.9368 42.5579L78.6668 42.1979L78.5868 42.1179L78.4168 41.9379L78.2368 41.7479L78.0368 41.5979L77.6668 41.3779L77.4368 41.2779L77.1968 41.2279H76.9268H76.5168H75.8068H75.4368H75.1868H74.8268L74.6368 41.2779L74.5568 41.3579V41.5579V41.7079V41.9679V42.4679V42.7279V43.0979V43.3679V43.6379V43.9079V44.2679V45.0779V45.3579V45.6279V45.9979V46.8679L74.6068 47.2679L74.6768 47.4479L74.7768 47.5379H74.9768L76.5368 47.4379H76.9168H77.1868L77.4768 47.3479L77.6668 47.1979L77.9168 47.0779L78.1368 46.9279L78.4368 46.6679L78.6068 46.4679L78.8468 46.1279Z" fill="black"/>
<defs>
<radialGradient id="paint0_radial_25_26631" cx="0" cy="0" r="1" gradientUnits="userSpaceOnUse" gradientTransform="translate(12.837 147.118) scale(54.12 54.12)">
<stop offset="0.7" stop-color="#E82C2E"/>
<stop offset="0.75" stop-color="#E32B2D"/>
<stop offset="0.8" stop-color="#D4282B"/>
<stop offset="0.86" stop-color="#BC2226"/>
<stop offset="0.92" stop-color="#9A1B20"/>
<stop offset="0.96" stop-color="#80151C"/>
</radialGradient>
<radialGradient id="paint1_radial_25_26631" cx="0" cy="0" r="1" gradientUnits="userSpaceOnUse" gradientTransform="translate(33.4317 162.342) rotate(13.91) scale(25.82 25.82)">
<stop offset="0.37" stop-color="#E82C2E"/>
<stop offset="0.95" stop-color="#FACECF"/>
</radialGradient>
<radialGradient id="paint2_radial_25_26631" cx="0" cy="0" r="1" gradientUnits="userSpaceOnUse" gradientTransform="translate(50.1369 164.569) scale(50.24 50.24)">
<stop offset="0.37" stop-color="#E82C2E"/>
<stop offset="0.95" stop-color="#FACECF"/>
</radialGradient>
<radialGradient id="paint3_radial_25_26631" cx="0" cy="0" r="1" gradientUnits="userSpaceOnUse" gradientTransform="translate(39.5076 134.929) scale(37.04 37.04)">
<stop offset="0.16" stop-color="#F4EC94"/>
<stop offset="0.7" stop-color="#A87C15"/>
</radialGradient>
<radialGradient id="paint4_radial_25_26631" cx="0" cy="0" r="1" gradientUnits="userSpaceOnUse" gradientTransform="translate(12.8363 147.119) scale(54.12 54.12)">
<stop offset="0.7" stop-color="#E82C2E"/>
<stop offset="0.75" stop-color="#E32B2D"/>
<stop offset="0.8" stop-color="#D4282B"/>
<stop offset="0.86" stop-color="#BC2226"/>
<stop offset="0.92" stop-color="#9A1B20"/>
<stop offset="0.96" stop-color="#80151C"/>
</radialGradient>
<radialGradient id="paint5_radial_25_26631" cx="0" cy="0" r="1" gradientUnits="userSpaceOnUse" gradientTransform="translate(63.2373 173.468) scale(35.05 35.05)">
<stop offset="0.37" stop-color="#E82C2E"/>
<stop offset="0.95" stop-color="#FACECF"/>
</radialGradient>
<radialGradient id="paint6_radial_25_26631" cx="0" cy="0" r="1" gradientUnits="userSpaceOnUse" gradientTransform="translate(71.9069 151.319) scale(61.74 61.74)">
<stop offset="0.54" stop-color="#E82C2E"/>
<stop offset="0.61" stop-color="#E32B2D"/>
<stop offset="0.7" stop-color="#D4282B"/>
<stop offset="0.79" stop-color="#BC2226"/>
<stop offset="0.89" stop-color="#9A1B20"/>
<stop offset="0.96" stop-color="#80151C"/>
</radialGradient>
<radialGradient id="paint7_radial_25_26631" cx="0" cy="0" r="1" gradientUnits="userSpaceOnUse" gradientTransform="translate(75.6868 147.988) scale(33.03 33.03)">
<stop offset="0.37" stop-color="#E82C2E"/>
<stop offset="0.95" stop-color="#FACECF"/>
</radialGradient>
<radialGradient id="paint8_radial_25_26631" cx="0" cy="0" r="1" gradientUnits="userSpaceOnUse" gradientTransform="translate(87.8184 163.914) rotate(-11.1) scale(35.06 35.06)">
<stop offset="0.37" stop-color="#E82C2E"/>
<stop offset="0.95" stop-color="#FACECF"/>
</radialGradient>
<radialGradient id="paint9_radial_25_26631" cx="0" cy="0" r="1" gradientUnits="userSpaceOnUse" gradientTransform="translate(68.9568 134.798) scale(45.38 45.38)">
<stop offset="0.16" stop-color="#F4EC94"/>
<stop offset="0.7" stop-color="#A87C15"/>
</radialGradient>
<radialGradient id="paint10_radial_25_26631" cx="0" cy="0" r="1" gradientUnits="userSpaceOnUse" gradientTransform="translate(71.9064 151.319) scale(61.74 61.74)">
<stop offset="0.54" stop-color="#E82C2E"/>
<stop offset="0.61" stop-color="#E32B2D"/>
<stop offset="0.7" stop-color="#D4282B"/>
<stop offset="0.79" stop-color="#BC2226"/>
<stop offset="0.89" stop-color="#9A1B20"/>
<stop offset="0.96" stop-color="#80151C"/>
</radialGradient>
<radialGradient id="paint11_radial_25_26631" cx="0" cy="0" r="1" gradientUnits="userSpaceOnUse" gradientTransform="translate(42.459 9.99877) rotate(-3.31) scale(13.9 13.9)">
<stop offset="0.7" stop-color="#E82C2E"/>
<stop offset="0.75" stop-color="#E32B2D"/>
<stop offset="0.8" stop-color="#D4282B"/>
<stop offset="0.86" stop-color="#BC2226"/>
<stop offset="0.92" stop-color="#9A1B20"/>
<stop offset="0.96" stop-color="#80151C"/>
</radialGradient>
<radialGradient id="paint12_radial_25_26631" cx="0" cy="0" r="1" gradientUnits="userSpaceOnUse" gradientTransform="translate(42.8275 13.5528) rotate(-4.21418) scale(13.4123 14.1247)">
<stop offset="0.37" stop-color="#E82C2E"/>
<stop offset="0.95" stop-color="#FACECF"/>
</radialGradient>
<radialGradient id="paint13_radial_25_26631" cx="0" cy="0" r="1" gradientUnits="userSpaceOnUse" gradientTransform="translate(42.4643 10.6081) rotate(0.69) scale(9.58 9.58)">
<stop offset="0.23" stop-color="#E82C2E"/>
<stop offset="0.35" stop-color="#E32B2D"/>
<stop offset="0.51" stop-color="#D4282B"/>
<stop offset="0.67" stop-color="#BC2226"/>
<stop offset="0.85" stop-color="#9A1B20"/>
<stop offset="0.96" stop-color="#80151C"/>
</radialGradient>
<radialGradient id="paint14_radial_25_26631" cx="0" cy="0" r="1" gradientUnits="userSpaceOnUse" gradientTransform="translate(28.9468 14.9404) rotate(-26.95) scale(13.9)">
<stop stop-color="#9D1C23"/>
<stop offset="0.19" stop-color="#BC2327"/>
<stop offset="0.38" stop-color="#D4282B"/>
<stop offset="0.56" stop-color="#E32B2D"/>
<stop offset="0.7" stop-color="#E82C2E"/>
<stop offset="0.75" stop-color="#E32B2D"/>
<stop offset="0.8" stop-color="#D4282B"/>
<stop offset="0.86" stop-color="#BC2226"/>
<stop offset="0.92" stop-color="#9A1B20"/>
<stop offset="0.96" stop-color="#80151C"/>
</radialGradient>
<radialGradient id="paint15_radial_25_26631" cx="0" cy="0" r="1" gradientUnits="userSpaceOnUse" gradientTransform="translate(30.5398 17.6819) rotate(-28.1786) scale(13.4174 14.0469)">
<stop offset="0.37" stop-color="#E82C2E"/>
<stop offset="0.95" stop-color="#FACECF"/>
</radialGradient>
<radialGradient id="paint16_radial_25_26631" cx="0" cy="0" r="1" gradientUnits="userSpaceOnUse" gradientTransform="translate(29.4472 15.2488) rotate(-22.94) scale(9.58 9.58)">
<stop offset="0.23" stop-color="#E82C2E"/>
<stop offset="0.35" stop-color="#E32B2D"/>
<stop offset="0.51" stop-color="#D4282B"/>
<stop offset="0.67" stop-color="#BC2226"/>
<stop offset="0.85" stop-color="#9A1B20"/>
<stop offset="0.96" stop-color="#80151C"/>
</radialGradient>
<radialGradient id="paint17_radial_25_26631" cx="0" cy="0" r="1" gradientUnits="userSpaceOnUse" gradientTransform="translate(18.2459 25.5638) rotate(-48.22) scale(13.9)">
<stop offset="0.7" stop-color="#E82C2E"/>
<stop offset="0.75" stop-color="#E32B2D"/>
<stop offset="0.8" stop-color="#D4282B"/>
<stop offset="0.86" stop-color="#BC2226"/>
<stop offset="0.92" stop-color="#9A1B20"/>
<stop offset="0.96" stop-color="#80151C"/>
</radialGradient>
<radialGradient id="paint18_radial_25_26631" cx="0" cy="0" r="1" gradientUnits="userSpaceOnUse" gradientTransform="translate(20.2727 28.2069) rotate(-49.2679) scale(13.3782 14.0806)">
<stop offset="0.37" stop-color="#E82C2E"/>
<stop offset="0.95" stop-color="#FACECF"/>
</radialGradient>
<radialGradient id="paint19_radial_25_26631" cx="0" cy="0" r="1" gradientUnits="userSpaceOnUse" gradientTransform="translate(18.3178 25.5881) rotate(-44.1931) scale(9.62015)">
<stop offset="0.23" stop-color="#E82C2E"/>
<stop offset="0.35" stop-color="#E32B2D"/>
<stop offset="0.51" stop-color="#D4282B"/>
<stop offset="0.67" stop-color="#BC2226"/>
<stop offset="0.85" stop-color="#9A1B20"/>
<stop offset="0.96" stop-color="#80151C"/>
</radialGradient>
<radialGradient id="paint20_radial_25_26631" cx="0" cy="0" r="1" gradientUnits="userSpaceOnUse" gradientTransform="translate(11.4296 39.714) rotate(-70.56) scale(13.9 13.9)">
<stop offset="0.7" stop-color="#E82C2E"/>
<stop offset="0.75" stop-color="#E32B2D"/>
<stop offset="0.8" stop-color="#D4282B"/>
<stop offset="0.86" stop-color="#BC2226"/>
<stop offset="0.92" stop-color="#9A1B20"/>
<stop offset="0.96" stop-color="#80151C"/>
</radialGradient>
<radialGradient id="paint21_radial_25_26631" cx="0" cy="0" r="1" gradientUnits="userSpaceOnUse" gradientTransform="translate(14.1904 39.7156) rotate(-71.565) scale(13.3575 14.1144)">
<stop offset="0.37" stop-color="#E82C2E"/>
<stop offset="0.95" stop-color="#FACECF"/>
</radialGradient>
<radialGradient id="paint22_radial_25_26631" cx="0" cy="0" r="1" gradientUnits="userSpaceOnUse" gradientTransform="translate(11.3291 39.561) rotate(-66.5014) scale(9.61061 9.61061)">
<stop offset="0.23" stop-color="#E82C2E"/>
<stop offset="0.35" stop-color="#E32B2D"/>
<stop offset="0.51" stop-color="#D4282B"/>
<stop offset="0.67" stop-color="#BC2226"/>
<stop offset="0.85" stop-color="#9A1B20"/>
<stop offset="0.96" stop-color="#80151C"/>
</radialGradient>
<radialGradient id="paint23_radial_25_26631" cx="0" cy="0" r="1" gradientUnits="userSpaceOnUse" gradientTransform="translate(9.26368 53.0439) rotate(-88.8542) scale(13.9028 13.9028)">
<stop offset="0.7" stop-color="#E82C2E"/>
<stop offset="0.75" stop-color="#E32B2D"/>
<stop offset="0.8" stop-color="#D4282B"/>
<stop offset="0.86" stop-color="#BC2226"/>
<stop offset="0.92" stop-color="#9A1B20"/>
<stop offset="0.96" stop-color="#80151C"/>
</radialGradient>
<radialGradient id="paint24_radial_25_26631" cx="0" cy="0" r="1" gradientUnits="userSpaceOnUse" gradientTransform="translate(12.3871 53.7674) rotate(-90) scale(13.376 14.08)">
<stop offset="0.37" stop-color="#E82C2E"/>
<stop offset="0.95" stop-color="#FACECF"/>
</radialGradient>
<radialGradient id="paint25_radial_25_26631" cx="0" cy="0" r="1" gradientUnits="userSpaceOnUse" gradientTransform="translate(9.09571 52.8356) rotate(-84.8572) scale(9.61872)">
<stop offset="0.23" stop-color="#E82C2E"/>
<stop offset="0.35" stop-color="#E32B2D"/>
<stop offset="0.51" stop-color="#D4282B"/>
<stop offset="0.67" stop-color="#BC2226"/>
<stop offset="0.85" stop-color="#9A1B20"/>
<stop offset="0.96" stop-color="#80151C"/>
</radialGradient>
<radialGradient id="paint26_radial_25_26631" cx="0" cy="0" r="1" gradientUnits="userSpaceOnUse" gradientTransform="translate(12.6081 68.9286) rotate(-109.885) scale(13.8944)">
<stop offset="0.7" stop-color="#E82C2E"/>
<stop offset="0.75" stop-color="#E32B2D"/>
<stop offset="0.8" stop-color="#D4282B"/>
<stop offset="0.86" stop-color="#BC2226"/>
<stop offset="0.92" stop-color="#9A1B20"/>
<stop offset="0.96" stop-color="#80151C"/>
</radialGradient>
<radialGradient id="paint27_radial_25_26631" cx="0" cy="0" r="1" gradientUnits="userSpaceOnUse" gradientTransform="translate(13.4692 69.2862) rotate(-110.908) scale(13.4145 14.0411)">
<stop offset="0.29" stop-color="#E82C2E"/>
<stop offset="0.95" stop-color="#FACECF"/>
</radialGradient>
<radialGradient id="paint28_radial_25_26631" cx="0" cy="0" r="1" gradientUnits="userSpaceOnUse" gradientTransform="translate(13.1138 69.1252) rotate(-105.95) scale(9.58 9.58)">
<stop offset="0.23" stop-color="#E82C2E"/>
<stop offset="0.35" stop-color="#E32B2D"/>
<stop offset="0.51" stop-color="#D4282B"/>
<stop offset="0.67" stop-color="#BC2226"/>
<stop offset="0.85" stop-color="#9A1B20"/>
<stop offset="0.96" stop-color="#80151C"/>
</radialGradient>
<radialGradient id="paint29_radial_25_26631" cx="0" cy="0" r="1" gradientUnits="userSpaceOnUse" gradientTransform="translate(19.6556 84.2442) rotate(-133.386) scale(13.9624)">
<stop offset="0.7" stop-color="#E82C2E"/>
<stop offset="0.75" stop-color="#E32B2D"/>
<stop offset="0.8" stop-color="#D4282B"/>
<stop offset="0.86" stop-color="#BC2226"/>
<stop offset="0.92" stop-color="#9A1B20"/>
<stop offset="0.96" stop-color="#80151C"/>
</radialGradient>
<radialGradient id="paint30_radial_25_26631" cx="0" cy="0" r="1" gradientUnits="userSpaceOnUse" gradientTransform="translate(18.5304 83.4095) rotate(-134.145) scale(13.3426 14.139)">
<stop offset="0.37" stop-color="#E82C2E"/>
<stop offset="0.95" stop-color="#FACECF"/>
</radialGradient>
<radialGradient id="paint31_radial_25_26631" cx="0" cy="0" r="1" gradientUnits="userSpaceOnUse" gradientTransform="translate(23.1689 81.5662) rotate(-129.289) scale(9.53101)">
<stop offset="0.23" stop-color="#E82C2E"/>
<stop offset="0.35" stop-color="#E32B2D"/>
<stop offset="0.51" stop-color="#D4282B"/>
<stop offset="0.67" stop-color="#BC2226"/>
<stop offset="0.85" stop-color="#9A1B20"/>
<stop offset="0.96" stop-color="#80151C"/>
</radialGradient>
<radialGradient id="paint32_radial_25_26631" cx="0" cy="0" r="1" gradientUnits="userSpaceOnUse" gradientTransform="translate(33.0367 92.0569) rotate(-152.02) scale(13.9)">
<stop offset="0.7" stop-color="#E82C2E"/>
<stop offset="0.75" stop-color="#E32B2D"/>
<stop offset="0.8" stop-color="#D4282B"/>
<stop offset="0.86" stop-color="#BC2226"/>
<stop offset="0.92" stop-color="#9A1B20"/>
<stop offset="0.96" stop-color="#80151C"/>
</radialGradient>
<radialGradient id="paint33_radial_25_26631" cx="0" cy="0" r="1" gradientUnits="userSpaceOnUse" gradientTransform="translate(33.3449 90.5241) rotate(-153.166) scale(13.4123 14.0419)">
<stop offset="0.37" stop-color="#E82C2E"/>
<stop offset="0.95" stop-color="#FACECF"/>
</radialGradient>
<radialGradient id="paint34_radial_25_26631" cx="0" cy="0" r="1" gradientUnits="userSpaceOnUse" gradientTransform="translate(33.3652 91.553) rotate(-148.02) scale(9.58 9.58)">
<stop offset="0.23" stop-color="#E82C2E"/>
<stop offset="0.35" stop-color="#E32B2D"/>
<stop offset="0.51" stop-color="#D4282B"/>
<stop offset="0.67" stop-color="#BC2226"/>
<stop offset="0.85" stop-color="#9A1B20"/>
<stop offset="0.96" stop-color="#80151C"/>
</radialGradient>
<radialGradient id="paint35_radial_25_26631" cx="0" cy="0" r="1" gradientUnits="userSpaceOnUse" gradientTransform="translate(47.1811 95.5412) rotate(-166.63) scale(13.9 13.9)">
<stop offset="0.7" stop-color="#E82C2E"/>
<stop offset="0.75" stop-color="#E32B2D"/>
<stop offset="0.8" stop-color="#D4282B"/>
<stop offset="0.86" stop-color="#BC2226"/>
<stop offset="0.92" stop-color="#9A1B20"/>
<stop offset="0.96" stop-color="#80151C"/>
</radialGradient>
<radialGradient id="paint36_radial_25_26631" cx="0" cy="0" r="1" gradientUnits="userSpaceOnUse" gradientTransform="translate(47.4939 96.6114) rotate(-167.863) scale(13.3938 14.1116)">
<stop offset="0.37" stop-color="#E82C2E"/>
<stop offset="0.95" stop-color="#FACECF"/>
</radialGradient>
<radialGradient id="paint37_radial_25_26631" cx="0" cy="0" r="1" gradientUnits="userSpaceOnUse" gradientTransform="translate(47.3556 94.9685) rotate(-162.63) scale(9.58)">
<stop offset="0.23" stop-color="#E82C2E"/>
<stop offset="0.35" stop-color="#E32B2D"/>
<stop offset="0.51" stop-color="#D4282B"/>
<stop offset="0.67" stop-color="#BC2226"/>
<stop offset="0.85" stop-color="#9A1B20"/>
<stop offset="0.96" stop-color="#80151C"/>
</radialGradient>
<radialGradient id="paint38_radial_25_26631" cx="0" cy="0" r="1" gradientUnits="userSpaceOnUse" gradientTransform="translate(62.7588 94.6997) rotate(174.26) scale(13.9)">
<stop offset="0.7" stop-color="#E82C2E"/>
<stop offset="0.75" stop-color="#E32B2D"/>
<stop offset="0.8" stop-color="#D4282B"/>
<stop offset="0.86" stop-color="#BC2226"/>
<stop offset="0.92" stop-color="#9A1B20"/>
<stop offset="0.96" stop-color="#80151C"/>
</radialGradient>
<radialGradient id="paint39_radial_25_26631" cx="0" cy="0" r="1" gradientUnits="userSpaceOnUse" gradientTransform="translate(63.3749 92.6318) rotate(173.326) scale(13.3255 14.0411)">
<stop offset="0.37" stop-color="#E82C2E"/>
<stop offset="0.95" stop-color="#FACECF"/>
</radialGradient>
<radialGradient id="paint40_radial_25_26631" cx="0" cy="0" r="1" gradientUnits="userSpaceOnUse" gradientTransform="translate(62.7359 94.126) rotate(178.26) scale(9.58001 9.58)">
<stop offset="0.23" stop-color="#E82C2E"/>
<stop offset="0.35" stop-color="#E32B2D"/>
<stop offset="0.51" stop-color="#D4282B"/>
<stop offset="0.67" stop-color="#BC2226"/>
<stop offset="0.85" stop-color="#9A1B20"/>
<stop offset="0.96" stop-color="#80151C"/>
</radialGradient>
<radialGradient id="paint41_radial_25_26631" cx="0" cy="0" r="1" gradientUnits="userSpaceOnUse" gradientTransform="translate(77.3977 88.7299) rotate(153.98) scale(13.9 13.9)">
<stop offset="0.7" stop-color="#E82C2E"/>
<stop offset="0.75" stop-color="#E32B2D"/>
<stop offset="0.8" stop-color="#D4282B"/>
<stop offset="0.86" stop-color="#BC2226"/>
<stop offset="0.92" stop-color="#9A1B20"/>
<stop offset="0.96" stop-color="#80151C"/>
</radialGradient>
<radialGradient id="paint42_radial_25_26631" cx="0" cy="0" r="1" gradientUnits="userSpaceOnUse" gradientTransform="translate(73.8866 87.8362) rotate(153.166) scale(13.4123 14.0419)">
<stop offset="0.37" stop-color="#E82C2E"/>
<stop offset="0.95" stop-color="#FACECF"/>
</radialGradient>
<radialGradient id="paint43_radial_25_26631" cx="0" cy="0" r="1" gradientUnits="userSpaceOnUse" gradientTransform="translate(75.0155 87.6348) rotate(158.305) scale(9.58862 9.58862)">
<stop offset="0.23" stop-color="#E82C2E"/>
<stop offset="0.35" stop-color="#E32B2D"/>
<stop offset="0.51" stop-color="#D4282B"/>
<stop offset="0.67" stop-color="#BC2226"/>
<stop offset="0.85" stop-color="#9A1B20"/>
<stop offset="0.96" stop-color="#80151C"/>
</radialGradient>
<radialGradient id="paint44_radial_25_26631" cx="0" cy="0" r="1" gradientUnits="userSpaceOnUse" gradientTransform="translate(89.4894 78.4336) rotate(131.29) scale(13.9)">
<stop offset="0.7" stop-color="#E82C2E"/>
<stop offset="0.75" stop-color="#E32B2D"/>
<stop offset="0.8" stop-color="#D4282B"/>
<stop offset="0.86" stop-color="#BC2226"/>
<stop offset="0.92" stop-color="#9A1B20"/>
<stop offset="0.96" stop-color="#80151C"/>
</radialGradient>
<radialGradient id="paint45_radial_25_26631" cx="0" cy="0" r="1" gradientUnits="userSpaceOnUse" gradientTransform="translate(89.0337 80.7942) rotate(129.883) scale(13.3945 14.0798)">
<stop offset="0.37" stop-color="#E82C2E"/>
<stop offset="0.95" stop-color="#FACECF"/>
</radialGradient>
<radialGradient id="paint46_radial_25_26631" cx="0" cy="0" r="1" gradientUnits="userSpaceOnUse" gradientTransform="translate(89.0574 78.0066) rotate(135.29) scale(9.58)">
<stop offset="0.23" stop-color="#E82C2E"/>
<stop offset="0.35" stop-color="#E32B2D"/>
<stop offset="0.51" stop-color="#D4282B"/>
<stop offset="0.67" stop-color="#BC2226"/>
<stop offset="0.85" stop-color="#9A1B20"/>
<stop offset="0.96" stop-color="#80151C"/>
</radialGradient>
<radialGradient id="paint47_radial_25_26631" cx="0" cy="0" r="1" gradientUnits="userSpaceOnUse" gradientTransform="translate(96.3922 64.623) rotate(106.61) scale(13.9 13.9)">
<stop offset="0.7" stop-color="#E82C2E"/>
<stop offset="0.75" stop-color="#E32B2D"/>
<stop offset="0.8" stop-color="#D4282B"/>
<stop offset="0.86" stop-color="#BC2226"/>
<stop offset="0.92" stop-color="#9A1B20"/>
<stop offset="0.96" stop-color="#80151C"/>
</radialGradient>
<radialGradient id="paint48_radial_25_26631" cx="0" cy="0" r="1" gradientUnits="userSpaceOnUse" gradientTransform="translate(96.9475 69.291) rotate(105.781) scale(13.4609 14.0412)">
<stop offset="0.37" stop-color="#E82C2E"/>
<stop offset="0.95" stop-color="#FACECF"/>
</radialGradient>
<radialGradient id="paint49_radial_25_26631" cx="0" cy="0" r="1" gradientUnits="userSpaceOnUse" gradientTransform="translate(95.8213 64.4169) rotate(110.62) scale(9.58 9.58)">
<stop offset="0.23" stop-color="#E82C2E"/>
<stop offset="0.35" stop-color="#E32B2D"/>
<stop offset="0.51" stop-color="#D4282B"/>
<stop offset="0.67" stop-color="#BC2226"/>
<stop offset="0.85" stop-color="#9A1B20"/>
<stop offset="0.96" stop-color="#80151C"/>
</radialGradient>
<radialGradient id="paint50_radial_25_26631" cx="0" cy="0" r="1" gradientUnits="userSpaceOnUse" gradientTransform="translate(97.774 49.0926) rotate(85.53) scale(13.9 13.9)">
<stop offset="0.7" stop-color="#E82C2E"/>
<stop offset="0.75" stop-color="#E32B2D"/>
<stop offset="0.8" stop-color="#D4282B"/>
<stop offset="0.86" stop-color="#BC2226"/>
<stop offset="0.92" stop-color="#9A1B20"/>
<stop offset="0.96" stop-color="#80151C"/>
</radialGradient>
<radialGradient id="paint51_radial_25_26631" cx="0" cy="0" r="1" gradientUnits="userSpaceOnUse" gradientTransform="translate(97.9417 51.01) rotate(84.5881) scale(13.4359 14.15)">
<stop offset="0.37" stop-color="#E82C2E"/>
<stop offset="0.95" stop-color="#FACECF"/>
</radialGradient>
<radialGradient id="paint52_radial_25_26631" cx="0" cy="0" r="1" gradientUnits="userSpaceOnUse" gradientTransform="translate(97.1757 49.1278) rotate(89.53) scale(9.58 9.58001)">
<stop offset="0.23" stop-color="#E82C2E"/>
<stop offset="0.35" stop-color="#E32B2D"/>
<stop offset="0.51" stop-color="#D4282B"/>
<stop offset="0.67" stop-color="#BC2226"/>
<stop offset="0.85" stop-color="#9A1B20"/>
<stop offset="0.96" stop-color="#80151C"/>
</radialGradient>
<radialGradient id="paint53_radial_25_26631" cx="0" cy="0" r="1" gradientUnits="userSpaceOnUse" gradientTransform="translate(93.7733 35.0777) rotate(67.08) scale(13.9 13.9)">
<stop offset="0.7" stop-color="#E82C2E"/>
<stop offset="0.75" stop-color="#E32B2D"/>
<stop offset="0.8" stop-color="#D4282B"/>
<stop offset="0.86" stop-color="#BC2226"/>
<stop offset="0.92" stop-color="#9A1B20"/>
<stop offset="0.96" stop-color="#80151C"/>
</radialGradient>
<radialGradient id="paint54_radial_25_26631" cx="0" cy="0" r="1" gradientUnits="userSpaceOnUse" gradientTransform="translate(95.6599 36.977) rotate(65.8545) scale(13.4241 14.0532)">
<stop offset="0.37" stop-color="#E82C2E"/>
<stop offset="0.95" stop-color="#FACECF"/>
</radialGradient>
<radialGradient id="paint55_radial_25_26631" cx="0" cy="0" r="1" gradientUnits="userSpaceOnUse" gradientTransform="translate(92.3593 35.0608) rotate(71.3843) scale(9.60344)">
<stop offset="0.23" stop-color="#E82C2E"/>
<stop offset="0.35" stop-color="#E32B2D"/>
<stop offset="0.51" stop-color="#D4282B"/>
<stop offset="0.67" stop-color="#BC2226"/>
<stop offset="0.85" stop-color="#9A1B20"/>
<stop offset="0.96" stop-color="#80151C"/>
</radialGradient>
<radialGradient id="paint56_radial_25_26631" cx="0" cy="0" r="1" gradientUnits="userSpaceOnUse" gradientTransform="translate(84.8118 22.1931) rotate(48.2) scale(13.9)">
<stop offset="0.7" stop-color="#E82C2E"/>
<stop offset="0.75" stop-color="#E32B2D"/>
<stop offset="0.8" stop-color="#D4282B"/>
<stop offset="0.86" stop-color="#BC2226"/>
<stop offset="0.92" stop-color="#9A1B20"/>
<stop offset="0.96" stop-color="#80151C"/>
</radialGradient>
<radialGradient id="paint57_radial_25_26631" cx="0" cy="0" r="1" gradientUnits="userSpaceOnUse" gradientTransform="translate(85.5341 22.3812) rotate(47.1211) scale(13.4499 14.0469)">
<stop offset="0.37" stop-color="#E82C2E"/>
<stop offset="0.95" stop-color="#FACECF"/>
</radialGradient>
<radialGradient id="paint58_radial_25_26631" cx="0" cy="0" r="1" gradientUnits="userSpaceOnUse" gradientTransform="translate(84.1879 21.715) rotate(48.6522) scale(9.57089)">
<stop offset="0.23" stop-color="#E82C2E"/>
<stop offset="0.35" stop-color="#E32B2D"/>
<stop offset="0.51" stop-color="#D4282B"/>
<stop offset="0.67" stop-color="#BC2226"/>
<stop offset="0.85" stop-color="#9A1B20"/>
<stop offset="0.96" stop-color="#80151C"/>
</radialGradient>
<radialGradient id="paint59_radial_25_26631" cx="0" cy="0" r="1" gradientUnits="userSpaceOnUse" gradientTransform="translate(75.0501 13.6161) rotate(28.1063) scale(15.6331 15.6331)">
<stop offset="0.7" stop-color="#E82C2E"/>
<stop offset="0.75" stop-color="#E32B2D"/>
<stop offset="0.8" stop-color="#D4282B"/>
<stop offset="0.86" stop-color="#BC2226"/>
<stop offset="0.92" stop-color="#9A1B20"/>
<stop offset="0.96" stop-color="#80151C"/>
</radialGradient>
<radialGradient id="paint60_radial_25_26631" cx="0" cy="0" r="1" gradientUnits="userSpaceOnUse" gradientTransform="translate(68.5953 13.6976) rotate(27.3682) scale(13.4764 14.106)">
<stop offset="0.37" stop-color="#E82C2E"/>
<stop offset="0.95" stop-color="#FACECF"/>
</radialGradient>
<radialGradient id="paint61_radial_25_26631" cx="0" cy="0" r="1" gradientUnits="userSpaceOnUse" gradientTransform="translate(72.0801 14.4338) rotate(28.1063) scale(9.55746)">
<stop offset="0.23" stop-color="#E82C2E"/>
<stop offset="0.35" stop-color="#E32B2D"/>
<stop offset="0.51" stop-color="#D4282B"/>
<stop offset="0.67" stop-color="#BC2226"/>
<stop offset="0.85" stop-color="#9A1B20"/>
<stop offset="0.96" stop-color="#80151C"/>
</radialGradient>
<radialGradient id="paint62_radial_25_26631" cx="0" cy="0" r="1" gradientUnits="userSpaceOnUse" gradientTransform="translate(59.1016 8.13447) rotate(13.57) scale(11.86 11.86)">
<stop offset="0.55" stop-color="#E82C2E"/>
<stop offset="0.62" stop-color="#E32B2D"/>
<stop offset="0.71" stop-color="#D4282B"/>
<stop offset="0.81" stop-color="#BC2328"/>
<stop offset="0.85" stop-color="#AF2026"/>
</radialGradient>
<radialGradient id="paint63_radial_25_26631" cx="0" cy="0" r="1" gradientUnits="userSpaceOnUse" gradientTransform="translate(54.8006 10.471) rotate(12.7244) scale(13.4241 14.1418)">
<stop offset="0.37" stop-color="#E82C2E"/>
<stop offset="0.95" stop-color="#FACECF"/>
</radialGradient>
<radialGradient id="paint64_radial_25_26631" cx="0" cy="0" r="1" gradientUnits="userSpaceOnUse" gradientTransform="translate(57.2668 10.0513) rotate(17.58) scale(9.58 9.58)">
<stop offset="0.23" stop-color="#E82C2E"/>
<stop offset="0.35" stop-color="#E32B2D"/>
<stop offset="0.51" stop-color="#D4282B"/>
<stop offset="0.67" stop-color="#BC2226"/>
<stop offset="0.85" stop-color="#9A1B20"/>
<stop offset="0.96" stop-color="#80151C"/>
</radialGradient>
<radialGradient id="paint65_radial_25_26631" cx="0" cy="0" r="1" gradientUnits="userSpaceOnUse" gradientTransform="translate(53.697 53.6282) scale(37.44)">
<stop stop-color="#FEF9C2"/>
<stop offset="0.07" stop-color="#FEF8BC"/>
<stop offset="0.17" stop-color="#FEF5AC"/>
<stop offset="0.28" stop-color="#FEF091"/>
<stop offset="0.39" stop-color="#FEE96B"/>
<stop offset="0.52" stop-color="#FFE13B"/>
<stop offset="0.65" stop-color="#FFD600"/>
<stop offset="0.71" stop-color="#FECE05"/>
<stop offset="0.81" stop-color="#FCB914"/>
<stop offset="0.86" stop-color="#FBAD1D"/>
<stop offset="0.9" stop-color="#F7A71D"/>
<stop offset="0.94" stop-color="#EC961E"/>
<stop offset="1" stop-color="#DA7A20"/>
</radialGradient>
<linearGradient id="paint66_linear_25_26631" x1="69.537" y1="65.8982" x2="23.467" y2="26.3482" gradientUnits="userSpaceOnUse">
<stop offset="0.5" stop-color="white"/>
<stop offset="1" stop-color="white"/>
</linearGradient>
</defs>
</svg>
