<svg width="99" height="169" viewBox="0 0 99 169" fill="none" xmlns="http://www.w3.org/2000/svg">
<ellipse cx="49" cy="50" rx="44" ry="45" fill="#D9D9D9"/>
<path d="M37.9922 85L21 164.508L37.0498 148.911L48.7512 168L51 85H37.9922Z" fill="url(#paint0_linear_25_26634)"/>
<path d="M37.9922 85L21 164.508L37.0498 148.911L48.7512 168L51 85H37.9922Z" fill="url(#paint1_radial_25_26634)"/>
<path d="M47.5129 88.402L45.6424 157.176L39.7594 147.583L38.5155 145.554L37.5803 144.032L36.2989 145.277L34.5874 146.946L26.3476 154.962L40.6106 88.402H47.5129ZM48.9719 87H39.4134L24 159.224L35.6068 147.943L37.309 146.273L38.5529 148.302L46.9704 162L49 87H48.9719Z" fill="url(#paint2_radial_25_26634)"/>
<g style="mix-blend-mode:multiply" opacity="0.28">
<path d="M49.3803 135.381V135.546L50.7037 85.3926H37.9103L35.291 97.8367C40.1621 95.5391 48.498 98.9488 49.3803 135.381Z" fill="#040200"/>
</g>
<path d="M32.396 113.543C32.396 113.543 26.5599 141.96 24.9424 150.508C28.1645 138.346 30.6535 126.003 32.396 113.543Z" fill="url(#paint3_linear_25_26634)"/>
<path d="M47 87.0222C47 87.0222 50.5778 155.759 50.698 169C50.698 169 58.963 155.288 64.436 146.562C64.436 146.562 80.0416 161.678 83 166.978L62.7165 85L47 87.0222Z" fill="url(#paint4_linear_25_26634)"/>
<path style="mix-blend-mode:overlay" opacity="0.56" d="M48.7822 122.899C49.1223 129.875 49.5542 139.102 49.8483 145.618C51.9346 140.83 54.9767 137.806 60.7393 136.428C69.6358 134.369 76.6299 141.832 76.6299 141.832L70.8674 118.506C64.7188 117.624 54.9859 119.857 48.7822 122.899Z" fill="url(#paint5_radial_25_26634)"/>
<path d="M59.5573 89.5604L75.3281 152.473C71.3435 148.37 67.6382 144.818 66.7631 143.973L64.6312 142.018L63.3743 140.816L62.4433 142.284L60.8886 144.717C58.9801 147.727 56.5409 151.628 53.6083 156.374C52.7798 136.18 50.9644 100.814 50.4337 90.7537L59.5108 89.6063L59.5573 89.5604ZM60.6279 88.0184L49 89.4962C49.5213 99.4645 51.6998 141.458 52.426 161C55.3027 156.328 59.1477 150.114 62.1361 145.396L63.6815 142.954L65.7762 144.955C66.8003 145.937 72.8703 151.766 78 157.31L60.6279 88V88.0184Z" fill="url(#paint6_radial_25_26634)"/>
<g style="mix-blend-mode:multiply">
<path opacity="0.28" d="M58.4973 98.7742C61.2382 98.4652 64.0058 99.0451 66.3921 100.428L62.6515 85.3926L47.0273 87.4053C47.0273 87.4053 47.5604 97.5151 48.2129 110.704C49.1412 102.221 52.698 99.3532 58.4973 98.7742Z" fill="#040200"/>
</g>
<path d="M29.2965 4.36341C27.4638 8.53193 34.7268 19.8425 34.7268 19.8425C34.7268 19.8425 35.2284 19.9259 36 20C35.3827 16.6096 34.0709 10.1067 32.7977 6.94789C31.0615 2.76084 29.4411 4.2152 29.2965 4.36341Z" fill="#0E112D"/>
<path d="M44.1339 1.33262C40.6703 0.330031 32.3541 1.69069 30.3518 4.11661C30.2051 4.30131 30.0866 4.50641 30 4.72533C30.1353 4.5821 31.6506 3.17668 33.2741 7.22286C34.5008 10.2754 35.6914 16.5595 36.2687 19.8358C38.4785 20.0775 43.1327 20.3282 44.1069 18.4125C45.3967 15.8792 47.6155 2.33522 44.1339 1.33262Z" fill="url(#paint7_radial_25_26634)"/>
<path opacity="0.63" d="M32.9841 3.5956C33.4736 3.26431 33.9974 2.98697 34.5465 2.76844C36.3296 2.1667 38.1832 1.79907 40.0609 1.67475C41.5406 1.5277 43.4155 1.25198 44.6103 2.4192C45.0876 3.0363 45.3376 3.7991 45.318 4.579C45.4283 6.87667 44.6471 11.0125 43.3052 8.49422C41.9634 5.97598 39.5646 4.19299 37.6162 5.87488C35.6678 7.55678 35.7781 11.1871 34.7303 8.22769C33.6367 5.09368 32.0007 4.17461 32.9841 3.5956Z" fill="url(#paint8_radial_25_26634)"/>
<g style="mix-blend-mode:multiply">
<path d="M41.7339 13.9256C42.0464 12.0875 41.982 8.71453 40.1439 7.62085C39.2892 7.11536 38.3058 8.37448 38.1128 8.99944C37.451 10.8376 38.1128 13.1444 38.5263 14.9274C38.8326 16.1755 39.2163 17.4033 39.6752 18.6037C39.6752 18.6037 39.9785 18.4383 39.9693 18.4107C39.4253 16.9659 38.98 15.4859 38.6366 13.9808C38.2322 12.2254 37.4327 8.93511 39.2156 7.64842L38.9215 7.83223C41.4398 6.51797 41.6787 12.933 41.449 14.0819C41.449 13.9992 41.7247 13.9716 41.7339 13.8889V13.9256Z" fill="#040200"/>
</g>
<g style="mix-blend-mode:multiply" opacity="0.51">
<path d="M37.3849 11.7383C37.3849 12.0347 38.6513 14.5671 36.784 14.8814C35.7765 15.061 35.2588 14.3246 35 13.6152C35.4252 15.5729 35.7765 17.4677 36.026 18.8417C38.2907 19.0752 43.0605 19.3266 44.0588 17.4048C44.8538 15.8872 45.9908 10.3734 46 6C45.8774 7.77246 45.536 9.52418 44.9832 11.2175C44.0588 13.8397 42.2101 14.9084 42.2933 11.2175C42.2933 9.78964 41.3689 5.14688 38.3092 6.59269C38.0288 6.79859 37.8114 7.07492 37.6807 7.39193C37.0336 8.6312 37.2277 10.3913 37.3849 11.7383Z" fill="#3D2E31"/>
</g>
<path d="M16 12.7864C16.0548 17.3712 26.8485 25 26.8485 25C26.8485 25 27.3054 24.8779 28 24.6524C26.1264 21.7399 22.4524 16.1968 20.067 13.7729C16.8957 10.6162 16.0731 12.5985 16 12.7864Z" fill="#E82C2E"/>
<path d="M27.9205 4.01247C24.2072 4.48925 16.9755 9.27571 16.0843 12.4262C16.023 12.661 15.9949 12.9033 16.0008 13.146C16.075 12.959 16.9291 10.9865 20.1318 14.1744C22.5547 16.5863 26.2866 22.1019 28.1897 25C30.3805 24.3082 34.8736 22.6161 34.9943 20.3818C35.1614 17.3996 31.6152 3.52634 27.9205 4.01247Z" fill="url(#paint9_radial_25_26634)"/>
<path opacity="0.63" d="M19.0142 10.9103C19.3264 10.4087 19.6932 9.9433 20.1079 9.52253C21.4959 8.25839 23.0403 7.17734 24.7032 6.3058C25.9991 5.58893 27.6075 4.57796 29.1699 5.17535C29.8545 5.54122 30.3882 6.13676 30.6771 6.85724C31.7065 8.91595 32.6715 13.0609 30.4014 11.2504C28.1313 9.43982 25.2638 8.81485 24.1517 11.1309C23.0397 13.4469 24.5745 16.7464 22.4515 14.4487C20.1998 11.9856 18.3616 11.8662 19.0142 10.9103Z" fill="url(#paint10_radial_25_26634)"/>
<g style="mix-blend-mode:multiply">
<path d="M31.1737 16.8577C30.7233 15.0747 29.3355 11.9866 27.1849 11.7293C26.2015 11.6098 25.8339 13.1355 25.8707 13.7972C25.9901 15.718 27.5066 17.6113 28.6278 19.0634C29.4142 20.096 30.2644 21.0783 31.1737 22.0044C31.1737 22.0044 31.385 21.7379 31.3666 21.7103C30.2849 20.6071 29.2836 19.4276 28.3705 18.1811C27.2952 16.7382 25.2365 14.0453 26.3486 12.1521C26.2934 12.2532 26.2291 12.3451 26.1647 12.4462C27.9385 10.2312 30.6957 16.0213 30.9807 17.1518C30.9807 17.0783 31.192 16.9404 31.1737 16.8577Z" fill="#040200"/>
</g>
<g style="mix-blend-mode:multiply" opacity="0.51">
<path d="M26.535 16.8214C26.688 17.0893 28.8658 18.9643 27.2819 20.0089C26.9285 20.2163 26.5089 20.2828 26.1079 20.195C25.7069 20.1071 25.3546 19.8715 25.1221 19.5357C26.319 21.1964 27.4259 22.8304 28.2179 24C30.3957 23.3125 34.8774 21.6518 34.9944 19.4643C35.0934 17.6786 33.8605 12.1071 32.0606 8C32.6815 9.7102 33.0954 11.4875 33.2936 13.2946C33.5545 16.0982 32.3036 17.8393 30.8097 14.3393C30.2337 12.9911 27.4349 9.02679 25.2481 11.5982C25.0763 11.8999 24.9922 12.243 25.0051 12.5893C24.9241 14.0536 25.833 15.6339 26.535 16.8214Z" fill="#3D2E31"/>
</g>
<path d="M7 27.1782C8.63005 31.1062 21.0647 34 21.0647 34C21.0647 34 21.4477 33.7393 22 33.3048C19.3278 31.4364 14.0457 27.9342 11.0439 26.6655C7.06235 24.9883 7 26.987 7 27.1782Z" fill="#E82C2E"/>
<path d="M14.8023 14.1924C11.6249 16.0199 6.72335 23.2634 7.01221 26.5662C7.03714 26.8156 7.09802 27.0596 7.19274 27.2896C7.19274 27.0802 7.25592 24.891 11.2909 26.728C14.3329 28.1177 19.6497 31.9536 22.3938 34C24.1359 32.5247 27.6112 29.2408 26.9071 27.0897C26.0496 24.2057 17.9797 12.3554 14.8023 14.1924Z" fill="url(#paint11_radial_25_26634)"/>
<path opacity="0.63" d="M8.49131 24.0534C8.59834 23.472 8.771 22.9047 9.00599 22.3623C9.83713 20.6815 10.8778 19.1127 12.1032 17.6934C13.0223 16.5538 14.1803 15.0373 15.853 15.0098C16.6241 15.1141 17.3369 15.477 17.875 16.0391C19.5752 17.5831 21.9832 21.1032 19.2168 20.2393C16.4504 19.3753 13.537 19.8257 13.344 22.3991C13.151 24.9724 15.7795 27.4723 12.958 26.0753C9.98938 24.6324 8.22478 25.1838 8.49131 24.0534Z" fill="url(#paint12_radial_25_26634)"/>
<g style="mix-blend-mode:multiply">
<path d="M21.9834 25.1841C20.9173 23.6861 18.4726 21.3241 16.3955 21.8571C15.4764 22.0961 15.6511 23.6952 15.9268 24.2559C16.7356 26.0021 18.8402 27.2153 20.4118 28.1711C21.5215 28.849 22.6692 29.4628 23.8491 30.0092C23.8491 30.0092 23.941 29.6784 23.9226 29.6692C22.5171 29.027 21.1568 28.2901 19.8512 27.4634C18.3255 26.5444 15.4305 24.7062 15.7797 22.5832C15.7797 22.6935 15.7338 22.8038 15.7154 22.914C16.5609 20.212 21.2298 24.6051 21.9099 25.561C21.9099 25.4966 22.0294 25.2852 21.9834 25.2117V25.1841Z" fill="#040200"/>
</g>
<g style="mix-blend-mode:multiply" opacity="0.51">
<path d="M18.1213 27.0078C18.3655 27.1939 21.0606 28.1512 19.9301 29.667C19.6792 29.9831 19.3139 30.1925 18.9099 30.2519C18.5058 30.3113 18.094 30.2162 17.7595 29.9862C19.4688 31.0942 21.0877 32.1934 22.2815 33C24.0903 31.6083 27.5993 28.5058 26.912 26.4493C26.3694 24.8183 23.1859 20.1202 20.0295 17C21.227 18.3512 22.2534 19.8394 23.0864 21.4321C24.3526 23.9141 23.828 25.944 21.1691 23.267C20.1471 22.2388 16.1045 19.5972 15.0192 22.7263C14.9696 23.0632 15.0166 23.4069 15.1548 23.7191C15.6342 25.0576 17.045 26.1745 18.1213 27.0078Z" fill="#3D2E31"/>
</g>
<path d="M2.08955 44.1457C5.25679 47.4375 18.3888 45.3436 18.3888 45.3436C18.3888 45.3436 18.6388 44.9191 19 44.2589C15.6383 43.476 9.17416 42.0706 5.7754 42.0046C1.27458 41.8914 2.01546 43.9193 2.08955 44.1457Z" fill="#E82C2E"/>
<path d="M5.29246 28.6604C2.9761 31.6442 1.01823 40.3372 2.53489 43.2923C2.64878 43.5119 2.79448 43.7118 2.9669 43.8852C2.89337 43.694 2.15801 41.6379 6.64365 41.7144C10.0171 41.7813 16.433 43.2062 19.7697 44C20.8727 41.9343 22.9409 37.4969 21.5161 35.7468C19.5674 33.4421 7.61801 25.7149 5.29246 28.6604Z" fill="url(#paint13_radial_25_26634)"/>
<path opacity="0.63" d="M2.98674 40.2844C2.86757 39.7071 2.81208 39.1184 2.8213 38.529C2.96176 36.6502 3.34166 34.7971 3.95176 33.0146C4.39291 31.5992 4.87081 29.7611 6.39646 29.1086C7.14879 28.9077 7.94737 28.9727 8.65737 29.2924C10.8172 30.0736 14.3832 32.4172 11.4881 32.6653C8.59304 32.9135 6.08399 34.4483 6.89277 36.893C7.70155 39.3378 11.0745 40.6612 7.94969 40.4682C4.5951 40.2476 3.17974 41.4332 2.98674 40.2844Z" fill="url(#paint14_radial_25_26634)"/>
<g style="mix-blend-mode:multiply">
<path d="M15.8991 36.213C14.3367 35.2204 11.1843 33.9705 9.46566 35.2939C8.67526 35.8821 9.46565 37.2424 9.94356 37.6927C11.3589 39.007 13.7577 39.3286 15.5774 39.6044C16.8584 39.8081 18.1505 39.934 19.4467 39.9812C19.4467 39.9812 19.4467 39.6411 19.3824 39.6411C17.8411 39.5804 16.3057 39.4146 14.787 39.1448C13.0132 38.8415 9.66785 38.3085 9.17155 36.1671C9.17155 36.2865 9.17156 36.3968 9.23589 36.5071C8.99694 33.6856 14.9892 35.974 15.9726 36.599C15.8991 36.599 15.9726 36.2957 15.9083 36.259L15.8991 36.213Z" fill="#040200"/>
</g>
<g style="mix-blend-mode:multiply" opacity="0.51">
<path d="M12.5897 39.7224C12.8891 39.808 15.7569 39.6749 15.3122 41.6236C15.0944 42.6692 14.196 42.8593 13.4246 42.8118C15.4484 43.2205 17.3723 43.6673 18.7699 44C19.868 41.9087 21.9463 37.4221 20.5124 35.654C19.378 34.2567 14.5953 30.9011 10.457 29C12.0823 29.8583 13.6054 30.9144 14.9946 32.1464C17.1273 34.0475 17.4268 36.3194 13.9237 34.7319C12.5806 34.1236 7.79789 33.116 8.00663 36.6331C8.0864 36.9962 8.26627 37.3267 8.52391 37.5836C9.51312 38.7719 11.2556 39.2852 12.5897 39.7224Z" fill="#3D2E31"/>
</g>
<path d="M3.27779 58.6251C7.2174 60.4442 18.7555 55.0523 18.7555 55.0523C18.7555 55.0523 18.8642 54.6363 19 54C15.64 54.2937 9.2189 54.9381 6.0491 55.8435C1.84685 57.0345 3.17816 58.4946 3.27779 58.6251Z" fill="#E82C2E"/>
<path d="M0.601225 44.5127C-0.65733 47.9274 0.115782 56.4049 2.39916 58.5993C2.56839 58.7634 2.76267 58.8987 2.9745 59C2.84864 58.8543 1.55413 57.1788 5.72534 55.8949C8.87173 54.8842 15.2454 54.1648 18.5806 53.837C18.9761 51.6152 19.5784 46.9531 17.7356 45.8331C15.2634 44.3397 1.86877 41.089 0.601225 44.5127Z" fill="url(#paint15_radial_25_26634)"/>
<path opacity="0.63" d="M2.32375 55.6421C2.03381 55.1314 1.79669 54.5925 1.61607 54.0338C1.15165 52.2078 0.92309 50.3299 0.935969 48.4458C0.935969 46.9661 0.761339 45.0729 2.02046 43.9608C2.67019 43.5367 3.44457 43.3455 4.21703 43.4185C6.51469 43.4737 10.6505 44.5674 7.976 45.7162C5.30152 46.865 3.38069 49.1259 4.9431 51.2306C6.50551 53.3353 10.0991 53.4823 7.07532 54.2819C3.83102 55.0631 2.91196 56.6347 2.32375 55.6421Z" fill="url(#paint16_radial_25_26634)"/>
<g style="mix-blend-mode:multiply">
<path d="M13.2796 47.6459C11.4874 47.2048 8.10528 47.0118 6.84616 48.7672C6.27634 49.5851 7.46195 50.6053 8.05934 50.8994C9.81475 51.6898 12.1951 51.2395 14.0057 50.8994C15.2869 50.6825 16.5542 50.3909 17.8014 50.0263C17.8014 50.0263 17.6544 49.7138 17.6268 49.723C16.1452 50.1494 14.638 50.481 13.1142 50.7156C11.3312 50.9821 7.98581 51.5427 6.83698 49.677L7.0024 49.9711C5.88114 47.3702 12.287 47.6459 13.4359 47.9216C13.3623 47.9216 13.344 47.6367 13.2704 47.6183L13.2796 47.6459Z" fill="#040200"/>
</g>
<g style="mix-blend-mode:multiply" opacity="0.51">
<path d="M11.4128 51.588C11.7163 51.588 14.4015 50.5896 14.5854 52.392C14.6866 53.3727 13.9049 53.8056 13.1601 54C15.1924 53.7438 17.1511 53.5406 18.5673 53.408C18.9811 51.261 19.5881 46.7374 17.7029 45.6506C16.2039 44.7671 10.6588 43.2916 6.18949 43C7.99252 43.2436 9.75853 43.6945 11.4496 44.343C14.0521 45.3855 15.0177 47.2233 11.2197 46.9052C9.76673 46.7904 4.94802 47.3735 6.20787 50.3687C6.31823 50.6426 6.71366 50.8723 6.97114 51.0225C8.2218 51.7028 10.0334 51.6498 11.4128 51.588Z" fill="#3D2E31"/>
</g>
<path d="M9.62537 74.9844C14.1237 75.4528 23 65.2428 23 65.2428C23 65.2428 22.9445 64.7552 22.8056 64C19.7234 65.5869 13.8553 68.7131 11.1896 70.8927C7.61687 73.7798 9.44951 74.8888 9.62537 74.9844Z" fill="#E82C2E"/>
<path d="M2.00004 61.8182C2.00004 65.3137 5.9081 72.6455 8.92154 73.8427C9.15105 73.9258 9.39195 73.9787 9.63725 74C9.45832 73.9126 7.59375 72.8989 11.1816 70.2598C13.8937 68.2674 19.8641 65.4098 23 63.9592C22.5762 61.8357 21.4462 57.4489 19.2332 57.0818C16.2857 56.5925 1.97179 58.314 2.00004 61.8182Z" fill="url(#paint17_radial_25_26634)"/>
<path opacity="0.63" d="M8.02271 71.6338C7.56711 71.2475 7.15146 70.8165 6.78198 70.3471C5.6986 68.8079 4.81534 67.1371 4.15345 65.375C3.59282 64.0056 2.79323 62.2869 3.57444 60.7796C4.02183 60.153 4.67066 59.6988 5.41257 59.493C7.58156 58.7209 11.846 58.2706 9.74136 60.3017C7.6367 62.3329 6.69006 65.1085 8.8223 66.4962C10.9545 67.884 14.447 66.7536 11.9104 68.5825C9.24507 70.5861 8.89583 72.3966 8.02271 71.6338Z" fill="url(#paint18_radial_25_26634)"/>
<g style="mix-blend-mode:multiply">
<path d="M15.4122 60.2835C13.5741 60.5132 10.3573 61.5426 9.83346 63.6197C9.59451 64.5387 11.0742 65.1361 11.7267 65.1729C13.6476 65.2924 15.7155 64.0149 17.2963 63.0866C18.4113 62.4245 19.4883 61.7003 20.5222 60.9176C20.5222 60.9176 20.2741 60.6695 20.2557 60.6878C19.0276 61.624 17.7346 62.4717 16.3864 63.2245C14.824 64.1435 11.9014 65.8346 10.1551 64.4928L10.4217 64.7134C8.43648 62.6822 14.5299 60.6511 15.6787 60.5132C15.6052 60.5132 15.4949 60.2743 15.4122 60.2835Z" fill="#040200"/>
</g>
<g style="mix-blend-mode:multiply" opacity="0.51">
<path d="M15.8486 64.2508C16.1257 64.1292 18.1996 62.1835 19.0221 63.8953C19.1797 64.2757 19.1936 64.7045 19.0608 65.0951C18.9281 65.4858 18.6587 65.8092 18.3069 66C20.0948 65.0085 21.7574 64.1292 23 63.4557C22.5977 61.1826 21.525 56.4868 19.4243 56.0846C17.7437 55.7759 12.1836 56.3184 8 57.6093C9.72651 57.1967 11.4945 57.0051 13.2652 57.0387C16.0095 57.1229 17.5381 58.5915 13.9714 59.6579C12.6126 60.0601 8.44695 62.3893 10.6728 64.8962C10.9441 65.1127 11.2709 65.2397 11.6114 65.261C12.997 65.5323 14.615 64.8027 15.8486 64.2508Z" fill="#3D2E31"/>
</g>
<path d="M22.0503 87C26.09 85.6735 30 73.039 30 73.039C30 73.039 29.7751 72.6215 29.3858 72C27.3097 74.6345 23.3911 79.7551 21.8859 82.7514C19.8877 86.731 21.8686 86.9907 22.0503 87Z" fill="#E82C2E"/>
<path d="M10.1287 78.168C11.6202 81.5061 18.2069 87.0181 21.4308 87C21.6734 86.9969 21.914 86.957 22.1441 86.8817C21.9496 86.8817 19.8281 86.6179 21.9681 82.7159C23.5801 79.7779 27.7766 74.7571 30 72.1739C28.7308 70.3092 25.859 66.5527 23.7005 67.0439C20.8379 67.6988 8.61866 74.8207 10.1287 78.168Z" fill="url(#paint19_radial_25_26634)"/>
<path opacity="0.63" d="M19.0324 84.7941C18.4653 84.6319 17.9169 84.4101 17.3965 84.1324C15.7944 83.1463 14.3244 81.9603 13.0217 80.6032C11.9648 79.5646 10.5494 78.3055 10.6781 76.642C10.8434 75.8832 11.2654 75.2048 11.8729 74.7211C13.564 73.1495 17.2678 71.0449 16.1649 73.7469C15.0621 76.449 15.2459 79.3624 17.8101 79.7852C20.3743 80.2079 23.0763 77.7908 21.4863 80.4745C19.7401 83.3512 20.1445 85.1525 19.0324 84.7941Z" fill="url(#paint20_radial_25_26634)"/>
<g style="mix-blend-mode:multiply">
<path d="M21.2937 71.4502C19.7037 72.3693 17.1487 74.6118 17.4888 76.7257C17.645 77.6999 19.2258 77.6448 19.8416 77.4058C21.6797 76.7533 23.0399 74.7589 24.1244 73.2792C24.8897 72.2309 25.5925 71.1384 26.2291 70.0073C26.2291 70.0073 25.9075 69.8786 25.8983 69.9062C25.139 71.2496 24.2883 72.5394 23.3524 73.7663C22.2679 75.2092 20.2552 77.9389 18.1321 77.4426L18.463 77.5437C15.8345 76.4592 20.6228 72.1855 21.6246 71.5973C21.5603 71.5973 21.3581 71.4594 21.2937 71.4962V71.4502Z" fill="#040200"/>
</g>
<g style="mix-blend-mode:multiply" opacity="0.51">
<path d="M23.7306 75.1621C23.9363 74.934 25.1079 72.2441 26.512 73.4988C26.8052 73.7843 26.9829 74.1794 27.0079 74.6011C27.0329 75.0229 26.9033 75.4386 26.6462 75.761C27.8804 74.0976 29.1056 72.5293 30 71.4077C28.7747 69.5067 26.0022 65.5241 23.9184 66.0469C22.2549 66.4556 17.3449 69.3071 14 72.2726C15.4286 71.1628 16.9781 70.2405 18.6149 69.5257C21.1638 68.4421 23.0866 69.174 20.2605 71.6643C19.1604 72.6148 16.218 76.5404 19.2141 77.9471C19.5426 78.0312 19.8868 78.0147 20.2068 77.8996C21.5841 77.5479 22.8094 76.1982 23.7306 75.1621Z" fill="#3D2E31"/>
</g>
<path d="M36.5894 93.9662C40.1141 91.2764 39.9996 77.7806 39.9996 77.7806C39.9996 77.7806 39.6471 77.4608 39.1184 77C37.92 80.254 35.6994 86.5458 35.1618 89.9503C34.4305 94.4646 36.4043 94.0132 36.5894 93.9662Z" fill="#E82C2E"/>
<path d="M22.4216 89.7721C24.8901 92.6228 32.7968 95.8632 35.7936 94.7894C36.0171 94.7083 36.2264 94.5895 36.413 94.4378C36.2218 94.4378 34.1813 94.9415 34.9101 90.3802C35.4657 86.9403 37.7612 80.5831 39 77.2952C37.1782 75.8698 33.3342 73.0951 31.476 74.2924C29.0256 75.8888 19.9531 86.9593 22.4216 89.7721Z" fill="url(#paint21_radial_25_26634)"/>
<path opacity="0.63" d="M32.993 93.0851C32.4029 93.1159 31.8112 93.082 31.2284 92.984C29.3917 92.5688 27.6157 91.9202 25.9438 91.0539C24.6111 90.4106 22.8649 89.6753 22.4513 88.0486C22.3658 87.2761 22.5474 86.4977 22.966 85.8428C24.0597 83.8209 26.8996 80.6501 26.725 83.5452C26.5504 86.4402 27.6441 89.1515 30.2174 88.7379C32.7908 88.3243 34.5646 85.1627 33.8937 88.214C33.2412 91.4859 34.1602 93.0667 32.993 93.0851Z" fill="url(#paint22_radial_25_26634)"/>
<g style="mix-blend-mode:multiply">
<path d="M30.8803 79.7131C29.6763 81.1101 27.9668 84.0419 28.9778 85.926C29.4373 86.845 30.9079 86.2201 31.4225 85.8157C32.9206 84.6117 33.6007 82.2865 34.1797 80.531C34.5563 79.3007 34.8571 78.0484 35.0804 76.7812C35.0804 76.7812 34.7404 76.7812 34.7312 76.7812C34.447 78.2986 34.057 79.7942 33.564 81.2571C33.0033 82.9666 31.974 86.1925 29.7866 86.3671H30.1266C27.3051 86.1833 30.4575 80.5954 31.2203 79.7223C31.1652 79.7774 30.9263 79.6671 30.8711 79.7223L30.8803 79.7131Z" fill="#040200"/>
</g>
<g style="mix-blend-mode:multiply" opacity="0.51">
<path d="M34.1593 82.88C34.2855 82.5891 34.5829 79.6798 36.3047 80.3836C36.6709 80.5513 36.9613 80.8592 37.1156 81.2434C37.27 81.6277 37.2766 82.0591 37.134 82.4483C37.8011 80.4775 38.4952 78.6005 39 77.2491C37.1971 75.8413 33.393 73.1009 31.5631 74.2928C30.1028 75.2313 26.2897 79.5484 24 83.4525C25.0258 81.9342 26.2211 80.5481 27.5607 79.3231C29.6701 77.4461 31.7704 77.4461 29.7872 80.7778C29.03 82.0354 27.4165 86.6997 30.6887 87C31.0174 86.9603 31.3293 86.8272 31.5901 86.6152C32.8431 85.8363 33.6004 84.1564 34.1593 82.88Z" fill="#3D2E31"/>
</g>
<path d="M51.7593 95.8529C54.8709 92.3562 51.149 79.5009 51.149 79.5009C51.149 79.5009 50.6888 79.2875 49.9484 79C49.4982 82.4225 48.7578 89.0079 49.078 92.4026C49.5082 96.901 51.5692 95.9457 51.7593 95.8529Z" fill="#E82C2E"/>
<path d="M36.8217 94.7653C39.7876 96.8111 47.9461 97.8854 50.4983 96.0824C50.6861 95.9425 50.8549 95.7759 51 95.5873C50.8328 95.6807 49.0198 96.6429 48.6414 92.1123C48.3597 88.6932 49.011 82.0607 49.407 78.6137C47.4004 77.6795 43.1232 76.0821 41.671 77.6795C39.726 79.8561 33.8558 92.7288 36.8217 94.7653Z" fill="url(#paint23_radial_25_26634)"/>
<path opacity="0.63" d="M48.0474 95.4468C47.4863 95.6274 46.9068 95.7445 46.3196 95.7961C44.4354 95.8545 42.5514 95.6723 40.7133 95.2538C39.2704 94.9689 37.3863 94.7024 36.5775 93.2319C36.3017 92.5066 36.2823 91.7088 36.5224 90.971C37.0646 88.7376 39.013 84.9511 39.5737 87.8002C40.1343 90.6493 41.9173 92.9837 44.2701 91.936C46.6229 90.8883 47.5695 87.3407 47.7074 90.5023C47.8452 93.8477 49.1687 95.1619 48.0474 95.4468Z" fill="url(#paint24_radial_25_26634)"/>
<g style="mix-blend-mode:multiply">
<path d="M42.6251 83.0396C41.8163 84.694 40.8973 87.9566 42.3494 89.5374C43.0203 90.2635 44.2978 89.3352 44.693 88.8022C45.8418 87.2674 45.9154 84.841 45.9981 83.0029C46.0762 81.7082 46.0762 80.4099 45.9981 79.1152C45.9981 79.1152 45.658 79.1888 45.658 79.2163C45.7625 80.7463 45.7625 82.2817 45.658 83.8117C45.5477 85.6498 45.3731 88.9952 43.296 89.7213L43.6269 89.6202C40.8697 90.1624 42.4872 83.9587 43.0019 82.911C43.0019 82.9845 42.6986 82.911 42.6619 83.0121L42.6251 83.0396Z" fill="#040200"/>
</g>
<g style="mix-blend-mode:multiply" opacity="0.51">
<path d="M46.687 84.1704C46.732 83.8759 46.3179 81.032 48.1544 81.2529C49.1357 81.3725 49.4058 82.2376 49.4508 83.0107C49.6219 80.9675 49.8289 79.0072 50 77.5898C47.9474 76.6695 43.572 75.0957 42.0866 76.6695C40.9072 77.9396 38.2694 83.0199 37 87.318C37.6236 85.6116 38.4426 83.9866 39.4397 82.4769C41.0332 80.1668 43.0408 79.6422 41.9425 83.2776C41.5194 84.6766 41.0873 89.5085 44.3373 88.9563C44.6566 88.8334 44.9369 88.6233 45.1475 88.3488C46.1198 87.3548 46.4439 85.5141 46.687 84.1704Z" fill="#3D2E31"/>
</g>
<path d="M67.7887 91.6236C69.3042 87.584 62.1698 77.097 62.1698 77.097C62.1698 77.097 61.709 77.0441 61 77C61.7001 80.2105 63.1359 86.3404 64.4652 89.2951C66.2378 93.2112 67.6646 91.7647 67.7887 91.6236Z" fill="#E82C2E"/>
<path d="M53.2446 95.7551C56.9477 96.6918 65.6201 94.8183 67.6573 92.2329C67.803 92.0385 67.9185 91.8238 68 91.5959C67.8667 91.7458 66.3341 93.2821 64.4301 89.123C63.0022 85.9849 61.46 79.4746 60.708 76.0649C58.3662 75.915 53.4445 75.8494 52.5116 77.9383C51.2645 80.5987 49.5319 94.8558 53.2446 95.7551Z" fill="url(#paint25_radial_25_26634)"/>
<path opacity="0.63" d="M64.5626 92.8464C64.0877 93.2055 63.5763 93.5135 63.0369 93.7655C61.2785 94.4414 59.4407 94.8893 57.5685 95.0981C56.1072 95.3003 54.2415 95.6588 52.9732 94.5375C52.4735 93.9453 52.1942 93.1984 52.1827 92.4237C51.9622 90.126 52.5688 85.9167 54.0209 88.4165C55.473 90.9164 57.9361 92.5523 59.8202 90.7969C61.7043 89.0415 61.447 85.4112 62.5774 88.3154C63.8365 91.4035 65.5184 92.1847 64.5626 92.8464Z" fill="url(#paint26_radial_25_26634)"/>
<g style="mix-blend-mode:multiply">
<path d="M55.3724 82.9018C55.1426 84.74 55.3724 88.113 57.2105 89.1239C58.0836 89.5926 58.9843 88.2968 59.1865 87.6718C59.7655 85.8337 59.0394 83.5268 58.5156 81.7622C58.1538 80.512 57.718 79.2844 57.2105 78.0859C57.2105 78.0859 56.9164 78.2698 56.9256 78.2973C57.5266 79.7176 58.0332 81.1759 58.4421 82.6629C58.92 84.4091 59.8574 87.6534 58.1388 89.0136L58.4145 88.8206C55.9606 90.236 55.4827 83.8393 55.6573 82.6813C55.6573 82.764 55.3815 82.8099 55.3724 82.8927V82.9018Z" fill="#040200"/>
</g>
<g style="mix-blend-mode:multiply" opacity="0.51">
<path d="M59.6183 83.0376C59.5612 82.7487 58.1893 80.3322 60.0947 79.9382C61.1235 79.7368 61.6856 80.4285 62 81.1026C61.4856 79.2115 61.0473 77.3816 60.7139 76.0595C58.3703 75.9195 53.4451 75.8669 52.5114 77.8106C51.7588 79.3253 50.8348 84.7361 51.0253 89C51.0708 87.2696 51.3394 85.5503 51.8255 83.8781C52.6353 81.2515 54.4835 80.1746 54.6073 83.7993C54.6073 85.1914 55.8553 89.6742 58.9134 88.177C59.196 87.9674 59.4075 87.6879 59.5231 87.3715C60.1137 86.0407 59.8184 84.3334 59.6183 83.0376Z" fill="#3D2E31"/>
</g>
<path d="M82 82.2546C82 77.732 71.1879 70 71.1879 70C71.1879 70 70.7146 70.111 70 70.3237C71.8561 73.2278 75.5035 78.7401 77.8886 81.1633C81.0534 84.3726 81.9258 82.4396 82 82.2546Z" fill="#E82C2E"/>
<path d="M69.8567 90.9911C73.5931 90.5902 80.9537 86.1448 81.9065 83.1782C81.9709 82.9548 82.0023 82.7239 81.9999 82.4922C81.9251 82.6704 81.0658 84.5323 77.8619 81.441C75.4612 79.1069 71.7903 73.7973 69.9221 71C67.7083 71.6236 63.1686 73.1737 63.0098 75.3029C62.795 78.118 66.1297 91.392 69.8567 90.9911Z" fill="url(#paint27_radial_25_26634)"/>
<path opacity="0.63" d="M79.5159 84.703C79.1971 85.1992 78.8241 85.6585 78.4039 86.0724C76.987 87.3136 75.4181 88.3698 73.735 89.2156C72.4299 89.9141 70.8032 90.8883 69.25 90.2817C68.5727 89.8974 68.0497 89.29 67.7703 88.5631C66.7777 86.486 65.877 82.3226 68.1103 84.1699C70.3437 86.0173 73.2203 86.6974 74.3692 84.3997C75.518 82.102 74.0291 78.775 76.1154 81.1094C78.3487 83.6001 80.1869 83.7564 79.5159 84.703Z" fill="url(#paint28_radial_25_26634)"/>
<g style="mix-blend-mode:multiply">
<path d="M67.4581 78.5536C67.8717 80.3917 69.2411 83.4522 71.3642 83.7555C72.3476 83.8934 72.7427 82.3677 72.706 81.706C72.6233 79.7851 71.1344 77.8643 70.0407 76.3938C69.2681 75.3518 68.4333 74.3574 67.5408 73.416C67.5408 73.416 67.3294 73.6825 67.3478 73.7009C68.4023 74.8272 69.3817 76.0215 70.2796 77.2761C71.3366 78.7374 73.3401 81.467 72.2005 83.3419L72.3935 83.057C70.5554 85.2352 67.9176 79.3808 67.6511 78.2687C67.6511 78.3422 67.4397 78.4801 67.4581 78.5536Z" fill="#040200"/>
</g>
<g style="mix-blend-mode:multiply" opacity="0.51">
<path d="M71.473 77.2484C71.3149 76.981 69.1666 75.0536 70.7662 74.0392C71.1234 73.8318 71.5477 73.7697 71.9501 73.866C72.3524 73.9623 72.7014 74.2095 72.9238 74.5556C71.752 72.8588 70.6639 71.1988 69.892 70C67.6879 70.6455 63.1682 72.2409 63.0101 74.445C62.8799 76.1971 64.0238 81.8225 65.8001 86C65.2023 84.2753 64.8151 82.4858 64.6469 80.6697C64.433 77.8386 65.7163 76.1141 67.1578 79.6646C67.7158 81.0202 70.4686 85.0501 72.7378 82.5049C72.9211 82.2054 73.0117 81.859 72.9982 81.5089C73.0447 80.0519 72.1612 78.4749 71.473 77.2484Z" fill="#3D2E31"/>
</g>
<path d="M92.9994 68.7936C91.2249 64.8248 77.949 62 77.949 62C77.949 62 77.5504 62.264 77 62.7128C79.9038 64.5784 85.5406 68.0896 88.7291 69.3392C92.952 71.02 93.0089 68.9872 92.9994 68.7936Z" fill="#E82C2E"/>
<path d="M85.3163 81.8102C88.467 79.9954 93.2922 73.0902 92.9861 69.9506C92.9568 69.7156 92.8931 69.4862 92.7971 69.2701C92.7971 69.4697 92.7521 71.5476 88.7101 69.8326C85.6674 68.5441 80.3381 64.9237 77.5834 63C75.864 64.4155 72.4252 67.5369 73.0824 69.633C74.0186 72.3552 82.1655 83.5886 85.3163 81.8102Z" fill="url(#paint29_radial_25_26634)"/>
<path opacity="0.63" d="M91.1425 71.919C91.0387 72.5001 90.8691 73.0674 90.6371 73.6101C89.8113 75.3053 88.7702 76.8869 87.5398 78.3157C86.6207 79.4554 85.4903 80.9902 83.8176 81.0729C83.0456 80.9755 82.3296 80.6191 81.7865 80.062C80.0678 78.5271 77.6414 75.0347 80.417 75.871C83.1926 76.7074 86.0969 76.2294 86.2715 73.6653C86.4461 71.1011 83.79 68.6104 86.6207 69.989C89.6169 71.3584 91.3723 70.7886 91.1425 71.919Z" fill="url(#paint30_radial_25_26634)"/>
<g style="mix-blend-mode:multiply">
<path d="M77.6227 70.8983C78.6981 72.3964 81.1611 74.7308 83.2382 74.1885C84.1573 73.9312 83.9643 72.3504 83.6794 71.7806C82.8614 70.0344 80.7476 68.8396 79.1668 67.9021C78.0498 67.2425 76.896 66.6472 75.7111 66.1191C75.7111 66.1191 75.6192 66.45 75.6468 66.4684C77.0592 67.0911 78.4259 67.8128 79.7366 68.6282C81.2714 69.5473 84.1757 71.3119 83.8448 73.4809C83.8448 73.3706 83.8908 73.2603 83.9092 73.15C83.082 75.9072 78.3948 71.5049 77.6963 70.5582C77.7422 70.6226 77.5768 70.8339 77.6227 70.8983Z" fill="#040200"/>
</g>
<g style="mix-blend-mode:multiply" opacity="0.51">
<path d="M81.8594 68.965C81.6208 68.7755 78.922 67.846 80.0236 66.3209C80.2718 66.0026 80.6345 65.7896 81.0373 65.7259C81.4402 65.6621 81.8526 65.7523 82.1899 65.978C80.4642 64.8861 78.8394 63.8032 77.6736 63C75.9204 64.4168 72.4139 67.5121 73.084 69.5967C73.6439 71.2301 76.8567 75.9137 80.0327 79C78.8325 77.6607 77.7944 76.1889 76.9393 74.6142C75.6634 72.1416 76.1683 70.1021 78.8394 72.8094C79.8675 73.8291 83.9248 76.4191 84.9804 73.2967C85.0321 72.9588 84.981 72.6134 84.8335 72.304C84.3654 70.9052 82.9426 69.7592 81.8594 68.965Z" fill="#3D2E31"/>
</g>
<path d="M96.8847 52.5652C93.5707 49.2907 80.5647 52.1706 80.5647 52.1706C80.5647 52.1706 80.324 52.6243 80 53.3345C83.3881 53.9755 89.9142 55.1098 93.3115 54.9914C97.8104 54.8336 96.968 52.7525 96.8847 52.5652Z" fill="#E82C2E"/>
<path d="M95.2197 67.2375C97.4199 64.1577 98.9331 55.422 97.3364 52.5703C97.2108 52.3572 97.0543 52.1649 96.8722 52C96.9557 52.1806 97.8005 54.1863 93.2886 54.3384C89.8815 54.4525 83.3366 53.3878 79.9387 52.7414C78.9268 54.8517 77.0515 59.3954 78.574 61.0208C80.5886 63.2166 93.038 70.3174 95.2197 67.2375Z" fill="url(#paint31_radial_25_26634)"/>
<path opacity="0.63" d="M96.5376 55.6875C96.6823 56.2594 96.7685 56.8444 96.7949 57.4337C96.7456 59.3188 96.4585 61.1901 95.9402 63.0033C95.5726 64.437 95.1958 66.2935 93.6793 67.0196C92.9405 67.2615 92.14 67.2354 91.4184 66.9461C89.2218 66.2751 85.5548 64.1153 88.4223 63.7201C91.2898 63.3249 93.7344 61.6706 92.8246 59.2719C91.9147 56.8731 88.459 55.7151 91.593 55.761C94.9384 55.807 96.2987 54.5571 96.5376 55.6875Z" fill="url(#paint32_radial_25_26634)"/>
<g style="mix-blend-mode:multiply">
<path d="M83.8453 60.4029C85.4537 61.3219 88.6612 62.4064 90.2788 61.0462C91.0416 60.4213 90.1869 59.0886 89.6814 58.6658C88.2109 57.4343 85.7937 57.2229 83.9648 57.0391C82.6738 56.8997 81.3755 56.8383 80.0771 56.8553C80.0771 56.8553 80.1323 57.1953 80.1599 57.1953C81.696 57.1749 83.2317 57.264 84.7552 57.4619C86.5474 57.6733 89.9112 58.0409 90.5178 60.1547L90.435 59.8147C90.8119 62.627 84.7184 60.6326 83.7075 60.0628C83.7718 60.0628 83.7075 60.3569 83.781 60.4029H83.8453Z" fill="#040200"/>
</g>
<g style="mix-blend-mode:multiply" opacity="0.51">
<path d="M86.3206 56.8402C86.0254 56.775 83.156 57.036 83.4881 55.1624C83.6542 54.1465 84.5768 53.8762 85.3149 53.8762C83.2759 53.5872 81.3291 53.2517 79.9267 53C78.9211 55.0692 77.0573 59.5246 78.5705 61.1278C79.7791 62.4141 84.706 65.4434 88.9316 67C87.2635 66.2565 85.6873 65.318 84.2354 64.2037C82.0119 62.4328 81.6059 60.2983 85.1581 61.6591C86.5328 62.1811 91.3489 62.9081 90.9799 59.5153C90.8788 59.175 90.6835 58.8711 90.4171 58.6391C89.4391 57.6045 87.6677 57.1664 86.3206 56.8402Z" fill="#3D2E31"/>
</g>
<path d="M94.6185 35.2509C90.392 33.5821 79.1399 40.783 79.1399 40.783C79.1399 40.783 79.0653 41.2624 79 42C82.4148 41.3454 88.9272 39.99 92.0621 38.6808C96.2699 36.9013 94.7678 35.3892 94.6185 35.2509Z" fill="#E82C2E"/>
<path d="M98.7274 50.027C99.6691 46.5382 98.0682 38.2839 95.5068 36.3417C95.3075 36.2 95.0889 36.085 94.857 36C95.0077 36.1349 96.5238 37.6095 92.2956 39.3179C89.1127 40.5947 82.5396 41.9165 79.1119 42.5549C78.9141 44.7669 78.7446 49.4066 80.7787 50.3417C83.5002 51.5736 97.7386 53.5068 98.7274 50.027Z" fill="url(#paint33_radial_25_26634)"/>
<path opacity="0.63" d="M95.8763 38.9511C96.2172 39.4311 96.5067 39.9456 96.7402 40.486C97.3706 42.2665 97.7751 44.1191 97.9442 46.0004C98.1188 47.4709 98.4313 49.3366 97.2825 50.5957C96.6803 51.0849 95.9261 51.3482 95.1502 51.3401C92.8526 51.5056 88.6525 50.8071 91.1891 49.4101C93.7257 48.0131 95.4168 45.5868 93.6981 43.6751C91.9795 41.7635 88.3859 41.8554 91.281 40.7984C94.4242 39.6312 95.2422 37.9769 95.8763 38.9511Z" fill="url(#paint34_radial_25_26634)"/>
<g style="mix-blend-mode:multiply">
<path d="M85.7297 47.9123C87.5678 48.1789 90.9408 48.0502 91.9977 46.1845C92.4848 45.3206 91.2073 44.4015 90.5824 44.1809C88.7442 43.556 86.4374 44.2361 84.6636 44.714C83.415 45.0518 82.1874 45.463 80.9873 45.9455C80.9873 45.9455 81.1619 46.2396 81.1895 46.2304C82.6227 45.6582 84.0936 45.1853 85.5918 44.8151C87.338 44.3739 90.6099 43.51 91.9334 45.2562L91.7404 44.9805C93.1098 47.462 86.7039 47.7928 85.5459 47.6274C85.6286 47.6274 85.6653 47.9031 85.7481 47.9123H85.7297Z" fill="#040200"/>
</g>
<g style="mix-blend-mode:multiply" opacity="0.51">
<path d="M86.7124 43.4204C86.3966 43.4204 83.7265 44.762 83.3437 42.8763C83.1427 41.8537 83.9083 41.319 84.6548 41C82.5781 41.4691 80.5684 41.8725 79.1137 42.1445C78.9127 44.4524 78.7404 49.2933 80.8076 50.2689C82.4537 51.0476 88.3393 52.0796 93 51.9951C91.1089 51.9 89.236 51.585 87.4206 51.057C84.6165 50.2033 83.4298 48.3551 87.4206 48.3176C88.9327 48.3176 93.8709 47.2293 92.2535 44.1803C92.0322 43.898 91.7334 43.6832 91.3922 43.5612C90.0141 42.9889 88.1383 43.2234 86.7124 43.4204Z" fill="#3D2E31"/>
</g>
<path d="M88.2827 22.0047C83.6122 21.7525 75 31.8383 75 31.8383C75 31.8383 75.0863 32.2976 75.2685 33C78.3758 31.352 84.2931 28.1102 86.9304 25.9309C90.4309 23.0312 88.4745 22.0857 88.2827 22.0047Z" fill="#E82C2E"/>
<path d="M95.9973 34.2059C95.7817 30.5894 91.5073 23.2116 88.4421 22.1266C88.2089 22.0515 87.9659 22.0089 87.7203 22C87.9078 22.0814 89.82 23.0307 86.3986 25.9421C83.8208 28.1301 78.0371 31.3669 75 33.0396C75.5343 35.2186 76.8748 39.6941 79.1432 39.9653C82.0866 40.327 96.2223 37.8225 95.9973 34.2059Z" fill="url(#paint35_radial_25_26634)"/>
<path opacity="0.63" d="M89.8744 24.5868C90.341 24.9324 90.7665 25.3301 91.1427 25.7724C92.3078 27.2536 93.2777 28.8783 94.0286 30.6067C94.6535 31.9394 95.545 33.6213 94.8465 35.1377C94.4254 35.7917 93.7929 36.2815 93.0543 36.5255C90.9313 37.4446 86.7312 38.0787 88.6888 35.9465C90.6464 33.8143 91.446 30.9835 89.2494 29.706C87.0529 28.4285 83.6247 29.706 86.0603 27.7852C88.7164 25.6897 88.9645 23.8608 89.8744 24.5868Z" fill="url(#paint36_radial_25_26634)"/>
<g style="mix-blend-mode:multiply">
<path d="M83.0815 36.3418C84.9197 36.0201 88.072 34.8253 88.4856 32.7207C88.6786 31.7465 87.1714 31.2686 86.5096 31.2686C84.5888 31.2686 82.5944 32.6288 81.0596 33.6489C79.9797 34.3662 78.9424 35.1456 77.9531 35.9834C77.9531 35.9834 78.2105 36.2131 78.2289 36.1947C79.4081 35.1913 80.6548 34.2701 81.9603 33.4376C83.4767 32.4633 86.3074 30.6068 88.118 31.8476L87.8423 31.6362C89.9286 33.5662 83.9546 35.9098 82.8058 36.112C82.8793 36.112 83.008 36.3326 83.0815 36.3234V36.3418Z" fill="#040200"/>
</g>
<g style="mix-blend-mode:multiply" opacity="0.51">
<path d="M83.4429 31.6171C83.1621 31.748 81.093 33.8044 80.1381 32.1406C79.9536 31.7685 79.9177 31.3404 80.0377 30.9429C80.1576 30.5454 80.4245 30.2084 80.7841 30C78.9959 31.0843 77.2639 32.0845 76 32.8042C76.5336 35.057 77.8724 39.684 80.1381 39.9644C81.9075 40.1887 87.6934 39.3381 92 37.8238C90.2178 38.3245 88.3826 38.6132 86.5325 38.6838C83.6583 38.7492 81.9731 37.3658 85.5963 36.1039C87.0006 35.6272 91.2136 33.0847 88.7794 30.6917C88.4844 30.4974 88.1403 30.3905 87.787 30.3832C86.364 30.1589 84.6975 30.9534 83.4429 31.6171Z" fill="#3D2E31"/>
</g>
<path d="M75.8954 10C71.5267 11.2327 67 23.9366 67 23.9366C67 23.9366 67.2324 24.3695 67.6321 25C69.9373 22.3839 74.2688 17.3024 75.9977 14.3099C78.2099 10.3294 76.0999 10.0188 75.8954 10Z" fill="#E82C2E"/>
<path d="M87.8897 19.125C86.5019 15.7396 80.1048 10.0456 76.9063 10C76.6662 10.0014 76.4277 10.0383 76.1986 10.1095C76.4008 10.1095 78.4871 10.4289 76.2721 14.2887C74.5901 17.1905 70.307 22.118 68 24.6547C69.2132 26.5619 71.9614 30.4035 74.1213 29.9655C76.9982 29.3541 89.2868 22.5104 87.8897 19.125Z" fill="url(#paint37_radial_25_26634)"/>
<path opacity="0.63" d="M78.8923 12.0595C79.4553 12.2329 79.9976 12.4671 80.5099 12.758C82.0929 13.7935 83.5355 15.0291 84.8019 16.4343C85.8313 17.5004 87.2099 18.7962 87.0444 20.4598C86.8599 21.2143 86.4219 21.8827 85.8037 22.353C84.0758 23.8695 80.2893 25.8639 81.4841 23.217C82.6789 20.57 82.5226 17.6198 79.9952 17.1327C77.4678 16.6456 74.6738 18.9709 76.3189 16.3423C78.1479 13.484 77.7986 11.6735 78.8923 12.0595Z" fill="url(#paint38_radial_25_26634)"/>
<g style="mix-blend-mode:multiply">
<path d="M76.2534 25.3127C77.8709 24.3937 80.4811 22.2706 80.187 20.1476C80.0583 19.1642 78.4775 19.2285 77.8526 19.4123C76.0144 20.0097 74.5899 21.9673 73.4686 23.4195C72.6769 24.4478 71.9465 25.5219 71.2812 26.6362C71.2812 26.6362 71.5937 26.7741 71.6121 26.7465C72.4034 25.4224 73.2847 24.1541 74.2498 22.9507C75.3803 21.5354 77.4574 18.8609 79.562 19.4583L79.2403 19.348C81.8321 20.4968 76.9427 24.6418 75.9225 25.2116C75.9869 25.2116 76.1798 25.3587 76.2534 25.3127Z" fill="#040200"/>
</g>
<g style="mix-blend-mode:multiply" opacity="0.51">
<path d="M74.818 20.6934C74.5841 20.9139 73.2259 23.5958 71.7958 22.2548C71.4992 21.9484 71.3292 21.5374 71.3209 21.1067C71.3125 20.676 71.4664 20.2585 71.7508 19.9403C70.3656 21.5752 68.9984 23.109 68 24.2111C69.2143 26.2593 71.9757 30.3924 74.2063 29.9699C76.0053 29.6301 81.3122 26.9665 85 24.1101C83.432 25.1687 81.7474 26.0349 79.981 26.691C77.2286 27.6095 75.1778 26.8196 78.3349 24.4224C79.5402 23.5039 82.8323 19.6556 79.7291 18.0758C79.3822 17.9747 79.0146 17.9747 78.6677 18.0758C77.2016 18.3697 75.8434 19.6831 74.818 20.6934Z" fill="#3D2E31"/>
</g>
<path d="M61.1541 3.05009C57 5.71203 57 19.2099 57 19.2099C57 19.2099 57.4154 19.5391 58.0385 20C59.4717 16.7455 62.1304 10.481 62.7846 7.07593C63.7089 2.53275 61.3722 2.96543 61.1541 3.05009Z" fill="#E82C2E"/>
<path d="M74.5884 8.04813C72.1473 5.33473 64.2887 2.18718 61.2941 3.19114C61.0715 3.26838 60.863 3.38142 60.677 3.52579C60.8676 3.48057 62.9094 3.06451 62.1471 7.39691C61.5754 10.6711 59.2523 16.6948 58 19.8243C59.8149 21.1901 63.6172 23.8582 65.4684 22.7276C67.9186 21.1901 77.0295 10.7073 74.5884 8.04813Z" fill="url(#paint39_radial_25_26634)"/>
<path opacity="0.63" d="M64.2237 4.17464C64.8141 4.15153 65.4054 4.18849 65.9883 4.28493C67.8234 4.71307 69.5963 5.37403 71.2637 6.25173C72.5872 6.90427 74.3334 7.6579 74.7378 9.27546C74.8179 10.0501 74.6298 10.8287 74.2048 11.4812C73.1019 13.494 70.2436 16.6464 70.4366 13.7513C70.6296 10.8562 69.5175 8.13581 66.9717 8.5402C64.4259 8.94459 62.6062 12.0878 63.2955 9.0365C64.0123 5.73705 63.0657 4.17464 64.2237 4.17464Z" fill="url(#paint40_radial_25_26634)"/>
<g style="mix-blend-mode:multiply">
<path d="M66.2547 17.5194C67.4678 16.1408 69.1957 13.2182 68.2031 11.3249C67.7436 10.4059 66.273 11.0124 65.7584 11.426C64.2419 12.6116 63.5526 14.9369 63.0012 16.6923C62.6021 17.9241 62.2798 19.1795 62.0361 20.4513C62.0361 20.4513 62.3762 20.4513 62.3854 20.4513C62.6788 18.9363 63.078 17.4437 63.5802 15.9846C64.1592 14.2751 65.1977 11.0492 67.3851 10.893H67.0451C69.8758 11.0952 66.6866 16.6555 65.9146 17.5378C65.9697 17.4735 66.2087 17.5838 66.2638 17.5378L66.2547 17.5194Z" fill="#040200"/>
</g>
<g style="mix-blend-mode:multiply" opacity="0.51">
<path d="M62.9231 14.2636C62.801 14.5555 62.6694 17.448 60.7434 16.9172C60.3316 16.7748 59.9936 16.4888 59.7995 16.1183C59.6054 15.7479 59.57 15.3213 59.7006 14.927C59.0993 16.9172 58.4698 18.819 58 20.1901C60.0388 21.4727 64.4169 23.9317 66.3429 22.6314C67.8743 21.6054 71.764 17.0764 74 13.0606C72.9825 14.6308 71.768 16.0801 70.3829 17.3772C68.2032 19.3674 65.9107 19.4913 67.8461 16.0946C68.5884 14.7943 70.0446 10.0796 66.4275 10C66.056 10.0505 65.7092 10.2045 65.4316 10.4423C64.1632 11.2561 63.4492 12.9633 62.9231 14.2636Z" fill="#3D2E31"/>
</g>
<mask id="mask0_25_26634" style="mask-type:luminance" maskUnits="userSpaceOnUse" x="42" y="0" width="27" height="28">
<path d="M43.2501 27.1511C44.0957 28.0058 59.5084 24.6145 60.2988 25.4508C77.8989 31.1215 62.7711 1.69299 62.8997 1.55513C64.94 -0.898779 40.5848 0.0386682 44.1232 1.06802C46.4025 1.72975 46.283 7.69449 45.5569 12.5655C44.4633 20.2122 39.9782 22.8039 43.2501 27.1511Z" fill="white"/>
</mask>
<g mask="url(#mask0_25_26634)">
<path d="M45.3459 1.46297C42.4784 4.90947 45.8421 17.6661 45.8421 17.6661C45.8421 17.6661 46.2741 17.8775 46.945 18.1716C47.3678 14.771 48.0755 8.25487 47.7905 4.89109C47.4137 0.433619 45.5205 1.41702 45.3459 1.46297Z" fill="#E82C2E"/>
<path d="M60.1431 2.33579C57.0551 0.323039 48.5353 -0.77065 45.87 0.993957C45.6719 1.12901 45.4953 1.29323 45.3462 1.48106C45.5208 1.38916 47.4141 0.451708 47.7909 4.90918C48.0758 8.27296 47.3681 14.7891 46.9454 18.1897C49.0408 19.1087 53.4983 20.6987 55.0148 19.1087C57.0275 16.9857 63.2312 4.33017 60.1431 2.33579Z" fill="url(#paint41_radial_25_26634)"/>
<path opacity="0.63" d="M48.7364 1.51805C49.302 1.34489 49.8842 1.23092 50.4734 1.17799C52.3556 1.1207 54.2371 1.30917 56.0705 1.73862C57.5226 2.02353 59.3975 2.30844 60.2063 3.76976C60.4836 4.49521 60.4999 5.29454 60.2523 6.03066C59.7008 8.27318 57.734 12.0505 57.1918 9.20144C56.6495 6.35233 54.8665 3.99952 52.5413 5.09321C50.2161 6.1869 49.2143 9.6334 49.0948 6.50858C48.9386 3.11722 47.6151 1.82134 48.7364 1.51805Z" fill="url(#paint42_radial_25_26634)"/>
<g style="mix-blend-mode:multiply">
<path d="M54.1133 13.9435C54.9404 12.2984 55.8595 9.03573 54.4166 7.44574C53.7457 6.71968 52.4682 7.64794 52.073 8.17181C50.9149 9.70665 50.8414 12.133 50.7495 13.9711C50.6714 15.2658 50.6714 16.5641 50.7495 17.8588C50.7495 17.8588 51.0804 17.7852 51.0804 17.7577C50.9759 16.2277 50.9759 14.6923 51.0804 13.1623C51.1999 11.3242 51.3929 7.9788 53.4608 7.26193L53.1391 7.36303C55.8963 6.82997 54.2511 13.0245 53.7365 14.0722C53.7365 13.9987 54.0306 14.0722 54.0673 13.9711L54.1133 13.9435Z" fill="#040200"/>
</g>
</g>
<path opacity="0.66" d="M29 5C29 5 22.4163 5.41925 19 11C21.9018 8.38705 25.2983 6.34914 29 5Z" fill="#E1E4E3"/>
<path opacity="0.66" d="M15 16C15 16 10.6677 17.5372 9 24C10.5794 21.0771 12.6002 18.3827 15 16Z" fill="#E1E4E3"/>
<path opacity="0.66" d="M11.4838 76C11.4838 76 8.35726 79.5608 17.9999 85C18.0361 85 11.4838 79.0445 11.4838 76Z" fill="#E1E4E3"/>
<path opacity="0.66" d="M25.5895 82C25.5895 82 20.2882 87.1538 24.8559 90.1888C25.4236 90.5705 25.7904 90.8378 26 91C25.1441 90.1792 22.2882 86.772 25.5895 82Z" fill="#E1E4E3"/>
<path opacity="0.66" d="M37.6412 87C37.6412 87 33.3442 93.5617 38.656 95.4747C39.3234 95.7125 39.7531 95.891 40 96C38.9029 95.3855 35.255 92.62 37.6412 87Z" fill="#E1E4E3"/>
<path opacity="0.66" d="M52.1435 88C52.1435 88 50.8552 95.8576 55.9996 94.9227C56.0437 94.9227 52.5141 93.9627 52.1435 88Z" fill="#E1E4E3"/>
<path opacity="0.42" d="M66 84C66 84 67.2973 93.2929 72 90.4642C72 90.504 68.2973 90.6335 66 84Z" fill="#E1E4E3"/>
<path opacity="0.42" d="M79 76C79 76 83.5503 84.2767 87 79.5325C87 79.4914 83.541 81.2679 79 76Z" fill="#E1E4E3"/>
<path opacity="0.42" d="M92 62C92 62 89.3802 64.8536 86.6335 64.2185C83.8868 63.5835 90.8941 67.5422 92 62Z" fill="#E1E4E3"/>
<path opacity="0.42" d="M93.9198 46C93.6272 46.944 93.0518 47.7789 92.269 48.3951C91.4862 49.0113 90.5327 49.3802 89.5334 49.4532C86.9083 49.7701 94.8766 51.6302 93.9198 46Z" fill="#E1E4E3"/>
<path opacity="0.42" d="M90.3097 31C90.3919 32.1235 90.1621 33.248 89.6504 34.2263C89.1387 35.2045 88.3689 35.991 87.4417 36.4828C85.0357 37.8845 93.387 36.5591 90.3097 31Z" fill="#E1E4E3"/>
<path opacity="0.66" d="M78 12C78 12 82.8726 13.1162 85.2956 16.7588C87.7185 20.4015 83.5496 15.1754 78 12Z" fill="#E1E4E3"/>
<path opacity="0.66" d="M63 4.01385C63 4.01385 68.2714 3.63408 71.8955 6.85209C75.5196 10.0701 69.6175 5.67282 63 4.01385Z" fill="#E1E4E3"/>
<path opacity="0.66" d="M40 2C40 2 30.6253 3.10674 32.1724 5.311C33.7195 7.51526 30.7634 3.89068 40 2Z" fill="#E1E4E3"/>
<path d="M48.499 111.751C48.499 111.751 50.089 151.078 50.7507 162.86C51.0228 145.794 50.2708 128.727 48.499 111.751Z" fill="url(#paint43_radial_25_26634)"/>
<path style="mix-blend-mode:overlay" opacity="0.56" d="M21.1748 164.891L36.9828 149.267L48.5078 168.347L49.5831 127.954C43.4905 124.915 36.8685 123.08 30.0806 122.55L21.1748 164.891Z" fill="url(#paint44_radial_25_26634)"/>
<g style="mix-blend-mode:multiply" opacity="0.51">
<path d="M50.2017 11.9301C50.2017 12.2333 50.6617 15.0543 48.7849 14.8889C47.7636 14.797 47.4692 13.97 47.4048 13.1706C47.2852 15.2197 47.1288 17.186 47 18.6011C49.1161 19.4189 53.6334 20.8983 55.1055 19.2627C56.2739 17.9579 58.7856 12.8306 60 8.48436C59.4129 10.2063 58.619 11.8508 57.6355 13.3819C56.0899 15.7434 54.029 16.3223 55.0594 12.656C55.4551 11.2502 55.7587 6.40772 52.4558 7.06011C52.131 7.19027 51.8502 7.41021 51.6461 7.69413C50.6801 8.76921 50.4041 10.5702 50.2017 11.9301Z" fill="#3D2E31"/>
</g>
<path d="M83 48.5C83 66.4449 67.9996 81 49.4954 81C30.9913 81 16 66.4723 16 48.5C16 30.5277 30.9913 16 49.4954 16C67.9996 16 83 30.546 83 48.5Z" fill="url(#paint45_radial_25_26634)"/>
<g style="mix-blend-mode:multiply" opacity="0.3">
<path d="M49.4954 16C30.9913 16 16 30.546 16 48.5C16 66.454 30.9913 81 49.4954 81C67.9996 81 83 66.4723 83 48.5C83 30.5277 67.9996 16 49.4954 16ZM47.853 78.2132C29.942 78.2132 17.323 65.5586 17.323 48.1985C17.323 30.8383 31.8399 16.7401 49.7509 16.7401C67.662 16.7401 80.2809 29.413 80.2809 46.7914C80.2809 64.1698 65.7641 78.2132 47.853 78.2132Z" fill="#FBAD1D"/>
</g>
<path d="M59.0767 33.8968C65.9764 33.8746 72.6775 36.2055 78.0739 40.5049C76.28 34.2503 72.4839 28.7568 67.2677 24.867C62.0515 20.9773 55.7033 18.9061 49.1968 18.9712C32.6995 18.9712 19.3271 31.9209 19.3271 47.9034C19.3369 52.2061 20.321 56.4506 22.2056 60.3186C24.0902 64.1865 26.8265 67.5774 30.2089 70.2367C29.5548 67.8405 29.221 65.3681 29.2163 62.8842C29.2163 46.8557 42.5887 33.8968 59.0767 33.8968Z" fill="url(#paint46_linear_25_26634)"/>
<path d="M40.7235 48.62C43.2195 48.62 45.2835 49.328 46.9155 50.744C48.5475 52.136 49.3635 54.152 49.3635 56.792C49.3635 59.6 48.4755 61.772 46.6995 63.308C44.9235 64.82 42.6915 65.576 40.0035 65.576C37.6275 65.576 35.5875 65.072 33.8835 64.064C32.2035 63.056 31.0035 61.568 30.2835 59.6L36.6195 55.964C37.1235 57.716 38.2515 58.592 40.0035 58.592C40.6515 58.592 41.1675 58.436 41.5515 58.124C41.9595 57.812 42.1635 57.356 42.1635 56.756C42.1635 55.58 41.4435 54.992 40.0035 54.992H31.7235L32.7675 39.8H47.9235V46.784H39.3555L39.2115 48.62H40.7235Z" fill="black"/>
<path d="M62.1027 31V34.88H58.8027V45H54.8027V34.88H51.5027V31H62.1027ZM70.6988 31H74.6988V45H70.6988V39.84H67.2988V45H63.2988V31H67.2988V35.96H70.6988V31Z" fill="black"/>
<defs>
<linearGradient id="paint0_linear_25_26634" x1="47.7994" y1="108.344" x2="33.2925" y2="169.69" gradientUnits="userSpaceOnUse">
<stop stop-color="#040000"/>
<stop offset="0.28" stop-color="#888C87"/>
<stop offset="0.31" stop-color="#7E817C"/>
<stop offset="0.49" stop-color="#3C3C3A"/>
<stop offset="0.63" stop-color="#141110"/>
<stop offset="0.69" stop-color="#040000"/>
</linearGradient>
<radialGradient id="paint1_radial_25_26634" cx="0" cy="0" r="1" gradientUnits="userSpaceOnUse" gradientTransform="translate(36.0047 126.505) scale(31.6236 31.1468)">
<stop stop-color="#888C87"/>
<stop offset="0.27" stop-color="#565754"/>
<stop offset="0.69" stop-color="#040000"/>
</radialGradient>
<radialGradient id="paint2_radial_25_26634" cx="0" cy="0" r="1" gradientUnits="userSpaceOnUse" gradientTransform="translate(36.486 124.495) scale(34.8204 34.3408)">
<stop offset="0.16" stop-color="#F4EC94"/>
<stop offset="0.7" stop-color="#A87C15"/>
</radialGradient>
<linearGradient id="paint3_linear_25_26634" x1="25.4387" y1="143.891" x2="32.8831" y2="116.438" gradientUnits="userSpaceOnUse">
<stop offset="0.22" stop-color="#4C433E"/>
<stop offset="0.28" stop-color="#6D6761"/>
<stop offset="0.35" stop-color="#89867F"/>
<stop offset="0.43" stop-color="#A19F98"/>
<stop offset="0.51" stop-color="#B3B3AB"/>
<stop offset="0.61" stop-color="#BFC1B9"/>
<stop offset="0.73" stop-color="#C7C9C1"/>
<stop offset="0.95" stop-color="#C9CBC3"/>
</linearGradient>
<linearGradient id="paint4_linear_25_26634" x1="61.8382" y1="138.381" x2="53.4819" y2="89.1703" gradientUnits="userSpaceOnUse">
<stop stop-color="#040000"/>
<stop offset="0.36" stop-color="#888C87"/>
<stop offset="0.4" stop-color="#7E817C"/>
<stop offset="0.62" stop-color="#3C3C3A"/>
<stop offset="0.78" stop-color="#141110"/>
<stop offset="0.86" stop-color="#040000"/>
</linearGradient>
<radialGradient id="paint5_radial_25_26634" cx="0" cy="0" r="1" gradientUnits="userSpaceOnUse" gradientTransform="translate(66.0515 131.208) scale(30.513 30.513)">
<stop stop-color="#040000"/>
<stop offset="0.22" stop-color="#4A4747"/>
<stop offset="0.49" stop-color="#979595"/>
<stop offset="0.7" stop-color="#CFCECE"/>
<stop offset="0.86" stop-color="#F2F2F2"/>
<stop offset="0.95" stop-color="white"/>
</radialGradient>
<radialGradient id="paint6_radial_25_26634" cx="0" cy="0" r="1" gradientUnits="userSpaceOnUse" gradientTransform="translate(63.4674 124.514) scale(42.462 41.8651)">
<stop offset="0.16" stop-color="#F4EC94"/>
<stop offset="0.7" stop-color="#A87C15"/>
</radialGradient>
<radialGradient id="paint7_radial_25_26634" cx="0" cy="0" r="1" gradientUnits="userSpaceOnUse" gradientTransform="translate(38.1554 8.75832) rotate(-3.2851) scale(12.6002 12.5059)">
<stop offset="0.15" stop-color="#4B423D"/>
<stop offset="0.41" stop-color="#483F3B"/>
<stop offset="0.59" stop-color="#3F3733"/>
<stop offset="0.75" stop-color="#302926"/>
<stop offset="0.89" stop-color="#1A1513"/>
<stop offset="1" stop-color="#040000"/>
</radialGradient>
<radialGradient id="paint8_radial_25_26634" cx="0" cy="0" r="1" gradientUnits="userSpaceOnUse" gradientTransform="translate(39.7927 12.7296) rotate(-4.21417) scale(12.3881 13.0461)">
<stop offset="0.37" stop-color="#040000"/>
<stop offset="0.45" stop-color="#272424"/>
<stop offset="0.63" stop-color="#727272"/>
<stop offset="0.78" stop-color="#A9ABAB"/>
<stop offset="0.89" stop-color="#CBCFCE"/>
<stop offset="0.95" stop-color="#D8DCDB"/>
</radialGradient>
<radialGradient id="paint9_radial_25_26634" cx="0" cy="0" r="1" gradientUnits="userSpaceOnUse" gradientTransform="translate(26.4948 13.855) rotate(-27.1126) scale(12.9875 13.0411)">
<stop offset="0.15" stop-color="#E82C2E"/>
<stop offset="0.41" stop-color="#483F3B"/>
<stop offset="0.59" stop-color="#3F3733"/>
<stop offset="0.75" stop-color="#302926"/>
<stop offset="0.89" stop-color="#1A1513"/>
<stop offset="1" stop-color="#040000"/>
</radialGradient>
<radialGradient id="paint10_radial_25_26634" cx="0" cy="0" r="1" gradientUnits="userSpaceOnUse" gradientTransform="translate(28.2809 15.7973) rotate(-28.1786) scale(12.3928 12.9742)">
<stop offset="0.37" stop-color="#040000"/>
<stop offset="0.45" stop-color="#272424"/>
<stop offset="0.63" stop-color="#727272"/>
<stop offset="0.78" stop-color="#A9ABAB"/>
<stop offset="0.89" stop-color="#CBCFCE"/>
<stop offset="0.95" stop-color="#D8DCDB"/>
</radialGradient>
<radialGradient id="paint11_radial_25_26634" cx="0" cy="0" r="1" gradientUnits="userSpaceOnUse" gradientTransform="translate(15.7138 24.9383) rotate(-49.7243) scale(12.9967 12.9018)">
<stop offset="0.15" stop-color="#4B423D"/>
<stop offset="0.41" stop-color="#483F3B"/>
<stop offset="0.59" stop-color="#3F3733"/>
<stop offset="0.75" stop-color="#302926"/>
<stop offset="0.89" stop-color="#1A1513"/>
<stop offset="1" stop-color="#040000"/>
</radialGradient>
<radialGradient id="paint12_radial_25_26634" cx="0" cy="0" r="1" gradientUnits="userSpaceOnUse" gradientTransform="translate(18.8994 25.8613) rotate(-49.2679) scale(12.3566 13.0054)">
<stop offset="0.37" stop-color="#040000"/>
<stop offset="0.45" stop-color="#272424"/>
<stop offset="0.63" stop-color="#727272"/>
<stop offset="0.78" stop-color="#A9ABAB"/>
<stop offset="0.89" stop-color="#CBCFCE"/>
<stop offset="0.95" stop-color="#D8DCDB"/>
</radialGradient>
<radialGradient id="paint13_radial_25_26634" cx="0" cy="0" r="1" gradientUnits="userSpaceOnUse" gradientTransform="translate(9.09395 36.4066) rotate(-71.2614) scale(13.3035 12.8956)">
<stop offset="0.15" stop-color="#4B423D"/>
<stop offset="0.41" stop-color="#483F3B"/>
<stop offset="0.59" stop-color="#3F3733"/>
<stop offset="0.75" stop-color="#302926"/>
<stop offset="0.89" stop-color="#1A1513"/>
<stop offset="1" stop-color="#040000"/>
</radialGradient>
<radialGradient id="paint14_radial_25_26634" cx="0" cy="0" r="1" gradientUnits="userSpaceOnUse" gradientTransform="translate(13.2564 37.1555) rotate(-71.565) scale(12.3374 13.0366)">
<stop offset="0.37" stop-color="#040000"/>
<stop offset="0.45" stop-color="#272424"/>
<stop offset="0.63" stop-color="#727272"/>
<stop offset="0.78" stop-color="#A9ABAB"/>
<stop offset="0.89" stop-color="#CBCFCE"/>
<stop offset="0.95" stop-color="#D8DCDB"/>
</radialGradient>
<radialGradient id="paint15_radial_25_26634" cx="0" cy="0" r="1" gradientUnits="userSpaceOnUse" gradientTransform="translate(9.57418 47.8926) rotate(-88.8688) scale(12.7232 12.5612)">
<stop offset="0.15" stop-color="#4B423D"/>
<stop offset="0.41" stop-color="#483F3B"/>
<stop offset="0.59" stop-color="#3F3733"/>
<stop offset="0.75" stop-color="#302926"/>
<stop offset="0.89" stop-color="#1A1513"/>
<stop offset="1" stop-color="#040000"/>
</radialGradient>
<radialGradient id="paint16_radial_25_26634" cx="0" cy="0" r="1" gradientUnits="userSpaceOnUse" gradientTransform="translate(11.4776 49.7904) rotate(-90) scale(12.3545 13.0048)">
<stop offset="0.37" stop-color="#040000"/>
<stop offset="0.45" stop-color="#272424"/>
<stop offset="0.63" stop-color="#727272"/>
<stop offset="0.78" stop-color="#A9ABAB"/>
<stop offset="0.89" stop-color="#CBCFCE"/>
<stop offset="0.95" stop-color="#D8DCDB"/>
</radialGradient>
<radialGradient id="paint17_radial_25_26634" cx="0" cy="0" r="1" gradientUnits="userSpaceOnUse" gradientTransform="translate(9.81824 64.0282) rotate(-111.295) scale(12.3164 13.0293)">
<stop offset="0.15" stop-color="#4B423D"/>
<stop offset="0.41" stop-color="#483F3B"/>
<stop offset="0.59" stop-color="#3F3733"/>
<stop offset="0.75" stop-color="#302926"/>
<stop offset="0.89" stop-color="#1A1513"/>
<stop offset="1" stop-color="#040000"/>
</radialGradient>
<radialGradient id="paint18_radial_25_26634" cx="0" cy="0" r="1" gradientUnits="userSpaceOnUse" gradientTransform="translate(12.1054 63.8603) rotate(-110.908) scale(12.3901 12.9688)">
<stop offset="0.37" stop-color="#040000"/>
<stop offset="0.45" stop-color="#272424"/>
<stop offset="0.63" stop-color="#727272"/>
<stop offset="0.78" stop-color="#A9ABAB"/>
<stop offset="0.89" stop-color="#CBCFCE"/>
<stop offset="0.95" stop-color="#D8DCDB"/>
</radialGradient>
<radialGradient id="paint19_radial_25_26634" cx="0" cy="0" r="1" gradientUnits="userSpaceOnUse" gradientTransform="translate(16.3532 78.5727) rotate(-133.911) scale(12.8758 12.8869)">
<stop offset="0.15" stop-color="#4B423D"/>
<stop offset="0.41" stop-color="#483F3B"/>
<stop offset="0.59" stop-color="#3F3733"/>
<stop offset="0.75" stop-color="#302926"/>
<stop offset="0.89" stop-color="#1A1513"/>
<stop offset="1" stop-color="#040000"/>
</radialGradient>
<radialGradient id="paint20_radial_25_26634" cx="0" cy="0" r="1" gradientUnits="userSpaceOnUse" gradientTransform="translate(17.1459 76.8436) rotate(-134.145) scale(12.3237 13.0593)">
<stop offset="0.37" stop-color="#040000"/>
<stop offset="0.45" stop-color="#272424"/>
<stop offset="0.63" stop-color="#727272"/>
<stop offset="0.78" stop-color="#A9ABAB"/>
<stop offset="0.89" stop-color="#CBCFCE"/>
<stop offset="0.95" stop-color="#D8DCDB"/>
</radialGradient>
<radialGradient id="paint21_radial_25_26634" cx="0" cy="0" r="1" gradientUnits="userSpaceOnUse" gradientTransform="translate(29.3769 85.16) rotate(-151.004) scale(12.8483 13.1479)">
<stop offset="0.15" stop-color="#4B423D"/>
<stop offset="0.41" stop-color="#483F3B"/>
<stop offset="0.59" stop-color="#3F3733"/>
<stop offset="0.75" stop-color="#302926"/>
<stop offset="0.89" stop-color="#1A1513"/>
<stop offset="1" stop-color="#040000"/>
</radialGradient>
<radialGradient id="paint22_radial_25_26634" cx="0" cy="0" r="1" gradientUnits="userSpaceOnUse" gradientTransform="translate(30.8769 83.5419) rotate(-153.166) scale(12.388 12.9696)">
<stop offset="0.37" stop-color="#040000"/>
<stop offset="0.45" stop-color="#272424"/>
<stop offset="0.63" stop-color="#727272"/>
<stop offset="0.78" stop-color="#A9ABAB"/>
<stop offset="0.89" stop-color="#CBCFCE"/>
<stop offset="0.95" stop-color="#D8DCDB"/>
</radialGradient>
<radialGradient id="paint23_radial_25_26634" cx="0" cy="0" r="1" gradientUnits="userSpaceOnUse" gradientTransform="translate(41.9567 88.2206) rotate(-165.841) scale(12.3365 13.0062)">
<stop offset="0.15" stop-color="#4B423D"/>
<stop offset="0.41" stop-color="#483F3B"/>
<stop offset="0.59" stop-color="#3F3733"/>
<stop offset="0.75" stop-color="#302926"/>
<stop offset="0.89" stop-color="#1A1513"/>
<stop offset="1" stop-color="#040000"/>
</radialGradient>
<radialGradient id="paint24_radial_25_26634" cx="0" cy="0" r="1" gradientUnits="userSpaceOnUse" gradientTransform="translate(43.8965 88.7978) rotate(-167.863) scale(12.3709 13.034)">
<stop offset="0.37" stop-color="#040000"/>
<stop offset="0.45" stop-color="#272424"/>
<stop offset="0.63" stop-color="#727272"/>
<stop offset="0.78" stop-color="#A9ABAB"/>
<stop offset="0.89" stop-color="#CBCFCE"/>
<stop offset="0.95" stop-color="#D8DCDB"/>
</radialGradient>
<radialGradient id="paint25_radial_25_26634" cx="0" cy="0" r="1" gradientUnits="userSpaceOnUse" gradientTransform="translate(56.9298 87.2024) rotate(174.351) scale(13.2968 13.0883)">
<stop offset="0.15" stop-color="#4B423D"/>
<stop offset="0.41" stop-color="#483F3B"/>
<stop offset="0.59" stop-color="#3F3733"/>
<stop offset="0.75" stop-color="#302926"/>
<stop offset="0.89" stop-color="#1A1513"/>
<stop offset="1" stop-color="#040000"/>
</radialGradient>
<radialGradient id="paint26_radial_25_26634" cx="0" cy="0" r="1" gradientUnits="userSpaceOnUse" gradientTransform="translate(58.0973 85.7442) rotate(173.326) scale(12.3079 12.9689)">
<stop offset="0.37" stop-color="#040000"/>
<stop offset="0.45" stop-color="#272424"/>
<stop offset="0.63" stop-color="#727272"/>
<stop offset="0.78" stop-color="#A9ABAB"/>
<stop offset="0.89" stop-color="#CBCFCE"/>
<stop offset="0.95" stop-color="#D8DCDB"/>
</radialGradient>
<radialGradient id="paint27_radial_25_26634" cx="0" cy="0" r="1" gradientUnits="userSpaceOnUse" gradientTransform="translate(67.1777 82.0987) rotate(155.034) scale(12.9352 12.5551)">
<stop offset="0.15" stop-color="#4B423D"/>
<stop offset="0.41" stop-color="#483F3B"/>
<stop offset="0.59" stop-color="#3F3733"/>
<stop offset="0.75" stop-color="#302926"/>
<stop offset="0.89" stop-color="#1A1513"/>
<stop offset="1" stop-color="#040000"/>
</radialGradient>
<radialGradient id="paint28_radial_25_26634" cx="0" cy="0" r="1" gradientUnits="userSpaceOnUse" gradientTransform="translate(76.336 81.183) scale(17.0762 17.0763)">
<stop offset="0.37" stop-color="#040000"/>
<stop offset="0.45" stop-color="#272424"/>
<stop offset="0.63" stop-color="#727272"/>
<stop offset="0.78" stop-color="#A9ABAB"/>
<stop offset="0.89" stop-color="#CBCFCE"/>
<stop offset="0.95" stop-color="#D8DCDB"/>
</radialGradient>
<radialGradient id="paint29_radial_25_26634" cx="0" cy="0" r="1" gradientUnits="userSpaceOnUse" gradientTransform="translate(80.2287 71.5664) rotate(131.065) scale(12.6327 12.6193)">
<stop offset="0.15" stop-color="#4B423D"/>
<stop offset="0.36" stop-color="#473F3A"/>
<stop offset="0.56" stop-color="#3D3531"/>
<stop offset="0.75" stop-color="#2A2421"/>
<stop offset="0.93" stop-color="#110C0B"/>
<stop offset="1" stop-color="#040000"/>
</radialGradient>
<radialGradient id="paint30_radial_25_26634" cx="0" cy="0" r="1" gradientUnits="userSpaceOnUse" gradientTransform="translate(82.8526 67.6821) scale(18.7673 18.7673)">
<stop offset="0.37" stop-color="#040000"/>
<stop offset="0.45" stop-color="#272424"/>
<stop offset="0.63" stop-color="#727272"/>
<stop offset="0.78" stop-color="#A9ABAB"/>
<stop offset="0.89" stop-color="#CBCFCE"/>
<stop offset="0.95" stop-color="#D8DCDB"/>
</radialGradient>
<radialGradient id="paint31_radial_25_26634" cx="0" cy="0" r="1" gradientUnits="userSpaceOnUse" gradientTransform="translate(87.6955 56.9825) rotate(106.243) scale(13.2543 12.9938)">
<stop offset="0.15" stop-color="#4B423D"/>
<stop offset="0.41" stop-color="#483F3B"/>
<stop offset="0.59" stop-color="#3F3733"/>
<stop offset="0.75" stop-color="#302926"/>
<stop offset="0.89" stop-color="#1A1513"/>
<stop offset="1" stop-color="#040000"/>
</radialGradient>
<radialGradient id="paint32_radial_25_26634" cx="0" cy="0" r="1" gradientUnits="userSpaceOnUse" gradientTransform="translate(90.6776 59.6487) rotate(105.781) scale(12.433 12.9689)">
<stop offset="0.37" stop-color="#040000"/>
<stop offset="0.45" stop-color="#272424"/>
<stop offset="0.63" stop-color="#727272"/>
<stop offset="0.78" stop-color="#A9ABAB"/>
<stop offset="0.89" stop-color="#CBCFCE"/>
<stop offset="0.95" stop-color="#D8DCDB"/>
</radialGradient>
<radialGradient id="paint33_radial_25_26634" cx="0" cy="0" r="1" gradientUnits="userSpaceOnUse" gradientTransform="translate(89.2794 43.8309) rotate(85.3195) scale(12.5651 13.1516)">
<stop offset="0.15" stop-color="#4B423D"/>
<stop offset="0.41" stop-color="#483F3B"/>
<stop offset="0.59" stop-color="#3F3733"/>
<stop offset="0.75" stop-color="#302926"/>
<stop offset="0.89" stop-color="#1A1513"/>
<stop offset="1" stop-color="#040000"/>
</radialGradient>
<radialGradient id="paint34_radial_25_26634" cx="0" cy="0" r="1" gradientUnits="userSpaceOnUse" gradientTransform="translate(90.9726 46.7048) rotate(84.5881) scale(12.4099 13.0695)">
<stop offset="0.37" stop-color="#040000"/>
<stop offset="0.45" stop-color="#272424"/>
<stop offset="0.63" stop-color="#727272"/>
<stop offset="0.78" stop-color="#A9ABAB"/>
<stop offset="0.89" stop-color="#CBCFCE"/>
<stop offset="0.95" stop-color="#D8DCDB"/>
</radialGradient>
<radialGradient id="paint35_radial_25_26634" cx="0" cy="0" r="1" gradientUnits="userSpaceOnUse" gradientTransform="translate(85.2856 32.1687) rotate(66.3287) scale(12.7024 13.0215)">
<stop offset="0.15" stop-color="#4B423D"/>
<stop offset="0.41" stop-color="#483F3B"/>
<stop offset="0.59" stop-color="#3F3733"/>
<stop offset="0.75" stop-color="#302926"/>
<stop offset="0.89" stop-color="#1A1513"/>
<stop offset="1" stop-color="#040000"/>
</radialGradient>
<radialGradient id="paint36_radial_25_26634" cx="0" cy="0" r="1" gradientUnits="userSpaceOnUse" gradientTransform="translate(88.2134 33.7873) rotate(65.8545) scale(12.399 12.98)">
<stop offset="0.37" stop-color="#040000"/>
<stop offset="0.45" stop-color="#272424"/>
<stop offset="0.63" stop-color="#727272"/>
<stop offset="0.78" stop-color="#A9ABAB"/>
<stop offset="0.89" stop-color="#CBCFCE"/>
<stop offset="0.95" stop-color="#D8DCDB"/>
</radialGradient>
<radialGradient id="paint37_radial_25_26634" cx="0" cy="0" r="1" gradientUnits="userSpaceOnUse" gradientTransform="translate(77.0673 21.551) rotate(47.9941) scale(12.7888 12.7988)">
<stop offset="0.15" stop-color="#4B423D"/>
<stop offset="0.41" stop-color="#483F3B"/>
<stop offset="0.59" stop-color="#3F3733"/>
<stop offset="0.75" stop-color="#302926"/>
<stop offset="0.89" stop-color="#1A1513"/>
<stop offset="1" stop-color="#040000"/>
</radialGradient>
<radialGradient id="paint38_radial_25_26634" cx="0" cy="0" r="1" gradientUnits="userSpaceOnUse" gradientTransform="translate(79.0547 20.8042) rotate(47.1211) scale(12.4228 12.9742)">
<stop offset="0.37" stop-color="#040000"/>
<stop offset="0.45" stop-color="#272424"/>
<stop offset="0.63" stop-color="#727272"/>
<stop offset="0.78" stop-color="#A9ABAB"/>
<stop offset="0.89" stop-color="#CBCFCE"/>
<stop offset="0.95" stop-color="#D8DCDB"/>
</radialGradient>
<radialGradient id="paint39_radial_25_26634" cx="0" cy="0" r="1" gradientUnits="userSpaceOnUse" gradientTransform="translate(64.5196 13.0699) rotate(28.0277) scale(12.6382 12.6149)">
<stop offset="0.15" stop-color="#4B423D"/>
<stop offset="0.41" stop-color="#483F3B"/>
<stop offset="0.59" stop-color="#3F3733"/>
<stop offset="0.75" stop-color="#302926"/>
<stop offset="0.89" stop-color="#1A1513"/>
<stop offset="1" stop-color="#040000"/>
</radialGradient>
<radialGradient id="paint40_radial_25_26634" cx="0" cy="0" r="1" gradientUnits="userSpaceOnUse" gradientTransform="translate(63.927 12.8703) rotate(27.3682) scale(12.4473 13.0288)">
<stop offset="0.37" stop-color="#040000"/>
<stop offset="0.45" stop-color="#272424"/>
<stop offset="0.63" stop-color="#727272"/>
<stop offset="0.78" stop-color="#A9ABAB"/>
<stop offset="0.89" stop-color="#CBCFCE"/>
<stop offset="0.95" stop-color="#D8DCDB"/>
</radialGradient>
<radialGradient id="paint41_radial_25_26634" cx="0" cy="0" r="1" gradientUnits="userSpaceOnUse" gradientTransform="translate(54.5236 8.03887) rotate(13.57) scale(10.9553 10.9553)">
<stop offset="0.15" stop-color="#4B423D"/>
<stop offset="0.41" stop-color="#483F3B"/>
<stop offset="0.59" stop-color="#3F3733"/>
<stop offset="0.75" stop-color="#302926"/>
<stop offset="0.89" stop-color="#1A1513"/>
<stop offset="1" stop-color="#040000"/>
</radialGradient>
<radialGradient id="paint42_radial_25_26634" cx="0" cy="0" r="1" gradientUnits="userSpaceOnUse" gradientTransform="translate(50.8833 9.92456) rotate(12.7243) scale(12.399 13.0619)">
<stop offset="0.37" stop-color="#040000"/>
<stop offset="0.45" stop-color="#272424"/>
<stop offset="0.63" stop-color="#727272"/>
<stop offset="0.78" stop-color="#A9ABAB"/>
<stop offset="0.89" stop-color="#CBCFCE"/>
<stop offset="0.95" stop-color="#D8DCDB"/>
</radialGradient>
<radialGradient id="paint43_radial_25_26634" cx="0" cy="0" r="1" gradientUnits="userSpaceOnUse" gradientTransform="translate(51.054 144.902) scale(18.0871 18.0872)">
<stop offset="0.37" stop-color="#4B423D"/>
<stop offset="0.95" stop-color="#C9CBC3"/>
</radialGradient>
<radialGradient id="paint44_radial_25_26634" cx="0" cy="0" r="1" gradientUnits="userSpaceOnUse" gradientTransform="translate(30.3379 124.618) scale(40.6319 40.6319)">
<stop offset="0.05" stop-color="white"/>
<stop offset="0.1" stop-color="#F2F2F2"/>
<stop offset="0.2" stop-color="#CFCECE"/>
<stop offset="0.33" stop-color="#979595"/>
<stop offset="0.5" stop-color="#4A4747"/>
<stop offset="0.63" stop-color="#040000"/>
</radialGradient>
<radialGradient id="paint45_radial_25_26634" cx="0" cy="0" r="1" gradientUnits="userSpaceOnUse" gradientTransform="translate(47.6523 46.1884) scale(34.3349 34.3822)">
<stop stop-color="#FEF9C2"/>
<stop offset="0.07" stop-color="#FEF8BC"/>
<stop offset="0.17" stop-color="#FEF5AC"/>
<stop offset="0.28" stop-color="#FEF091"/>
<stop offset="0.39" stop-color="#FEE96B"/>
<stop offset="0.52" stop-color="#FFE13B"/>
<stop offset="0.65" stop-color="#FFD600"/>
<stop offset="0.71" stop-color="#FECE05"/>
<stop offset="0.81" stop-color="#FCB914"/>
<stop offset="0.86" stop-color="#FBAD1D"/>
<stop offset="0.9" stop-color="#F7A71D"/>
<stop offset="0.94" stop-color="#EC961E"/>
<stop offset="1" stop-color="#DA7A20"/>
</radialGradient>
<linearGradient id="paint46_linear_25_26634" x1="64.2787" y1="60.8531" x2="21.7167" y2="24.3202" gradientUnits="userSpaceOnUse">
<stop offset="0.5" stop-color="white"/>
<stop offset="1" stop-color="white"/>
</linearGradient>
</defs>
</svg>
