<svg width="585" height="643" viewBox="0 0 585 643" fill="none" xmlns="http://www.w3.org/2000/svg">
<g style="mix-blend-mode:multiply" opacity="0.3">
<path d="M292.509 423.272C445.193 423.272 568.969 421.139 568.969 418.507C568.969 415.876 445.193 413.742 292.509 413.742C139.825 413.742 16.0498 415.876 16.0498 418.507C16.0498 421.139 139.825 423.272 292.509 423.272Z" fill="#CCCCCC"/>
</g>
<path d="M157.106 292.691H202.24V324.418H157.106V416.167H122.211V194.002H214.552V225.729H157.106V292.691Z" fill="white"/>
<path d="M202.166 292.693H157.105V302.223H202.166V292.693Z" fill="#F2F2F2"/>
<path d="M214.552 194.002H122.211V203.532H214.552V194.002Z" fill="#F2F2F2"/>
<path d="M157.105 418.507H122.211C121.898 418.507 121.588 418.445 121.299 418.325C121.01 418.205 120.748 418.03 120.526 417.809C120.305 417.588 120.13 417.325 120.01 417.036C119.89 416.747 119.829 416.437 119.829 416.124V194.004C119.829 193.691 119.89 193.381 120.01 193.092C120.13 192.803 120.305 192.54 120.526 192.319C120.748 192.098 121.01 191.922 121.299 191.802C121.588 191.683 121.898 191.621 122.211 191.621H214.552C215.184 191.621 215.79 191.872 216.236 192.319C216.683 192.766 216.934 193.372 216.934 194.004V225.731C216.934 226.363 216.683 226.969 216.236 227.416C215.79 227.862 215.184 228.113 214.552 228.113H159.488V290.266H202.24C202.552 290.266 202.862 290.327 203.151 290.447C203.44 290.567 203.703 290.742 203.924 290.963C204.146 291.185 204.321 291.447 204.441 291.736C204.56 292.025 204.622 292.335 204.622 292.648V324.375C204.622 324.688 204.56 324.998 204.441 325.287C204.321 325.576 204.146 325.839 203.924 326.06C203.703 326.281 203.44 326.457 203.151 326.577C202.862 326.696 202.552 326.758 202.24 326.758H159.488V416.08C159.494 416.396 159.436 416.711 159.319 417.005C159.202 417.299 159.028 417.567 158.806 417.793C158.584 418.019 158.319 418.199 158.027 418.321C157.735 418.444 157.422 418.507 157.105 418.507ZM124.549 413.742H154.678V324.42C154.682 323.789 154.934 323.185 155.38 322.739C155.826 322.293 156.43 322.041 157.061 322.037H199.739V295.075H157.105C156.475 295.071 155.871 294.819 155.425 294.373C154.979 293.927 154.727 293.323 154.723 292.693V225.731C154.727 225.1 154.979 224.496 155.425 224.05C155.871 223.605 156.475 223.352 157.105 223.348H212.169V196.386H124.594L124.549 413.742Z" fill="#E6E6E6"/>
<path d="M340.204 416.122H304.984L298.961 375.827H256.047L250.009 416.122H218.045L253.561 194.002H304.659L340.204 416.122ZM260.56 345.683H294.196L277.386 233.35L260.56 345.683Z" fill="white"/>
<path d="M304.673 203.532L338.68 416.122H340.204L304.673 194.002H253.575L218.045 416.122H219.569L253.575 203.532H304.673Z" fill="#F2F2F2"/>
<path d="M292.776 345.686H261.996L260.561 355.216H294.197L292.776 345.686Z" fill="#F2F2F2"/>
<path d="M340.204 418.505H304.984C304.413 418.508 303.861 418.304 303.429 417.931C302.996 417.559 302.713 417.043 302.631 416.478L296.949 378.21H258.178L252.451 416.522C252.365 417.088 252.079 417.605 251.644 417.977C251.21 418.349 250.655 418.552 250.083 418.55H218.045C217.7 418.549 217.359 418.474 217.045 418.331C216.732 418.189 216.452 417.98 216.225 417.721C216.003 417.457 215.84 417.149 215.749 416.817C215.657 416.485 215.637 416.137 215.692 415.797L251.208 193.662C251.299 193.104 251.586 192.596 252.017 192.23C252.448 191.864 252.995 191.664 253.56 191.664H304.659C305.224 191.664 305.771 191.864 306.202 192.23C306.633 192.596 306.92 193.104 307.011 193.662L342.527 415.797C342.582 416.137 342.562 416.485 342.47 416.817C342.379 417.149 342.216 417.457 341.994 417.721C341.767 417.969 341.49 418.166 341.181 418.301C340.873 418.436 340.54 418.506 340.204 418.505ZM307.041 413.74H337.422L302.631 196.385H255.617L220.827 413.74H248.115L253.842 375.472C253.924 374.907 254.207 374.391 254.639 374.019C255.072 373.646 255.624 373.442 256.195 373.445H299.109C299.679 373.445 300.23 373.65 300.661 374.022C301.093 374.394 301.377 374.909 301.462 375.472L307.041 413.74ZM294.196 348.066H260.56C260.217 348.065 259.879 347.991 259.568 347.848C259.256 347.705 258.979 347.496 258.756 347.236C258.533 346.976 258.368 346.671 258.273 346.342C258.179 346.013 258.156 345.667 258.207 345.328L275.018 233.025C275.096 232.455 275.378 231.932 275.812 231.554C276.246 231.175 276.802 230.967 277.378 230.967C277.954 230.967 278.51 231.175 278.944 231.554C279.378 231.932 279.66 232.455 279.738 233.025L296.549 345.358C296.6 345.697 296.578 346.042 296.483 346.372C296.388 346.701 296.223 347.006 296 347.266C295.777 347.526 295.5 347.734 295.189 347.878C294.877 348.021 294.539 348.095 294.196 348.095V348.066ZM263.327 343.301H291.444L277.4 249.436L263.327 343.301Z" fill="#E6E6E6"/>
<path d="M353.182 247.307C353.182 211.792 371.917 191.459 406.189 191.459C440.462 191.459 459.181 211.777 459.181 247.307V362.822C459.181 375.193 456.962 385.67 452.507 393.898C454.106 398.027 456.636 398.663 462.348 398.663H465.515V429.739H460.765C445.212 429.739 435.371 424.027 430.621 414.512C422.778 417.293 414.511 418.69 406.189 418.64C371.917 418.64 353.182 398.323 353.182 362.792V247.307ZM388.091 365.041C388.091 380.905 395.076 386.928 406.189 386.928C417.303 386.928 424.273 380.905 424.273 365.041V245.088C424.273 229.224 417.288 223.186 406.189 223.186C395.091 223.186 388.091 229.224 388.091 245.088V365.041Z" fill="white"/>
<path d="M462.377 398.678C459.062 398.678 456.813 398.456 455.215 397.465C454.454 399.495 453.559 401.473 452.536 403.384C454.134 407.513 456.665 408.149 462.377 408.149H465.544V398.619L462.377 398.678Z" fill="#F2F2F2"/>
<path d="M406.219 200.989C440.477 200.989 459.211 221.292 459.211 256.837V247.307C459.211 211.792 440.477 191.459 406.219 191.459C371.961 191.459 353.182 211.777 353.182 247.307V256.837C353.182 221.292 371.946 200.989 406.219 200.989Z" fill="#F2F2F2"/>
<path d="M406.217 396.458C417.316 396.458 424.301 390.435 424.301 374.571V365.041C424.301 380.905 417.316 386.928 406.217 386.928C395.119 386.928 388.119 380.905 388.119 365.041V374.571C388.119 390.435 395.104 396.458 406.217 396.458Z" fill="#F2F2F2"/>
<path d="M465.544 432.149H460.794C442.548 432.149 433.758 424.543 429.525 417.454C421.996 419.882 414.129 421.096 406.218 421.05C371.013 421.05 350.829 399.815 350.829 362.819V247.305C350.829 210.31 371.013 189.074 406.218 189.074C441.423 189.074 461.593 210.295 461.593 247.305V362.819C461.593 375.132 459.432 385.609 455.185 393.999C456.118 395.805 457.523 396.293 462.377 396.293H465.544C466.176 396.293 466.782 396.544 467.229 396.991C467.676 397.438 467.927 398.044 467.927 398.675V429.752C467.928 430.066 467.868 430.377 467.749 430.668C467.631 430.959 467.455 431.223 467.234 431.446C467.013 431.669 466.749 431.845 466.459 431.966C466.169 432.087 465.858 432.149 465.544 432.149ZM430.65 412.157C431.092 412.157 431.526 412.28 431.902 412.512C432.279 412.745 432.583 413.078 432.781 413.474C437.398 422.708 446.824 427.384 460.794 427.384H463.176V401.058H462.377C456.917 401.058 452.551 400.584 450.317 394.769C450.191 394.449 450.138 394.105 450.161 393.762C450.184 393.419 450.282 393.086 450.45 392.786C454.682 384.928 456.828 374.836 456.828 362.819V247.305C456.828 212.825 438.848 193.839 406.218 193.839C373.588 193.839 355.594 212.825 355.594 247.305V362.819C355.594 397.299 373.573 416.285 406.218 416.285C414.282 416.35 422.296 415.003 429.895 412.305C430.136 412.211 430.392 412.161 430.65 412.157ZM406.218 389.308C396.866 389.308 385.737 385.106 385.737 365.039V245.085C385.737 225.019 396.866 220.801 406.218 220.801C415.571 220.801 426.684 225.019 426.684 245.085V365.039C426.684 385.106 415.556 389.308 406.218 389.308ZM406.218 225.567C399.47 225.567 390.502 227.594 390.502 245.085V365.039C390.502 382.531 399.47 384.543 406.218 384.543C412.966 384.543 421.919 382.531 421.919 365.039V245.085C421.919 227.594 412.951 225.626 406.218 225.626V225.567Z" fill="#E6E6E6"/>
<path d="M21.8954 413.742H114.931C114.931 414.368 114.808 414.988 114.569 415.566C114.329 416.144 113.978 416.669 113.536 417.112C113.093 417.554 112.568 417.905 111.99 418.144C111.412 418.384 110.792 418.507 110.166 418.507H17.1304C17.1304 417.243 17.6324 416.031 18.526 415.138C19.4196 414.244 20.6316 413.742 21.8954 413.742Z" fill="#E6E6E6"/>
<path d="M470.161 413.742H563.123C564.387 413.742 565.599 414.244 566.493 415.138C567.386 416.031 567.888 417.243 567.888 418.507H474.926C474.3 418.507 473.681 418.384 473.103 418.144C472.525 417.905 471.999 417.554 471.557 417.112C471.114 416.669 470.763 416.144 470.524 415.566C470.284 414.988 470.161 414.368 470.161 413.742Z" fill="#E6E6E6"/>
<path d="M78.3352 2.95964C82.4155 2.95913 86.3845 4.28967 89.6401 6.74935C92.8956 9.20903 95.2599 12.6636 96.3742 16.5888H97.0993C100.2 16.6978 103.137 18.0061 105.291 20.2379C107.446 22.4697 108.65 25.4508 108.65 28.5531C108.65 31.6553 107.446 34.6364 105.291 36.8682C103.137 39.1001 100.2 40.4083 97.0993 40.5174H3.04214L39.2237 38.4456L38.2618 37.7057H8.54706L36.6636 36.0927C35.2258 34.3375 34.3171 32.2093 34.0437 29.9569C33.7702 27.7045 34.1433 25.4207 35.1194 23.3724C36.0954 21.3241 37.6341 19.5958 39.5558 18.3893C41.4774 17.1829 43.7027 16.5481 45.9716 16.5592C47.8255 16.5613 49.6537 16.9917 51.3138 17.817C51.6621 16.9536 52.2152 16.1879 52.9253 15.5858C53.6354 14.9837 54.4813 14.5633 55.39 14.3609C56.2988 14.1585 57.2431 14.1801 58.1416 14.4238C59.0402 14.6676 59.866 15.1262 60.5478 15.7601C61.7921 12.0341 64.176 8.79349 67.3627 6.49645C70.5493 4.19942 74.3774 2.96217 78.3056 2.95964M78.3056 6.87816e-06C74.3443 -0.00314592 70.4577 1.07764 67.0667 3.12528C63.6757 5.17293 60.9096 8.10938 59.068 11.6166C58.2709 11.3788 57.4433 11.2591 56.6115 11.2614C55.3758 11.2622 54.1545 11.5266 53.0291 12.0369C51.9037 12.5473 50.9002 13.2919 50.0855 14.221C47.4549 13.4534 44.6637 13.4253 42.0181 14.1397C39.3726 14.8541 36.9749 16.2835 35.0883 18.271C33.2017 20.2585 31.8991 22.7273 31.3234 25.4064C30.7476 28.0856 30.921 30.8716 31.8246 33.4587L8.38428 34.7313C7.67899 34.7703 7.01089 35.0602 6.50068 35.5487C5.99046 36.0372 5.67179 36.692 5.60223 37.395L2.87936 37.543C2.09442 37.5645 1.3502 37.8971 0.810429 38.4674C0.270653 39.0377 -0.0204657 39.799 0.0011202 40.584C0.0227061 41.3689 0.355229 42.1131 0.925531 42.6529C1.49583 43.1927 2.2572 43.4838 3.04214 43.4622H97.1733C101.029 43.5041 104.751 42.0513 107.559 39.4085C110.367 36.7657 112.042 33.1382 112.234 29.287C112.425 25.4358 111.118 21.6601 108.586 18.7519C106.054 15.8437 102.494 14.0289 98.6531 13.6883C97.0333 9.66083 94.2487 6.20825 90.6556 3.77239C87.0624 1.33653 82.8242 0.0281981 78.4832 0.0148082L78.3056 6.87816e-06Z" fill="white"/>
<path d="M528.185 55.4496C535.329 55.4476 542.279 57.7756 547.981 62.0805C553.682 66.3855 557.824 72.4325 559.779 79.3043C560.193 79.3043 560.607 79.3043 561.036 79.3043C563.786 79.3043 566.509 79.8459 569.05 80.8982C571.59 81.9505 573.899 83.4929 575.843 85.4373C577.787 87.3817 579.33 89.69 580.382 92.2305C581.434 94.771 581.976 97.4939 581.976 100.244C581.976 102.993 581.434 105.716 580.382 108.257C579.33 110.797 577.787 113.106 575.843 115.05C573.899 116.994 571.59 118.537 569.05 119.589C566.509 120.641 563.786 121.183 561.036 121.183H396.392L459.728 117.424C459.139 117.025 458.571 116.595 458.026 116.137L428.031 114.879L455.289 113.31C452.283 109.595 450.639 104.964 450.629 100.185C450.619 95.4063 452.244 90.7679 455.234 87.0401C458.224 83.3123 462.399 80.7193 467.066 79.6917C471.732 78.664 476.61 79.2636 480.89 81.3908C481.492 79.8741 482.457 78.5276 483.698 77.4685C484.94 76.4094 486.422 75.6697 488.015 75.3138C489.608 74.9579 491.264 74.9965 492.838 75.4264C494.413 75.8562 495.858 76.6642 497.049 77.7801C499.233 71.2632 503.406 65.5957 508.981 61.5763C514.557 57.5569 521.252 55.3881 528.125 55.3757M528.125 52.416C521.267 52.4126 514.552 54.3803 508.78 58.0847C503.008 61.7892 498.423 67.0744 495.569 73.311C493.873 72.5204 492.025 72.1112 490.153 72.1124C488.078 72.1216 486.035 72.6291 484.196 73.5922C482.357 74.5554 480.777 75.9459 479.587 77.6469C475.109 76.0444 470.255 75.8145 465.646 76.9866C461.036 78.1587 456.881 80.6795 453.712 84.2264C450.544 87.7732 448.505 92.1849 447.858 96.8968C447.211 101.609 447.985 106.407 450.08 110.676L427.883 111.949C427.129 111.994 426.421 112.326 425.904 112.876C425.386 113.426 425.099 114.154 425.101 114.909C425.115 115.433 425.268 115.943 425.544 116.389L396.244 118.061C395.459 118.082 394.715 118.415 394.175 118.985C393.635 119.555 393.344 120.317 393.366 121.102C393.387 121.887 393.72 122.631 394.29 123.171C394.861 123.71 395.622 124.002 396.407 123.98H561.036C567.308 123.997 573.334 121.548 577.817 117.162C582.299 112.775 584.877 106.803 584.996 100.532C585.114 94.2622 582.763 88.1966 578.45 83.644C574.137 79.0915 568.207 76.4167 561.939 76.1967C559.423 69.2605 554.835 63.2658 548.797 59.0251C542.759 54.7845 535.563 52.503 528.185 52.49L528.125 52.416Z" fill="white"/>
<path d="M208.16 172.445C208.16 179.74 189.618 191.993 166.725 191.993C143.833 191.993 125.291 179.74 125.291 172.445C125.291 165.149 143.833 174.546 166.725 174.546C189.618 174.546 208.16 165.164 208.16 172.445Z" fill="#86CCEB"/>
<path d="M157.713 103.912C156.9 106.105 156.489 108.425 156.5 110.764C156.5 118.755 161.102 125.236 166.77 125.236C172.437 125.236 177.054 118.755 177.054 110.764C177.067 108.424 176.651 106.102 175.826 103.912H157.713Z" fill="#E1A52B"/>
<path d="M183.092 166.273H151.734V180.273H183.092V166.273Z" fill="#242D50"/>
<path d="M184.276 129.839C182.161 128.683 179.959 127.694 177.691 126.879C175.321 126.112 172.883 125.572 170.41 125.266C169.211 125.103 167.998 124.985 166.785 124.822C165.586 124.985 164.372 125.103 163.159 125.266C160.686 125.572 158.249 126.112 155.878 126.879C153.624 127.671 151.433 128.631 149.323 129.75V168.122C149.323 168.21 149.323 168.299 149.323 168.373C149.528 169.094 149.853 169.774 150.285 170.386C150.717 170.891 151.315 171.227 151.972 171.333C154.032 171.864 156.148 172.147 158.276 172.176C160.673 172.176 163.085 172.428 165.482 172.369H166.711H167.939C170.351 172.369 172.748 172.221 175.16 172.176C177.283 172.147 179.394 171.864 181.45 171.333C182.106 171.227 182.704 170.891 183.137 170.386C183.574 169.777 183.9 169.096 184.098 168.373C184.142 168.263 184.176 168.149 184.202 168.033L184.276 129.839Z" fill="#2C456B"/>
<path d="M153.924 153.502H153.613L150.979 154.035C150.191 154.15 149.413 154.334 148.656 154.582C148.863 153.25 149.248 151.963 149.544 150.646C149.84 149.329 149.944 148.352 150.106 147.213C150.53 144.764 150.817 142.294 150.965 139.814C151.12 137.914 151.164 136.006 151.098 134.101C151.009 132.888 150.831 131.142 149.618 130.417C149.588 130.389 149.548 130.373 149.507 130.373C149.466 130.373 149.426 130.389 149.396 130.417L149.204 130.683C145.997 133.513 143.627 137.167 142.352 141.249C140.899 145.375 139.78 149.611 139.008 153.916C138.552 156.151 138.457 158.444 138.727 160.709C138.934 162.085 139.2 163.772 140.695 164.29C144.462 165.007 148.285 165.388 152.119 165.429L153.924 153.502Z" fill="#E2B38E"/>
<path d="M151.497 144.237C151.497 142.314 152.178 140.479 152.149 138.555C152.173 136.569 151.994 134.586 151.616 132.636C151.379 131.541 150.906 129.898 149.588 129.794C149.572 129.778 149.552 129.765 149.531 129.756C149.509 129.747 149.486 129.742 149.463 129.742C149.439 129.742 149.416 129.747 149.395 129.756C149.373 129.765 149.353 129.778 149.337 129.794C147.629 131.015 146.086 132.452 144.749 134.071C143.486 135.778 142.372 137.59 141.42 139.487C140.668 140.831 140.034 142.237 139.526 143.69C139.245 144.652 139.333 145.421 140.34 145.806C141.575 146.154 142.867 146.259 144.143 146.117C146.022 146.117 147.887 145.895 149.751 145.939C150.151 145.939 150.772 146.028 151.098 145.762C151.423 145.495 151.483 144.741 151.497 144.237Z" fill="#2C456B"/>
<path d="M179.643 153.502H179.954L182.588 154.035C183.381 154.152 184.163 154.335 184.926 154.582C184.719 153.25 184.319 151.963 184.023 150.646C183.727 149.329 183.639 148.352 183.461 147.213C183.052 144.762 182.765 142.293 182.603 139.814C182.455 137.913 182.41 136.007 182.47 134.101C182.558 132.888 182.736 131.142 183.949 130.417C183.979 130.389 184.019 130.373 184.06 130.373C184.102 130.373 184.141 130.389 184.171 130.417L184.378 130.683C187.576 133.518 189.94 137.171 191.215 141.249C192.669 145.375 193.787 149.611 194.56 153.916C195.022 156.15 195.117 158.444 194.841 160.709C194.648 162.085 194.382 163.772 192.887 164.29C189.12 165.005 185.297 165.387 181.463 165.429L179.643 153.502Z" fill="#E2B38E"/>
<path d="M182.47 145.717C182.889 145.916 183.36 145.978 183.816 145.894C185.681 145.894 187.56 146.042 189.425 146.072C190.701 146.214 191.992 146.109 193.228 145.761C194.234 145.376 194.323 144.607 194.042 143.645C193.533 142.192 192.899 140.786 192.148 139.442C191.195 137.545 190.081 135.733 188.818 134.026C187.481 132.408 185.939 130.97 184.231 129.75C184.214 129.733 184.195 129.72 184.173 129.711C184.151 129.702 184.128 129.697 184.105 129.697C184.081 129.697 184.058 129.702 184.037 129.711C184.015 129.72 183.996 129.733 183.979 129.75C182.662 129.853 182.188 131.496 181.952 132.591C181.578 134.541 181.405 136.524 181.434 138.51C181.434 140.434 182.011 142.269 182.07 144.193C182.085 144.74 182.07 145.465 182.47 145.717Z" fill="#2C456B"/>
<path d="M172.718 126.48C172.212 125.467 171.929 124.357 171.889 123.225C171.889 121.02 172.17 118.785 172.155 116.625C172.155 116.581 172.146 116.537 172.129 116.497C172.112 116.456 172.086 116.42 172.055 116.389C172.023 116.359 171.985 116.335 171.944 116.32C171.903 116.304 171.859 116.297 171.815 116.299C171.793 116.244 171.754 116.196 171.703 116.164C171.653 116.132 171.593 116.117 171.534 116.122C169.921 116.122 168.308 115.929 166.709 115.885C165.111 115.84 163.498 116.003 161.9 115.885C161.706 116.085 161.537 116.309 161.397 116.551C161.397 118.741 161.649 120.99 161.649 123.151C161.614 124.309 161.326 125.446 160.805 126.48C160.535 127.105 160.409 127.783 160.435 128.463C160.613 131.142 164.164 133.539 166.635 133.657H166.754H166.872C169.358 133.539 172.91 131.142 173.073 128.463C173.104 127.784 172.982 127.107 172.718 126.48Z" fill="#DDA681"/>
<path d="M177.454 110.572C177.093 110.448 176.703 110.442 176.339 110.553C175.975 110.665 175.655 110.889 175.426 111.193C175.444 109.589 175.265 107.989 174.893 106.428C174.93 106.376 174.949 106.314 174.949 106.251C174.949 106.187 174.93 106.125 174.893 106.073C173.31 103.113 170.646 102.24 167.494 102.24H166.177C162.951 102.24 160.258 103.158 158.689 106.073C158.649 106.123 158.626 106.186 158.626 106.251C158.626 106.315 158.649 106.378 158.689 106.428C158.305 107.987 158.121 109.588 158.142 111.193C157.58 110.66 156.869 110.202 156.129 110.572C155.389 110.942 155.375 112.051 155.449 112.747C155.576 113.49 155.805 114.212 156.129 114.893C156.264 115.55 156.482 116.186 156.78 116.787C156.962 117.039 157.211 117.236 157.499 117.354C157.787 117.471 158.102 117.506 158.408 117.453C158.623 118.476 159.058 119.44 159.681 120.279C161.161 122.173 163.425 125.34 165.911 125.991C166.104 126.046 166.303 126.081 166.503 126.095H167.065C167.266 126.082 167.464 126.047 167.657 125.991C170.143 125.34 172.481 122.173 173.887 120.279C174.511 119.44 174.945 118.476 175.16 117.453C175.468 117.505 175.786 117.47 176.076 117.353C176.366 117.235 176.617 117.039 176.802 116.787C177.089 116.183 177.303 115.547 177.439 114.893C177.769 114.214 177.999 113.492 178.119 112.747C178.208 112.022 178.238 110.971 177.454 110.572Z" fill="#E2B38E"/>
<path d="M185.089 147.967H148.479C148.219 147.966 147.962 148.022 147.725 148.129C147.488 148.237 147.278 148.395 147.108 148.592C146.938 148.788 146.812 149.019 146.74 149.269C146.667 149.519 146.65 149.781 146.688 150.039L149.648 171.318H183.772L186.821 150.039C186.856 149.787 186.838 149.53 186.768 149.285C186.699 149.041 186.578 148.814 186.415 148.618C186.252 148.423 186.05 148.264 185.821 148.152C185.593 148.04 185.344 147.977 185.089 147.967Z" fill="#E6E6E6"/>
<path d="M166.783 162.262C168.23 162.262 169.403 161.089 169.403 159.643C169.403 158.196 168.23 157.023 166.783 157.023C165.337 157.023 164.164 158.196 164.164 159.643C164.164 161.089 165.337 162.262 166.783 162.262Z" fill="white"/>
<path d="M207.049 184.932C205.82 184.205 204.365 183.958 202.965 184.237C200.597 184.355 198.274 184.414 195.906 184.311C194.723 184.244 193.537 184.244 192.354 184.311C191.907 184.336 191.462 184.39 191.023 184.473C190.644 184.578 190.281 184.732 189.942 184.932C189.931 184.92 189.918 184.909 189.902 184.903C189.887 184.896 189.87 184.892 189.854 184.892C189.837 184.892 189.82 184.896 189.805 184.903C189.79 184.909 189.776 184.92 189.765 184.932C189.198 185.397 188.699 185.94 188.285 186.545C187.795 187.064 187.449 187.702 187.279 188.395C187.249 188.819 187.249 189.244 187.279 189.668C187.22 189.956 187.22 190.253 187.279 190.541C187.387 190.729 187.539 190.889 187.722 191.007C187.905 191.126 188.113 191.199 188.329 191.221C189.01 191.384 189.661 191.577 190.327 191.799C191.232 192.018 192.163 192.112 193.094 192.08C195.24 192.08 197.371 192.08 199.517 192.08C202.595 192.08 206.797 192.154 207.966 188.587C208.209 187.958 208.251 187.269 208.087 186.614C207.923 185.96 207.56 185.372 207.049 184.932Z" fill="#6C3E3E"/>
<path d="M192.281 185.673C191.763 185.066 190.801 185.022 190.032 184.859L186.658 184.105C186.622 184.098 186.586 184.103 186.554 184.119C186.522 184.135 186.496 184.161 186.48 184.193C186.077 184.479 185.705 184.806 185.37 185.17C184.897 185.629 184.379 186.028 183.89 186.472C183.402 186.916 183.077 187.405 182.633 187.848C182.276 188.151 181.939 188.477 181.626 188.825C181.599 188.853 181.584 188.89 181.584 188.929C181.584 188.967 181.599 189.005 181.626 189.032L181.819 189.106C181.81 189.131 181.806 189.156 181.808 189.182C181.81 189.208 181.817 189.233 181.83 189.256C181.843 189.278 181.86 189.298 181.881 189.313C181.902 189.328 181.926 189.338 181.952 189.343C182.941 189.566 183.903 189.893 184.823 190.32C185.748 190.578 186.693 190.757 187.649 190.853C188.378 191.042 189.144 191.032 189.868 190.824C190.592 190.615 191.246 190.216 191.763 189.669C192.518 188.722 193.154 186.635 192.281 185.673Z" fill="#E2B38E"/>
<path d="M188.034 183.482C187.117 183.245 186.199 182.979 185.311 182.683C184.436 182.265 183.531 181.914 182.603 181.632C181.09 180.864 179.49 180.277 177.838 179.886C176.358 179.339 174.982 178.776 173.547 178.273C171.046 177.385 168.53 176.571 166.029 175.684C163.528 174.796 161.013 173.701 158.527 172.62C153.925 170.619 149.15 169.044 144.261 167.914C141.848 167.355 139.408 166.92 136.951 166.612C134.643 166.108 132.248 166.164 129.966 166.775C128.25 167.325 126.783 168.462 125.823 169.986C125.501 170.667 125.348 171.415 125.376 172.167C125.405 172.919 125.614 173.653 125.985 174.307C127.465 176.956 130.795 177.903 133.384 178.747C138.135 180.227 142.885 181.84 147.694 183.186C152.859 184.666 158.053 185.924 163.247 187.167C168.441 188.41 173.606 189.727 178.83 190.57C180.073 190.763 181.301 190.94 182.559 191.059C183.67 191.268 184.804 191.338 185.933 191.266C186.332 191.192 186.451 190.955 186.554 190.585C186.88 189.416 187.087 188.203 187.368 187.019C187.706 185.912 187.948 184.778 188.093 183.63C188.097 183.602 188.093 183.574 188.083 183.548C188.073 183.522 188.056 183.5 188.034 183.482Z" fill="#94D4F0"/>
<path d="M125.542 188.47C126.711 192.037 130.913 191.992 134.006 191.963C136.137 191.963 138.283 192.037 140.414 191.963C141.345 191.996 142.276 191.901 143.181 191.682C143.862 191.46 144.498 191.267 145.179 191.105C145.395 191.082 145.603 191.009 145.786 190.891C145.969 190.772 146.121 190.612 146.229 190.424C146.288 190.136 146.288 189.839 146.229 189.551C146.259 189.127 146.259 188.702 146.229 188.278C146.06 187.585 145.713 186.948 145.223 186.428C144.814 185.819 144.315 185.275 143.743 184.815C143.717 184.792 143.682 184.78 143.647 184.78C143.612 184.78 143.578 184.792 143.551 184.815C143.213 184.615 142.85 184.461 142.471 184.357C142.031 184.272 141.586 184.218 141.139 184.194C139.956 184.127 138.77 184.127 137.587 184.194C135.22 184.297 132.896 184.194 130.529 184.12C129.128 183.844 127.675 184.091 126.444 184.815C125.936 185.257 125.576 185.846 125.414 186.5C125.253 187.154 125.297 187.842 125.542 188.47Z" fill="#6C3E3E"/>
<path d="M141.775 189.639C142.288 190.187 142.94 190.586 143.662 190.795C144.383 191.003 145.147 191.013 145.874 190.823C146.83 190.727 147.775 190.549 148.7 190.29C149.62 189.864 150.582 189.536 151.571 189.314C151.598 189.312 151.624 189.303 151.647 189.289C151.669 189.274 151.688 189.255 151.701 189.231C151.715 189.208 151.722 189.181 151.722 189.154C151.723 189.128 151.717 189.101 151.704 189.077L151.897 189.003C151.924 188.975 151.939 188.938 151.939 188.899C151.939 188.861 151.924 188.823 151.897 188.796C151.584 188.448 151.247 188.122 150.891 187.819C150.447 187.375 150.091 186.872 149.647 186.443C149.204 186.014 148.641 185.599 148.168 185.141C147.833 184.777 147.461 184.449 147.058 184.164C147.048 184.131 147.025 184.103 146.994 184.087C146.964 184.07 146.928 184.066 146.895 184.075L143.506 184.83C142.781 184.993 141.775 185.037 141.257 185.644C140.413 186.635 141.065 188.722 141.775 189.639Z" fill="#E2B38E"/>
<path d="M145.415 183.63C145.567 184.777 145.81 185.91 146.14 187.019C146.436 188.203 146.629 189.416 146.954 190.585C147.058 190.955 147.191 191.192 147.591 191.266C148.719 191.337 149.853 191.267 150.965 191.059C152.208 190.94 153.451 190.763 154.679 190.57C159.932 189.727 165.038 188.395 170.261 187.167C175.485 185.939 180.62 184.622 185.814 183.186C190.638 181.854 195.374 180.315 200.124 178.747C202.788 177.888 206.162 176.941 207.523 174.307C207.895 173.653 208.104 172.919 208.132 172.167C208.16 171.415 208.007 170.667 207.686 169.986C206.728 168.46 205.26 167.322 203.542 166.775C201.261 166.164 198.866 166.108 196.558 166.612C194.1 166.92 191.66 167.355 189.247 167.914C184.363 169.042 179.592 170.617 174.997 172.62C172.496 173.701 170.039 174.781 167.479 175.684C164.919 176.586 162.463 177.385 159.977 178.273C158.497 178.776 157.106 179.339 155.67 179.886C154.022 180.275 152.427 180.861 150.92 181.632C149.991 181.912 149.086 182.263 148.212 182.683C147.309 182.979 146.392 183.245 145.474 183.482C145.454 183.501 145.438 183.523 145.427 183.549C145.417 183.575 145.413 183.603 145.415 183.63Z" fill="#A8DDFC"/>
<path d="M175.426 111.195C175.426 111.195 175.144 104.891 167.316 107.037C159.488 109.183 156.484 105.143 154.752 101.014C153.021 96.8853 163.454 87.6956 172.658 101.014C172.658 101.014 180.264 98.809 177.453 110.574C177.092 110.457 176.704 110.454 176.341 110.565C175.979 110.676 175.659 110.896 175.426 111.195Z" fill="#E1A52B"/>
<path d="M160.612 103.305H155.892C155.344 104.785 155.24 107.034 156.099 110.571C156.457 110.455 156.843 110.453 157.203 110.564C157.563 110.675 157.88 110.894 158.111 111.192C158.169 110.37 158.427 109.575 158.863 108.876C159.299 108.177 159.9 107.595 160.612 107.182V103.305Z" fill="#E1A52B"/>
<path d="M531.278 358.501L523.701 381.601L521.511 380.876L520.327 380.491L528.096 356.814L528.437 355.793L530.197 356.37C530.409 356.439 530.604 356.549 530.772 356.693C530.941 356.837 531.079 357.013 531.18 357.211C531.28 357.409 531.341 357.625 531.357 357.846C531.374 358.068 531.347 358.29 531.278 358.501Z" fill="#363636"/>
<path d="M528.777 358.812L521.511 381.009L520.327 380.624L528.096 356.947C528.392 357.146 528.617 357.434 528.74 357.769C528.862 358.104 528.875 358.469 528.777 358.812Z" fill="#94D4F0"/>
<path d="M502.08 401.43C501.503 401.829 500.911 402.214 500.349 402.628C499.15 403.487 497.996 404.389 496.827 405.262L495.688 406.135C494.311 407.29 484.145 412.913 482.739 413.993L509.554 413.505C510.696 413.762 511.879 413.79 513.033 413.588C514.187 413.386 515.289 412.958 516.277 412.328C517.265 411.698 518.118 410.879 518.788 409.918C519.457 408.956 519.93 407.872 520.179 406.727C518.595 405.114 505.084 401.652 504.567 399.891L502.08 401.43Z" fill="#D13C32"/>
<path d="M526.32 388.939C525.758 385.979 525.314 385.328 522.295 384.322C519.288 383.57 516.125 383.73 513.209 384.781C510.018 385.754 506.95 387.089 504.063 388.761C502.342 390.012 500.474 391.046 498.499 391.839C495.54 392.653 492.58 394.37 489.339 395.568C488.531 395.896 487.778 396.346 487.105 396.9C485.968 397.476 484.709 397.765 483.435 397.744C481.955 397.877 480.401 398.01 478.877 398.114C477.49 398.262 476.112 398.485 474.748 398.78C473.997 398.936 473.235 399.035 472.469 399.076C472.031 399.046 471.591 399.046 471.152 399.076C471.128 399.061 471.1 399.054 471.071 399.054C471.042 399.054 471.014 399.061 470.99 399.076H470.782C470.747 399.085 470.717 399.109 470.699 399.141C470.681 399.173 470.676 399.21 470.686 399.246C470.696 399.281 470.719 399.311 470.751 399.329C470.783 399.347 470.821 399.352 470.856 399.342H470.945C470.945 400.822 470.59 402.183 470.531 403.604C470.475 404.929 470.66 406.252 471.078 407.511C471.678 409.795 472.897 411.869 474.6 413.504C476.228 415.003 478.313 415.91 480.52 416.079C483.183 416.124 485.828 415.62 488.289 414.599C490.923 413.637 493.498 412.483 496.087 411.432C499.047 410.263 501.859 409.064 504.744 407.866C507.482 406.799 510.138 405.533 512.691 404.077C513.919 403.337 515.147 402.598 516.42 401.961C517.693 401.325 519.069 400.674 520.341 399.919C522.411 398.808 524.136 397.149 525.328 395.125C526.351 393.235 526.701 391.054 526.32 388.939Z" fill="#DA4A41"/>
<path d="M525.434 404.893C523.084 403.969 520.534 403.673 518.035 404.035C516.718 404.168 515.415 404.39 514.098 404.552C513.788 404.552 513.462 404.552 513.122 404.552C512.991 404.517 512.853 404.517 512.722 404.552C512.271 404.577 511.829 404.687 511.42 404.878C508.756 405.559 505.678 406.447 504.835 409.317C504.597 410.168 504.66 411.073 505.014 411.882C505.367 412.691 505.988 413.353 506.773 413.757C508.829 414.694 511.148 414.883 513.329 414.29C515.987 413.937 518.672 413.828 521.349 413.964C523.362 413.964 525.922 414.304 527.727 413.209C531.338 411.078 528.305 406.239 525.434 404.893Z" fill="#363636"/>
<path d="M505.87 410.354C505.87 409.333 505.973 408.327 506.033 407.32C505.428 407.879 504.983 408.589 504.745 409.377C504.529 410.067 504.52 410.805 504.72 411.5C504.92 412.194 505.32 412.815 505.87 413.284C505.855 412.307 505.84 411.331 505.87 410.354Z" fill="#4E4E4E"/>
<path d="M510.885 405.1C510.308 405.248 509.716 405.425 509.139 405.618C509.139 406.106 509.139 406.594 509.139 407.097C509.139 408.474 509.139 409.835 509.139 411.196C509.139 412.558 509.139 413.505 509.139 414.659C509.916 414.741 510.7 414.741 511.477 414.659C511.24 411.463 511.033 408.281 510.885 405.1Z" fill="#4E4E4E"/>
<path d="M516.242 410.323C516.242 408.296 516.242 406.283 516.242 404.256L514.215 404.537V414.289C514.94 414.185 515.695 414.141 516.405 414.097C516.316 412.839 516.272 411.581 516.242 410.323Z" fill="#4E4E4E"/>
<path d="M519.173 410.797C518.995 408.518 518.803 406.254 518.655 403.99H517.974L517.071 404.094C517.071 406.136 517.071 408.193 517.071 410.235L517.204 414.023C517.885 414.023 518.566 414.023 519.261 414.023C519.276 412.958 519.261 411.863 519.173 410.797Z" fill="#4E4E4E"/>
<path d="M522.103 413.134C522.103 410.174 522.103 407.052 522.103 404.003C521.252 403.919 520.397 403.895 519.543 403.929C519.691 406.208 519.898 408.472 520.076 410.751C520.164 411.846 520.179 412.956 520.194 414.066H521.289H522.147C522.103 413.8 522.103 413.459 522.103 413.134Z" fill="#4E4E4E"/>
<path d="M525.078 410.028C525.078 408.281 525.078 406.52 525.078 404.759C524.37 404.463 523.63 404.249 522.873 404.123C522.873 406.787 522.873 409.436 522.873 412.099C522.873 412.78 522.873 413.461 522.873 414.156C523.509 414.193 524.146 414.193 524.782 414.156C524.945 412.75 525.034 411.389 525.078 410.028Z" fill="#4E4E4E"/>
<path d="M528.259 407.395C528.17 408.327 528.066 409.274 527.992 410.206C527.918 411.139 527.815 412.234 527.741 413.269C530.005 411.804 529.591 409.348 528.259 407.395Z" fill="#4E4E4E"/>
<path d="M527.104 410.606C527.208 409.244 527.356 407.883 527.489 406.506C527.051 406.04 526.553 405.632 526.009 405.293C526.009 406.876 526.009 408.475 525.921 410.058C525.921 411.39 525.802 412.736 525.758 414.068C526.125 414.006 526.487 413.912 526.838 413.787C526.927 412.648 527.016 411.597 527.104 410.606Z" fill="#4E4E4E"/>
<path d="M508.251 410.412C508.251 408.932 508.251 407.452 508.251 405.973C507.811 406.157 507.386 406.375 506.979 406.624C506.979 407.852 506.831 409.08 506.786 410.309C506.742 411.537 506.786 412.721 506.786 413.919C507.25 414.176 507.749 414.366 508.266 414.482C508.192 413.135 508.222 411.774 508.251 410.412Z" fill="#4E4E4E"/>
<path d="M489.635 395.216C483.982 387.121 486.675 378.301 487.711 369.349C487.845 368.254 487.978 367.158 488.066 366.078C488.155 364.998 488.229 363.918 488.244 362.837C488.083 361.882 487.861 360.938 487.578 360.011C486.663 357.094 484.945 354.494 482.621 352.508C480.075 350.215 477.915 350.407 476.11 351.857C475.465 352.398 474.894 353.02 474.408 353.707C466.328 368.12 463.605 387.121 469.717 401.387C470.397 403.414 476.509 399.345 480.978 399.197C481.728 398.91 482.494 398.668 483.272 398.471C485.61 397.85 487.963 397.421 489.709 395.704C489.753 395.626 489.77 395.536 489.757 395.447C489.743 395.359 489.7 395.277 489.635 395.216Z" fill="#94D4F0"/>
<path d="M516.673 379.218C516.207 378.935 515.66 378.815 515.119 378.878C513.979 378.878 512.81 378.878 511.671 378.745C510.577 378.496 509.437 378.547 508.371 378.893C507.806 379.195 507.223 379.462 506.625 379.692C505.833 379.932 505.01 380.057 504.183 380.062C504.157 380.063 504.131 380.072 504.11 380.088C504.089 380.104 504.073 380.126 504.064 380.151C504.038 380.128 504.004 380.115 503.968 380.115C503.933 380.115 503.899 380.128 503.872 380.151C503.473 380.846 504.005 381.734 503.65 382.459C503.628 382.484 503.616 382.515 503.616 382.548C503.616 382.581 503.628 382.612 503.65 382.637C504.309 382.98 505.038 383.168 505.781 383.184C506.763 383.313 507.758 383.313 508.741 383.184C510.916 382.859 512.914 381.882 515.06 381.394C515.686 381.315 516.267 381.022 516.702 380.565C516.789 380.475 516.858 380.369 516.903 380.252C516.949 380.135 516.971 380.011 516.968 379.885C516.966 379.76 516.938 379.637 516.887 379.522C516.837 379.408 516.764 379.304 516.673 379.218Z" fill="#E6B28D"/>
<path d="M502.303 379.662C500.823 379.469 499.343 379.351 497.863 379.129C494.741 378.655 491.678 378.285 488.541 378.123L484.294 377.901C483.547 377.951 482.799 377.835 482.103 377.56H481.438C481.393 377.562 481.348 377.555 481.306 377.54C481.264 377.525 481.225 377.501 481.192 377.471C481.159 377.441 481.133 377.404 481.114 377.364C481.095 377.323 481.084 377.279 481.082 377.235C480.994 375.79 481.113 374.339 481.438 372.928C481.74 370.841 481.889 368.734 481.881 366.624C481.968 364.634 481.774 362.641 481.304 360.705C481.166 360.06 480.824 359.477 480.328 359.043C479.832 358.608 479.209 358.345 478.552 358.293C474.808 358.456 474.112 364.02 473.935 367.335C473.935 367.734 473.935 368.134 473.935 368.519C473.935 369.717 473.935 370.901 473.935 372.055C473.819 375.309 473.917 378.567 474.231 381.807C474.231 382.029 474.231 382.266 474.334 382.488C474.695 383.064 475.168 383.561 475.725 383.95C476.281 384.339 476.911 384.611 477.575 384.752C480.653 385.507 484.175 384.752 487.283 384.501C493.024 384.027 498.811 383.687 504.537 383.139C504.537 382.799 504.641 382.473 504.7 382.133C504.804 381.423 504.922 380.653 505.041 380.031C504.123 379.928 503.206 379.78 502.303 379.662Z" fill="#E6B28D"/>
<path d="M490.805 348.867C489.488 347.106 488.186 344.428 486.055 343.481C485.197 343.111 484.767 343.481 484.072 344.043C483.045 344.782 482.111 345.641 481.29 346.603C480.165 348.009 478.33 350.11 479.396 351.96C480.509 353.522 482.148 354.631 484.013 355.083C484.104 355.08 484.191 355.048 484.263 354.992C484.335 354.936 484.387 354.859 484.412 354.772C485.152 352.286 487.564 349.607 490.331 349.444C490.598 349.518 490.968 349.193 490.805 348.867Z" fill="#DDA681"/>
<path d="M495.096 349.356C497.049 346.707 497.434 343.288 499.121 340.965C499.491 340.536 499.861 340.122 500.201 339.678C500.294 339.677 500.383 339.644 500.454 339.585C500.525 339.526 500.573 339.444 500.591 339.353C500.608 339.263 500.594 339.169 500.55 339.088C500.506 339.006 500.435 338.943 500.349 338.908C499.88 338.7 499.38 338.571 498.87 338.523C493.661 338.716 489.576 329.97 485.314 332.752C484.975 332.983 484.663 333.251 484.382 333.551C477.886 340.358 481.067 350.169 489.872 354.831C490.671 355.26 491.737 353.721 492.299 353.144C492.828 352.577 493.322 351.979 493.779 351.353C494.27 350.723 494.711 350.055 495.096 349.356Z" fill="#E6B28D"/>
<path d="M482.088 377.501L483.213 362.6C483.25 361.901 483.145 361.202 482.904 360.546C482.662 359.889 482.29 359.289 481.808 358.781C481.327 358.273 480.748 357.869 480.105 357.593C479.462 357.316 478.77 357.174 478.071 357.174C477.371 357.174 476.679 357.316 476.036 357.593C475.394 357.869 474.814 358.273 474.333 358.781C473.852 359.289 473.479 359.889 473.238 360.546C472.996 361.202 472.891 361.901 472.928 362.6L473.461 378.596L482.088 377.501Z" fill="#A8DDFC"/>
<path d="M523.789 381.556L499.328 390.435L498.707 388.674C498.629 388.465 498.594 388.243 498.604 388.021C498.614 387.798 498.668 387.58 498.763 387.379C498.858 387.178 498.992 386.997 499.158 386.849C499.324 386.7 499.517 386.586 499.728 386.513L524.884 378.078L523.789 381.556Z" fill="#4E4E4E"/>
<path d="M491.205 342.431C491.205 342.431 501.874 347.95 506.299 342.431C510.724 336.911 495.615 311.606 477.59 330.592C459.566 349.578 448.986 365.279 459.196 374.557C459.196 374.557 462.748 378.124 466.951 376.037C466.951 376.037 470.695 355.394 478.996 357.377C487.298 359.36 489.547 354.373 491.205 342.431Z" fill="#4E4E4E"/>
<path d="M101.406 320.484C101.406 320.484 82.168 345.552 82.8487 351.738C83.5294 357.924 109.767 393.868 109.767 393.868V383.377L95.6935 352.3L106.481 342.208L101.406 320.484Z" fill="#001A62"/>
<path d="M111.468 407.762C111.757 407.762 112.044 407.705 112.312 407.594C112.579 407.484 112.822 407.321 113.027 407.116C113.232 406.912 113.394 406.669 113.505 406.401C113.616 406.134 113.673 405.847 113.673 405.557V392.846H109.233V405.602C109.249 406.183 109.492 406.734 109.909 407.138C110.327 407.542 110.887 407.766 111.468 407.762Z" fill="#E6B28D"/>
<path d="M118.897 322.954L114.309 404.196H108.301L99.6001 322.125L118.897 322.954Z" fill="#173C82"/>
<path d="M70.7737 279.803C70.7737 279.803 70.5814 273.455 68.0805 273.884L68.9092 275.497L67.8437 276.118L64.7657 270.199C64.7657 270.199 58.5061 270.791 69.2051 282.127L70.7737 279.803Z" fill="#E6B28D"/>
<path d="M67.8427 276.134L61.8643 264.947L63.0185 264.133L68.9082 275.513L67.8427 276.134Z" fill="#4D4D4D"/>
<path d="M103.388 256.704C105.933 257.547 107.501 260.64 107.575 263.156C107.576 263.24 107.603 263.321 107.654 263.388C107.705 263.455 107.776 263.503 107.857 263.526C109.704 263.595 111.512 262.979 112.932 261.795C114.412 260.315 113.228 257.917 112.533 256.334C112.007 255.234 111.351 254.2 110.579 253.256C110.062 252.59 109.766 252.102 108.878 252.235C106.658 252.56 104.779 254.751 103.106 256.053C102.796 256.275 103.092 256.704 103.388 256.704Z" fill="#DDA681"/>
<path d="M99.5708 257.518C99.8378 258.22 100.154 258.902 100.518 259.56C100.888 260.226 101.495 261.928 102.338 261.735C111.705 259.619 117.136 251.288 112.8 243.326C112.617 242.976 112.393 242.648 112.134 242.35C108.864 238.695 102.856 245.798 98.0762 244.303C97.5855 244.231 97.087 244.231 96.5964 244.303C96.518 244.33 96.4501 244.381 96.402 244.449C96.354 244.517 96.3281 244.597 96.3281 244.68C96.3281 244.763 96.354 244.844 96.402 244.912C96.4501 244.98 96.518 245.031 96.5964 245.058C96.8035 245.561 97.0551 246.034 97.2771 246.538C98.2685 249.142 97.7654 252.457 98.9197 255.416C99.0869 256.131 99.3045 256.834 99.5708 257.518Z" fill="#E6B28D"/>
<path d="M113.999 261.439C122.656 261.587 121.161 270.318 120.969 295.223C120.777 320.129 121.161 323.71 121.161 323.71C121.161 323.71 102.856 327.853 93.4297 321.253C93.4297 321.253 100.4 292.767 100.03 285.412C99.6597 278.057 103.093 261.247 113.999 261.439Z" fill="#4E4E4E"/>
<path d="M115.494 263.911C121.976 266.175 118.454 276.741 110.966 284.096C103.478 291.45 100.785 292.975 98.5208 292.975C96.2567 292.975 76.3235 290.341 67.9478 283.356L70.7742 279.39C70.7742 279.39 94.762 283.622 97.5737 281.846C100.385 280.071 105.313 260.315 115.494 263.911Z" fill="#FBD266"/>
<path d="M107.311 263.94C107.311 263.94 115.124 258.42 117.58 254.455C120.037 250.489 137.44 265.213 121.191 273.145C121.191 273.145 121.369 257.562 107.311 263.94Z" fill="#FBD266"/>
<path d="M106.052 247.825C106.052 247.825 94.3463 251.406 90.1288 243.844C85.9113 236.283 94.1095 235.735 95.7077 239.479C95.7077 239.479 107.65 227.211 111.986 237.718C111.986 237.718 123.824 240.678 112.518 256.378C111.782 256.072 111.119 255.613 110.573 255.031C110.027 254.45 109.611 253.759 109.352 253.004C109.352 253.004 113.569 249.66 109.825 247.085C109.825 247.085 106.969 246.375 107.916 250.903L106.333 251.569L106.052 247.825Z" fill="#4E4E4E"/>
<path d="M113.673 405.559C113.673 405.559 112.371 407.601 109.234 405.559C109.234 405.559 93.2663 405.159 90.8838 412.292H114.058C114.058 412.292 114.931 405.559 113.673 405.559Z" fill="#C1272D"/>
<path d="M90.9136 413.994H114.073V412.307H90.9136V413.994Z" fill="#333333"/>
<path d="M320.774 179.222C343.772 179.222 362.416 160.578 362.416 137.58C362.416 114.581 343.772 95.9375 320.774 95.9375C297.776 95.9375 279.132 114.581 279.132 137.58C279.132 160.578 297.776 179.222 320.774 179.222Z" fill="white"/>
<path d="M363.199 180.006L347.321 145.186L328.379 164.127L363.199 180.006Z" fill="white"/>
<path d="M314.633 125.407L313.921 116.546C314.589 116.722 315.169 116.81 315.661 116.81C316.822 116.81 317.657 116.37 318.167 115.491C318.694 114.594 318.958 113.179 318.958 111.245C318.958 108.995 318.773 107.377 318.404 106.393C318.053 105.408 317.402 104.916 316.453 104.916C315.011 104.916 314.29 106.199 314.29 108.766V111.351H307.011C307.011 107.553 307.873 104.652 309.596 102.648C311.319 100.643 313.666 99.6413 316.637 99.6413C319.661 99.6413 322.114 100.696 323.995 102.806C325.894 104.898 326.843 107.641 326.843 111.034C326.843 113.865 326.184 116.282 324.865 118.286C323.547 120.291 321.701 121.293 319.327 121.293L319.063 125.407H314.633ZM312.734 138.145V129.732H321.173V138.145H312.734Z" fill="#DA4A41"/>
<path d="M307.456 623.934C306.826 624.578 306.279 625.299 305.828 626.079L305.133 625.724C305.066 625.517 304.926 625.341 304.739 625.228C304.553 625.116 304.332 625.075 304.117 625.113C303.902 625.151 303.709 625.265 303.572 625.434C303.435 625.604 303.364 625.817 303.372 626.035C303.401 626.269 303.522 626.483 303.707 626.63C303.893 626.776 304.128 626.844 304.363 626.819C304.461 626.805 304.556 626.775 304.644 626.73L305.31 627.086C304.933 627.905 304.664 628.771 304.511 629.66L305.606 629.853C305.954 627.911 306.883 626.121 308.27 624.718L307.456 623.934Z" fill="#F8FAFB"/>
<path d="M315.579 620.53H314.824L314.721 619.598C314.867 619.483 314.98 619.332 315.05 619.16C315.12 618.987 315.143 618.799 315.117 618.615C315.092 618.431 315.019 618.257 314.905 618.109C314.791 617.962 314.641 617.847 314.469 617.776C314.298 617.705 314.11 617.68 313.926 617.704C313.741 617.728 313.566 617.8 313.418 617.912C313.27 618.024 313.154 618.174 313.081 618.345C313.008 618.516 312.982 618.703 313.004 618.888C313.025 619.069 313.092 619.241 313.198 619.389C313.304 619.536 313.446 619.654 313.611 619.731L313.714 620.649C312.658 620.823 311.631 621.147 310.666 621.611L311.154 622.617C312.539 621.953 314.058 621.613 315.594 621.626C316.329 621.625 317.063 621.7 317.784 621.848L318.021 620.752C317.216 620.597 316.398 620.522 315.579 620.53Z" fill="#F8FAFB"/>
<path d="M325.346 624.305C325.582 624.271 325.795 624.148 325.942 623.96C326.088 623.772 326.156 623.535 326.13 623.298C326.113 623.063 326.002 622.844 325.823 622.69C325.644 622.536 325.411 622.459 325.176 622.477C324.94 622.495 324.722 622.605 324.568 622.784C324.414 622.963 324.337 623.196 324.355 623.432L323.733 623.964C323.105 623.323 322.405 622.757 321.647 622.277L321.055 623.224C322.714 624.269 324.031 625.776 324.843 627.56L325.864 627.102C325.502 626.28 325.034 625.509 324.473 624.808L325.065 624.29L325.346 624.305Z" fill="#F8FAFB"/>
<path d="M314.706 635.64C314.143 635.64 313.566 635.64 313.004 635.64C311.776 635.647 310.548 635.558 309.334 635.374C308.697 635.282 308.068 635.139 307.455 634.944C308.347 636.516 309.685 637.788 311.299 638.6C312.913 639.413 314.731 639.73 316.525 639.512C318.319 639.294 320.008 638.55 321.38 637.374C322.752 636.197 323.746 634.642 324.236 632.902C323.104 633.622 321.879 634.185 320.595 634.575C318.679 635.153 316.703 635.51 314.706 635.64Z" fill="#F8FAFB"/>
<path d="M315.58 622.78C314.411 622.765 313.251 622.98 312.166 623.413C311.081 623.847 310.092 624.491 309.256 625.307C308.42 626.124 307.754 627.097 307.295 628.172C306.836 629.247 306.594 630.402 306.583 631.57C306.585 632.197 306.654 632.823 306.79 633.435C307.781 634.145 310.785 634.752 314.707 634.515C318.25 634.505 321.701 633.387 324.577 631.319C324.567 631.032 324.542 630.745 324.503 630.46C324.21 628.311 323.141 626.344 321.497 624.929C319.854 623.514 317.749 622.75 315.58 622.78ZM312.383 632.414C311.842 632.414 311.313 632.253 310.862 631.952C310.412 631.652 310.061 631.224 309.854 630.724C309.647 630.224 309.593 629.673 309.698 629.142C309.804 628.611 310.065 628.123 310.448 627.74C310.83 627.357 311.318 627.097 311.849 626.991C312.38 626.885 312.931 626.94 313.431 627.147C313.931 627.354 314.359 627.705 314.66 628.155C314.961 628.605 315.121 629.135 315.121 629.676C315.121 630.402 314.833 631.099 314.319 631.612C313.806 632.125 313.109 632.414 312.383 632.414ZM319.398 631.067C319 631.067 318.611 630.949 318.28 630.728C317.949 630.507 317.691 630.193 317.538 629.825C317.386 629.457 317.346 629.052 317.424 628.662C317.501 628.272 317.693 627.913 317.975 627.631C318.256 627.35 318.615 627.158 319.005 627.081C319.395 627.003 319.8 627.043 320.168 627.195C320.536 627.348 320.85 627.606 321.071 627.936C321.292 628.267 321.41 628.657 321.41 629.055C321.414 629.321 321.365 629.586 321.266 629.834C321.166 630.081 321.019 630.307 320.831 630.497C320.644 630.687 320.421 630.838 320.175 630.941C319.929 631.044 319.665 631.097 319.398 631.097V631.067Z" fill="#F8FAFB"/>
<path d="M339.271 625.533C338.625 625.248 337.918 625.131 337.214 625.193C336.4 625.282 335.971 625.696 335.971 626.673V627.96H339.271V630.491H335.971V638.571H333.115V630.491H331.132V627.96H333.115V626.658C333.045 626.128 333.092 625.589 333.254 625.079C333.416 624.569 333.688 624.101 334.051 623.708C334.414 623.315 334.859 623.008 335.355 622.806C335.85 622.605 336.384 622.516 336.918 622.544C337.724 622.534 338.524 622.685 339.271 622.988V625.533Z" fill="#F8FAFB"/>
<path d="M346.226 630.46C345.965 630.438 345.703 630.438 345.442 630.46C345.131 630.442 344.82 630.493 344.531 630.609C344.242 630.725 343.982 630.902 343.769 631.129C343.556 631.357 343.395 631.628 343.298 631.924C343.201 632.219 343.17 632.533 343.208 632.842V638.628H340.352V628.018H343.119V629.172C343.441 628.69 343.884 628.3 344.403 628.041C344.922 627.781 345.499 627.661 346.078 627.692C346.66 627.673 347.232 627.845 347.706 628.181L346.226 630.46Z" fill="#F8FAFB"/>
<path d="M357.621 633.242C357.638 633.562 357.638 633.883 357.621 634.204H350.088C350.18 634.85 350.514 635.437 351.022 635.846C351.531 636.255 352.175 636.456 352.826 636.409C353.81 636.388 354.756 636.027 355.504 635.388L357.177 637.237C355.932 638.328 354.317 638.9 352.663 638.836C351.184 638.855 349.757 638.286 348.697 637.254C347.637 636.221 347.03 634.81 347.01 633.331C346.991 631.851 347.56 630.424 348.592 629.364C349.624 628.304 351.036 627.697 352.515 627.678C353.225 627.679 353.926 627.828 354.575 628.114C355.225 628.401 355.807 628.818 356.287 629.341C356.767 629.864 357.133 630.48 357.362 631.152C357.592 631.823 357.68 632.535 357.621 633.242ZM350.044 632.265H354.661C354.596 631.687 354.32 631.152 353.886 630.764C353.452 630.376 352.89 630.162 352.308 630.162C351.726 630.162 351.164 630.376 350.73 630.764C350.296 631.152 350.02 631.687 349.955 632.265H350.044Z" fill="#F8FAFB"/>
<path d="M368.897 633.242C368.914 633.563 368.914 633.884 368.897 634.204H361.32C361.405 634.85 361.735 635.439 362.242 635.85C362.748 636.26 363.393 636.46 364.043 636.409C365.027 636.388 365.973 636.027 366.721 635.388L368.408 637.238C367.157 638.327 365.538 638.898 363.88 638.836C362.4 638.856 360.974 638.287 359.913 637.254C358.853 636.222 358.247 634.811 358.227 633.331C358.207 631.851 358.776 630.425 359.809 629.364C360.841 628.304 362.252 627.698 363.732 627.678C364.447 627.669 365.156 627.81 365.814 628.092C366.471 628.374 367.062 628.79 367.548 629.315C368.035 629.839 368.406 630.459 368.639 631.136C368.871 631.812 368.959 632.53 368.897 633.242ZM361.32 632.266H366.026C365.984 631.683 365.722 631.139 365.294 630.743C364.865 630.347 364.301 630.129 363.717 630.135C363.12 630.114 362.538 630.323 362.092 630.72C361.645 631.117 361.369 631.67 361.32 632.266Z" fill="#F8FAFB"/>
<path d="M381.298 633.256C381.342 633.963 381.243 634.672 381.006 635.339C380.769 636.007 380.4 636.619 379.92 637.14C379.441 637.662 378.861 638.08 378.215 638.372C377.569 638.663 376.871 638.82 376.163 638.835C375.572 638.859 374.984 638.747 374.443 638.509C373.901 638.27 373.422 637.911 373.041 637.459V642.934H370.2V627.958H372.997V629.127C373.368 628.646 373.849 628.26 374.4 628.002C374.951 627.745 375.556 627.623 376.163 627.648C376.874 627.662 377.575 627.821 378.222 628.114C378.87 628.407 379.452 628.828 379.932 629.352C380.412 629.877 380.78 630.493 381.015 631.164C381.25 631.835 381.347 632.547 381.298 633.256ZM372.908 633.256C372.951 633.787 373.148 634.293 373.474 634.713C373.801 635.134 374.243 635.45 374.746 635.623C375.249 635.796 375.792 635.819 376.308 635.688C376.824 635.558 377.291 635.279 377.651 634.888C378.011 634.496 378.25 634.008 378.337 633.483C378.424 632.958 378.357 632.419 378.142 631.931C377.928 631.444 377.576 631.03 377.13 630.74C376.684 630.449 376.163 630.295 375.631 630.296C375.247 630.287 374.866 630.358 374.512 630.506C374.158 630.653 373.84 630.874 373.577 631.154C373.314 631.433 373.114 631.765 372.988 632.127C372.863 632.489 372.815 632.874 372.849 633.256H372.908Z" fill="#F8FAFB"/>
<path d="M385.84 624.482C385.799 624.938 385.589 625.363 385.251 625.672C384.912 625.981 384.471 626.152 384.013 626.152C383.555 626.152 383.113 625.981 382.775 625.672C382.437 625.363 382.226 624.938 382.185 624.482C382.162 624.228 382.193 623.972 382.274 623.731C382.355 623.489 382.486 623.268 382.658 623.079C382.83 622.891 383.039 622.741 383.273 622.638C383.506 622.535 383.758 622.482 384.013 622.482C384.268 622.482 384.52 622.535 384.753 622.638C384.986 622.741 385.195 622.891 385.367 623.079C385.539 623.268 385.67 623.489 385.751 623.731C385.833 623.972 385.863 624.228 385.84 624.482ZM385.456 638.57H382.599V627.96H385.456V638.57Z" fill="#F8FAFB"/>
<path d="M390.176 631.733L394.172 627.959H397.679L392.529 632.946L397.709 638.57H394.201L390.176 634.278V638.57H387.365V622.795H390.176V631.733Z" fill="#F8FAFB"/>
<path d="M195.448 638.495V636.941C195.04 637.499 194.508 637.953 193.894 638.269C193.28 638.585 192.601 638.754 191.911 638.761C189.188 638.761 187.264 636.675 187.264 633.271C187.264 629.868 189.158 627.766 191.911 627.766C192.605 627.77 193.289 627.94 193.904 628.262C194.519 628.583 195.048 629.048 195.448 629.616V624.037H197.075V638.495H195.448ZM195.448 635.668V630.918C195.098 630.407 194.63 629.987 194.084 629.693C193.538 629.4 192.93 629.241 192.31 629.231C190.209 629.231 188.951 630.963 188.951 633.271C188.951 635.58 190.209 637.311 192.31 637.311C192.928 637.302 193.535 637.145 194.081 636.854C194.627 636.563 195.095 636.147 195.448 635.639V635.668Z" fill="#F8FAFB"/>
<path d="M199.177 633.228C199.146 632.526 199.255 631.825 199.499 631.166C199.743 630.507 200.117 629.903 200.599 629.391C201.081 628.88 201.66 628.469 202.303 628.185C202.946 627.901 203.639 627.749 204.342 627.738C207.509 627.738 209.373 630.21 209.373 633.362V633.776H200.894C200.904 634.261 201.009 634.74 201.204 635.184C201.399 635.628 201.68 636.03 202.031 636.365C202.381 636.701 202.795 636.964 203.247 637.139C203.7 637.314 204.182 637.398 204.668 637.387C205.874 637.389 207.033 636.916 207.894 636.07L208.678 637.135C208.124 637.667 207.47 638.082 206.753 638.357C206.036 638.631 205.272 638.759 204.505 638.733C203.785 638.753 203.068 638.623 202.401 638.351C201.734 638.079 201.131 637.671 200.63 637.153C200.129 636.636 199.741 636.019 199.491 635.344C199.241 634.668 199.134 633.948 199.177 633.228ZM204.312 629.085C203.399 629.104 202.53 629.481 201.891 630.134C201.252 630.786 200.894 631.664 200.894 632.577H207.76C207.772 632.119 207.692 631.663 207.523 631.237C207.355 630.811 207.102 630.423 206.78 630.097C206.458 629.771 206.073 629.513 205.649 629.339C205.225 629.165 204.771 629.079 204.312 629.085Z" fill="#F8FAFB"/>
<path d="M210.542 637.089L211.386 635.92C211.83 636.388 212.365 636.76 212.958 637.015C213.55 637.269 214.189 637.4 214.834 637.4C216.432 637.4 217.305 636.63 217.305 635.594C217.305 633.064 210.824 634.618 210.824 630.741C210.824 629.113 212.229 627.781 214.716 627.781C215.43 627.755 216.143 627.872 216.812 628.126C217.48 628.38 218.091 628.766 218.607 629.261L217.838 630.385C217.443 629.954 216.959 629.614 216.42 629.386C215.882 629.159 215.3 629.051 214.716 629.068C213.236 629.068 212.407 629.779 212.407 630.711C212.407 633.005 218.889 631.495 218.889 635.565C218.889 637.326 217.409 638.732 214.76 638.732C213.981 638.77 213.203 638.643 212.476 638.36C211.749 638.077 211.091 637.644 210.542 637.089Z" fill="#F8FAFB"/>
<path d="M220.707 625.428C220.705 625.284 220.732 625.142 220.785 625.008C220.838 624.874 220.917 624.753 221.017 624.65C221.118 624.546 221.237 624.464 221.369 624.407C221.502 624.351 221.644 624.32 221.787 624.318C222.081 624.322 222.361 624.44 222.568 624.648C222.775 624.855 222.893 625.135 222.897 625.428C222.895 625.572 222.865 625.714 222.808 625.846C222.751 625.978 222.669 626.098 222.566 626.198C222.463 626.299 222.341 626.378 222.208 626.431C222.074 626.484 221.931 626.51 221.787 626.508C221.501 626.508 221.226 626.395 221.024 626.192C220.821 625.989 220.707 625.715 220.707 625.428ZM220.988 638.465V628.003H222.616V638.495L220.988 638.465Z" fill="#F8FAFB"/>
<path d="M225.295 641.16L226.124 639.946C226.53 640.449 227.052 640.846 227.644 641.104C228.237 641.361 228.883 641.472 229.528 641.426C229.965 641.487 230.411 641.449 230.832 641.315C231.253 641.181 231.638 640.955 231.961 640.653C232.283 640.351 232.533 639.98 232.693 639.568C232.854 639.157 232.92 638.715 232.887 638.274V636.794C232.487 637.356 231.962 637.817 231.353 638.141C230.745 638.464 230.069 638.642 229.38 638.659C226.642 638.659 224.718 636.631 224.718 633.243C224.718 629.854 226.627 627.797 229.38 627.797C230.069 627.803 230.748 627.974 231.358 628.296C231.968 628.618 232.492 629.081 232.887 629.647V628.063H234.515V638.23C234.515 641.692 232.088 642.787 229.528 642.787C228.746 642.84 227.963 642.722 227.232 642.441C226.501 642.159 225.84 641.722 225.295 641.16ZM232.887 635.462V630.89C232.541 630.378 232.076 629.957 231.533 629.663C230.989 629.369 230.382 629.211 229.764 629.203C227.663 629.203 226.405 630.86 226.405 633.183C226.405 635.507 227.663 637.179 229.764 637.179C230.377 637.17 230.98 637.017 231.522 636.732C232.065 636.446 232.533 636.037 232.887 635.536V635.462Z" fill="#F8FAFB"/>
<path d="M244.282 638.494V631.658C244.282 629.808 243.35 629.231 241.944 629.231C241.34 629.251 240.75 629.407 240.214 629.686C239.679 629.965 239.213 630.361 238.851 630.844V638.494H237.223V628.032H238.851V629.512C239.315 628.972 239.886 628.534 240.528 628.226C241.17 627.917 241.868 627.746 242.58 627.721C243.037 627.658 243.503 627.703 243.94 627.852C244.377 628 244.773 628.249 245.097 628.579C245.42 628.908 245.662 629.308 245.803 629.748C245.945 630.188 245.981 630.654 245.91 631.11V638.509L244.282 638.494Z" fill="#F8FAFB"/>
<path d="M248.012 633.228C247.98 632.526 248.09 631.825 248.334 631.166C248.578 630.507 248.952 629.903 249.433 629.391C249.915 628.88 250.494 628.469 251.137 628.185C251.78 627.901 252.474 627.749 253.176 627.738C256.343 627.738 258.208 630.21 258.208 633.362V633.776H249.728C249.738 634.261 249.843 634.74 250.038 635.184C250.234 635.628 250.514 636.03 250.865 636.365C251.216 636.701 251.629 636.964 252.082 637.139C252.534 637.314 253.017 637.398 253.502 637.387C254.709 637.389 255.868 636.916 256.728 636.07L257.512 637.135C256.962 637.667 256.31 638.083 255.596 638.357C254.881 638.632 254.119 638.76 253.354 638.733C252.633 638.755 251.915 638.626 251.246 638.355C250.577 638.084 249.972 637.677 249.469 637.159C248.966 636.641 248.577 636.024 248.326 635.347C248.075 634.67 247.968 633.949 248.012 633.228ZM253.147 629.085C252.235 629.108 251.368 629.486 250.729 630.138C250.091 630.79 249.732 631.665 249.728 632.577H256.595C256.609 632.119 256.53 631.662 256.362 631.235C256.194 630.807 255.942 630.419 255.619 630.092C255.297 629.766 254.911 629.508 254.486 629.335C254.061 629.162 253.606 629.077 253.147 629.085Z" fill="#F8FAFB"/>
<path d="M267.869 638.495V636.941C267.462 637.499 266.93 637.953 266.316 638.269C265.702 638.585 265.023 638.754 264.332 638.761C261.609 638.761 259.671 636.675 259.671 633.271C259.671 629.868 261.58 627.766 264.332 627.766C265.025 627.777 265.706 627.95 266.32 628.271C266.934 628.592 267.465 629.053 267.869 629.616V624.037H269.497V638.495H267.869ZM267.869 635.668V630.918C267.516 630.409 267.048 629.991 266.503 629.698C265.958 629.405 265.351 629.245 264.732 629.231C262.631 629.231 261.373 630.963 261.373 633.271C261.373 635.58 262.631 637.311 264.732 637.311C265.349 637.298 265.955 637.14 266.5 636.849C267.045 636.559 267.514 636.144 267.869 635.639V635.668Z" fill="#F8FAFB"/>
<path d="M277.252 638.495V624.037H278.88V629.616C279.278 629.047 279.807 628.582 280.423 628.26C281.038 627.938 281.722 627.769 282.416 627.766C285.139 627.766 287.078 629.942 287.078 633.271C287.078 636.601 285.139 638.761 282.416 638.761C281.726 638.754 281.047 638.585 280.433 638.269C279.819 637.953 279.287 637.499 278.88 636.941V638.495H277.252ZM282.002 637.311C284.133 637.311 285.391 635.594 285.391 633.271C285.391 630.948 284.133 629.231 282.002 629.231C281.385 629.244 280.78 629.403 280.237 629.697C279.694 629.99 279.228 630.409 278.88 630.918V635.668C279.236 636.164 279.705 636.569 280.248 636.849C280.79 637.129 281.391 637.278 282.002 637.281V637.311Z" fill="#F8FAFB"/>
<path d="M288.853 641.1C289.137 641.207 289.437 641.262 289.74 641.263C290.087 641.292 290.432 641.198 290.716 640.998C291.001 640.798 291.205 640.504 291.294 640.168L291.99 638.585L287.55 628.004H289.311L292.804 636.587L296.266 628.004H298.042L292.804 640.597C292.59 641.237 292.174 641.791 291.619 642.175C291.065 642.559 290.4 642.753 289.726 642.728C289.321 642.721 288.919 642.666 288.527 642.565L288.853 641.1Z" fill="#F8FAFB"/>
</svg>
