<svg width="672" height="481" viewBox="0 0 672 481" fill="none" xmlns="http://www.w3.org/2000/svg">
<g clip-path="url(#clip0_25_24716)">
<path d="M181.509 393.424C191.947 389.194 549.431 62.0005 551.692 60.1543C552.46 59.5279 552.939 60.6356 553.219 62.8215C554.094 69.59 553.081 86.7074 552.853 94.5804C552.586 103.782 564.099 108.18 571.91 108.536C575.748 108.708 578.695 107.906 578.903 106.228C580.322 94.7123 585.833 11.6076 582.091 7.89525C580.012 5.84129 573.966 4.31483 565.799 3.18729C538.489 -0.584354 487.498 0.0618338 482.195 0.0519431C475.097 0.0519431 479.113 22.0884 484.139 23.2588C487.534 24.05 493.164 24.7918 499.17 25.5237L499.332 25.5435C503.394 26.0348 507.618 26.5326 511.439 27.0172C511.571 27.0172 511.7 27.0469 511.828 27.0667C520.078 28.1514 526.348 29.2789 524.751 30.5812C521.807 32.9879 148.23 329.237 138.818 335.794C131.756 340.707 175.83 395.722 181.509 393.424Z" fill="#E82C2E"/>
<path d="M421.503 432.846C430.317 429.114 617.653 252.147 619.551 250.548C620.211 250.004 620.617 250.944 620.871 252.796C621.706 258.54 621.069 273.102 620.98 279.795C620.874 287.621 630.721 291.208 637.367 291.406C640.631 291.502 643.126 290.783 643.281 289.342C644.333 279.534 647.927 208.819 644.686 205.713C642.891 203.996 637.733 202.779 630.777 201.929C607.513 199.083 564.178 200.307 559.67 200.369C553.638 200.452 557.344 219.142 561.631 220.068C564.525 220.698 569.323 221.252 574.438 221.796H574.573C578.035 222.162 581.632 222.521 584.885 222.89L585.215 222.927C592.251 223.738 597.587 224.615 596.247 225.745C593.779 227.826 392.335 378.705 384.438 384.402C378.511 388.684 416.705 434.867 421.503 432.846Z" fill="#E82C2E"/>
<path d="M96.2491 330.088C105.773 326.231 396.608 60.1323 398.671 58.4476C399.374 57.8772 399.809 58.8893 400.067 60.8807C400.865 67.059 399.938 82.6797 399.737 89.8636C399.492 98.2641 410.003 102.276 417.131 102.6C420.635 102.758 423.324 102.026 423.513 100.483C424.806 89.9724 429.848 14.134 426.42 10.7448C424.526 8.8689 419.008 7.47761 411.57 6.45887C386.646 3.01692 340.11 3.60705 335.273 3.59716C328.795 3.59716 332.461 23.7082 337.045 24.7764C340.143 25.4984 345.294 26.1743 350.762 26.8403L350.911 26.86C354.617 27.3084 358.471 27.7535 361.959 28.2052L362.312 28.2513C369.852 29.2404 375.565 30.269 374.106 31.4592C371.423 33.6516 65.8931 271.512 57.3133 277.496C50.8454 281.98 91.0682 332.188 96.2491 330.088Z" fill="#E82C2E"/>
<path d="M605.721 154.522C592.634 155.488 580.127 154.222 567.287 151.001C565.307 150.507 563.228 149.847 561.895 148.014C559.872 145.235 560.479 140.56 562.66 137.968C564.842 135.377 568.128 134.599 571.158 134.958C573.101 135.189 575.091 135.826 576.962 135.166C579.305 134.342 580.856 131.734 582.424 129.462C583.991 127.191 586.12 124.942 588.538 125.299C590.35 125.566 591.779 127.227 593.393 128.266C595.006 129.304 597.353 129.42 598.273 127.501C600.253 123.396 597.475 112.141 607.668 112.141C622.382 112.141 619.98 123.469 621.752 125.872C624.438 129.519 629.217 128.714 633.107 127.481C636.998 126.248 641.628 125.078 644.627 128.338C647.231 131.164 647.498 136.343 650.267 138.928C653.21 141.674 657.395 140.207 660.962 138.974C664.529 137.741 669.133 137.286 671.192 141.038C672.927 144.183 671.631 148.749 669.162 151.054C666.694 153.358 663.437 153.922 660.332 154.153C640.189 155.643 621.888 153.329 605.721 154.522Z" fill="white"/>
<path opacity="0.74" d="M99.4959 245.674C107.389 245.674 123.618 259.666 100.427 261.908C77.2346 264.15 42.5062 263.121 28.4518 263.167C5.51077 263.243 -0.178305 262.307 0.00319069 252.947C0.108788 247.527 3.10512 236.198 15.1993 234.778C27.7787 233.297 19.5651 244.009 34.923 244.421C48.0039 244.78 50.2578 232.054 63.0384 231.843C78.1586 231.589 75.3834 245.361 84.1381 247.606C93.7574 250.062 91.6025 245.674 99.4959 245.674Z" fill="white"/>
<path opacity="0.09" d="M143.639 400.961C108.693 402.692 58.9234 438.592 70.8098 454.568C94.4207 486.308 263.525 480.597 333.484 480.597C402.426 480.597 623.016 485.035 637.899 459.873C656.048 429.189 570.537 406.154 544.092 403.846C519.659 401.716 143.639 400.961 143.639 400.961Z" fill="#32323F"/>
<path d="M531.423 123.736H161.908C156.748 123.736 152.565 127.915 152.565 133.07V388.559C152.565 393.714 156.748 397.893 161.908 397.893H531.423C536.583 397.893 540.765 393.714 540.765 388.559V133.07C540.765 127.915 536.583 123.736 531.423 123.736Z" fill="#303035"/>
<path d="M523.731 130.676H169.316C164.156 130.676 159.974 134.855 159.974 140.009V368.095C159.974 373.25 164.156 377.428 169.316 377.428H523.731C528.89 377.428 533.073 373.25 533.073 368.095V140.009C533.073 134.855 528.89 130.676 523.731 130.676Z" fill="#F7F7F7"/>
<path d="M98.3181 436.212C105.462 436.374 597.452 433.819 598.003 438.444C598.554 443.07 600.973 457.876 586.677 458.391C572.382 458.905 133.832 457.55 109.538 457.369C95.6914 457.263 95.0182 436.143 98.3181 436.212Z" fill="#48485B"/>
<path d="M97.9517 436.357C113.712 422.201 144.989 388.467 153.526 388.467C164.861 388.467 537.04 388.266 540.854 388.266C543.92 388.266 597.943 438.434 597.943 438.434L97.9517 436.357Z" fill="#99999D"/>
<path d="M174.989 394.931L160.878 411.785C160.602 412.116 160.426 412.518 160.371 412.945C160.315 413.371 160.383 413.805 160.565 414.195C160.748 414.585 161.038 414.915 161.401 415.146C161.765 415.377 162.186 415.5 162.617 415.501H534.958C535.423 415.5 535.876 415.357 536.257 415.09C536.638 414.823 536.927 414.446 537.086 414.009C537.244 413.572 537.264 413.096 537.142 412.648C537.02 412.199 536.764 411.799 536.406 411.501L515.577 394.147C515.17 393.806 514.656 393.619 514.125 393.619L176.724 394.12C176.393 394.12 176.066 394.193 175.766 394.333C175.466 394.473 175.201 394.678 174.989 394.931Z" fill="#2F2F44"/>
<path opacity="0.37" d="M278.745 418.462L267.202 432.701L423.711 433.14L413.712 417.496L278.745 418.462Z" fill="#48485B"/>
<path opacity="0.91" d="M305.474 437.109C306.233 438.919 308.371 443.423 313.318 443.647C318.265 443.871 378.231 443.799 380.785 443.799C385.095 443.799 386.85 437.436 386.85 437.436L305.474 437.109Z" fill="#C6C6CA"/>
<g opacity="0.18">
<path d="M216.046 140.312V148.631V178.329V208.027V237.726V267.424V297.123V326.821V356.519V365.886" stroke="#4C4C4C" stroke-width="1.62" stroke-miterlimit="10"/>
<path d="M245.772 366.225V365.886V356.519V326.821V297.123V267.424V237.726V208.027V178.329V148.631V140.312" stroke="#4C4C4C" stroke-width="1.62" stroke-miterlimit="10"/>
<path d="M275.498 366.225V365.886V356.519V326.821V297.123V267.424V237.726V208.027V178.329V148.631V140.312" stroke="#4C4C4C" stroke-width="1.62" stroke-miterlimit="10"/>
<path d="M305.223 366.225V365.886V356.519V326.821V297.123V267.424V237.726V208.027V178.329V148.631V140.312" stroke="#4C4C4C" stroke-width="1.62" stroke-miterlimit="10"/>
<path d="M334.949 366.225V365.886V356.519V326.821V297.123V267.424V237.726V208.027V178.329V148.631V140.312" stroke="#4C4C4C" stroke-width="1.62" stroke-miterlimit="10"/>
<path d="M364.675 366.225V365.886V356.519V326.821V297.123V267.424V237.726V208.027V178.329V148.631V140.312" stroke="#4C4C4C" stroke-width="1.62" stroke-miterlimit="10"/>
<path d="M394.4 366.225V365.886V356.519V326.821V297.123V267.424V237.726V208.027V178.329V148.631V140.312" stroke="#4C4C4C" stroke-width="1.62" stroke-miterlimit="10"/>
<path d="M424.126 366.225V365.886V356.519V326.821V297.123V267.424V237.726V208.027V178.329V148.631V140.312" stroke="#4C4C4C" stroke-width="1.62" stroke-miterlimit="10"/>
<path d="M453.852 366.225V365.886V356.519V326.821V297.123V267.424V237.726V208.027V178.329V148.631V140.312" stroke="#4C4C4C" stroke-width="1.62" stroke-miterlimit="10"/>
<path d="M483.578 366.225V365.886V356.519V326.821V297.123V267.424V237.726V208.027V178.329V148.631V140.312" stroke="#4C4C4C" stroke-width="1.62" stroke-miterlimit="10"/>
<path d="M499.869 356.52H499.813H483.578H453.852H424.126H394.4H364.675H334.949H305.223H275.498H245.772H216.046H198.771" stroke="#4C4C4C" stroke-width="1.62" stroke-miterlimit="10"/>
<path d="M499.869 326.82H499.813H483.578H453.852H424.126H394.4H364.675H334.949H305.223H275.497H245.772H197.636" stroke="#4C4C4C" stroke-width="1.62" stroke-miterlimit="10"/>
<path d="M499.869 297.123H499.813H483.578H453.852H424.126H394.4H364.675H334.949H305.223H275.498H245.772H216.046H198.771" stroke="#4C4C4C" stroke-width="1.62" stroke-miterlimit="10"/>
<path d="M499.869 267.424H499.813H483.578H453.852H424.126H394.4H364.675H334.949H305.223H275.498H245.772H216.046H198.771" stroke="#4C4C4C" stroke-width="1.62" stroke-miterlimit="10"/>
<path d="M499.869 237.727H499.813H483.578H453.852H424.126H394.4H364.675H334.949H305.223H275.498H245.772H216.046H198.771" stroke="#4C4C4C" stroke-width="1.62" stroke-miterlimit="10"/>
<path d="M499.869 208.027H499.813H483.578H453.852H424.126H394.4H364.675H334.949H305.223H275.498H245.772H216.046H198.771" stroke="#4C4C4C" stroke-width="1.62" stroke-miterlimit="10"/>
<path d="M499.869 178.328H499.813H483.578H453.852H424.126H394.4H364.675H334.949H305.223H275.498H245.772H216.046H198.771" stroke="#4C4C4C" stroke-width="1.62" stroke-miterlimit="10"/>
<path d="M499.869 148.631H499.813H483.578H453.852H424.126H394.4H364.675H334.949H305.223H275.498H245.772H216.046H198.771" stroke="#4C4C4C" stroke-width="1.62" stroke-miterlimit="10"/>
</g>
<path d="M287.437 301.83C286.806 302.994 270.462 303.359 269.129 301.83C267.796 300.3 268.495 269.158 269.129 268.337C269.762 267.516 286.315 266.876 287.437 268.337C288.559 269.797 288.067 300.663 287.437 301.83Z" fill="#CD2B31"/>
<path d="M277.966 260.561L278.811 308.906" stroke="#CD2B31" stroke-width="5.23" stroke-linecap="round" stroke-linejoin="round"/>
<path d="M400.707 264.908C400.073 266.072 383.729 266.441 382.395 264.908C381.062 263.375 381.554 246.673 382.184 245.852C382.814 245.031 399.373 244.392 400.495 245.852C401.617 247.313 401.337 263.744 400.707 264.908Z" fill="#CD2B31"/>
<path d="M391.024 238.074L392.077 271.986" stroke="#CD2B31" stroke-width="5.23" stroke-linecap="round" stroke-linejoin="round"/>
<path d="M424.585 280.639C423.954 281.802 407.61 282.172 406.277 280.639C404.944 279.106 405.435 262.404 406.066 261.583C406.696 260.762 423.252 260.122 424.377 261.583C425.502 263.043 425.218 279.475 424.585 280.639Z" fill="#CD2B31"/>
<path d="M414.906 253.805L415.959 287.717" stroke="#CD2B31" stroke-width="5.23" stroke-linecap="round" stroke-linejoin="round"/>
<path d="M265.179 281.314C264.549 282.478 248.204 282.847 246.871 281.314C245.538 279.781 246.237 248.645 246.871 247.821C247.504 246.996 264.057 246.363 265.179 247.821C266.301 249.278 265.812 280.15 265.179 281.314Z" fill="#CD2B31"/>
<path d="M255.711 240.043L256.552 288.392" stroke="#CD2B31" stroke-width="5.23" stroke-linecap="round" stroke-linejoin="round"/>
<path d="M378.026 256.791C377.396 257.958 361.051 258.324 359.718 256.791C358.385 255.258 359.084 224.122 359.718 223.301C360.352 222.481 376.904 221.841 378.026 223.301C379.148 224.762 378.66 255.634 378.026 256.791Z" fill="#419F81"/>
<path d="M368.559 215.531L369.4 263.877" stroke="#419F81" stroke-width="5.23" stroke-linecap="round" stroke-linejoin="round"/>
<path d="M241.597 258.77C240.967 259.934 224.623 260.303 223.289 258.77C221.956 257.237 222.105 206.488 222.738 205.667C223.372 204.846 239.924 204.206 241.046 205.667C242.168 207.127 242.231 257.609 241.597 258.77Z" fill="#419F81"/>
<path d="M231.576 197.893L232.972 265.851" stroke="#419F81" stroke-width="5.23" stroke-linecap="round" stroke-linejoin="round"/>
<path d="M310.447 343.258C310.117 343.835 305.979 344.218 301.692 344.27C297.317 344.323 292.809 344.036 292.122 343.258C290.878 341.831 290.647 297.145 291.132 290.548C291.131 290.276 291.17 290.006 291.248 289.746C291.578 289.331 296.053 289.067 300.547 289.087C301.072 289.087 301.593 289.087 302.111 289.113C305.926 289.199 309.391 289.512 309.879 290.149C311.018 291.616 311.077 342.094 310.447 343.258Z" fill="#CD2B31"/>
<path d="M301.818 350.338L301.696 344.271L300.58 289.886L300.564 289.098L300.554 288.633L300.425 282.379" stroke="#CD2B31" stroke-width="5.23" stroke-linecap="round" stroke-linejoin="round"/>
<path d="M217.676 269.32C217.046 270.484 200.698 270.85 199.365 269.32C198.032 267.791 198.523 243.825 199.157 243.005C199.79 242.184 216.343 241.544 217.465 243.005C218.587 244.465 218.306 268.14 217.676 269.32Z" fill="#419F81"/>
<path d="M207.994 235.213L209.047 276.381" stroke="#419F81" stroke-width="5.23" stroke-linecap="round" stroke-linejoin="round"/>
<path d="M332.517 301.917C331.883 303.081 315.539 303.45 314.206 301.917C312.872 300.384 313.364 276.425 313.998 275.601C314.143 275.41 315.169 275.225 316.664 275.08C321.446 274.605 331.039 274.49 332.24 275.535C332.265 275.554 332.287 275.576 332.306 275.601C333.428 277.062 333.147 300.753 332.517 301.917Z" fill="#419F81"/>
<path d="M322.835 267.822L323.888 308.994" stroke="#419F81" stroke-width="5.23" stroke-linecap="round" stroke-linejoin="round"/>
<path d="M446.292 265.894C445.658 267.058 429.314 267.427 427.98 265.894C426.647 264.361 427.139 240.403 427.769 239.578C428.399 238.754 444.958 238.121 446.08 239.578C447.202 241.036 446.922 264.73 446.292 265.894Z" fill="#419F81"/>
<path d="M436.61 231.801L437.663 272.972" stroke="#419F81" stroke-width="5.23" stroke-linecap="round" stroke-linejoin="round"/>
<path d="M468.444 244.507C467.814 245.67 451.469 246.04 450.136 244.507C448.803 242.973 449.295 219.015 449.925 218.194C450.555 217.373 467.111 216.733 468.233 218.194C469.355 219.655 469.078 243.343 468.444 244.507Z" fill="#419F81"/>
<path d="M458.766 210.414L459.818 251.586" stroke="#419F81" stroke-width="5.23" stroke-linecap="round" stroke-linejoin="round"/>
<path d="M355.95 277.543C355.316 278.706 338.972 279.072 337.639 277.543C336.305 276.013 336.797 252.051 337.427 251.227C338.058 250.403 354.617 249.77 355.739 251.227C356.861 252.684 356.58 276.379 355.95 277.543Z" fill="#419F81"/>
<path d="M346.268 243.449L347.32 284.621" stroke="#419F81" stroke-width="5.23" stroke-linecap="round" stroke-linejoin="round"/>
<path d="M490.412 226.039C489.781 227.203 473.434 227.569 472.1 226.039C470.767 224.509 471.47 182.19 472.1 181.363C472.731 180.535 489.29 179.905 490.412 181.363C491.534 182.82 491.042 224.872 490.412 226.039Z" fill="#419F81"/>
<path d="M480.941 173.584L481.782 233.116" stroke="#419F81" stroke-width="5.23" stroke-linecap="round" stroke-linejoin="round"/>
<path opacity="0.2" d="M302.293 289.173C302.161 289.466 301.514 289.701 300.58 289.885C298.069 290.376 293.469 290.512 291.149 290.545C291.148 290.273 291.187 290.003 291.264 289.743C291.594 289.328 296.069 289.064 300.564 289.084V288.619L302.138 289.11L302.293 289.173Z" fill="#1F1F39"/>
<path opacity="0.2" d="M332.247 275.535C329.069 275.832 321.142 275.38 316.671 275.08C321.446 274.596 331.039 274.49 332.247 275.535Z" fill="#1F1F39"/>
<path opacity="0.15" d="M151.291 130.083C138.234 129.862 220.653 137.362 220.092 120.564L183.664 126.829C181.885 127.076 152.628 129.159 151.291 130.083Z" fill="#0A0A0A"/>
<path d="M162.3 197.537C160.472 194.711 156.829 187.092 156.829 187.092L164.94 182.941L170.306 194.431L166.696 200.573L162.3 197.537Z" fill="white"/>
<path d="M161.007 196.591C160.05 196.838 160.842 197.425 161.224 198.806C162.099 201.968 151.493 207.559 150.031 208.644C149.279 209.201 150.279 213.995 154.394 211.842C157.951 209.979 169.372 204.058 173.253 201.994C173.642 201.797 173.953 201.473 174.133 201.075C174.313 200.678 174.351 200.231 174.243 199.808C173.408 196.752 170.83 192.671 169.692 193.145C167.758 193.492 164.993 195.565 161.007 196.591Z" fill="#221B2E"/>
<path d="M183.651 176.378C180.951 174.281 174.883 168.228 174.883 168.228L181.11 161.77L190.138 170.945L188.845 177.868L183.651 176.378Z" fill="white"/>
<path d="M182.1 175.89C181.278 176.421 182.229 176.727 183.067 177.911C184.981 180.624 176.893 189.229 175.886 190.709C175.365 191.474 177.965 195.688 181.11 192.358C183.826 189.486 192.571 180.311 195.524 177.149C195.825 176.836 196.008 176.428 196.041 175.995C196.074 175.562 195.956 175.131 195.706 174.776C193.864 172.138 190.026 169.098 189.106 169.906C187.419 170.849 185.522 173.671 182.1 175.89Z" fill="#221B2E"/>
<path d="M213.142 100.189C181.625 100.78 142.365 102.359 138.274 110.446C133.07 120.722 174.111 179.186 178.714 175.065C183.317 170.944 190.594 167.38 188.442 164.795C186.291 162.211 148.797 119.994 156.651 119.272C164.505 118.55 209.671 120.343 212.42 118.283C215.168 116.222 213.142 100.189 213.142 100.189Z" fill="#3B3B4F"/>
<path opacity="0.18" d="M213.142 100.189C181.625 100.78 142.365 102.359 138.274 110.446C133.07 120.722 174.111 179.186 178.714 175.065C183.317 170.944 190.594 167.38 188.442 164.795C186.291 162.211 148.797 119.994 156.651 119.272C164.505 118.55 209.671 120.343 212.42 118.283C215.168 116.222 213.142 100.189 213.142 100.189Z" fill="#0A0A0A"/>
<path d="M220.847 100.391C222.497 105.459 224.457 114.779 220.092 120.565C217.712 123.717 213.452 125.817 206.232 125.609C194.88 125.28 145.972 130.456 146.639 132.806C147.305 135.157 170.728 187.393 169.144 190.172C167.56 192.952 156.875 197.145 155.558 194.346C154.242 191.547 124.777 132.325 131.39 122.893C136.96 114.944 191.204 106.738 196.144 103.461C201.084 100.184 220.847 100.391 220.847 100.391Z" fill="#3B3B4F"/>
<path d="M100.001 100.311C99.8425 102.058 99.2683 105.282 100.466 106.496C101.664 107.709 118.22 121.239 124.001 122.406C130.802 123.775 152.41 115.499 152.849 115.344C154.014 114.932 154.862 107.34 153.437 103.106C152.199 99.4237 149.625 96.0971 149.285 95.6389C148.945 95.1806 138.983 101.54 138.983 101.54L135.204 115.236L100.001 100.311Z" fill="#3B3B4F"/>
<path d="M147.388 93.3314C155.859 102.368 153.328 113.851 152.067 114.277C137.69 119.09 130.377 121.269 126.598 121.118C122.82 120.966 100.199 109.034 99.8229 102.655C99.5127 97.6338 105.654 83.6484 105.654 83.6484C105.654 83.6484 121.164 99.2955 125.533 97.736C129.902 96.1766 145.623 91.4489 147.388 93.3314Z" fill="#545468"/>
<path d="M106.344 86.0957C104.779 89.8706 100.612 101.087 101.536 102.953C104.304 108.557 122.51 118.969 122.655 117.614C122.8 116.259 123.975 99.1514 122.764 98.7327C119.147 97.5194 106.344 86.0957 106.344 86.0957Z" fill="white"/>
<path d="M126.05 99.1373C126.522 106.015 125.453 117.056 126.631 117.702C127.809 118.348 143.055 115.358 143.537 114C144.018 112.641 141.342 96.2954 140.722 96.0679C140.101 95.8404 126.05 99.1373 126.05 99.1373Z" fill="#3B3B4F"/>
<path d="M143.458 101.442C144.204 104.959 144.352 107.927 145.411 108.194C146.471 108.461 151.288 107.534 151.529 106.944C151.77 106.354 150.635 100.469 149.064 98.9953C148.408 98.3788 142.831 98.5404 143.458 101.442Z" fill="#3B3B4F"/>
<path d="M144.791 94.2285C142.567 95.0363 143.761 94.4263 140.999 95.877C138.326 97.288 135.171 97.4891 132.393 97.5254C130.129 97.5518 125.856 100.624 124.978 103.644C124.186 106.364 129.875 103.509 131.614 103.447C138.3 103.206 134.139 105.817 136.013 106.796C137.887 107.775 136.775 104.449 141.623 102.51C144.537 101.353 146.094 101.689 147.12 100.832C148.147 99.975 144.791 94.2285 144.791 94.2285Z" fill="#EFAEA6"/>
<path d="M172.876 83.8061C170.649 88.1514 139.778 94.7024 138.682 95.4541C137.861 96.0178 141.652 103.759 144.536 103.502C146.909 103.291 186.792 94.6002 186.234 85.7645C185.812 79.0883 192.659 50.6592 192.659 50.6592C192.659 50.6592 177.74 43.8346 178.869 50.6031C179.159 52.2681 173.975 81.6698 172.876 83.8061Z" fill="#006BAF"/>
<path d="M186.684 51.936L194.887 48.349C194.151 44.973 192.069 38.9694 190.795 36.0846C189.937 34.1667 188.578 32.5144 186.862 31.3008L185.789 34.9109L182.328 36.889C182.328 36.889 182.658 36.889 183.047 37.8187C183.687 39.365 184.806 44.2147 182.697 47.05C181.387 48.8172 186.684 51.936 186.684 51.936Z" fill="#EFAEA6"/>
<path opacity="0.14" d="M183.123 37.9575C183.664 39.5228 183.939 41.1677 183.935 42.8238C189.185 43.8623 190.026 38.8675 188.264 36.4542C187.604 35.5475 185.789 34.898 185.789 34.898C185.789 34.898 181.935 34.6244 183.123 37.9575Z" fill="#19193B"/>
<path opacity="0.18" d="M172.876 83.8061C170.649 88.1514 139.778 94.7024 138.682 95.4541C137.861 96.0178 141.652 103.759 144.536 103.502C146.909 103.291 186.792 94.6002 186.234 85.7645C185.812 79.0883 192.659 50.6592 192.659 50.6592C192.659 50.6592 177.74 43.8346 178.869 50.6031C179.159 52.2681 173.975 81.6698 172.876 83.8061Z" fill="#0A0A0A"/>
<path d="M174.012 31.255C175.061 33.6156 174.893 39.217 176.483 38.4225C178.074 37.6279 178.698 43.4139 180.423 42.626C184.608 40.7204 187.967 35.8805 187.452 33.7244C186.938 31.5682 183.72 26.3789 183.72 26.3789L174.012 31.255Z" fill="#EFAEA6"/>
<path d="M179.46 31.331C178.245 32.119 178.368 32.4322 177.226 32.4619C176.084 32.4916 176.995 30.5101 175.153 31.0805C173.312 31.6508 171.395 32.4751 170.204 30.7013C168.468 28.1364 171.194 27.3253 172.893 26.8736C173.992 26.5835 173.101 24.401 175.127 23.5108C176.714 22.8119 177.011 23.7713 178.457 23.2075C179.331 22.8778 180.235 20.7447 182.067 21.0612C185.462 21.6514 184.657 24.8461 187.713 25.7593C191.28 26.8209 188.465 34.2554 187.522 34.0015C186.419 33.6982 186.231 30.8563 185.192 30.6848C183.624 30.4244 183.987 31.4069 183.515 32.7223C183.011 34.1235 181.205 35.0961 181.417 32.7553C181.628 30.4145 180.545 30.6255 179.46 31.331Z" fill="#19193B"/>
<path d="M193.01 39.9574C189.67 39.7101 188.607 45.1665 186.08 45.8621C184.549 46.2841 184.03 43.5543 183.908 43.2246C183.294 43.7208 182.815 44.3653 182.519 45.0972C175.381 63.6917 190.769 99.5981 190.769 99.5981C190.769 99.5981 199.227 103.999 215.169 101.622C224.874 100.175 216.99 92.3911 216.221 90.2449C215.452 88.0986 201.23 46.4588 201.23 46.4588C201.23 46.4588 198.623 43.2345 193.01 39.9574Z" fill="white"/>
<path d="M230.876 113.786C225.685 118.161 218.132 115.167 213.786 112.174C209.658 109.322 209.229 102.155 206.595 95.2905C206.15 94.1365 205.628 92.92 205.001 91.6639L204.731 91.1265L204.483 90.6517C204.411 90.5133 204.338 90.3748 204.262 90.2396L203.932 89.6198C203.817 89.4187 203.695 89.2143 203.563 88.9967C203.474 88.8549 203.384 88.7098 203.289 88.5615C200.82 84.6679 196.029 78.862 193.884 73.9892C193.693 73.5508 193.521 73.1188 193.376 72.6935L193.287 72.4298C193.26 72.3408 193.231 72.2518 193.204 72.1661C193.108 71.8364 193.016 71.5067 192.927 71.177C192.904 71.0847 192.884 70.9956 192.861 70.9033C192.082 67.5214 191.698 64.0609 191.716 60.5907C191.718 60.5798 191.718 60.5686 191.716 60.5577C191.716 59.3807 191.716 58.207 191.769 57.0498C192.066 49.1801 193.419 42.1512 193.141 40.0312C193.141 40.0312 195.877 40.4598 203.256 45.5634C206.358 47.7097 212.037 54.3694 213.486 59.8851C213.957 61.6852 214.393 63.4359 214.805 65.1272C216.37 71.5495 217.634 77.1015 219.455 81.2457C221.818 86.6361 221.785 92.5738 227.124 98.495C229.998 101.667 235.179 110.156 230.876 113.786Z" fill="#0069AB"/>
<path d="M179.054 66.5606C180.067 69.3234 181.727 74.6413 182.75 78.3734C184.014 82.989 184.07 85.9364 184.248 87.7827C184.648 91.9665 185.743 97.2909 188.178 100.95C190.789 104.867 192.284 103.628 193.851 101.494C196.534 97.8382 193.521 90.1795 189.937 79.5734C186.535 69.4784 182.602 63.8704 181.909 55.0973C181.613 51.0381 182.299 46.9674 183.908 43.2285C173.804 48.9552 178.487 65.0144 179.054 66.5606Z" fill="#0069AB"/>
<path d="M156.75 100.109C154.525 100.917 155.449 99.7104 152.687 101.168C150.015 102.579 146.913 103.512 144.398 104.24C142.233 104.87 137.798 106.515 136.937 109.535C136.148 112.255 141.834 109.334 143.576 109.337C148.272 109.337 144.236 110.729 146.097 111.708C147.959 112.687 148.737 110.34 153.592 108.411C156.509 107.25 158.066 107.59 159.093 106.733C160.119 105.876 156.75 100.109 156.75 100.109Z" fill="#EFAEA6"/>
<path opacity="0.18" d="M207.684 98.445C207.242 97.2878 205.628 92.9194 205.001 91.6468L204.731 91.1094L204.483 90.6347C204.411 90.4962 204.338 90.3577 204.262 90.2225L203.932 89.6027C203.817 89.4016 203.694 89.1972 203.562 88.9796C203.473 88.8378 203.384 88.6928 203.289 88.5444C200.82 84.6508 196.029 78.845 193.884 73.9721L193.801 70.1774L202.559 64.6914C206.671 75.6536 208.572 98.5736 207.684 98.445Z" fill="#0A0A0A"/>
<path opacity="0.18" d="M179.054 66.5606C180.067 69.3234 181.727 74.6413 182.75 78.3734C184.014 82.989 184.07 85.9364 184.248 87.7827C184.648 91.9665 185.743 97.2909 188.178 100.95C190.789 104.867 192.284 103.628 193.851 101.494C196.534 97.8382 193.521 90.1795 189.937 79.5734C186.535 69.4784 182.602 63.8704 181.909 55.0973C181.613 51.0381 182.299 46.9674 183.908 43.2285C173.804 48.9552 178.487 65.0144 179.054 66.5606Z" fill="#0A0A0A"/>
<path d="M182.327 85.4284C180.459 89.9287 150.856 99.9974 149.823 100.828C149.051 101.451 153.473 108.886 156.324 108.411C158.667 108.022 187.614 103.832 193.283 92.2925C196.253 86.2493 203.414 61.7435 206.46 54.5662C209.505 47.3889 192.31 46.3866 192.742 53.2277C192.851 54.9124 183.241 83.2195 182.327 85.4284Z" fill="#006BAF"/>
<path opacity="0.18" d="M186.934 47.0127C187.192 46.8347 189.904 51.879 193.435 53.4878C194.412 53.9526 195.47 54.2204 196.55 54.2758C199.735 54.3912 206.384 53.3395 210.486 53.6164C209.776 52.2647 208.932 51.6383 208.024 49.9602C205.968 48.8887 198.504 51.2031 196.837 51.0547C195.636 50.9367 194.459 50.64 193.346 50.1745C191.483 49.3682 189.754 48.2831 188.218 46.9567C187.558 46.3929 187.423 45.5127 186.624 45.4962C185.562 45.483 186.608 47.2402 186.934 47.0127Z" fill="#1F1F3B"/>
<path d="M185.307 46.0014C185.309 45.8219 185.348 45.6447 185.422 45.4807C185.495 45.3167 185.601 45.1693 185.733 45.0477C185.865 44.9261 186.021 44.8327 186.191 44.7734C186.36 44.714 186.54 44.6899 186.719 44.7025C187.518 44.7189 187.591 45.0321 188.267 45.6058C190.303 47.307 193.336 49.3873 196.887 49.7038C200.437 50.0203 208.436 45.2168 213.716 46.252C218.996 47.2872 220.672 51.9589 228.266 53.0205C235.859 54.0821 243.943 50.7292 246.184 51.0688C248.425 51.4083 249.788 51.8732 249.748 52.7568C249.708 53.6403 248.626 55.1239 247.069 55.7833C245.511 56.4427 231.704 57.6428 228.044 57.2208C222.072 56.535 216.844 51.26 213 50.9929C209.156 50.7259 201.12 53.0799 196.609 52.915C191.587 52.7337 187.389 46.9806 187.063 47.1982C186.892 47.3512 186.686 47.4587 186.462 47.5105C186.239 47.5624 186.006 47.557 185.786 47.4949C185.34 47.3927 185.284 46.5059 185.307 46.0014Z" fill="#F9B901"/>
<path d="M335.483 188.216L335.464 188.456C335.464 188.573 335.454 188.683 335.434 188.786C335.417 188.987 335.398 189.185 335.375 189.386C335.375 189.511 335.348 189.633 335.332 189.755C335.312 189.933 335.289 190.108 335.266 190.286C335.266 190.365 335.243 190.448 335.229 190.527C335.203 190.718 335.173 190.906 335.144 191.094C335.124 191.222 335.104 191.348 335.081 191.476L335.012 191.855C335.012 191.918 334.988 191.981 334.975 192.043C334.962 192.106 334.952 192.172 334.939 192.235C334.909 192.37 334.883 192.505 334.853 192.64C334.823 192.775 334.777 192.996 334.734 193.171C334.708 193.29 334.678 193.408 334.649 193.527C334.606 193.712 334.556 193.896 334.51 194.081L334.46 194.262C334.424 194.391 334.391 194.519 334.355 194.648L334.256 194.978C334.256 195.04 334.22 195.103 334.2 195.166C334.18 195.228 334.163 195.284 334.147 195.347V195.367L334.038 195.696L333.979 195.874C333.959 195.934 333.942 195.996 333.919 196.056C333.86 196.234 333.8 196.412 333.738 196.59C333.715 196.646 333.695 196.709 333.672 196.765C333.546 197.121 333.411 197.47 333.272 197.816L333.203 197.991C333.18 198.047 333.157 198.106 333.131 198.162C332.922 198.668 332.702 199.166 332.471 199.656C332.421 199.755 332.388 199.827 332.368 199.864C332.369 199.873 332.369 199.883 332.368 199.893L332.256 200.121C331.43 201.785 330.458 203.372 329.352 204.865C328.899 205.474 328.425 206.067 327.93 206.645C327.465 207.186 326.983 207.714 326.481 208.218C325.515 209.199 324.485 210.114 323.396 210.958C323.006 211.261 322.604 211.554 322.198 211.841C320.987 212.687 319.716 213.445 318.396 214.109C317.763 214.426 317.118 214.719 316.463 214.99C313.24 216.327 309.806 217.086 306.319 217.232L297.224 216.213C284.387 212.712 274.811 200.803 274.527 186.452C274.527 186.363 274.527 186.274 274.527 186.188C274.437 179.937 276.184 173.797 279.55 168.527C282.656 163.648 287.069 159.737 292.287 157.238C292.924 156.938 293.574 156.655 294.238 156.397C298.775 154.63 303.676 154 308.514 154.564C313.351 155.128 317.976 156.868 321.983 159.632C323.051 160.366 324.072 161.166 325.039 162.029C329.249 165.79 332.37 170.612 334.078 175.991C335.023 178.962 335.532 182.055 335.589 185.173C335.589 186.212 335.554 187.227 335.483 188.216Z" fill="#8CC9DA"/>
<path d="M306.253 154.43C307.091 154.463 307.921 154.531 308.741 154.634" stroke="white" stroke-width="1.23" stroke-miterlimit="10" stroke-linecap="round"/>
<path d="M321.954 159.679L305.032 185.853L292.258 157.286C296.983 155.045 302.215 154.086 307.429 154.507C312.642 154.927 317.653 156.711 321.957 159.679H321.954Z" fill="#3B3B4D"/>
<path d="M335.566 186.114C335.46 199.196 327.6 210.376 316.486 215.011C312.015 216.872 307.158 217.615 302.334 217.177C297.511 216.738 292.868 215.131 288.806 212.495C287.307 211.521 285.896 210.418 284.589 209.199L284.467 209.083C280.393 205.257 277.408 200.42 275.818 195.065C274.934 192.074 274.49 188.971 274.498 185.853C274.498 184.84 274.544 183.841 274.636 182.856C274.636 182.777 274.636 182.695 274.659 182.616C274.682 182.537 274.682 182.385 274.696 182.286C274.715 182.085 274.739 181.884 274.765 181.686L274.828 181.294L274.907 180.766L274.946 180.525C274.976 180.334 275.012 180.146 275.045 179.962C275.069 179.836 275.095 179.708 275.118 179.583L275.197 179.203C275.197 179.141 275.224 179.078 275.237 179.015L275.276 178.828C275.306 178.692 275.336 178.557 275.369 178.422L275.498 177.895C275.527 177.776 275.557 177.657 275.59 177.538C275.639 177.357 275.689 177.173 275.742 176.991C275.742 176.929 275.778 176.869 275.795 176.807C275.831 176.681 275.867 176.553 275.907 176.427C275.946 176.302 275.976 176.2 276.012 176.098L276.072 175.913L276.131 175.732V175.712C276.167 175.6 276.207 175.488 276.243 175.382C276.266 175.323 276.286 175.264 276.306 175.204C276.326 175.145 276.349 175.086 276.369 175.026C276.431 174.848 276.497 174.67 276.563 174.495C276.587 174.436 276.61 174.38 276.629 174.321C276.765 173.968 276.907 173.622 277.052 173.276C277.075 173.22 277.101 173.163 277.124 173.104C277.147 173.045 277.174 172.989 277.2 172.933C277.42 172.436 277.651 171.944 277.893 171.456L277.999 171.248V171.222C278.035 171.146 278.075 171.07 278.114 170.994L305.025 185.873H306.655L323.485 186.018L335.566 186.114Z" fill="#0B75AA"/>
<path d="M305.032 185.852L288.806 212.494C287.307 211.52 285.896 210.416 284.589 209.197C280.453 205.354 277.425 200.473 275.818 195.063C274.934 192.073 274.49 188.97 274.498 185.852C274.498 184.839 274.544 183.84 274.636 182.855C274.636 182.776 274.636 182.693 274.659 182.614C274.682 182.535 274.682 182.384 274.696 182.285C274.715 182.084 274.739 181.882 274.765 181.685L274.828 181.292L274.907 180.765L274.946 180.524C274.976 180.333 275.012 180.145 275.045 179.96C275.069 179.835 275.095 179.706 275.118 179.581L275.197 179.202C275.197 179.139 275.224 179.077 275.237 179.014L275.276 178.826C275.306 178.691 275.336 178.556 275.369 178.421L275.498 177.893C275.527 177.774 275.557 177.656 275.59 177.537C275.639 177.356 275.689 177.171 275.742 176.99C275.742 176.927 275.778 176.868 275.795 176.805C275.831 176.68 275.867 176.551 275.907 176.426C275.946 176.301 275.976 176.199 276.012 176.096L276.072 175.912L276.131 175.73V175.711C276.167 175.599 276.207 175.486 276.243 175.381C276.266 175.322 276.286 175.262 276.306 175.203C276.326 175.144 276.349 175.084 276.369 175.025C276.431 174.847 276.497 174.669 276.563 174.494C276.587 174.435 276.61 174.379 276.629 174.319C276.765 173.967 276.907 173.62 277.052 173.274C277.075 173.218 277.101 173.162 277.124 173.103C277.147 173.043 277.174 172.987 277.2 172.931C277.42 172.435 277.651 171.942 277.893 171.454L277.999 171.247C277.999 171.247 277.999 171.23 277.999 171.22C278.035 171.144 278.075 171.069 278.114 170.993C278.973 169.348 279.975 167.782 281.111 166.314C281.577 165.71 282.063 165.125 282.569 164.561L305.032 185.852Z" fill="#C62020"/>
<path d="M305.032 185.852L279.52 168.573C282.626 163.694 287.039 159.783 292.258 157.284C292.895 156.984 293.545 156.701 294.208 156.443L305.032 185.852Z" fill="#F4AA08"/>
<path d="M316.486 215.011C312.015 216.871 307.158 217.615 302.334 217.176C297.511 216.738 292.868 215.131 288.806 212.495C287.307 211.521 285.896 210.418 284.589 209.198L284.467 209.083L305.032 185.84L316.486 215.011Z" fill="#419F81"/>
<path d="M300.666 217.024C303.806 217.45 306.993 217.398 310.117 216.869C312.285 216.495 314.405 215.88 316.436 215.036C317.096 214.766 317.741 214.471 318.37 214.153C319.691 213.491 320.961 212.734 322.172 211.888C322.581 211.6 322.98 211.305 323.369 211.004C324.458 210.161 325.489 209.246 326.455 208.265C326.956 207.757 327.439 207.233 327.904 206.692C328.399 206.116 328.873 205.523 329.326 204.912C330.432 203.419 331.404 201.831 332.23 200.167L332.342 199.937V199.907C332.362 199.871 332.395 199.798 332.444 199.699C332.677 199.207 332.897 198.709 333.104 198.206L333.177 198.034L333.246 197.86C333.385 197.53 333.52 197.164 333.649 196.808C333.669 196.749 333.688 196.692 333.711 196.633C333.774 196.455 333.834 196.277 333.893 196.099C333.916 196.04 333.933 195.98 333.952 195.918L334.012 195.74L334.121 195.41C334.121 195.41 334.121 195.41 334.121 195.39C334.14 195.328 334.16 195.268 334.177 195.209C334.193 195.15 334.216 195.084 334.233 195.021L334.332 194.691C334.368 194.563 334.404 194.437 334.437 194.309L334.487 194.124C334.533 193.94 334.583 193.755 334.625 193.57C334.655 193.452 334.685 193.333 334.711 193.214C334.754 193.036 334.794 192.861 334.83 192.683C334.866 192.505 334.886 192.413 334.916 192.278C334.916 192.212 334.939 192.149 334.952 192.087C334.965 192.024 334.975 191.961 334.989 191.899L335.058 191.52C335.081 191.394 335.101 191.266 335.12 191.137C335.15 190.949 335.18 190.761 335.206 190.57C335.206 190.491 335.229 190.409 335.243 190.329C335.266 190.155 335.289 189.977 335.309 189.799C335.325 189.677 335.338 189.555 335.351 189.429C335.375 189.232 335.394 189.03 335.411 188.829C335.411 188.714 335.431 188.599 335.441 188.5L335.46 188.259C335.531 187.27 335.556 186.271 335.536 185.262C335.479 182.145 334.97 179.052 334.025 176.08C332.317 170.702 329.196 165.88 324.986 162.118C319.343 157.044 311.979 154.305 304.388 154.459C287.611 154.812 274.27 169.032 274.474 186.278C274.474 186.363 274.474 186.452 274.474 186.541C274.758 200.893 284.338 212.798 297.171 216.302C298.132 216.517 300.666 217.024 300.666 217.024Z" stroke="white" stroke-width="2" stroke-miterlimit="10"/>
<path d="M322.515 162.386L322.343 162.316L322.455 162.363L322.515 162.386Z" fill="#8CC9DA"/>
<path d="M323.809 170.198C323.809 170.198 330.059 163.75 331.068 163.819C332.078 163.888 335.754 163.819 335.754 163.819" stroke="#586063" stroke-width="1.11" stroke-linecap="round" stroke-linejoin="round"/>
<path d="M326.472 204.816C326.528 207.319 326.752 212.01 326.752 212.01H329.369" stroke="#586063" stroke-width="1.11" stroke-linecap="round" stroke-linejoin="round"/>
<path d="M280.688 187.029C279.292 187.741 272.108 190.257 272.108 190.257H267.657" stroke="#586063" stroke-width="1.11" stroke-linecap="round" stroke-linejoin="round"/>
<path opacity="0.76" d="M337.49 163.361H343.988C344.215 163.361 344.4 163.473 344.4 163.612V164.35C344.4 164.489 344.215 164.601 343.988 164.601H337.49C337.262 164.601 337.078 164.489 337.078 164.35V163.612C337.078 163.49 337.262 163.361 337.49 163.361Z" fill="#3B3B4D"/>
<path opacity="0.76" d="M259.17 189.535H265.588C265.812 189.535 265.994 189.67 265.994 189.835V190.706C265.994 190.87 265.812 191.006 265.588 191.006H259.18C258.955 191.006 258.77 190.87 258.77 190.706V189.835C258.76 189.657 258.945 189.535 259.17 189.535Z" fill="#3B3B4D"/>
<path opacity="0.76" d="M248.207 189.535H252.124C252.192 189.539 252.255 189.57 252.3 189.621C252.345 189.671 252.369 189.738 252.365 189.806V190.735C252.369 190.803 252.345 190.869 252.3 190.92C252.255 190.971 252.192 191.001 252.124 191.006H248.207C248.139 191.001 248.076 190.971 248.031 190.92C247.986 190.869 247.963 190.803 247.966 190.735V189.806C247.963 189.738 247.986 189.671 248.031 189.621C248.076 189.57 248.139 189.539 248.207 189.535Z" fill="#3B3B4D"/>
<path opacity="0.76" d="M257.414 189.792V190.722C257.414 190.87 257.252 190.992 257.051 190.992H253.645C253.444 190.992 253.282 190.87 253.282 190.722V189.792C253.282 189.643 253.444 189.521 253.645 189.521H257.051C257.252 189.535 257.414 189.643 257.414 189.792Z" fill="#3B3B4D"/>
<path opacity="0.76" d="M346.347 163.404H349.647C349.704 163.408 349.758 163.433 349.796 163.476C349.834 163.519 349.854 163.575 349.851 163.632V164.42C349.854 164.477 349.834 164.533 349.796 164.575C349.758 164.618 349.704 164.644 349.647 164.647H346.347C346.29 164.644 346.236 164.618 346.198 164.575C346.16 164.533 346.14 164.477 346.142 164.42V163.632C346.14 163.575 346.16 163.519 346.198 163.476C346.236 163.433 346.29 163.408 346.347 163.404Z" fill="#3B3B4D"/>
<path opacity="0.76" d="M354.135 163.632V164.42C354.135 164.545 353.996 164.647 353.825 164.647H350.947C350.779 164.647 350.64 164.545 350.64 164.42V163.632C350.64 163.507 350.779 163.404 350.947 163.404H353.825C353.996 163.404 354.135 163.507 354.135 163.632Z" fill="#3B3B4D"/>
<path d="M291.496 209.742C289.994 210.369 284.457 212.08 284.457 212.08" stroke="#586063" stroke-width="1.11" stroke-linecap="round" stroke-linejoin="round"/>
<path opacity="0.76" d="M279.715 211.789V212.567C279.715 212.689 279.85 212.788 280.018 212.788H282.853C283.021 212.788 283.157 212.689 283.157 212.567V211.789C283.157 211.667 283.021 211.568 282.853 211.568H280.018C279.85 211.568 279.715 211.667 279.715 211.789Z" fill="#3B3B4D"/>
<path opacity="0.76" d="M278.24 211.525H272.904C272.716 211.525 272.574 211.637 272.574 211.776V212.501C272.574 212.636 272.726 212.749 272.904 212.749H278.24C278.428 212.749 278.57 212.636 278.57 212.501V211.776C278.58 211.624 278.428 211.525 278.24 211.525Z" fill="#3B3B4D"/>
<path opacity="0.76" d="M269.94 211.525H264.991C264.822 211.525 264.687 211.628 264.687 211.75V212.528C264.687 212.65 264.822 212.749 264.991 212.749H269.94C270.109 212.749 270.244 212.65 270.244 212.528V211.75C270.244 211.624 270.109 211.525 269.94 211.525Z" fill="#3B3B4D"/>
<path d="M302.042 158.27L292.541 148.996L288.964 149.013" stroke="#586063" stroke-width="1.15" stroke-linecap="round" stroke-linejoin="round"/>
<path opacity="0.76" d="M283.714 148.096V149.026C283.728 149.102 283.769 149.172 283.83 149.221C283.89 149.271 283.966 149.297 284.044 149.296H287.209C287.288 149.302 287.367 149.277 287.428 149.226C287.489 149.176 287.529 149.104 287.539 149.026V148.096C287.529 148.017 287.489 147.945 287.428 147.895C287.367 147.845 287.288 147.82 287.209 147.825H284.067C283.985 147.818 283.904 147.842 283.838 147.892C283.773 147.942 283.729 148.015 283.714 148.096Z" fill="#3B3B4D"/>
<path opacity="0.76" d="M281.216 147.826H275.254C275.164 147.817 275.074 147.843 275.003 147.899C274.932 147.955 274.886 148.037 274.874 148.126V148.983C274.886 149.073 274.932 149.154 275.003 149.21C275.074 149.267 275.164 149.293 275.254 149.283H281.216C281.306 149.293 281.396 149.267 281.467 149.21C281.538 149.154 281.584 149.073 281.596 148.983V148.126C281.584 148.037 281.538 147.955 281.467 147.899C281.396 147.843 281.306 147.817 281.216 147.826Z" fill="#3B3B4D"/>
<path opacity="0.76" d="M273.838 147.827H268.327C268.248 147.821 268.17 147.846 268.108 147.896C268.047 147.947 268.007 148.019 267.997 148.097V149.03C268.008 149.108 268.048 149.18 268.109 149.229C268.17 149.279 268.248 149.303 268.327 149.297H273.838C273.917 149.303 273.995 149.279 274.056 149.229C274.117 149.18 274.157 149.108 274.168 149.03V148.097C274.158 148.019 274.118 147.947 274.057 147.896C273.995 147.846 273.917 147.821 273.838 147.827Z" fill="#3B3B4D"/>
<path d="M285.298 167.439L280.075 163.578H275.075" stroke="#586063" stroke-width="1.11" stroke-linecap="round" stroke-linejoin="round"/>
<path opacity="0.76" d="M256.384 162.988H261.529C261.707 162.988 261.859 163.097 261.859 163.229V163.928C261.859 164.06 261.71 164.169 261.529 164.169H256.384C256.203 164.169 256.054 164.06 256.054 163.928V163.229C256.057 163.097 256.203 162.988 256.384 162.988Z" fill="#3B3B4D"/>
<path opacity="0.76" d="M264.209 162.988H268.967C269.129 162.988 269.261 163.084 269.261 163.206V163.951C269.261 164.073 269.129 164.169 268.967 164.169H264.209C264.047 164.169 263.915 164.073 263.915 163.951V163.206C263.915 163.084 264.047 162.988 264.209 162.988Z" fill="#3B3B4D"/>
<path opacity="0.76" d="M273.178 163.206V163.951C273.178 164.07 273.046 164.169 272.884 164.169H270.152C269.99 164.169 269.858 164.07 269.858 163.951V163.206C269.858 163.084 269.99 162.988 270.152 162.988H272.884C273.029 162.988 273.178 163.084 273.178 163.206Z" fill="#3B3B4D"/>
<path opacity="0.76" d="M341.156 211.295H346.766C346.961 211.295 347.119 211.41 347.119 211.555V212.314C347.119 212.459 346.961 212.574 346.766 212.574H341.156C340.962 212.574 340.803 212.459 340.803 212.314V211.555C340.826 211.414 340.975 211.295 341.156 211.295Z" fill="#3B3B4D"/>
<path opacity="0.76" d="M331.623 211.295H335.035C335.064 211.297 335.092 211.304 335.118 211.317C335.145 211.329 335.168 211.347 335.187 211.369C335.207 211.391 335.221 211.416 335.231 211.443C335.24 211.471 335.244 211.5 335.243 211.529V212.34C335.244 212.369 335.24 212.398 335.231 212.426C335.221 212.453 335.207 212.478 335.187 212.5C335.168 212.522 335.145 212.54 335.118 212.552C335.092 212.565 335.064 212.572 335.035 212.574H331.623C331.564 212.571 331.508 212.544 331.469 212.5C331.429 212.457 331.409 212.399 331.411 212.34V211.529C331.409 211.47 331.429 211.412 331.469 211.369C331.508 211.325 331.564 211.298 331.623 211.295Z" fill="#3B3B4D"/>
<path opacity="0.76" d="M339.642 211.531V212.342C339.642 212.471 339.5 212.576 339.312 212.576H336.342C336.164 212.576 336.012 212.471 336.012 212.342V211.531C336.012 211.402 336.154 211.297 336.342 211.297H339.312C339.506 211.294 339.642 211.402 339.642 211.531Z" fill="#3B3B4D"/>
<path d="M305.685 203.152C315.153 203.152 322.828 195.549 322.828 186.17C322.828 176.791 315.153 169.188 305.685 169.188C296.217 169.188 288.542 176.791 288.542 186.17C288.542 195.549 296.217 203.152 305.685 203.152Z" fill="#F7F7F7"/>
<path d="M506.311 269.072C506.311 269.072 486 289.289 483.716 289.704C482.578 289.912 468.345 303.221 464.96 304.408C462.108 305.397 445.754 297.749 441.771 297.993C440.197 298.091 421.434 316.669 421.434 316.669C421.434 316.669 397.674 325.683 396.39 326.768C394.665 328.215 376.769 348.432 376.769 348.432L348.72 356.285" stroke="#419671" stroke-width="8.71" stroke-linecap="round" stroke-linejoin="round"/>
<path d="M378.6 352.37C381.336 351.49 382.84 348.561 381.96 345.828C381.079 343.095 378.148 341.592 375.412 342.472C372.676 343.351 371.172 346.28 372.052 349.014C372.933 351.747 375.864 353.25 378.6 352.37Z" fill="#419671"/>
<path d="M379.804 349.215C380.768 347.68 380.304 345.655 378.768 344.692C377.232 343.729 375.205 344.193 374.241 345.727C373.278 347.262 373.741 349.287 375.277 350.25C376.813 351.213 378.84 350.749 379.804 349.215Z" fill="white"/>
<path d="M398.779 331.082C401.2 329.535 401.908 326.32 400.359 323.901C398.811 321.482 395.592 320.775 393.171 322.322C390.75 323.869 390.042 327.084 391.591 329.503C393.139 331.922 396.357 332.629 398.779 331.082Z" fill="#419671"/>
<path d="M399.179 327.448C399.041 328.086 398.717 328.67 398.247 329.124C397.776 329.578 397.182 329.883 396.538 329.999C395.895 330.114 395.231 330.037 394.632 329.775C394.032 329.514 393.524 329.08 393.172 328.529C392.82 327.979 392.64 327.336 392.654 326.683C392.668 326.03 392.876 325.395 393.251 324.86C393.627 324.326 394.153 323.914 394.763 323.679C395.373 323.443 396.039 323.394 396.677 323.538C397.526 323.728 398.265 324.246 398.733 324.978C399.202 325.711 399.362 326.598 399.179 327.448Z" fill="white"/>
<path d="M426.592 317.159C427.055 314.325 425.131 311.653 422.294 311.19C419.458 310.728 416.783 312.65 416.32 315.484C415.857 318.318 417.781 320.99 420.617 321.453C423.454 321.915 426.129 319.993 426.592 317.159Z" fill="#419671"/>
<path d="M424.029 318.365C425.161 316.949 424.931 314.885 423.515 313.754C422.098 312.623 420.032 312.853 418.9 314.268C417.768 315.683 417.998 317.747 419.414 318.878C420.831 320.01 422.897 319.78 424.029 318.365Z" fill="white"/>
<path d="M444.013 302.707C446.434 301.16 447.142 297.945 445.593 295.526C444.045 293.107 440.827 292.4 438.406 293.947C435.984 295.494 435.277 298.709 436.825 301.128C438.374 303.547 441.592 304.254 444.013 302.707Z" fill="#419671"/>
<path d="M444.414 299.075C444.277 299.713 443.952 300.297 443.482 300.751C443.012 301.205 442.417 301.51 441.774 301.625C441.13 301.741 440.466 301.664 439.867 301.402C439.268 301.14 438.76 300.707 438.408 300.156C438.055 299.606 437.875 298.963 437.889 298.31C437.903 297.657 438.111 297.022 438.487 296.487C438.862 295.953 439.388 295.541 439.998 295.306C440.608 295.07 441.275 295.021 441.913 295.164C442.334 295.257 442.733 295.432 443.087 295.678C443.44 295.925 443.742 296.239 443.974 296.602C444.207 296.965 444.365 297.37 444.44 297.794C444.516 298.219 444.507 298.654 444.414 299.075Z" fill="white"/>
<path d="M469.014 305.39C469.693 302.6 467.98 299.788 465.187 299.109C462.394 298.431 459.58 300.142 458.901 302.932C458.222 305.723 459.935 308.534 462.727 309.213C465.52 309.892 468.335 308.18 469.014 305.39Z" fill="#419671"/>
<path d="M466.731 305.922C467.695 304.387 467.231 302.362 465.695 301.399C464.159 300.436 462.133 300.9 461.169 302.434C460.205 303.969 460.668 305.994 462.204 306.957C463.74 307.92 465.767 307.456 466.731 305.922Z" fill="white"/>
<path d="M486.284 293.84C488.705 292.293 489.412 289.078 487.864 286.659C486.316 284.24 483.097 283.533 480.676 285.08C478.255 286.627 477.547 289.842 479.096 292.261C480.644 294.68 483.862 295.387 486.284 293.84Z" fill="#419671"/>
<path d="M486.683 290.205C486.545 290.844 486.221 291.428 485.75 291.882C485.28 292.336 484.686 292.64 484.042 292.756C483.398 292.872 482.735 292.794 482.136 292.533C481.536 292.271 481.028 291.838 480.676 291.287C480.324 290.737 480.143 290.094 480.158 289.441C480.172 288.788 480.38 288.153 480.755 287.618C481.131 287.083 481.657 286.672 482.267 286.437C482.877 286.201 483.543 286.152 484.181 286.295C485.03 286.486 485.769 287.004 486.237 287.736C486.706 288.469 486.866 289.356 486.683 290.205Z" fill="white"/>
</g>
<defs>
<clipPath id="clip0_25_24716">
<rect width="672" height="481" fill="white"/>
</clipPath>
</defs>
</svg>
